<svg width="205" height="175" viewBox="0 0 205 175" fill="none" xmlns="http://www.w3.org/2000/svg">
<path d="M149.806 166.804C148.788 165.85 147.287 163.663 146.572 162.426C146.559 162.404 146.545 162.382 146.532 162.359C146.359 162.069 146.193 161.792 146.004 161.469C145.555 160.696 144.945 159.65 143.878 157.397C143.548 156.754 143.225 156.105 142.911 155.456C141.68 152.912 140.54 150.336 139.434 147.758C137.527 143.361 135.145 139.08 132.55 134.972C132.497 134.893 132.443 134.811 132.388 134.729C131.328 133.136 129.946 131.202 129.092 129.98C128.009 128.425 127.246 127.376 126.622 126.525C123.33 122.281 119.714 118.281 115.747 114.65C115.234 114.181 114.706 113.708 114.181 113.247C112.745 111.985 111.28 110.755 109.801 109.53C108.442 108.404 107.071 107.284 105.704 106.158C104.894 105.518 104.122 104.912 103.408 104.344C102.405 103.547 101.517 102.826 100.8 102.208C99.0703 100.725 97.2057 98.9184 95.9063 97.4589C95.689 97.2164 95.499 96.9982 95.3126 96.7797C95.2083 96.6635 95.106 96.5477 95.0057 96.4325C94.0801 95.3674 93.2484 94.2394 92.474 93.0825C92.4257 92.991 92.3777 92.8982 92.3291 92.8037C91.728 91.626 90.894 90.2488 89.7183 88.0195C89.207 87.0489 88.6337 85.9156 87.9903 84.5719C87.5758 83.7055 87.4105 83.2398 87.2741 82.8588C87.2341 82.7468 87.1966 82.6419 87.1568 82.5371C87.0192 82.1755 86.8141 81.8248 86.5719 81.411C86.3472 81.0272 86.0901 80.5879 85.8253 80.0396C85.7171 79.8154 85.6119 79.581 85.5041 79.3175C84.3212 76.4016 83.6308 75.2078 83.0913 74.3152C82.9336 74.0528 82.7903 73.8163 82.6531 73.5695C82.2093 72.7684 81.6561 71.5944 81.2372 70.7053C80.9085 69.9961 80.0957 68.6709 79.4179 67.7026C79.165 67.3386 78.8398 66.8255 78.45 66.2352C78.0455 65.6224 77.566 64.9188 77.0179 64.1905C76.9355 64.0809 76.8544 63.9736 76.7747 63.8687L76.7662 63.8567C75.5314 62.17 74.8808 61.2021 74.3563 60.4161C74.1944 60.1721 74.0521 59.9554 73.9036 59.7265C73.4414 59.0149 72.8925 58.1245 72.3591 57.1919C71.7214 56.0818 71.1205 54.9209 70.6859 54.0197C70.2148 52.9401 69.7968 51.8205 69.4411 50.7059L69.4459 50.72C69.0201 49.4403 68.5569 48.1869 68.0506 46.9389C67.5738 45.7605 67.1671 44.6006 66.9503 43.7025C66.7322 42.8025 66.7258 42.2425 66.9477 42.133C67.1713 42.029 67.608 42.3836 68.1617 43.1383C68.7137 43.8908 69.3321 44.9801 69.8583 46.1745C70.4154 47.4358 70.9397 48.733 71.4123 50.029L71.4164 50.0409C71.8146 51.1756 72.2648 52.2745 72.7793 53.3598C74.0988 56.1385 75.7522 58.7949 77.4896 61.3959C77.7875 61.8407 78.0873 62.2812 78.396 62.7282L78.3861 62.7141C79.3722 64.0937 80.3136 65.5051 81.1963 66.9569C81.3154 67.1527 81.4365 67.3544 81.5539 67.5524C82.5807 69.1403 83.5146 70.7864 84.1267 71.9603C84.6332 72.9299 84.9472 73.6596 85.2151 74.283C85.3994 74.7128 85.56 75.0912 85.7405 75.4671C85.837 75.6678 85.9716 75.9445 86.1313 76.273C86.498 77.0268 87.0029 78.0684 87.552 79.2079C87.9894 80.1155 88.442 81.0896 88.8601 82.0245C89.2807 82.9651 89.7512 84.0609 90.2133 85.0997C90.8718 86.5859 91.5227 87.9503 91.9089 88.6062C92.583 89.7604 93.3309 91.091 94.0477 92.2261C94.729 93.3122 95.3829 94.2162 95.8097 94.6823C95.9973 94.8882 96.1728 95.0874 96.3476 95.2893C96.6438 95.6307 96.9541 96.0021 97.3551 96.4572C97.8013 96.9623 98.3545 97.5662 99.1608 98.3549C100.093 99.2643 100.755 99.9058 101.321 100.452C102.119 101.219 102.729 101.791 103.712 102.556C104.803 103.405 105.939 104.3 106.803 105.044C107.197 105.382 107.656 105.759 108.135 106.151C108.768 106.67 109.436 107.216 110.027 107.734C110.516 108.163 110.899 108.542 111.237 108.877C111.342 108.982 111.444 109.083 111.543 109.179C111.94 109.51 112.339 109.842 112.735 110.172C112.804 110.22 112.877 110.271 112.954 110.323C113.335 110.587 113.804 110.912 114.356 111.349C115.23 112.041 115.949 112.705 116.701 113.418C116.729 113.445 116.757 113.472 116.785 113.499C117.346 114.033 117.918 114.588 118.588 115.214C119.065 115.66 119.616 116.168 120.153 116.674C120.953 117.428 121.727 118.188 122.233 118.748C122.422 118.958 122.564 119.153 122.708 119.351C122.708 119.351 122.709 119.352 122.71 119.353C122.719 119.367 122.729 119.38 122.739 119.393C124.005 120.717 125.241 122.078 126.441 123.466C126.549 123.583 126.657 123.701 126.764 123.818C127.294 124.397 127.791 124.955 128.143 125.313C128.52 125.697 129.379 126.729 130.259 127.845C130.834 128.572 131.417 129.332 131.902 129.957C132.183 130.319 132.407 130.69 132.639 131.078C132.853 131.438 133.068 131.804 133.341 132.19C133.476 132.383 133.628 132.585 133.789 132.8C133.931 132.99 134.083 133.196 134.235 133.411C134.375 133.611 134.662 134.076 135.021 134.676C135.24 135.041 135.496 135.474 135.755 135.913C136.493 137.061 137.208 138.222 137.898 139.397C138.063 139.633 138.215 139.829 138.348 139.976C138.443 140.078 138.539 140.17 138.633 140.258C138.762 140.379 138.895 140.504 139.048 140.69C139.166 140.834 139.286 141.025 139.344 141.163C139.371 141.227 139.385 141.28 139.397 141.328C139.412 141.383 139.425 141.431 139.453 141.484C139.474 141.522 139.503 141.557 139.539 141.6C139.596 141.67 139.668 141.754 139.753 141.914C140.062 142.494 140.392 143.152 140.71 143.809C141.056 144.526 141.396 145.263 141.661 145.828C141.77 146.059 141.894 146.341 142.012 146.628C142.226 147.145 142.456 147.722 142.692 148.306C142.948 148.942 143.207 149.578 143.441 150.121C143.669 150.649 143.935 151.184 144.198 151.709C144.509 152.328 144.814 152.928 145.032 153.455C145.076 153.562 145.102 153.702 145.139 153.887C145.164 154.017 145.193 154.166 145.234 154.33C145.55 154.982 145.869 155.631 146.194 156.275C146.21 156.296 146.227 156.317 146.243 156.338C146.244 156.338 146.244 156.338 146.244 156.339C146.618 156.808 147.135 157.456 147.593 158.49C147.709 158.751 147.76 158.935 147.803 159.095C147.846 159.253 147.886 159.396 147.984 159.582C148.095 159.792 148.259 160.022 148.438 160.27C148.689 160.616 148.976 161.001 149.199 161.423C149.214 161.452 149.231 161.483 149.248 161.515C149.413 161.823 149.658 162.271 149.88 162.735C150.724 163.985 151.642 165.173 152.665 166.253C152.856 166.455 153.052 166.654 153.25 166.848C154.871 168.432 156.579 169.931 158.39 171.272C159.377 172.004 160.321 172.726 160.992 173.297C161.667 173.874 162.026 174.254 161.947 174.482C161.869 174.713 161.267 174.742 160.362 174.455C159.462 174.174 158.327 173.6 157.257 172.875C155.501 171.684 153.85 170.374 152.274 168.982C152.188 168.91 152.104 168.84 152.021 168.768C151.914 168.677 151.807 168.586 151.7 168.496C151.175 168.053 150.681 167.626 150.202 167.181C150.069 167.057 149.937 166.931 149.806 166.804Z" fill="#951415"/>
<path d="M125.96 139.258C125.62 138.974 125.231 138.629 124.799 138.232C123.363 136.911 121.55 135.147 120.436 134.078C120.41 134.053 120.383 134.028 120.357 134.003C120.01 133.669 119.688 133.366 119.299 133.003C118.379 132.147 117.142 130.974 114.548 128.575C113.776 127.896 112.999 127.222 112.217 126.556C109.691 124.397 107.089 122.336 104.448 120.267C98.8739 116.147 91.0392 114.945 83.8962 115.129C83.5362 115.149 83.1688 115.157 82.8113 115.156C82.6617 115.157 82.5093 115.157 82.355 115.156C79.3757 115.143 75.8607 114.355 73.7325 113.733C71.0203 112.941 69.2395 112.298 67.7738 111.81C65.5739 111.134 63.2763 110.334 61.259 110.309C55.0721 110.61 49.6921 115.015 43.9749 118.225C43.3548 118.57 42.7231 118.903 42.0645 119.205C41.7312 119.358 41.4058 119.509 41.1323 119.668C40.9973 119.746 40.8739 119.829 40.8006 119.895C40.7169 119.958 40.7526 120.004 40.779 119.824C40.689 120.839 41.4115 121.735 42.4328 122.429C44.4102 123.744 46.8977 124.513 49.3009 125.398C50.7189 125.888 52.0818 126.371 53.3276 126.922C54.6127 127.491 55.7877 128.137 56.7293 128.943C57.0281 129.198 57.3168 129.439 57.5924 129.665C60.0572 131.713 63.1245 133.71 65.5062 135.031C65.8949 135.249 66.2612 135.449 66.6076 135.634C68.5371 136.621 70.5142 137.518 72.5196 138.353C72.6491 138.419 72.784 138.487 72.915 138.553C74.0983 139.15 75.5118 139.751 77.4629 140.49C78.2441 140.785 79.1044 141.08 80.0878 141.372C81.5718 141.812 83.3138 142.238 85.4045 142.585C86.7507 142.805 87.4435 142.927 88.0102 143.032C88.1775 143.062 88.3343 143.09 88.493 143.114C89.0377 143.199 89.6189 143.214 90.3088 143.22C91.2012 143.227 92.2692 143.219 93.6836 143.31C98.1996 143.572 100.22 143.403 101.746 143.351C102.193 143.333 102.603 143.319 103.019 143.319C104.373 143.315 106.308 143.482 107.762 143.74C107.916 143.767 108.09 143.795 108.281 143.827C109.52 144.023 111.435 144.327 112.936 144.651C113.592 144.79 114.471 145.022 115.487 145.349C116.537 145.686 117.743 146.13 119.009 146.679C122.199 148.094 123.704 149.205 124.924 150.018C125.27 150.257 125.587 150.482 125.902 150.709C126.9 151.424 128.096 152.342 129.305 153.241C130.748 154.319 132.236 155.342 133.408 156.042C133.609 156.171 133.813 156.3 134.02 156.428L133.927 156.378C136.874 157.837 139.969 159.141 143.07 160.267C143.102 160.278 143.134 160.289 143.166 160.301C144.88 160.939 146.473 161.336 147.769 161.689C149.045 162.046 149.753 162.371 149.725 162.618C149.689 162.861 148.93 163.01 147.586 163.013C146.264 163.03 144.33 162.791 142.53 162.158C142.497 162.147 142.464 162.136 142.43 162.124C139.202 161.028 136.067 159.784 132.976 158.32L132.897 158.277C132.562 158.078 132.244 157.882 131.916 157.675C127.921 155.176 124.559 151.976 120.718 149.777C118.038 148.215 115.114 147.126 112.07 146.401C111.753 146.325 111.439 146.254 111.126 146.187C110.067 145.987 109.034 145.832 108.007 145.703C106.544 145.52 105.168 145.446 104.062 145.401C102.526 145.342 101.396 145.299 100.426 145.26C99.7581 145.235 99.1649 145.216 98.5628 145.217C98.239 145.217 97.798 145.22 97.2637 145.222C95.0878 145.231 91.3403 145.251 87.9207 144.823C86.4044 144.64 84.651 144.331 83.0019 143.931C80.6334 143.37 78.5076 142.609 77.4288 142.238C77.2483 142.177 77.0651 142.113 76.8797 142.046C75.1505 141.422 73.2834 140.651 71.6229 139.912C69.8793 139.139 68.3708 138.402 67.4983 138.02C66.4538 137.562 65.597 137.105 64.3416 136.379C63.4724 135.873 62.4172 135.244 61.0101 134.323C59.3918 133.259 58.3106 132.403 57.4157 131.659C56.7778 131.127 56.2332 130.646 55.6715 130.145C55.1782 129.705 54.5875 129.31 53.825 128.92C52.1034 128.046 50.1269 127.384 48.5845 126.797C47.8811 126.532 47.065 126.243 46.2148 125.925C45.0936 125.505 43.897 125.028 42.8532 124.455C41.9871 123.979 41.3079 123.47 40.7741 122.919C40.6079 122.748 40.4563 122.572 40.3183 122.39C39.7656 121.751 39.3701 120.851 39.3861 119.949C39.3829 119.882 39.3813 119.813 39.3816 119.741C39.3866 119.571 39.436 119.41 39.4994 119.281C40.0584 118.398 40.7032 118.223 41.4229 117.816C41.5536 117.75 41.6904 117.679 41.834 117.603C43.2087 116.873 44.4103 116.165 45.6894 115.41C46.6807 114.823 47.7155 114.193 48.8966 113.461C49.7033 112.961 50.6244 112.389 51.5603 111.849C52.9471 111.043 54.382 110.327 55.43 109.929C55.8198 109.779 56.1718 109.68 56.518 109.591C56.5196 109.59 56.5212 109.59 56.5227 109.59C56.5464 109.583 56.5702 109.577 56.5939 109.571C58.0562 109.054 59.6053 108.679 61.2084 108.616C62.4941 108.582 63.6579 108.834 64.792 109.093C65.0241 109.143 65.2528 109.194 65.4805 109.247C66.595 109.506 67.6549 109.794 68.3488 109.953C69.1051 110.123 70.9613 110.681 72.9048 111.207C74.1797 111.552 75.4974 111.872 76.5774 112.081C77.208 112.203 77.7975 112.353 78.4054 112.492C78.9735 112.621 79.5588 112.74 80.2033 112.806C80.527 112.838 80.875 112.859 81.2471 112.871C81.5719 112.882 81.9199 112.886 82.2762 112.886C82.5445 112.885 83.0744 112.904 83.7546 112.876C83.9365 112.869 84.1366 112.862 84.3444 112.857C84.9879 112.843 85.7109 112.847 86.4705 112.871C88.4803 112.883 90.4769 113.032 92.4634 113.306C92.8797 113.34 93.2459 113.365 93.5367 113.369C93.746 113.372 93.9275 113.365 94.1123 113.359C94.3643 113.35 94.628 113.344 94.9825 113.371C95.2602 113.393 95.5832 113.449 95.7936 113.512C95.8918 113.541 95.9655 113.571 96.0322 113.599C96.1087 113.63 96.177 113.658 96.2635 113.679C96.3259 113.693 96.3929 113.7 96.4754 113.709C96.607 113.722 96.7785 113.741 97.0305 113.806C97.9681 114.047 99.0248 114.373 100.045 114.752C101.181 115.172 102.27 115.663 103.124 116.097C103.966 116.522 105.092 117.202 106.157 118.07C106.291 118.179 106.425 118.288 106.557 118.397C107.332 119.031 108.109 119.668 108.78 120.211C109.439 120.742 110.141 121.277 110.817 121.801C111.63 122.429 112.407 123.042 113.032 123.606C113.157 123.719 113.293 123.883 113.467 124.091C113.589 124.238 113.726 124.404 113.892 124.591C114.705 125.284 115.51 125.987 116.307 126.695C116.339 126.716 116.372 126.739 116.405 126.76C116.405 126.761 116.406 126.761 116.406 126.761C117.138 127.249 118.149 127.933 119.321 129.136C119.615 129.438 119.793 129.663 119.938 129.853C120.084 130.042 120.215 130.212 120.442 130.432C120.695 130.678 121.014 130.94 121.37 131.234C121.858 131.636 122.409 132.093 122.907 132.616C122.941 132.652 122.98 132.692 123.017 132.731C123.366 133.098 123.904 133.663 124.398 134.246C125.129 134.952 125.845 135.651 126.581 136.37C127.471 137.241 128.366 138.105 129.267 138.962C131.984 141.544 134.763 144.076 137.618 146.494C139.007 147.67 140.312 148.836 141.237 149.73C142.16 150.632 142.649 151.155 142.563 151.368C142.465 151.607 141.627 151.426 140.464 150.797C139.29 150.173 137.816 149.162 136.372 148.011C134.019 146.132 131.722 144.183 129.471 142.195C129.352 142.094 129.232 141.991 129.112 141.887C128.224 141.124 127.378 140.433 126.538 139.738C126.344 139.578 126.153 139.42 125.96 139.258Z" fill="#951415"/>
<path d="M52.5166 118.242C53.3521 118.159 54.9498 118.239 55.8316 118.264C55.8478 118.264 55.864 118.264 55.8802 118.265C56.0914 118.271 56.286 118.273 56.5187 118.273C57.0712 118.272 57.8171 118.278 59.3762 118.294C59.4285 118.292 59.4808 118.29 59.5332 118.287C59.9535 118.268 60.3743 118.256 60.7961 118.252C65.957 118.187 71.0017 119.254 75.823 120.616C75.8848 120.631 75.9477 120.647 76.0114 120.663C77.2351 120.967 78.7445 121.374 79.6689 121.688C80.8445 122.087 81.6475 122.384 82.2892 122.626C83.1742 122.921 84.0393 123.215 84.9229 123.519C87.7936 124.508 90.6551 125.518 93.517 126.533C94.693 126.95 95.8612 127.365 97.0245 127.778C98.108 128.163 99.1729 128.543 100.256 128.931C100.883 129.132 101.495 129.326 102.054 129.503C102.83 129.749 103.545 129.979 104.11 130.18C105.488 130.67 107.023 131.306 108.153 131.781C108.34 131.86 108.516 131.934 108.678 132.002C109.582 132.339 110.506 132.687 111.422 133.036C111.48 133.069 111.537 133.103 111.595 133.138C112.316 133.567 113.26 133.945 114.763 134.565C115.414 134.833 116.156 135.141 117.047 135.529C117.6 135.77 117.89 135.95 118.108 136.089C118.173 136.13 118.234 136.168 118.296 136.205C118.505 136.329 118.765 136.404 119.067 136.491C119.453 136.601 119.925 136.737 120.48 137.044C122.252 138.024 123.114 138.288 123.778 138.491C123.966 138.548 124.136 138.6 124.316 138.669C124.858 138.872 125.633 139.289 126.182 139.628C126.355 139.736 126.623 139.873 126.901 140.013L126.924 140.026C127.349 140.258 127.85 140.523 128.266 140.737C128.531 140.873 128.866 141.081 129.262 141.332C129.671 141.59 130.142 141.892 130.657 142.197C131.957 142.968 132.637 143.389 133.186 143.726C133.342 143.822 133.49 143.913 133.634 144.002C134.093 144.285 134.658 144.646 135.228 145.013C135.909 145.451 136.6 145.898 137.132 146.229C137.715 146.647 138.297 147.068 138.878 147.49C139.61 148.024 140.337 148.561 141.061 149.086C141.727 149.569 142.32 150.1 142.707 150.573C143.094 151.047 143.241 151.426 143.107 151.634C142.971 151.84 142.565 151.861 141.972 151.689C141.38 151.518 140.647 151.161 139.947 150.702C139.187 150.204 138.437 149.702 137.686 149.203C137.045 148.779 136.401 148.354 135.758 147.929C134.059 146.807 132.362 145.685 130.669 144.564C129.484 143.781 128.298 143.003 127.105 142.259C126.984 142.184 126.859 142.106 126.738 142.032C126.487 141.899 126.239 141.769 125.997 141.646L126.029 141.664C125.266 141.314 124.481 140.983 123.899 140.723C123.281 140.45 122.832 140.208 122.445 140C122.193 139.864 121.953 139.736 121.705 139.627C121.579 139.571 121.404 139.496 121.184 139.402C120.301 139.025 118.792 138.394 117.443 137.752C116.835 137.463 116.162 137.12 115.493 136.786C114.558 136.316 113.679 135.882 113.204 135.709C112.396 135.416 111.476 135.01 110.669 134.658C109.89 134.318 109.23 134.033 108.814 133.913C108.337 133.778 107.952 133.605 107.364 133.344C106.96 133.165 106.479 132.951 105.788 132.675C105.006 132.362 104.461 132.118 103.987 131.907C103.342 131.62 102.84 131.398 102.067 131.171C101.219 130.923 100.314 130.633 99.6402 130.366C99.3298 130.243 98.966 130.113 98.5878 129.979C98.0972 129.805 97.5753 129.621 97.1023 129.428C96.7084 129.268 96.4087 129.11 96.1349 128.968C96.0499 128.924 95.9682 128.882 95.8885 128.842C95.5751 128.732 95.2596 128.622 94.942 128.512C94.8879 128.501 94.8315 128.491 94.7737 128.48C94.4824 128.425 94.123 128.357 93.6875 128.234C92.9944 128.039 92.415 127.811 91.7999 127.571C91.3214 127.385 90.8121 127.187 90.2356 127.002C89.8392 126.874 89.3808 126.741 88.9229 126.609C88.2476 126.415 87.5879 126.227 87.1326 126.059C86.9626 125.996 86.8236 125.918 86.6858 125.842C86.6852 125.842 86.6846 125.841 86.684 125.841C86.6747 125.836 86.6653 125.83 86.6559 125.825C85.9104 125.598 85.161 125.373 84.4013 125.147C84.0248 125.035 83.6551 124.927 83.2864 124.82C83.1862 124.797 83.0853 124.773 82.9858 124.75C82.5008 124.636 82.0321 124.528 81.7154 124.484C81.3765 124.437 80.5512 124.218 79.6746 123.995C79.11 123.851 78.5132 123.703 78.0263 123.597C77.7393 123.534 77.4906 123.432 77.2217 123.325C76.9723 123.225 76.722 123.125 76.4337 123.055C76.2878 123.019 76.1288 122.99 75.9605 122.96C75.8114 122.933 75.6592 122.906 75.4925 122.871C75.338 122.838 75.0134 122.736 74.5878 122.607C74.3227 122.527 74.0341 122.44 73.7149 122.351C72.8778 122.169 72.0314 121.996 71.1897 121.839C71.0087 121.829 70.8532 121.834 70.7226 121.854C70.6293 121.868 70.548 121.892 70.4648 121.916C70.3518 121.948 70.2353 121.983 70.0823 121.999C69.9641 122.011 69.8237 121.999 69.7365 121.968C69.6955 121.954 69.6655 121.935 69.6383 121.918C69.6071 121.899 69.5793 121.882 69.5427 121.876C69.5164 121.871 69.4873 121.876 69.4517 121.881C69.3945 121.888 69.3222 121.899 69.2145 121.881C68.8145 121.813 68.3649 121.73 67.9252 121.655C67.4325 121.571 66.9523 121.496 66.5694 121.455C66.1367 121.408 65.5306 121.303 64.9181 121.213C64.4932 121.151 64.0643 121.095 63.6951 121.062C63.3347 121.03 62.9559 121.031 62.5916 121.038C62.1528 121.045 61.7327 121.06 61.3759 121.028C61.3035 121.022 61.2137 120.984 61.1007 120.938C61.0206 120.905 60.9285 120.867 60.8231 120.833C60.4273 120.837 60.0323 120.846 59.6372 120.86C59.5722 120.862 59.5073 120.865 59.4425 120.867C59.4259 120.872 59.4087 120.878 59.3915 120.884C59.3912 120.884 59.3909 120.885 59.3907 120.885C59.0032 121.018 58.4701 121.2 57.7107 121.117C57.5189 121.096 57.3972 121.052 57.2874 121.012C57.1797 120.973 57.0837 120.938 56.9444 120.932C56.787 120.925 56.5982 120.951 56.3943 120.979C56.1094 121.018 55.7857 121.061 55.4663 121.019C55.4445 121.016 55.421 121.013 55.3966 121.01C55.1615 120.981 54.821 120.936 54.4771 120.847C53.4604 120.809 52.4467 120.75 51.4338 120.674C49.7415 120.546 48.064 120.37 46.377 120.134C45.5597 120.019 44.7797 119.802 44.2303 119.53C43.6723 119.257 43.3925 118.948 43.4575 118.714C43.5098 118.478 43.8548 118.32 44.4386 118.228C45.0152 118.137 45.7902 118.124 46.5885 118.183C47.8909 118.28 49.2031 118.341 50.5159 118.378C50.5842 118.377 50.6531 118.376 50.722 118.375C51.237 118.37 51.7091 118.325 52.1894 118.276C52.2979 118.264 52.4067 118.253 52.5166 118.242Z" fill="#951415"/>
<path d="M123.884 104.931C123.674 103.432 123.601 100.569 123.536 99.01C123.535 98.9814 123.534 98.9527 123.533 98.924C123.518 98.5671 123.5 98.2313 123.477 97.8403C123.476 97.8249 123.475 97.8094 123.474 97.7939C123.399 96.8441 123.375 95.5487 122.879 92.9557C122.702 92.2094 122.492 91.4758 122.244 90.7541C121.383 88.215 120.008 85.8632 118.405 83.588C114.712 78.268 113.979 72.1116 112.893 66.3157C112.873 66.2053 112.852 66.0923 112.831 65.9773C112.433 63.8176 111.988 61.1021 111.776 59.4031C111.768 59.3362 111.759 59.2696 111.751 59.2036C111.49 57.1044 111.409 55.6571 111.368 54.4557C111.157 49.9493 111.329 45.1704 113.422 40.9323C113.523 40.7246 113.615 40.5485 113.817 40.3211C113.897 40.2304 114.061 40.0828 114.233 39.9975C114.42 39.8972 114.68 39.8391 114.905 39.8588C115.826 40.0242 115.975 40.4712 116.234 40.7544C116.678 41.3796 116.939 41.9674 117.203 42.567C117.717 43.7655 118.12 44.9547 118.514 46.1563C119.196 48.2484 119.795 50.3531 120.442 52.4209C120.473 52.5165 120.502 52.6097 120.531 52.7003C121.049 54.3033 122.291 55.7003 123.639 56.9554C124.486 57.7115 125.351 58.3857 126.163 59.01C127.305 59.8844 128.344 60.6627 129.18 61.3474C129.618 61.7057 130.065 62.0844 130.508 62.4802C132.129 63.9175 133.559 65.6542 134.527 67.1131C134.73 67.4166 134.917 67.7085 135.084 67.9792C136.051 69.4695 136.865 71.05 137.555 72.6718C137.591 72.7841 137.627 72.8975 137.662 73.0131C138.1 74.455 138.72 76.1809 139.459 78.9521C139.78 80.1582 140.118 81.5602 140.476 83.213C140.707 84.2786 140.773 84.8345 140.829 85.2904C140.845 85.4251 140.86 85.5496 140.878 85.6758C140.938 86.1088 141.067 86.5515 141.22 87.0743C141.321 87.4178 141.43 87.7894 141.539 88.2216C141.649 88.6636 141.742 89.1608 141.793 89.7353C142.043 93.4163 141.821 95.0059 141.811 96.2257C141.796 96.5824 141.776 96.9056 141.741 97.2335C141.632 98.3002 141.3 99.782 141 100.877C140.768 101.748 140.408 103.504 140.201 104.826C140.191 104.891 140.18 104.959 140.168 105.029L140.151 105.099C140.032 105.564 139.867 106.152 139.688 106.832C139.475 107.64 139.242 108.578 139.038 109.594C138.531 112.16 138.34 113.536 138.18 114.642C138.135 114.956 138.095 115.251 138.057 115.544C137.936 116.473 137.794 117.625 137.675 118.796C137.531 120.195 137.423 121.621 137.369 122.705C137.357 122.851 137.344 122.997 137.332 123.143L137.335 123.081C137.252 125.766 137.225 128.446 137.253 131.136C137.267 132.592 137.206 133.992 137.066 135.03C136.926 136.067 136.716 136.659 136.469 136.672C136.223 136.682 135.956 136.112 135.731 135.084C135.506 134.056 135.345 132.651 135.291 131.182C135.19 128.47 135.145 125.754 135.169 123.04L135.171 122.987C135.187 122.737 135.203 122.489 135.22 122.24C135.47 118.62 135.925 115.01 136.631 111.443C137.088 109.129 137.646 106.832 138.311 104.567L138.29 104.653C138.327 104.472 138.365 104.289 138.404 104.108C138.459 103.852 138.515 103.596 138.571 103.341C138.972 101.249 139.375 99.2138 139.591 97.7841C139.774 96.6045 139.906 95.7546 140 95.0235C140.063 94.5209 140.108 94.075 140.121 93.6242C140.128 93.3819 140.133 93.0514 140.126 92.6542C140.11 91.6272 140.005 90.1549 139.676 88.6226C139.474 87.6743 139.276 86.691 139.094 85.7424C138.875 84.5948 138.638 83.2606 138.392 81.9951C138.044 80.1848 137.659 78.5169 137.394 77.6977C136.936 76.2566 136.408 74.6135 135.843 73.2053C135.309 71.8589 134.742 70.7284 134.354 70.1256C133.889 69.4058 133.53 68.7757 132.932 67.8744C132.515 67.2524 131.979 66.4976 131.145 65.563C130.46 64.7993 129.887 64.228 129.378 63.7429C129.168 63.5432 128.97 63.358 128.78 63.1832C127.861 62.34 127.142 61.7259 126.001 60.8825C124.732 59.9468 123.415 58.9227 122.459 57.9866C122.024 57.5624 121.527 57.0683 121.044 56.5099C120.402 55.7717 119.787 54.9053 119.399 53.9957C119.275 53.7064 119.179 53.4261 119.108 53.1573C119.009 52.7774 118.928 52.4193 118.856 52.0969C118.82 51.9353 118.782 51.7678 118.748 51.62C118.575 51.0536 118.407 50.4997 118.234 49.9375C118.199 49.8494 118.162 49.7565 118.123 49.659C117.929 49.174 117.689 48.5754 117.424 47.8303C117.005 46.6511 116.684 45.6007 116.31 44.5242C116.013 43.6882 115.694 42.795 115.189 41.9605C115.042 41.7123 114.79 41.419 114.721 41.4027C114.713 41.4002 114.753 41.4269 114.832 41.4253C114.913 41.4248 114.982 41.3852 114.99 41.3795C115.005 41.3663 114.929 41.4629 114.873 41.6034C114.855 41.6431 114.837 41.6843 114.817 41.7281C114.319 42.8082 114.002 43.9186 113.787 44.7037C113.705 45.0017 113.618 45.2537 113.536 45.4977C113.536 45.4988 113.535 45.4999 113.535 45.5009C113.529 45.5178 113.524 45.5348 113.518 45.5518C113.139 47.5156 113.024 49.5472 113.059 51.5705C113.068 51.7435 113.077 51.921 113.088 52.0994C113.139 52.951 113.221 53.799 113.308 54.3291C113.401 54.92 113.554 56.3969 113.8 57.9426C113.848 58.2464 113.9 58.5585 113.954 58.8725C114.081 59.6079 114.201 60.2724 114.319 60.8907C114.416 61.3957 114.461 61.8741 114.511 62.38C114.555 62.842 114.604 63.3229 114.698 63.8393C114.746 64.0968 114.805 64.3655 114.871 64.6693C114.929 64.9324 114.99 65.2062 115.048 65.4885C115.104 65.7664 115.191 66.3536 115.316 67.1365C115.391 67.608 115.481 68.1601 115.58 68.7161C115.894 70.1949 116.238 71.6896 116.62 73.1358C116.724 73.4343 116.828 73.6936 116.926 73.8835C116.996 74.0228 117.07 74.1447 117.143 74.2628C117.244 74.425 117.347 74.5857 117.463 74.8276C117.553 75.0146 117.632 75.2302 117.666 75.3928C117.681 75.4667 117.686 75.525 117.69 75.5777C117.695 75.638 117.699 75.6916 117.719 75.7521C117.733 75.796 117.755 75.8368 117.785 75.8925C117.831 75.9794 117.892 76.0918 117.95 76.2673C118.172 76.9294 118.433 77.6705 118.722 78.3705C119.043 79.1543 119.402 79.8795 119.733 80.4365C119.98 80.8564 120.301 81.3932 120.684 81.9644C120.888 82.2675 121.094 82.5819 121.296 82.8995C121.731 83.5809 122.148 84.2796 122.498 84.8873C122.841 85.4823 123.205 86.102 123.536 86.7194C123.934 87.4595 124.282 88.198 124.505 88.8528C124.551 88.9853 124.578 89.1608 124.609 89.3806C124.631 89.5367 124.655 89.7155 124.687 89.9167C124.97 90.7433 125.206 91.5829 125.398 92.4308C125.41 92.4596 125.422 92.4893 125.434 92.5192C125.435 92.5196 125.435 92.5201 125.435 92.5205C125.708 93.189 126.064 94.1301 126.133 95.5008C126.15 95.8499 126.126 96.0692 126.105 96.2689C126.084 96.467 126.063 96.6366 126.077 96.8883C126.089 97.1235 126.124 97.3795 126.163 97.6697C126.171 97.7342 126.18 97.7996 126.19 97.8659C126.259 98.3647 126.333 98.9213 126.323 99.4847C126.323 99.5228 126.322 99.5645 126.321 99.6076C126.315 100.015 126.303 100.619 126.249 101.219C126.312 102.988 126.364 104.748 126.472 106.488C126.565 107.972 126.702 109.444 126.923 110.9C127.142 112.342 127.323 113.785 127.467 115.235C127.61 116.679 127.616 118.081 127.485 119.119C127.358 120.157 127.084 120.753 126.84 120.723C126.601 120.7 126.403 120.167 126.169 119.184C125.939 118.204 125.709 116.865 125.518 115.463C125.326 114.055 125.097 112.652 124.833 111.255C124.662 110.345 124.523 109.432 124.408 108.52C124.389 108.396 124.371 108.271 124.354 108.147C124.226 107.224 124.092 106.371 123.967 105.519C123.939 105.323 123.911 105.127 123.884 104.931Z" fill="#951415"/>
<path d="M130.011 119.219C129.877 118.552 129.873 117.256 129.863 116.545C129.863 116.531 129.862 116.518 129.862 116.505C129.86 116.336 129.853 116.177 129.845 115.99C129.825 115.543 129.8 114.941 129.786 113.681C129.757 113.315 129.728 112.95 129.699 112.586C129.609 111.472 129.509 110.353 129.391 109.251C129.075 106.564 128.453 103.742 127.858 100.967C127.845 100.919 127.832 100.869 127.819 100.819C127.566 99.8536 127.244 98.6571 127.089 97.8913C126.892 96.9174 126.769 96.2546 126.67 95.7081C125.952 92.6156 125.205 89.5275 124.456 86.43C124.313 85.8377 124.169 85.2384 124.028 84.6491C123.944 84.2947 123.843 83.9248 123.737 83.5695C123.483 82.7111 123.185 81.8652 122.862 81.0207C122.654 80.5353 122.445 80.0836 122.244 79.6595C121.964 79.0699 121.706 78.5454 121.507 78.1092C121.025 77.0517 120.521 75.8398 120.132 74.9381C120.069 74.7906 120.008 74.6504 119.953 74.5235C119.604 73.824 119.251 73.1351 118.89 72.443C118.876 72.3922 118.861 72.3409 118.847 72.2886C118.666 71.6344 118.299 70.9039 117.705 69.7596C117.447 69.263 117.145 68.6861 116.794 68.0053C116.568 67.5668 116.492 67.3188 116.431 67.1169C116.413 67.0575 116.396 67.0016 116.377 66.9462C116.31 66.7561 116.181 66.5882 116.028 66.3908C115.828 66.1339 115.589 65.8273 115.394 65.3545C115.243 64.9888 115.102 64.6803 114.968 64.4138L114.903 64.2508C114.715 63.3281 114.521 62.8468 114.362 62.4538C114.301 62.3022 114.247 62.1668 114.203 62.0217C114.059 61.5552 113.97 60.8722 113.937 60.3455C113.91 59.9322 113.724 59.1245 113.571 58.5135C113.513 58.283 113.466 57.9642 113.414 57.5914C113.36 57.2037 113.301 56.7539 113.22 56.2789C113.014 55.0695 112.93 54.4232 112.86 53.9064C112.84 53.7566 112.823 53.6187 112.805 53.4824C112.75 53.0433 112.695 52.5078 112.646 51.9561C112.587 51.2996 112.536 50.6324 112.49 50.1252C112.48 49.2909 112.489 48.4504 112.494 47.6494L112.494 47.6374C112.5 47.1512 112.512 46.671 112.52 46.1947C112.534 45.531 112.631 44.8991 112.799 44.4255C112.968 43.9531 113.194 43.6796 113.441 43.6687C113.687 43.6592 113.938 43.9144 114.135 44.3846C114.333 44.855 114.457 45.5027 114.483 46.1742C114.502 46.656 114.519 47.1343 114.539 47.6075L114.539 47.5974C114.583 48.4705 114.621 49.3258 114.672 50.1823C114.768 51.8014 114.901 53.4133 115.065 55.0175C115.18 56.1416 115.316 57.2607 115.478 58.3795C115.495 58.4965 115.511 58.6085 115.528 58.7237C115.737 59.6505 115.965 60.5679 116.117 61.2157C116.242 61.7504 116.296 62.1462 116.344 62.4879C116.377 62.7209 116.408 62.9286 116.459 63.1344C116.487 63.2437 116.526 63.3929 116.576 63.5734C116.596 63.6487 116.618 63.7295 116.642 63.8151L116.533 63.5416C116.937 64.2284 117.524 65.2542 117.992 66.2379C118.222 66.7224 118.47 67.2984 118.704 67.8499C119.038 68.6367 119.344 69.3743 119.543 69.7207C119.896 70.333 120.232 71.067 120.524 71.7198C120.803 72.3426 121.043 72.8891 121.226 73.1754C121.446 73.5214 121.575 73.8385 121.767 74.3192C121.898 74.6486 122.06 75.0568 122.297 75.6039C122.569 76.232 122.734 76.693 122.871 77.0836C123.064 77.6331 123.208 78.0489 123.508 78.6291C123.841 79.2731 124.158 79.9711 124.348 80.5407C124.433 80.7964 124.545 81.0954 124.654 81.3987C124.801 81.8088 124.947 82.2337 125.052 82.6426C125.135 82.9712 125.172 83.2627 125.199 83.5163C125.208 83.5964 125.216 83.6725 125.224 83.7453C125.275 83.9307 125.329 84.134 125.375 84.321C125.392 84.3915 125.41 84.4623 125.428 84.5334C125.446 84.5732 125.465 84.6151 125.484 84.659C125.584 84.88 125.707 85.151 125.821 85.4948C126.002 86.0423 126.1 86.5364 126.204 87.0556C126.287 87.4653 126.371 87.8829 126.503 88.3601C126.593 88.6823 126.71 89.0517 126.824 89.4121C126.996 89.9525 127.165 90.482 127.247 90.8618C127.277 91.0035 127.28 91.1318 127.282 91.2589C127.282 91.2595 127.282 91.2601 127.282 91.2606C127.283 91.2693 127.283 91.2779 127.283 91.2865C127.546 92.1927 127.813 93.0992 128.08 94.005C128.109 94.0821 128.137 94.1601 128.165 94.2375C128.303 94.6157 128.437 94.9819 128.551 95.2152C128.674 95.4672 128.881 96.1285 129.097 96.8256C129.239 97.2827 129.385 97.7557 129.515 98.1384C129.59 98.3604 129.617 98.5883 129.643 98.8187C129.667 99.034 129.691 99.2543 129.758 99.4879C129.791 99.6044 129.836 99.7277 129.883 99.8589C129.924 99.9736 129.968 100.098 130.009 100.228C130.047 100.35 130.098 100.624 130.164 100.981C130.205 101.203 130.249 101.449 130.3 101.711C130.485 102.392 130.664 103.07 130.838 103.756C130.896 103.891 130.959 104.011 131.026 104.101C131.073 104.165 131.125 104.217 131.177 104.27C131.249 104.343 131.323 104.418 131.392 104.528C131.447 104.616 131.485 104.726 131.487 104.805C131.488 104.841 131.481 104.871 131.475 104.897C131.469 104.928 131.462 104.955 131.469 104.986C131.474 105.007 131.488 105.028 131.505 105.054C131.532 105.094 131.567 105.147 131.586 105.235C131.66 105.573 131.728 105.944 131.794 106.322C131.865 106.734 131.93 107.139 131.994 107.474C132.062 107.829 132.114 108.377 132.143 108.914C132.143 108.916 132.144 108.918 132.144 108.921C132.163 109.279 132.18 109.646 132.203 109.953C132.226 110.262 132.276 110.571 132.324 110.879C132.382 111.242 132.435 111.597 132.43 111.899C132.429 111.96 132.398 112.039 132.359 112.138C132.332 112.208 132.3 112.288 132.272 112.378C132.303 112.76 132.33 113.142 132.355 113.524C132.361 113.537 132.367 113.551 132.373 113.564C132.373 113.564 132.373 113.565 132.373 113.565C132.515 113.869 132.707 114.289 132.646 114.899C132.631 115.054 132.591 115.153 132.555 115.242C132.519 115.33 132.487 115.408 132.486 115.52C132.484 115.647 132.517 115.796 132.553 115.958C132.603 116.185 132.658 116.439 132.63 116.698C132.629 116.716 132.627 116.735 132.625 116.754C132.605 116.941 132.576 117.221 132.504 117.497C132.516 118.312 132.516 119.127 132.507 119.941C132.492 121.299 132.452 122.656 132.372 124.021C132.332 124.688 132.193 125.332 131.973 125.795C131.756 126.255 131.464 126.515 131.23 126.447C130.992 126.402 130.809 126.136 130.659 125.691C130.513 125.243 130.424 124.627 130.41 123.982C130.387 122.938 130.339 121.879 130.281 120.82C130.275 120.765 130.269 120.71 130.264 120.655C130.222 120.242 130.145 119.862 130.066 119.482C130.048 119.395 130.029 119.307 130.011 119.219Z" fill="#951415"/>
<path d="M88.9192 38.2771C88.9531 38.1442 88.9859 37.9873 89.0133 37.8083C89.3519 36.2236 88.7222 33.4923 88.0867 31.4022C88.0254 31.181 87.9524 30.9794 87.8749 30.7993C87.8621 30.7697 87.8488 30.74 87.8354 30.7106C87.6607 30.3311 87.4476 29.9935 87.141 29.6386C86.6952 29.1402 86.0441 28.5368 84.8287 28.1036C84.0631 27.8365 83.0339 27.7206 81.5349 27.9018C80.432 28.0552 79.27 28.3129 78.0685 28.5349C75.8908 28.9496 73.5675 29.2121 71.2565 29.0602C71.0317 29.0427 70.842 29.0292 70.5106 28.9169C70.3778 28.8708 70.1424 28.7656 69.9441 28.6007C69.7324 28.4355 69.495 28.1191 69.403 27.8046C69.2159 27.1121 69.4031 26.7565 69.4921 26.5045C69.6004 26.2516 69.7166 26.0758 69.8147 25.934C70.2354 25.3531 70.6248 24.9997 71.023 24.6295C71.8144 23.9135 72.6163 23.2948 73.4229 22.6907C75.0368 21.4882 76.689 20.3696 78.3091 19.2665C78.5113 19.1308 78.694 18.9421 78.8114 18.7536C78.9358 18.5735 78.9513 18.3624 78.9514 18.4419C78.4703 15.7683 74.2543 14.1959 71.0512 11.947C70.8828 11.7816 70.282 11.7647 69.725 12.0477C68.8027 12.4978 67.9702 13.2202 67.2146 14.0764C67.116 14.191 67.0177 14.309 66.9188 14.4313C65.2724 16.459 63.6803 19.5012 61.9302 21.5231C61.6541 21.8476 61.3778 22.1487 61.1056 22.4193C60.4352 23.0804 59.7311 23.6621 58.8663 24.0481C57.6933 24.5637 56.184 24.6025 55.1639 23.5541C54.5178 22.8486 54.1256 22.143 53.8097 21.4993C51.8427 17.2374 51.4649 12.8703 49.6624 9.08054C49.3294 8.3507 48.8089 7.69832 48.3526 7.56723C45.2942 6.74381 42.5247 10.5134 38.782 12.1663C38.6867 12.2244 38.7756 12.1303 38.7455 12.185C38.7293 12.2457 38.7499 12.4513 38.819 12.6606C38.9567 13.0925 39.2175 13.5735 39.502 14.0351C40.005 14.8469 40.6038 15.6357 41.2162 16.4315C42.4569 18.0516 44.2836 19.2537 46.0806 20.5636C47.8299 21.8251 49.5753 23.2462 50.9789 24.9995C51.4949 25.6394 52.0188 26.2814 52.5295 26.9526C53.1781 27.8058 53.8291 28.6257 54.2503 29.7438C54.3882 30.1623 54.5315 30.7341 54.1635 31.3756C53.7674 31.9848 53.2539 32.1247 52.8603 32.2326C50.2607 32.6011 48.5141 32.0002 46.9146 31.7408C43.1732 30.9731 39.0126 29.797 35.985 29.5306C35.4864 29.4886 35.0443 29.4736 34.6341 29.4939C34.5619 29.4988 34.4921 29.5048 34.425 29.5119C33.8198 29.5667 33.2041 30.0446 32.7102 30.7136C32.2855 31.2793 32.0743 32.0163 32.1754 32.6427C32.2421 33.0775 32.3913 33.4829 32.6205 33.8652C32.6806 33.9866 32.7488 34.1082 32.8255 34.23C33.7725 35.8834 36.3209 36.7646 39.8291 39.5034C39.8986 39.5651 39.9679 39.6282 40.0366 39.6928C41.1923 40.7889 42.9347 41.6525 45.1524 42.1395C46.6536 42.4603 47.4549 42.5576 48.1035 42.6569C48.2946 42.6838 48.4744 42.7071 48.6581 42.7268C49.285 42.7936 49.9531 42.778 50.7397 42.732C51.7609 42.6711 52.9807 42.5616 54.6046 42.467C54.8469 42.4528 55.0836 42.4368 55.3133 42.4195C55.7365 42.3888 56.1385 42.3336 56.566 42.2893C56.789 42.2726 56.9769 42.2343 57.3424 42.283C57.4378 42.3013 57.5569 42.3211 57.7262 42.4229C57.8962 42.5132 58.0912 42.7868 58.1126 42.9979C58.1536 43.4091 58.0411 43.5295 57.9906 43.6643C56.5626 46.5057 55.7439 47.9958 55.138 49.2164C54.9037 49.677 54.6913 50.0918 54.4645 50.5106C53.7283 51.8687 52.5984 53.7394 51.8398 55.1744C51.2317 56.2944 50.2171 58.7357 50.3104 60.5055C50.3119 60.5543 50.3139 60.604 50.3164 60.6545C50.3641 61.1879 50.4907 61.5233 51.4025 61.829C52.3813 62.1354 53.8242 62.1703 55.333 62.1312C59.1932 61.9789 61.344 61.9186 63.0562 62.0229C63.4302 62.0432 63.7855 62.0689 64.1363 62.1005C64.2036 62.106 64.2641 62.1066 64.3191 62.1037C64.9572 62.2118 65.6668 60.9542 65.8989 59.3145C66.2072 57.3916 66.1693 55.2755 66.119 53.6826C66.1084 52.5219 66.0709 51.3501 66.044 50.1662L66.0757 50.4015C65.389 47.4805 64.6291 44.5664 63.6591 41.7679C63.2216 40.5311 62.7672 39.2574 62.2996 38.4406L62.3827 38.5405C62.0374 38.1126 61.5469 37.6958 61.1402 37.3009C60.0148 36.2281 59.5055 35.4836 59.6603 35.2943C59.8214 35.1038 60.6208 35.4693 61.9442 36.2334C62.4295 36.5235 62.9989 36.8337 63.5959 37.3781L63.6635 37.4593C64.5008 38.5521 65.0066 39.7958 65.5053 41.1015C66.5695 44.0036 67.3897 46.9421 68.1373 49.9025L68.1642 50.1022C68.2156 51.4164 68.2799 52.7478 68.3039 54.0908C68.3306 55.8884 68.3222 57.6998 68.0264 59.5734C67.8655 60.5059 67.6601 61.4649 67.1118 62.4455C66.653 63.423 65.1874 64.4213 63.9171 64.1901C62.2315 64.0188 60.5084 64.0056 58.7644 64.0343C57.0364 64.0576 55.2964 64.1506 53.4707 64.0747C52.5519 64.0231 51.6152 63.9624 50.5791 63.594C50.0691 63.4035 49.4969 63.1032 49.0505 62.5565C48.5973 62.0127 48.4093 61.2858 48.4054 60.6958C48.4003 60.4378 48.4089 60.1758 48.4285 59.923C48.4622 59.4872 48.5268 59.0686 48.6143 58.6529C49.3237 55.2899 51.0051 52.5656 52.0454 50.627C52.9393 49.0394 53.6317 47.9256 54.206 46.964C54.602 46.3025 54.9448 45.7169 55.2652 45.1112C55.437 44.786 55.6677 44.3404 55.9338 43.7998C56.0704 43.5221 56.2165 43.2188 56.3677 42.8942C56.3843 42.9047 56.2996 42.8621 56.3365 43.3061C56.3562 43.5385 56.609 43.8804 56.7823 43.9626C56.9551 44.0625 57.0266 44.0618 57.0599 44.0704C57.1549 44.0765 56.9417 44.0767 56.7811 44.1022C56.4235 44.1492 55.9805 44.224 55.5114 44.2752C53.274 44.5237 50.6145 44.6735 48.0852 44.4513C46.2974 44.2959 44.1973 43.9236 42.2899 43.1163C40.9742 42.5659 39.7708 41.7868 38.8867 40.9158C38.1179 40.1667 37.2892 39.6374 36.7376 39.2984C34.9 38.1271 32.2738 36.9983 30.9404 34.5153C30.6762 33.9951 30.5077 33.4344 30.4354 32.8957C30.261 31.5274 30.7846 30.4067 31.3325 29.6688C31.585 29.33 31.8421 29.0439 32.0808 28.8143C32.6381 28.2764 33.3684 27.8443 34.2545 27.7605C34.9795 27.6953 35.709 27.7346 36.5588 27.8311C37.7494 27.9695 39.1531 28.2328 41.0379 28.6443C43.21 29.1238 44.7117 29.5256 45.9972 29.8414C47.7943 30.2723 49.1779 30.6495 51.1699 30.7643C51.6979 30.7835 52.2542 30.7656 52.6129 30.6429C52.7898 30.5843 52.8247 30.5111 52.7985 30.5399C52.7915 30.5618 52.8093 30.4468 52.7362 30.253C52.4049 29.3742 51.7119 28.477 51.152 27.7178C50.75 27.1812 50.2744 26.5921 49.7722 25.97C49.6399 25.8062 49.5069 25.6478 49.3657 25.486C48.5043 24.4942 47.4645 23.5682 46.4619 22.7593C45.6358 22.0915 44.9352 21.5397 44.3133 21.0382C44.12 20.8826 43.9329 20.7318 43.7515 20.5855C43.0471 20.0711 42.3397 19.5353 41.67 18.9362C41.5562 18.8445 41.4381 18.7474 41.3153 18.6425C40.9206 18.3046 40.4769 17.8928 40.0243 17.3516C39.7924 17.0756 39.538 16.768 39.2762 16.433C38.6931 15.6834 38.1696 14.9471 37.7376 14.121C37.5249 13.7015 37.325 13.271 37.2188 12.716C37.1716 12.4384 37.1401 12.1128 37.2527 11.7285C37.3559 11.3418 37.6979 10.9613 38.0296 10.8054C38.0861 10.7763 38.144 10.7503 38.2032 10.7272C39.282 10.3111 40.3762 9.52362 41.6237 8.60228C42.5047 7.95651 43.5142 7.17812 44.6908 6.56626C45.9197 5.90081 47.5491 5.53498 48.8441 5.9693C49.4385 6.15397 49.853 6.50021 50.1506 6.81119C50.5474 7.23553 50.768 7.64773 50.9557 8.05149C50.9565 8.0533 50.9572 8.05512 50.958 8.05694C50.9707 8.08464 50.983 8.11201 50.9952 8.13961C51.038 8.21991 51.0789 8.30019 51.1185 8.38135C52.4664 11.1637 53.1572 14.115 54.0162 16.921C54.0978 17.1693 54.1816 17.4197 54.2661 17.6643C54.6756 18.867 55.15 19.9782 55.5436 20.6191C55.7523 20.9611 56.1052 21.5801 56.6515 22.1256C56.7689 22.2759 57.3768 22.3871 57.9692 22.0832C58.11 22.0155 58.2571 21.9288 58.4046 21.828C59.0372 21.3951 59.655 20.7305 60.1888 20.0675C60.5212 19.6545 60.824 19.236 61.0946 18.84C61.5069 18.236 61.9228 17.6652 62.3522 17.0661C62.7531 16.5068 63.1632 15.9225 63.5965 15.2596C63.8135 14.9279 64.0457 14.5639 64.3054 14.1774C64.5341 13.8375 64.7848 13.479 65.0689 13.1124C65.3364 12.7764 65.9449 12.0213 66.9429 11.1992C67.4357 10.7972 68.0306 10.3867 68.7205 10.0517C68.9158 9.95644 69.1192 9.87357 69.3319 9.80446C70.1859 9.50801 71.3535 9.40444 72.3487 10.087C73.5412 10.9 74.8973 11.6065 76.2486 12.4067C76.6764 12.6322 77.0561 12.8296 77.3656 12.9788C77.588 13.0861 77.7844 13.1726 77.9855 13.2655C78.2606 13.3938 78.5454 13.5306 78.9187 13.7748C79.2093 13.964 79.5349 14.2359 79.7292 14.4481C79.821 14.5475 79.8843 14.6307 79.9407 14.7066C80.0062 14.7946 80.0639 14.8746 80.1431 14.9637C80.1997 15.0276 80.2665 15.0909 80.3466 15.1707C80.4732 15.2983 80.6408 15.4687 80.8456 15.78C81.2395 16.3787 81.5818 17.1426 81.716 17.9814C81.8712 19.3188 81.3308 20.0996 80.8051 20.7621C80.5374 21.0755 80.2341 21.346 79.902 21.5736C79.0453 22.1571 78.2332 22.711 77.5737 23.1806C76.6385 23.8475 75.2816 24.7642 74.014 25.7328C73.1704 26.3667 72.1746 27.2495 72.0017 27.569C71.996 27.5706 72.016 27.5667 72.042 27.4038C72.0756 27.286 72.0185 26.8303 71.7761 26.5926C71.5572 26.3657 71.4224 26.3527 71.3911 26.3377C71.3535 26.3277 71.3749 26.3344 71.4191 26.3355C71.9707 26.3632 72.5242 26.3613 73.0666 26.338C74.1711 26.2915 75.2264 26.1527 76.1456 26.0439C76.3296 26.0223 76.5673 26.0228 76.8633 26.0198C77.076 26.0172 77.3182 26.0128 77.597 25.9966C78.7805 25.7794 79.9826 25.5103 81.278 25.3403C81.3229 25.3293 81.3694 25.3181 81.4159 25.3071C81.4166 25.3068 81.4174 25.3066 81.4181 25.3064C82.3459 25.1079 83.7648 24.7427 85.7131 25.388C85.9253 25.4622 86.1394 25.5493 86.3541 25.6506C86.8892 25.9062 87.188 26.1344 87.4486 26.3425C87.7031 26.55 87.9209 26.7423 88.2448 27.0157C88.6112 27.3271 89.0413 27.7064 89.4502 28.1876C90.0055 28.8346 90.5103 29.6896 90.7457 30.6255C90.7523 30.6523 90.7589 30.6793 90.7654 30.7064C90.7784 30.7604 90.7927 30.8198 90.8075 30.8804C90.9471 31.4586 91.1705 32.3401 91.3004 33.2633C91.6542 34.8356 91.8656 36.5655 91.5022 38.3057C91.3109 39.4571 90.4317 41.2075 88.7321 41.4647C88.7268 41.4657 88.7214 41.4667 88.716 41.4676C85.6897 41.9798 82.8445 41.4492 80.1615 41.3965C78.6282 41.3658 77.0759 41.3869 75.526 41.4253C73.4205 41.4782 71.3892 41.4797 69.886 41.3867C68.3821 41.2947 67.5215 41.1121 67.5134 40.869C67.4955 40.6281 68.3216 40.3434 69.8076 40.0712C71.2929 39.8005 73.3238 39.5711 75.452 39.4639C77.0193 39.3862 78.5922 39.3252 80.1788 39.318C82.1602 39.3175 84.0378 39.5115 85.8381 39.473C86.0097 39.4666 86.181 39.4583 86.3503 39.448C87.0412 39.4059 87.6857 39.315 88.2832 39.1683C88.5342 39.0838 88.6147 38.9874 88.7489 38.7469C88.8121 38.6246 88.8719 38.4641 88.9192 38.2771Z" fill="#951415"/>
<path d="M60.981 33.3023C61.271 32.8821 61.1333 33.31 61.1411 33.5432C61.1409 33.5475 61.1408 33.5518 61.1407 33.5562C61.1381 33.613 61.1452 33.6681 61.1549 33.7332C61.1801 33.8886 61.2103 34.1096 61.2148 34.6084C61.2625 34.7367 61.3112 34.8636 61.3568 34.9787C61.4344 35.1917 61.5752 35.4423 61.4968 35.3401C61.4233 35.2424 61.3267 35.1262 61.185 34.9952C61.1141 34.9299 61.0316 34.8612 60.9345 34.7918C60.8277 34.7145 60.6535 34.6067 60.4683 34.5257C59.7529 34.1113 58.3082 34.3745 57.9058 34.7502C57.6783 34.9046 57.5275 35.0545 57.4167 35.1795C57.3114 35.3006 57.2684 35.364 57.2179 35.4385C57.1223 35.5846 57.0874 35.6621 57.0596 35.7211C56.964 35.9449 56.9919 35.9243 56.9955 35.9163C57.0169 35.8759 57.0578 35.7304 57.0927 35.5828C57.1645 35.2812 57.2329 34.9197 57.2948 34.5597C57.4175 33.8471 57.5249 33.0459 57.5703 32.4703C57.5676 32.4541 57.5648 32.4386 57.5621 32.4241C57.5514 32.3664 57.5386 32.3151 57.5323 32.3054C57.5222 32.2625 57.481 32.278 57.6373 32.5309C57.7202 32.6534 57.8788 32.8571 58.1931 33.0405C58.5001 33.2271 58.9629 33.321 59.2952 33.276C59.8385 33.2065 60.0836 32.9863 60.2149 32.8583C60.3458 32.7205 60.384 32.6232 60.4064 32.5502C60.4438 32.4056 60.4083 32.3423 60.3783 32.2961C60.3775 32.2919 60.3767 32.2878 60.3758 32.2839C59.9997 32.7929 60.2763 34.1302 61.0949 35.1058C61.2925 35.3537 61.5438 35.6006 61.7124 35.7205C61.5664 35.6219 61.3167 35.4814 60.929 35.4692C60.5364 35.4542 60.1713 35.633 59.9991 35.7752C59.6538 36.0715 59.6536 36.1923 59.6071 36.2684C59.5393 36.442 59.5665 36.4047 59.563 36.3855C59.5652 36.3576 59.5661 36.3061 59.5624 36.2533C59.5557 36.1463 59.5312 36.0272 59.5011 35.9498C59.4612 35.9078 59.4188 35.8879 59.3914 35.9013C59.3543 35.8879 59.3136 35.8739 59.2722 35.8615C59.1468 35.8223 59.0203 35.8056 58.9589 35.7913C58.9092 35.7781 58.8734 35.7695 58.9116 35.775C58.9475 35.774 59.0884 35.8165 59.3993 35.7136C59.7134 35.6053 59.8961 35.3773 59.9415 35.2742C59.9692 35.2174 59.976 35.1806 59.9774 35.1574C60.0415 35.0681 60.027 35.2258 60.0859 35.3698C60.0679 35.3822 60.0493 35.3955 60.0304 35.4097C59.9522 35.4687 59.9071 35.5382 59.8881 35.6145C59.86 35.8046 59.9323 36.0235 60.0727 36.3012C60.165 36.4828 60.2874 36.6913 60.4447 36.939C60.5466 37.0979 60.5317 37.2374 60.5224 37.3556C60.5197 37.3902 60.5175 37.4226 60.5191 37.4525C60.5253 37.5557 60.6351 37.5744 60.7619 37.5888C60.9284 37.609 61.1169 37.6174 61.19 37.8289C61.4449 38.5151 61.8681 38.4116 61.9586 38.2447C61.987 38.1969 61.9928 38.1446 61.9504 38.1096C61.9335 38.0962 61.9065 38.0844 61.8682 38.0763C61.6737 38.0635 61.3773 38.0631 60.9895 38.2767C60.6132 38.4815 60.366 38.8668 60.292 39.0834C60.1441 39.5309 60.216 39.6234 60.2234 39.6831C60.265 39.783 60.3019 39.6961 60.3336 39.6271C60.3956 39.4944 60.1787 39.2096 59.9529 39.0231C59.8685 38.9526 59.8065 38.8297 59.7291 38.6852C59.6493 38.536 59.5521 38.362 59.4038 38.2135C59.1904 38.0016 58.979 37.8152 59.0109 37.9216C59.0451 37.9763 59.1042 38.0671 59.3033 38.2024C59.4878 38.3254 59.9364 38.5507 60.5628 38.4449C61.5048 38.2455 61.7859 37.6742 61.9083 37.4798C62.0666 37.1711 62.0927 37.0256 62.11 36.7978C62.1121 36.6802 62.1162 36.5504 62.0386 36.2939C61.9965 36.1662 61.9336 35.9964 61.7691 35.7686C61.607 35.5445 61.2923 35.232 60.8164 35.0632C59.8254 34.7473 59.25 35.1336 59.0338 35.2523C58.6743 35.4925 58.6299 35.5955 58.5658 35.6549C58.5137 35.7128 58.4963 35.7275 58.4831 35.7269C58.4593 35.7237 58.4571 35.6625 58.4452 35.6016C58.6008 35.3171 58.7621 34.7552 58.8757 34.2011C58.9359 33.9128 59.1682 33.6287 59.5384 33.4155C59.9089 33.2017 60.3857 33.0709 60.8799 33.0736C61.3738 33.0773 61.8505 33.2169 62.2104 33.4771C62.5699 33.7349 62.779 34.1025 62.7912 34.4813C62.807 35.2515 62.818 36.0183 62.573 37.0003C62.5054 37.248 62.4228 37.5158 62.2448 37.8556C62.1485 38.0307 62.0389 38.2259 61.7889 38.4917C61.6504 38.6305 61.4999 38.7813 61.1661 38.961C60.8567 39.1196 60.2309 39.3688 59.4103 39.0969C58.4744 38.7465 58.1928 38.1038 58.057 37.8015C57.9213 37.4614 57.8916 37.2291 57.8722 37.0138C57.8487 36.5869 57.8725 36.2572 58.07 35.7555C58.1801 35.5073 58.3304 35.1884 58.7531 34.8278C59.152 34.4565 60.0059 34.2087 60.569 34.3282C61.6784 34.5801 61.8239 34.9591 62.0608 35.1582C62.255 35.3748 62.3315 35.4891 62.4222 35.6164C62.871 36.279 63.1429 36.8166 63.4296 37.4634C63.458 37.5288 63.4866 37.5969 63.5143 37.6646C63.6919 37.9148 63.8675 38.1831 64.0247 38.5341C64.1035 38.7187 64.1824 38.9144 64.2399 39.2413C64.2662 39.412 64.2944 39.6158 64.2613 39.9506C64.2117 40.2772 64.1513 40.8748 63.4519 41.5406C63.1452 41.8194 62.7658 42.0084 62.4197 42.0974C62.114 42.1772 61.8527 42.1884 61.6316 42.1767C60.7577 42.0973 60.5564 41.8777 60.2969 41.7274C60.1087 41.5993 59.9758 41.4886 59.8235 41.4064C59.745 41.364 59.6346 41.3059 59.5115 41.2356C59.0004 40.9512 58.2535 40.4035 57.8127 39.6977C57.6154 39.3876 57.4437 38.9882 57.3134 38.5984C57.1235 38.0412 57.0259 37.5069 56.8892 37.2714C56.7518 37.0378 56.6577 36.7543 56.6019 36.4618C56.5524 36.2121 56.5322 35.9581 56.531 35.7134C56.5258 35.178 56.624 34.6928 56.6169 34.3643C56.6172 33.9714 56.7427 33.6107 57.2236 33.0941C57.4664 32.8482 57.8588 32.5303 58.4505 32.3852C58.6798 32.3299 58.9124 32.3106 59.1332 32.3183C60.0014 32.3838 60.3008 32.6869 60.5757 32.8905C60.9389 33.2034 61.1332 33.4393 61.5514 33.7269C61.8005 33.9038 62.0339 34.1346 62.2119 34.4073C62.3797 34.6708 62.4727 34.9221 62.5139 35.1419C62.5545 35.3601 62.6035 35.593 62.6334 35.838C62.6719 36.1635 62.6842 36.5002 62.5808 36.8771C62.5357 37.0357 62.4704 37.1899 62.3512 37.3888C62.2872 37.4933 62.2185 37.6002 62.0808 37.7561C61.9455 37.8957 61.7297 38.1425 61.2489 38.2602C60.7329 38.3786 60.2988 38.1485 60.1349 38.0049C60.1301 37.9968 60.1254 37.9889 60.1207 37.981C59.9624 37.8713 59.8306 37.7673 59.7005 37.6592C59.6701 37.6533 59.6373 37.6474 59.6029 37.6406C59.4342 37.6094 59.2229 37.561 59.028 37.4388C58.7165 37.2415 58.5535 36.9696 58.3993 36.6795C58.279 36.4523 58.165 36.2153 57.9887 35.97C57.8686 35.8027 57.7144 35.6183 57.5688 35.4235C57.352 35.1357 57.1558 34.8172 57.1031 34.5608C57.0831 34.4651 57.1136 34.3664 57.1463 34.2707C57.1466 34.2703 57.1468 34.2698 57.1471 34.2694C57.1493 34.2629 57.1514 34.2564 57.1536 34.2499C56.925 33.6704 56.7662 33.015 56.7547 32.3116C56.7428 32.2503 56.7323 32.1876 56.7233 32.1248C56.6836 31.8545 56.6707 31.5821 56.6375 31.3689C56.6353 31.3306 56.633 31.2939 56.6303 31.2589C56.6454 30.9427 56.6421 30.1481 57.7915 29.2593C58.1813 28.9845 58.8603 28.7163 59.6151 28.822C60.3736 28.9229 60.9149 29.3276 61.2171 29.618C61.5808 29.9722 61.6765 30.3172 61.7304 30.6041C61.7777 30.8748 61.7785 31.0994 61.8428 31.3117C61.8594 31.3668 61.8808 31.4236 61.9041 31.483C61.924 31.5326 61.9451 31.5828 61.9661 31.6344C62.0065 31.7375 62.0428 31.8198 62.0698 31.9212C62.0939 32.0063 62.0788 32.2034 62.0478 32.4288C62.0287 32.5672 62.0044 32.7188 61.9831 32.8757C62.0304 33.2816 62.0614 33.6746 62.0813 34.0665C62.1326 34.1502 62.2001 34.2236 62.288 34.2842C62.3511 34.3276 62.4271 34.366 62.5047 34.4056C62.6102 34.4596 62.7192 34.5161 62.8041 34.5912C62.8705 34.6497 62.8942 34.7165 62.8626 34.7582C62.8478 34.7776 62.8214 34.7915 62.7975 34.804C62.7702 34.8184 62.7459 34.8312 62.7454 34.8487C62.745 34.8614 62.7627 34.8758 62.7841 34.8936C62.8183 34.9217 62.8623 34.9593 62.8601 35.0111C62.8519 35.2032 62.8183 35.4213 62.781 35.639C62.7396 35.8821 62.6943 36.1199 62.6782 36.3277C62.6586 36.562 62.5464 36.868 62.3652 37.3038C62.2987 37.4606 62.2258 37.6405 62.0956 37.9059C62.0121 38.0704 61.9536 38.2059 61.7284 38.5269C61.5226 38.6949 61.1889 39.6588 59.3051 39.7482C58.5958 39.7376 57.9469 39.3808 57.6834 39.1636C57.4147 38.9546 57.2471 38.7572 57.1213 38.5901C56.9491 38.3631 56.8032 38.1747 56.6815 38.0151C56.4893 37.7601 56.34 37.5374 56.3118 37.3199C56.3062 37.2759 56.3535 37.1952 56.4165 37.1018C56.4608 37.0348 56.512 36.9587 56.5559 36.8791C56.4647 36.6485 56.3864 36.4191 56.3188 36.193C56.3065 36.1882 56.2939 36.1832 56.2812 36.1781C56.2809 36.1781 56.2807 36.178 56.2804 36.178C55.9942 36.0684 55.5975 35.893 55.6905 35.4699C55.7144 35.3628 55.789 35.2816 55.8565 35.2095C55.9228 35.1384 55.9824 35.0755 55.9821 35.0041C55.9817 34.9234 55.9133 34.8411 55.84 34.7492C55.7371 34.6203 55.6235 34.468 55.675 34.282C55.6786 34.2695 55.6825 34.256 55.6864 34.242C55.7234 34.1092 55.7804 33.9077 55.9296 33.6965C55.9276 33.4011 55.9341 33.0924 55.9951 32.685C56.028 32.4809 56.0716 32.2433 56.1835 31.9321C56.3057 31.629 56.4729 31.1481 57.1096 30.6567C57.546 30.3207 58.1845 30.1604 58.6386 30.1944C59.3567 30.1918 60.0206 30.6883 60.2438 31.0257C60.4957 31.3748 60.5477 31.5999 60.5927 31.7569C60.6271 31.8948 60.6383 31.9875 60.6461 32.0622C60.66 32.2082 60.6559 32.2915 60.6553 32.324C60.6528 32.4065 60.6459 32.4699 60.6427 32.4961C60.6343 32.5644 60.6269 32.6027 60.6205 32.6358C60.6074 32.7006 60.5967 32.7408 60.5859 32.7807C60.5647 32.8569 60.5449 32.9175 60.5244 32.9778C60.4839 33.0959 60.4422 33.2057 60.3951 33.3227C60.3469 33.4411 60.2979 33.559 60.2186 33.7277C60.1752 33.8165 60.1371 33.906 60.0194 34.1019C59.9353 34.215 59.9328 34.3144 59.5221 34.6774C59.3574 34.8024 58.7451 35.303 57.7494 35.0435C57.3426 34.9303 57.0336 34.6825 56.8836 34.5227C56.7412 34.3738 56.653 34.2393 56.5886 34.1259C56.458 33.8143 56.3507 33.5066 56.258 33.1986C56.1423 32.8131 56.2186 32.3723 56.4778 31.9898C56.6077 31.7988 56.7763 31.6279 56.9749 31.4928C57.1672 31.3726 57.4217 31.1963 57.6437 31.3433C58.1525 31.2258 58.5779 31.1156 58.9858 31.1793C59.3847 31.2301 59.6835 31.376 59.8363 31.5846C59.9582 31.7523 60.0862 31.9113 60.2137 32.0506C60.0762 31.8475 60.0159 31.6272 59.4024 31.2323C59.1281 31.0679 58.7034 30.9262 58.2836 30.9292C57.8509 30.9313 57.5564 31.0358 57.3308 31.138C57.0973 31.2482 56.9673 31.3477 56.8713 31.4232C56.774 31.5011 56.6948 31.5795 56.6461 31.6311C56.5524 31.73 56.487 31.818 56.4522 31.8662C56.3065 32.0776 56.3001 32.1107 56.274 32.1494C56.2367 32.2104 56.2359 32.1895 56.231 32.1684C56.2246 32.1202 56.2297 32.0211 56.2222 31.9602C56.2148 31.947 56.207 31.9361 56.198 31.9348C56.191 31.935 56.1827 31.9365 56.1698 31.9675C56.1634 31.9831 56.1553 32.007 56.1453 32.0652C56.1407 32.0912 56.1329 32.1493 56.1291 32.2383C56.1279 32.2683 56.1231 32.3759 56.14 32.5415C56.1518 32.637 56.1551 32.7063 56.2116 32.9236C56.2694 33.1129 56.3407 33.386 56.6512 33.7928C56.9306 34.1884 57.7059 34.7317 58.5186 34.7291C58.9575 34.8016 59.7048 34.6046 60.1215 34.2572C60.5384 33.933 60.7034 33.6561 60.821 33.5099C60.8894 33.4158 60.9378 33.3537 60.981 33.3023Z" fill="#951415"/>
</svg>
