<svg width="312" height="305" viewBox="0 0 312 305" fill="none" xmlns="http://www.w3.org/2000/svg">
<path d="M182.39 270.284C180.06 267.129 176.079 260.716 173.995 257.142C173.956 257.077 173.917 257.012 173.879 256.946C173.38 256.101 172.908 255.303 172.355 254.363C171.482 252.879 170.41 251.039 168.738 248.117C167.891 246.638 166.894 244.848 165.746 242.683C164.723 240.806 163.729 238.919 162.759 237.02C157.071 225.862 152.167 214.358 147.738 202.671C144.03 192.851 140.69 182.902 137.455 172.939C137.363 172.663 137.27 172.383 137.176 172.1C135.364 166.638 133.166 159.85 131.841 155.572C130.157 150.134 129.026 146.429 128.092 143.395C127.513 141.568 126.932 139.748 126.346 137.934C121.457 122.461 114.121 107.875 105.037 94.397C104.139 93.033 103.233 91.6734 102.324 90.3138C100.013 86.8476 98.3243 83.037 96.9744 79.1517C95.2369 74.1259 94.0624 68.95 93.0883 63.765C92.5021 60.753 92.0081 57.8686 91.5445 55.2193C91.1478 52.9551 90.7727 50.8448 90.3686 48.9744C90.0929 47.698 89.905 46.4903 89.7862 45.365C89.4921 42.2446 89.4301 38.8845 90.606 35.5962C91.3941 33.8217 93.0944 33.3341 94.508 33.247C97.927 33.3401 99.3348 36.1039 100.437 37.8044C100.921 38.6384 101.321 39.443 101.671 40.1944C103.621 44.3541 104.965 48.6729 106.489 52.8753C106.49 52.88 106.492 52.8847 106.493 52.8894C106.573 53.1414 106.667 53.4062 106.773 53.6823C108.143 57.1158 110.626 61.1764 114.658 67.3686C116.424 70.0667 118.509 73.1728 120.99 76.8171C122.305 78.747 123.063 79.9046 123.658 80.8292C123.79 81.0333 123.912 81.2235 124.029 81.4054C124.221 81.7043 124.399 81.9819 124.581 82.2593C125.186 83.1867 125.935 84.2034 126.758 85.3098C127.882 86.8243 129.169 88.5477 130.826 90.9817C136.075 98.6716 138.611 101.909 140.484 104.386C141.034 105.111 141.531 105.77 142.031 106.461C143.64 108.684 145.837 111.976 147.097 114.741C147.533 115.678 148.129 117.044 148.633 118.612C149.31 120.686 149.755 123.088 150.041 125.112C150.234 126.46 150.41 128.29 150.55 130.433C150.697 132.653 150.811 135.218 150.945 137.955C151.143 142.033 151.287 144.972 151.423 147.311C151.517 148.962 151.567 150.297 151.599 151.521C151.621 152.373 151.634 153.16 151.641 153.952C151.664 156.446 151.601 159.554 151.419 162.68C151.208 166.432 150.825 170.222 150.504 173.09C149.818 178.832 148.733 184.541 148.683 190.135L148.683 190.159C148.648 191.83 148.661 193.5 148.737 195.165C148.857 197.882 149.108 200.503 149.452 202.725L149.445 202.694C149.603 203.542 149.79 204.314 149.979 205.034C150.682 207.622 151.017 209.138 150.778 209.224C150.55 209.301 149.78 207.984 148.712 205.46C148.42 204.753 148.127 203.942 147.881 203.065L147.875 203.04C147.314 200.769 146.929 198.059 146.777 195.264C146.682 193.551 146.65 191.838 146.669 190.127L146.668 190.147C146.676 183.964 147.797 178.019 148.433 172.059C149.394 163.857 149.789 155.64 149.369 147.411C149.314 146.291 149.264 145.184 149.217 144.068C148.907 137.495 148.876 130.887 148.036 124.484C147.944 123.825 147.84 123.176 147.72 122.526C147.491 121.38 147.209 120.246 146.856 119.178C145.6 115.285 143.349 112.008 141.667 109.522C139.866 106.906 138.516 104.998 137.375 103.356C136.581 102.22 135.896 101.241 135.157 100.221C134.785 99.7069 134.227 98.9395 133.601 98.0772C130.981 94.4725 126.553 88.3088 122.673 82.5933C122.51 82.3531 122.343 82.1073 122.173 81.8561C120.565 79.4817 118.786 76.8052 117.099 74.2277C114.426 70.1508 112.007 66.3106 110.768 64.3762C108.692 61.0835 106.301 57.3766 104.809 53.4904C104.759 53.3486 104.71 53.2067 104.661 53.0648C103.398 49.3735 102.325 46.1722 101.581 44.4082C100.691 42.3122 100.006 40.4651 98.5532 38.0693C97.7319 36.8292 96.519 34.978 94.5777 34.9753C94.1114 34.9917 93.5986 35.1032 93.1493 35.3241C92.6753 35.5564 92.3509 35.8822 92.2141 36.2297C91.3033 38.7732 91.2919 41.0749 91.2906 42.9506C91.3285 45.0121 91.535 46.7523 91.9254 48.6513C92.1552 49.7537 92.378 50.9202 92.6271 52.244C93.3825 56.314 94.081 60.5494 94.6949 63.8716C94.9703 65.3843 95.317 67.1095 95.7191 68.8924C96.2499 71.2532 96.885 73.7145 97.5375 75.9367C98.0745 77.7686 98.5491 79.2706 99.0073 80.589C99.1497 80.9986 99.2924 81.3939 99.4343 81.7716C100.008 83.1779 100.637 84.557 101.336 85.8992C101.456 86.1122 101.585 86.3375 101.721 86.569C102.215 87.41 102.822 88.3832 103.584 89.4694C103.877 89.8879 104.186 90.3313 104.508 90.8007C106.377 93.518 107.952 95.9536 109.566 98.5501C110.823 100.573 112.107 102.697 113.546 105.147C114.529 106.819 115.628 108.736 116.676 110.659C118.238 113.521 119.669 116.391 120.591 118.427C120.941 119.197 121.205 119.851 121.471 120.52C121.473 120.523 121.474 120.526 121.475 120.528C121.493 120.574 121.511 120.619 121.529 120.664C123.763 125.617 125.743 130.683 127.507 135.823C127.665 136.264 127.823 136.713 127.979 137.163C128.003 137.233 128.028 137.303 128.052 137.373C128.779 139.472 129.466 141.482 129.946 142.811C130.485 144.297 131.725 148.06 133.028 152.024C133.882 154.621 134.765 157.305 135.502 159.494C135.93 160.766 136.294 161.996 136.668 163.259C137.017 164.435 137.378 165.647 137.811 166.951C138.028 167.608 138.272 168.311 138.532 169.063C138.761 169.725 139.004 170.424 139.254 171.158C139.486 171.841 139.971 173.368 140.6 175.326C140.989 176.536 141.432 177.91 141.905 179.35C143.203 183.139 144.524 186.918 145.878 190.685C146.182 191.461 146.46 192.134 146.697 192.658C146.866 193.034 147.021 193.349 147.18 193.673C147.398 194.117 147.623 194.575 147.903 195.213C148.121 195.709 148.358 196.315 148.493 196.723C148.556 196.914 148.598 197.063 148.635 197.198C148.679 197.353 148.717 197.49 148.778 197.653C148.822 197.771 148.877 197.893 148.944 198.04C149.051 198.277 149.19 198.584 149.369 199.06C149.678 199.879 150.016 200.776 150.356 201.67C150.752 202.714 151.156 203.769 151.565 204.824C152.415 207.017 153.263 209.147 153.963 210.837C154.748 212.735 155.838 215.436 156.974 218.136C157.762 220.012 158.574 221.896 159.29 223.495C159.992 225.064 160.758 226.67 161.519 228.232C162.429 230.1 163.325 231.886 164.055 233.42C164.201 233.726 164.361 234.129 164.559 234.627C164.699 234.977 164.864 235.387 165.058 235.846C166.04 237.769 167.047 239.685 168.077 241.584C168.118 241.648 168.16 241.714 168.202 241.78C168.202 241.781 168.203 241.782 168.204 241.783C168.975 242.993 169.985 244.563 171.208 246.679C171.501 247.187 171.809 247.734 172.125 248.313C172.541 249.077 172.779 249.576 172.992 250.022C173.201 250.46 173.39 250.856 173.703 251.404C174.061 252.031 174.512 252.749 175.009 253.535C175.702 254.633 176.484 255.862 177.203 257.127C177.252 257.213 177.305 257.306 177.361 257.403C177.884 258.322 178.662 259.674 179.415 261.038C181.838 264.962 184.353 268.824 187.017 272.577C191.454 278.831 196.317 284.789 201.749 290.189C202.196 290.633 202.643 291.073 203.086 291.507C205.271 293.642 207.301 295.617 208.887 297.133C210.782 298.968 211.905 299.912 211.809 300.11C211.69 300.349 210.206 299.732 208.044 298.146C206.231 296.834 204.032 294.987 201.765 292.901C201.3 292.473 200.836 292.036 200.375 291.59C195.93 287.293 191.844 282.636 188.065 277.76C187.865 277.505 187.664 277.249 187.466 276.994C185.99 275.095 184.632 273.323 183.302 271.528C182.997 271.116 182.693 270.702 182.39 270.284Z" fill="#951415"/>
<path d="M149.781 181.823C149.574 178.989 149.577 173.487 149.648 170.466C149.649 170.412 149.651 170.357 149.652 170.302C149.666 169.593 149.678 168.915 149.694 168.112C149.694 168.095 149.695 168.077 149.695 168.06C149.747 166.162 149.776 163.584 150.275 158.288C150.402 156.738 150.557 155.174 150.738 153.624C151.572 146.587 152.901 139.6 155.057 132.797C158.29 123.513 162.145 114.687 165.77 105.688C165.847 105.494 165.926 105.295 166.006 105.094C167.554 101.194 169.457 96.3688 170.692 93.3511C172.265 89.5113 173.335 86.9064 174.214 84.7662C174.379 84.3495 174.545 83.9311 174.711 83.5109C179.483 71.6042 183.527 59.5317 188.014 47.414C188.081 47.2517 188.148 47.0916 188.224 46.918C188.295 46.7546 188.369 46.5897 188.452 46.4162C188.525 46.2656 188.629 46.0595 188.723 45.9022C188.789 45.7917 188.848 45.7001 188.933 45.5936C188.991 45.5216 189.055 45.45 189.147 45.3751C189.193 45.3364 189.507 45.085 189.921 45.1746C190.968 45.3594 192.004 46.1574 192.449 47.1157C192.919 48.0643 193.037 49.0188 193.08 49.9538C193.139 51.7954 192.85 53.5653 192.511 55.2909C191.726 59.1113 190.59 62.7761 189.459 66.4489C188.817 68.5893 188.2 70.6195 187.639 72.4998C186.85 75.1448 186.173 77.4987 185.631 79.4463C184.859 82.214 184.071 85.2277 183.517 88.044C183.127 90.0155 182.803 91.8978 182.556 93.5471C182.457 94.2105 182.371 94.8281 182.295 95.4111C181.915 98.6243 181.696 101.874 181.663 105.108C181.65 105.325 181.637 105.543 181.625 105.765C181.48 108.527 181.544 111.943 182.086 117.292C182.323 119.622 182.659 122.323 183.093 125.495C183.375 127.543 183.479 128.597 183.564 129.469C183.589 129.721 183.612 129.959 183.638 130.2C183.728 131.035 183.888 131.888 184.079 132.91C184.243 133.784 184.427 134.769 184.606 135.965C184.697 136.572 184.784 137.229 184.862 137.946C185.586 144.717 185.937 147.691 186.235 149.945C186.319 150.605 186.392 151.209 186.453 151.82C186.653 153.816 186.782 156.673 186.802 158.835C186.827 160.548 186.954 163.971 186.962 166.581C186.967 167.564 186.934 168.904 186.846 170.47C186.753 172.093 186.603 173.982 186.337 176C185.99 178.604 185.508 180.606 184.892 182.178C184.329 183.609 183.856 184.707 183.42 185.672C183.158 186.25 182.919 186.761 182.661 187.293C181.862 188.944 180.78 190.956 179.522 192.911C178.032 195.249 176.256 197.478 174.813 199.063C173.149 200.85 171.32 202.461 169.625 204.059L169.55 204.125C167.158 206.029 164.775 207.933 162.371 209.831C160.534 211.277 158.714 212.627 157.131 213.622L157.095 213.647C156.768 213.828 156.452 213.989 156.151 214.13C154.296 214.978 153.196 215.206 153.085 214.998C152.966 214.77 153.891 214.092 155.476 212.976C155.733 212.792 156.001 212.596 156.275 212.387L156.246 212.407C157.62 211.236 159.336 209.765 161.144 208.299C163.514 206.373 165.87 204.437 168.239 202.5L168.176 202.556C170.051 200.746 171.922 199.053 173.589 197.173C177.697 192.614 180.669 187.143 182.994 181.406C183.19 180.923 183.366 180.403 183.522 179.869C184.746 175.453 184.976 170.639 185.066 165.906C185.073 165.424 185.076 164.921 185.077 164.439C185.015 160.443 184.755 156.462 184.542 153.651C184.367 151.332 184.25 149.647 184.142 148.195C184.068 147.199 183.996 146.318 183.898 145.427C183.846 144.947 183.772 144.299 183.677 143.51C183.455 141.657 183.117 139.056 182.71 136.239C182.412 134.169 182.096 131.981 181.813 129.873C181.517 127.662 181.195 125.075 180.925 122.605C180.532 119.072 180.282 115.757 180.142 114.084C179.879 111.147 179.792 107.754 179.883 104.761C179.962 101.908 180.182 99.4126 180.275 98.0008C180.387 96.3103 180.572 94.8693 180.911 92.7459C181.125 91.4226 181.405 89.8175 181.818 87.7188C181.861 87.4996 181.907 87.274 181.955 87.0416C182.544 84.2218 183.105 82.2727 183.582 80.6166C184.263 78.291 184.812 76.5561 185.555 73.951C186.383 71.0566 187.305 68.0553 188.057 65.7084C188.402 64.6313 188.777 63.4054 189.153 62.1275C189.648 60.441 190.147 58.6447 190.564 57.0116C190.908 55.6625 191.18 54.5602 191.382 53.5675C191.446 53.2532 191.498 52.9805 191.548 52.6807C191.682 51.6067 191.759 50.5001 191.656 49.467C191.631 49.2967 191.602 49.1401 191.562 48.9567C191.362 48.0808 190.939 47.0415 189.841 46.7499C189.765 46.7282 189.685 46.7094 189.602 46.6935C189.871 46.749 190.056 46.6327 190.101 46.6007C190.14 46.5735 190.152 46.5595 190.154 46.5585C190.151 46.5629 190.131 46.5893 190.106 46.6297C190.046 46.7281 190.006 46.8049 189.942 46.9332C189.84 47.141 189.729 47.3914 189.628 47.6316C189.426 48.1097 189.232 48.6037 189.044 49.0909C188.67 50.0605 188.301 51.0491 187.938 52.031C187.336 53.6621 186.731 55.3376 186.06 57.2937C185.603 58.6269 185.093 60.1544 184.59 61.6541C183.837 63.895 183.087 66.0997 182.523 67.6215C182.315 68.1857 182.103 68.6853 181.905 69.1495C181.904 69.1516 181.903 69.1536 181.902 69.1557C181.888 69.1878 181.874 69.22 181.861 69.2521C180.544 72.9797 179.204 76.6857 177.826 80.3886C177.712 80.7089 177.597 81.0341 177.481 81.3579C177.117 82.3752 176.772 83.3362 176.468 84.1923C176.297 84.6773 176.145 85.1136 176.022 85.4795C175.661 86.5619 174.638 89.2752 173.556 92.117C172.848 93.9763 172.109 95.9079 171.52 97.4769C171.171 98.4045 170.803 99.248 170.415 100.135C170.059 100.95 169.686 101.803 169.323 102.732C169.144 103.193 168.948 103.717 168.748 104.257C168.571 104.732 168.382 105.239 168.178 105.77C167.991 106.257 167.537 107.346 166.963 108.719C166.602 109.585 166.2 110.547 165.776 111.572C164.711 114.28 163.634 117.017 162.575 119.724C162.376 120.298 162.21 120.812 162.101 121.209C162.023 121.493 161.961 121.757 161.902 122.014C161.819 122.37 161.742 122.717 161.593 123.219C161.477 123.608 161.326 124.03 161.194 124.329C161.133 124.465 161.08 124.566 161.032 124.657C160.977 124.761 160.928 124.854 160.882 124.972C160.85 125.057 160.824 125.148 160.793 125.26C160.743 125.437 160.671 125.685 160.539 126.03C160.042 127.32 159.473 128.784 158.938 130.219C158.487 131.427 158.058 132.62 157.734 133.645C157.631 133.971 157.532 134.295 157.439 134.608C157.02 136.018 156.43 138.037 155.915 140.083C155.554 141.511 155.225 142.948 154.971 144.191C154.722 145.41 154.512 146.69 154.328 147.926C154.106 149.414 153.922 150.847 153.731 152.068C153.693 152.311 153.617 152.611 153.522 152.993C153.454 153.269 153.379 153.568 153.303 153.924C153.12 155.481 152.963 157.049 152.83 158.61C152.831 158.666 152.831 158.725 152.832 158.782C152.832 158.783 152.832 158.784 152.832 158.785C152.848 160.074 152.879 161.841 152.672 164.31C152.619 164.944 152.559 165.33 152.506 165.687C152.453 166.035 152.407 166.357 152.387 166.809C152.37 167.193 152.371 167.631 152.38 168.11C152.383 168.279 152.387 168.452 152.391 168.628C152.412 169.584 152.442 170.624 152.394 171.695C152.391 171.767 152.388 171.845 152.384 171.926C152.351 172.683 152.306 173.841 152.227 174.961C152.217 178.313 152.261 181.693 152.367 185.047C152.546 190.638 152.886 196.238 153.508 201.791C153.814 204.508 154.1 207.086 154.303 208.998C154.496 210.921 154.633 211.942 154.453 212.056C154.203 212.178 153.565 211.147 153.012 209.26C152.441 207.369 151.923 204.777 151.56 202.03C150.974 197.591 150.572 193.106 150.289 188.636C150.271 188.401 150.254 188.164 150.237 187.926C150.115 186.198 149.981 184.558 149.861 182.95C149.834 182.579 149.807 182.203 149.781 181.823Z" fill="#951415"/>
<path d="M171.573 196.972C173.066 195.164 175.865 191.523 177.292 189.45C177.318 189.412 177.345 189.374 177.372 189.335C177.724 188.832 178.032 188.379 178.406 187.818C179.283 186.495 180.477 184.713 182.852 180.881C183.516 179.76 184.17 178.635 184.832 177.48C189.811 168.757 194.366 159.781 198.769 150.681C200.551 146.99 202.182 143.223 203.638 139.399C203.699 139.233 203.761 139.064 203.823 138.893C205.04 135.581 206.349 131.368 207.112 128.725C208.096 125.363 208.665 123.046 209.113 121.141C210.631 114.442 211.269 107.877 211.922 100.764C213.161 96.2356 215.417 92.3708 217.724 88.5216C218.11 87.895 218.503 87.2734 218.903 86.6566C219.341 85.998 219.966 85.2375 221.036 85.0257C222.12 84.8345 223.031 85.397 223.624 85.9714C224.842 87.0863 225.319 88.7986 225.414 90.2639C225.604 93.7202 224.979 96.9533 224.445 100.169C224.135 102.042 223.802 103.863 223.497 105.485C223.055 107.82 222.649 109.846 222.28 111.571C221.41 115.638 220.303 120.241 219.472 123.665C219.339 124.215 219.21 124.744 219.09 125.238C218.47 127.963 217.855 130.647 217.218 133.419C217.163 133.608 217.114 133.773 217.06 133.954C216.396 136.203 215.714 139.09 214.654 143.559C214.453 144.407 214.235 145.327 213.995 146.334C213.691 147.613 213.344 148.977 212.927 150.478C212.449 152.187 212.132 153.047 211.876 153.747C211.8 153.953 211.73 154.141 211.659 154.34C211.414 155.016 211.22 155.735 210.976 156.594C210.661 157.701 210.268 159.032 209.572 160.723C207.324 166.091 206.282 168.428 205.55 170.226C205.328 170.755 205.129 171.223 204.907 171.707C204.195 173.265 203.038 175.411 202.113 177.001C201.385 178.267 200.019 180.839 198.984 182.791C198.595 183.528 198.038 184.512 197.386 185.666C197.256 185.896 197.122 186.133 196.985 186.376C196.398 187.42 195.73 188.547 194.993 189.731C192.672 193.417 191.19 195.217 190.022 196.667C189.683 197.079 189.362 197.46 189.043 197.832C188.024 199.021 186.705 200.446 185.303 201.82C183.622 203.474 181.833 205.039 180.431 206.2C176.969 208.965 173.219 211.367 169.55 213.685L169.489 213.722C169.25 213.853 169.01 213.982 168.77 214.108C167.711 214.662 166.645 215.13 165.662 215.53C164.633 215.958 163.62 216.301 162.773 216.517C161.106 216.942 160.135 216.991 160.055 216.761C159.978 216.523 160.808 216.017 162.302 215.266C163.066 214.881 163.94 214.435 164.912 213.918C165.848 213.426 166.849 212.919 167.847 212.376C168.073 212.252 168.298 212.127 168.522 211.999L168.471 212.03C172.267 209.547 175.995 207.061 179.436 204.202C183.882 200.538 187.876 196.353 191.252 191.705C192.716 189.693 194.066 187.593 195.296 185.423C196.063 184.071 196.832 182.723 197.595 181.375C197.801 181.01 198.008 180.645 198.214 180.279C199.834 177.266 201.389 174.233 202.442 172.088C203.316 170.314 203.96 169.029 204.503 167.92C204.876 167.158 205.197 166.483 205.502 165.782C205.663 165.411 205.883 164.896 206.139 164.277C207.201 161.747 208.839 157.388 210.127 153.342C210.707 151.547 211.349 149.452 211.906 147.431C212.045 146.929 212.18 146.428 212.309 145.933C212.938 143.527 213.437 141.609 213.708 140.393C214.25 137.955 214.945 135.158 215.544 132.739C216.133 130.357 216.628 128.349 216.865 127.157C217.134 125.796 217.449 124.537 217.88 122.818C218.188 121.584 218.554 120.12 219.042 118.038C219.587 115.713 220.001 114.034 220.352 112.597C220.834 110.62 221.194 109.133 221.621 106.844C222.089 104.326 222.57 101.708 222.953 99.65C223.123 98.7419 223.304 97.66 223.466 96.5213C223.677 95.0394 223.855 93.481 223.921 92.0834C223.975 90.9297 223.963 89.9912 223.833 89.2083C223.789 88.955 223.741 88.7417 223.672 88.5165C223.456 87.9199 223.122 87.4096 222.66 86.9679C222.517 86.8303 222.363 86.7081 222.204 86.6118C222.097 86.5558 221.984 86.5087 221.87 86.4769C221.319 86.3152 220.773 86.5549 220.199 87.4937C220.174 87.5341 220.149 87.5748 220.124 87.6157C219.064 89.3454 218.13 90.8611 217.201 92.4895C216.48 93.7591 215.758 95.098 215.051 96.6814C214.572 97.7598 214.074 99.0132 213.719 100.261C213.636 100.552 213.562 100.843 213.502 101.126C213.303 102.571 213.271 104.289 213.153 105.423C213.106 105.932 213.039 106.386 212.971 106.818C212.971 106.82 212.971 106.822 212.97 106.824C212.966 106.854 212.961 106.884 212.956 106.914C212.686 110.294 212.287 113.631 211.737 116.991C211.696 117.278 211.653 117.565 211.609 117.856C211.391 119.287 211.152 120.655 211.014 121.549C210.863 122.541 210.368 124.953 209.735 127.493C209.322 129.162 208.862 130.858 208.47 132.259C208.241 133.078 207.977 133.817 207.689 134.605C207.425 135.326 207.151 136.055 206.874 136.886C206.737 137.298 206.6 137.733 206.446 138.208C206.311 138.624 206.163 139.075 206.004 139.531C205.859 139.949 205.495 140.892 205.008 142.086C204.712 142.812 204.358 143.664 203.989 144.53C203.054 146.861 202.062 149.154 201.003 151.437C200.968 151.524 200.933 151.609 200.899 151.692C200.744 152.077 200.617 152.416 200.523 152.699C200.441 152.946 200.382 153.16 200.321 153.379C200.239 153.678 200.153 153.985 200.007 154.393C199.894 154.708 199.73 155.08 199.599 155.32C199.538 155.431 199.484 155.513 199.435 155.588C199.379 155.673 199.33 155.749 199.282 155.848C199.248 155.919 199.22 155.997 199.186 156.093C199.132 156.246 199.062 156.445 198.924 156.73C198.421 157.772 197.8 159.023 197.219 160.179C196.55 161.511 195.918 162.753 195.396 163.801C194.825 164.947 193.957 166.57 193.089 168.159C192.466 169.303 191.865 170.389 191.329 171.371C190.819 172.306 190.296 173.315 189.796 174.267C189.191 175.419 188.607 176.514 188.05 177.439C187.938 177.626 187.773 177.841 187.568 178.108C187.422 178.297 187.256 178.512 187.073 178.762C186.389 179.956 185.708 181.121 185.017 182.275C184.997 182.318 184.977 182.363 184.956 182.407C184.956 182.408 184.956 182.408 184.956 182.409C184.476 183.443 183.836 184.825 182.605 186.593C182.29 187.044 182.074 187.297 181.87 187.538C181.668 187.777 181.489 187.988 181.266 188.316C181.016 188.683 180.74 189.147 180.438 189.648C180.025 190.335 179.532 191.134 178.98 191.854C178.941 191.905 178.899 191.959 178.856 192.015C178.451 192.544 177.837 193.331 177.195 194.054C175.427 196.39 173.577 198.635 171.455 200.708C170.68 201.461 169.87 202.186 168.997 202.861C166.034 205.15 163.091 207.446 160.189 209.784C158.376 211.246 156.608 212.594 155.27 213.552C153.926 214.505 153.165 215.007 152.979 214.864C152.783 214.705 153.266 213.815 154.389 212.572C155.509 211.32 157.148 209.783 158.94 208.27C161.806 205.852 164.705 203.483 167.628 201.126C167.673 201.09 167.717 201.054 167.762 201.017C167.903 200.897 168.048 200.772 168.194 200.642C169.241 199.71 170.136 198.714 170.99 197.688C171.187 197.451 171.385 197.208 171.573 196.972Z" fill="#951415"/>
<path d="M136.134 185.222C135.059 183.059 133.354 178.73 132.495 176.317C132.479 176.273 132.463 176.229 132.447 176.185C132.241 175.614 132.044 175.072 131.817 174.439C131.691 174.086 131.556 173.704 131.405 173.27C130.936 171.926 130.215 170.036 128.789 166.949C128.227 165.794 127.642 164.642 127.039 163.494C121.913 153.931 116.127 144.485 109.178 136.261C107.237 134.053 104.783 132.241 102.167 130.715C102.015 130.629 101.862 130.544 101.706 130.458C98.6997 128.776 94.6698 127.219 92.0988 126.362C88.8322 125.258 86.5462 124.685 84.6722 124.242C81.614 123.58 78.4857 123.079 75.4018 122.921C67.8463 123.076 60.8959 128.288 54.1783 132.382C52.9798 133.147 51.7816 133.916 50.5775 134.679C48.8506 135.776 47.1436 136.989 45.4903 138.229C42.9162 140.161 40.4251 142.19 37.9656 144.28C36.5492 145.512 35.2236 146.705 34.0021 147.823C32.286 149.394 30.7789 150.813 29.5298 151.983C26.5194 154.796 23.1273 158.014 20.6629 160.458C20.2608 160.856 19.8807 161.235 19.5318 161.586C18.8901 162.25 18.2398 162.931 17.6147 163.598C17.6394 163.571 17.6866 163.521 17.7362 163.411C17.7781 163.341 17.8532 163.021 17.7406 162.779C17.5116 162.343 17.3598 162.399 17.3541 162.372C17.3072 162.357 17.3861 162.379 17.4682 162.386C17.6246 162.401 17.8307 162.406 18.0511 162.404C18.4592 162.399 18.9254 162.37 19.3554 162.335C20.2486 162.263 21.1449 162.16 22.0446 162.045C22.224 162.033 22.4255 162.018 22.6029 162.006C24.9438 161.835 27.7987 161.41 32.2879 160.616C34.2419 160.27 36.5112 159.85 39.1645 159.342C40.888 159.011 41.7759 158.883 42.495 158.781C42.7076 158.75 42.9081 158.721 43.1114 158.689C43.8196 158.578 44.5132 158.4 45.3747 158.18C45.9218 158.039 46.5241 157.884 47.224 157.72C47.9151 157.559 48.6808 157.392 49.5543 157.227C55.1787 156.148 57.5635 155.354 59.3902 154.779C59.915 154.61 60.4074 154.45 60.902 154.3C62.5071 153.815 64.8216 153.197 66.5753 152.733C67.9622 152.371 70.6928 151.477 72.7457 150.745C73.5279 150.468 74.5879 150.12 75.8244 149.706C77.117 149.273 78.6052 148.765 80.1821 148.192C84.1775 146.737 86.3115 145.945 88.0322 145.34C88.5207 145.167 88.9805 145.007 89.4459 144.849C90.6794 144.437 92.1347 143.935 93.8128 143.593L94.0212 143.575C94.3298 143.575 94.6424 143.577 94.9558 143.58C97.2752 143.603 99.6224 143.717 101.406 143.824C106.021 144.217 110.609 144.786 115.181 145.753C116.155 145.969 117.112 146.211 118.039 146.564L118.07 146.575C119.277 147.092 120.338 147.639 121.194 148.13C122.655 148.972 123.405 149.577 123.305 149.801C123.204 150.028 122.252 149.855 120.659 149.354C119.726 149.063 118.618 148.676 117.422 148.278L117.448 148.288C116.649 148.058 115.712 147.863 114.778 147.674C110.187 146.782 105.465 146.281 100.768 145.962C98.5112 145.815 96.2527 145.724 94.0009 145.712L94.1995 145.695C90.9915 146.393 87.6284 147.711 84.3395 148.832C80.5245 150.169 76.6838 151.491 72.8115 152.726C72.4168 152.852 72.0176 152.978 71.614 153.105C68.3883 154.196 65.1274 155.215 62.8212 155.881C60.9181 156.432 59.5152 156.772 58.3017 157.06C57.482 157.254 56.7351 157.427 55.9999 157.614C55.6055 157.714 55.0647 157.852 54.4046 158.017C52.7186 158.44 50.2617 159.031 47.618 159.584C46.0804 159.907 44.5192 160.22 42.9718 160.511C41.1132 160.861 38.9501 161.234 36.8803 161.574C33.9265 162.061 31.1529 162.476 29.7647 162.727C27.3412 163.168 24.4986 163.579 21.9949 163.849C20.9269 163.964 19.9305 164.054 19.0067 164.104C18.5453 164.128 18.111 164.142 17.6918 164.13C17.4618 164.122 17.2552 164.111 17.0109 164.065C16.9464 164.052 16.8564 164.031 16.7757 164.003C16.7033 163.976 16.5819 163.939 16.4152 163.807C16.3319 163.733 16.2621 163.681 16.1603 163.485C16.0715 163.308 16.0503 163.076 16.0898 162.903C16.1543 162.627 16.2664 162.508 16.3573 162.404C16.4611 162.29 16.5582 162.183 16.6477 162.082C17.5983 161.016 18.4659 160.153 19.7602 158.894C20.655 158.026 21.7655 156.957 23.2732 155.511C25.0162 153.841 26.2818 152.699 27.3622 151.731C28.884 150.37 30.0358 149.355 31.701 147.784C33.5521 146.039 35.5313 144.267 37.1466 142.93C37.883 142.32 38.7182 141.62 39.5967 140.898C40.7556 139.945 41.9956 138.952 43.1548 138.087C44.1054 137.376 44.9296 136.819 45.6559 136.34C45.8785 136.193 46.1036 136.045 46.3152 135.906C47.0772 135.356 47.8644 134.805 48.6551 134.274C48.7776 134.183 48.9051 134.088 49.0455 133.985C49.2785 133.814 49.5271 133.633 49.7921 133.446C50.3214 133.072 50.9306 132.646 51.6372 132.171C53.3188 131.039 54.8312 130.094 56.4393 129.115C57.6916 128.353 59.0035 127.567 60.5128 126.672C61.5429 126.063 62.7222 125.374 63.9175 124.73C65.6915 123.767 67.5199 122.924 68.8449 122.464C69.3456 122.287 69.7836 122.172 70.2211 122.069C70.223 122.069 70.2249 122.068 70.2269 122.068C70.2564 122.061 70.286 122.054 70.3155 122.047C71.9564 121.541 73.6784 121.183 75.4694 121.238C77.1525 121.294 78.859 121.461 80.5193 121.683C80.8067 121.717 81.1008 121.753 81.3957 121.791C82.8135 121.974 84.178 122.203 85.0787 122.341C86.0563 122.487 88.4673 122.99 90.9812 123.701C92.6251 124.162 94.3069 124.706 95.6709 125.186C96.4689 125.466 97.2036 125.791 97.9523 126.141C98.6503 126.468 99.3597 126.816 100.147 127.182C100.54 127.364 100.966 127.559 101.419 127.774C101.817 127.964 102.237 128.171 102.67 128.399C103.069 128.612 103.949 129.117 105.037 129.841C105.708 130.287 106.458 130.819 107.217 131.411C108.531 132.395 109.778 133.49 110.898 134.728C111.49 135.383 112.082 136.071 112.651 136.756C112.999 137.138 113.318 137.48 113.571 137.726C113.755 137.906 113.922 138.055 114.093 138.21C114.327 138.422 114.558 138.629 114.861 138.952C115.099 139.206 115.35 139.515 115.5 139.74C115.569 139.844 115.617 139.929 115.66 140.006C115.71 140.095 115.754 140.174 115.82 140.263C115.868 140.326 115.926 140.389 115.994 140.462C116.103 140.579 116.245 140.733 116.433 140.99C117.138 141.95 117.907 143.046 118.651 144.138C119.477 145.351 120.263 146.542 120.894 147.493C121.6 148.555 122.554 150.106 123.482 151.672C124.13 152.765 124.766 153.866 125.314 154.811C125.85 155.735 126.424 156.685 126.976 157.618C127.633 158.73 128.259 159.817 128.732 160.76C128.828 160.95 128.923 161.207 129.038 161.523C129.12 161.748 129.212 162.003 129.325 162.294C129.953 163.49 130.564 164.699 131.145 165.912C131.171 165.953 131.197 165.996 131.224 166.038C131.224 166.039 131.224 166.04 131.225 166.04C131.81 166.991 132.622 168.308 133.345 170.341C133.534 170.876 133.609 171.199 133.683 171.513C133.751 171.8 133.809 172.055 133.915 172.388C133.923 172.412 133.931 172.437 133.939 172.463C134.077 172.881 134.276 173.363 134.494 173.887C134.802 174.624 135.15 175.44 135.432 176.291C135.451 176.349 135.471 176.411 135.493 176.476C135.697 177.089 136.005 178.001 136.28 178.916C137.308 181.56 138.389 184.176 139.522 186.778C141.414 191.113 143.434 195.395 145.617 199.583C146.675 201.613 147.67 203.592 148.365 205.05C149.069 206.542 149.423 207.309 149.316 207.485C149.119 207.699 148.267 207.069 147.246 205.747C146.218 204.442 145.007 202.542 143.887 200.512C142.05 197.176 140.337 193.811 138.702 190.387C138.614 190.209 138.527 190.033 138.44 189.855C137.787 188.519 137.169 187.309 136.553 186.071C136.413 185.789 136.274 185.508 136.134 185.222Z" fill="#951415"/>
<path d="M101.146 161.389C99.4836 162.676 96.0918 164.88 94.2064 166.064C94.172 166.086 94.1376 166.108 94.1031 166.129C93.6572 166.411 93.2347 166.681 92.7415 166.996C91.5634 167.742 89.9746 168.762 86.5777 170.752C85.6005 171.351 84.623 171.941 83.6345 172.528C80.1023 174.624 76.5 176.651 72.8404 178.536C65.5173 182.301 58.1455 185.946 50.6665 189.422C50.5255 189.49 50.3825 189.558 50.2383 189.628C47.457 190.964 43.9665 192.586 41.7394 193.526C38.9042 194.726 36.9708 195.483 35.3631 196.093C32.4222 197.25 29.4642 198.378 26.3551 199.192C21.7833 200.406 16.9933 201.061 12.6305 202.273C12.6561 202.263 12.7146 202.247 12.8131 202.168C12.8699 202.123 12.9765 202.012 13.0319 201.862C13.0921 201.706 13.0881 201.543 13.0635 201.437C13.0029 201.207 12.9345 201.169 12.9169 201.141C12.8913 201.113 12.8826 201.108 12.8845 201.11C12.8936 201.119 12.9752 201.171 13.0637 201.217C13.2298 201.305 13.4555 201.404 13.6521 201.485C14.0734 201.658 14.5275 201.821 14.9728 201.974C15.8736 202.283 16.787 202.564 17.7105 202.837C20.6303 203.693 23.5978 204.446 26.5686 205.152C28.788 205.677 30.9976 206.17 33.2326 206.645C33.7733 206.76 34.3079 206.873 34.8364 206.983C36.4154 207.292 37.9856 207.588 39.3989 207.848C41.4033 208.217 43.1795 208.532 44.6507 208.804C48.1975 209.462 52.1965 210.216 55.1779 210.715C55.6768 210.799 56.1385 210.875 56.5592 210.943C58.9389 211.287 61.3219 211.591 63.6972 211.825C63.8536 211.851 64.0204 211.878 64.1831 211.905C66.2024 212.223 68.723 212.502 72.6322 212.458C74.3465 212.418 76.3128 212.318 78.5407 211.824C79.7136 211.555 80.3966 211.339 80.9282 211.174C81.0379 211.14 81.1416 211.105 81.2418 211.069C81.403 211.011 81.5613 210.947 81.7104 210.879C82.2234 210.647 82.7284 210.283 83.2726 209.807C83.9884 209.179 84.772 208.367 85.8185 207.253C89.0866 203.605 89.9948 201.512 90.8025 200.08C91.0243 199.658 91.2269 199.267 91.4457 198.865C92.1383 197.596 93.2024 195.773 93.9935 194.423C94.6277 193.349 95.7539 191.093 96.5544 189.379C96.8658 188.715 97.2929 187.868 97.8113 186.828C98.3353 185.777 98.948 184.537 99.5699 183.209C101.145 179.844 101.97 178.053 102.639 176.612C102.832 176.196 103.007 175.818 103.183 175.438C103.742 174.228 104.44 172.739 105.154 171.216C106 169.411 106.867 167.567 107.516 166.161C108.27 164.636 109.026 163.116 109.795 161.578L109.81 161.548C110.949 159.501 111.979 157.433 113.745 155.529C114.14 155.12 114.582 154.762 114.98 154.465C116.204 153.526 117.513 152.794 118.573 152.381C119.984 151.829 120.84 151.747 120.94 151.967C121.04 152.198 120.375 152.72 119.213 153.555C118.332 154.187 117.278 154.983 116.169 155.948C115.802 156.261 115.472 156.555 115.163 156.886C113.771 158.424 112.718 160.515 111.66 162.522L111.673 162.497C110.873 164.169 110.082 165.832 109.297 167.485C107.125 172.054 104.97 176.616 102.765 181.157C101.224 184.329 99.652 187.521 98.0355 190.668C97.8687 190.993 97.707 191.306 97.5346 191.639C96.2271 194.319 94.8594 196.969 93.831 198.807C92.9908 200.313 92.294 201.405 91.699 202.306C91.2832 202.936 90.9124 203.48 90.5389 204.047C90.334 204.357 90.0707 204.755 89.7258 205.255C88.3068 207.211 85.935 210.836 82.0797 212.656C81.9172 212.727 81.7514 212.795 81.5826 212.857C80.0489 213.431 78.2599 213.793 76.5529 213.961C73.8543 214.23 71.3925 214.104 70.1444 214.094C67.9682 214.071 65.4534 213.838 63.2807 213.576C61.1873 213.326 59.3973 213.058 58.3441 212.952C57.1145 212.827 56.0669 212.652 54.505 212.373C53.438 212.182 52.1178 211.939 50.3151 211.613C48.2467 211.237 46.7837 210.928 45.5542 210.666C43.8114 210.292 42.5079 210.006 40.5395 209.669C38.3516 209.294 36.0528 208.856 34.303 208.464C33.8722 208.368 33.4035 208.266 32.9078 208.16C32.473 208.067 32.0296 207.972 31.5789 207.874C30.2963 207.598 28.9476 207.298 27.7286 206.992C26.7254 206.741 25.9037 206.497 25.1708 206.276C24.9449 206.208 24.7312 206.143 24.5158 206.079C23.7136 205.884 22.9174 205.686 22.1096 205.481C21.9778 205.456 21.8468 205.431 21.6971 205.401C20.9697 205.259 20.0791 205.083 18.9887 204.811C17.2661 204.378 15.7626 203.915 14.1965 203.348C13.7897 203.199 13.3956 203.049 12.9672 202.865C12.7541 202.773 12.5352 202.674 12.3089 202.551C12.1839 202.482 12.0614 202.414 11.9092 202.289C11.8602 202.248 11.8056 202.198 11.7509 202.132C11.7145 202.084 11.5863 201.938 11.5556 201.684C11.4966 201.428 11.7313 201.036 11.8628 200.969C11.9762 200.883 12.0719 200.846 12.1568 200.818C12.6368 200.665 13.1352 200.529 13.6519 200.396C14.6739 200.133 15.8364 199.868 16.9794 199.609C18.6799 199.226 20.3469 198.848 21.5086 198.605C21.9431 198.514 22.3226 198.459 22.6988 198.402C22.7005 198.402 22.7021 198.401 22.7038 198.401C22.7291 198.397 22.7546 198.393 22.7799 198.39C23.8353 198.135 24.8836 197.867 25.9313 197.582C27.6259 197.116 29.3292 196.507 31.0125 195.865C31.2515 195.768 31.4769 195.674 31.7077 195.579C32.8468 195.106 33.9213 194.636 34.6353 194.29C35.384 193.927 37.3313 193.084 39.3636 192.156C40.6897 191.552 42.0714 190.908 43.1762 190.372C43.8307 190.055 44.4595 189.801 45.1166 189.533C45.7359 189.28 46.3443 189.031 47.0209 188.707C47.353 188.547 47.7053 188.368 48.0871 188.173C48.4236 188.001 48.7784 187.819 49.1474 187.635C49.4907 187.464 50.2809 187.108 51.2808 186.651C51.9089 186.365 52.6006 186.048 53.3442 185.701C55.2672 184.746 57.1876 183.78 59.1064 182.805C59.4938 182.582 59.8267 182.376 60.083 182.197C60.2663 182.069 60.4209 181.948 60.5735 181.827C60.7829 181.662 61 181.49 61.3151 181.282C61.5613 181.119 61.8649 180.951 62.08 180.859C62.1806 180.816 62.2593 180.79 62.3315 180.766C62.4141 180.74 62.4878 180.715 62.5713 180.673C62.6315 180.642 62.69 180.602 62.7622 180.553C62.8776 180.475 63.0276 180.373 63.2723 180.248C64.1886 179.78 65.2184 179.265 66.236 178.752C67.3643 178.184 68.4657 177.626 69.3397 177.167C69.9453 176.848 70.7087 176.466 71.5469 176.049C72.0518 175.799 72.5861 175.532 73.1259 175.259C74.0914 174.772 75.0711 174.264 75.8958 173.819C76.7104 173.378 77.532 172.894 78.3305 172.417C79.2862 171.846 80.2032 171.289 81.0062 170.853C81.1688 170.764 81.3863 170.68 81.6563 170.575C81.8481 170.501 82.0689 170.414 82.3164 170.308C83.3187 169.713 84.3119 169.117 85.3058 168.514C85.3381 168.488 85.3714 168.462 85.4047 168.435C85.4052 168.435 85.4057 168.434 85.4062 168.434C86.1589 167.834 87.1846 167.013 88.7896 166.119C89.1975 165.892 89.47 165.773 89.7155 165.667C89.9565 165.562 90.1725 165.468 90.4635 165.292C90.7941 165.091 91.1645 164.825 91.5678 164.534C92.1364 164.124 92.765 163.667 93.4429 163.272C93.4892 163.245 93.539 163.216 93.5908 163.186C94.0824 162.898 94.8028 162.475 95.5485 162.082C97.6275 160.731 99.6938 159.361 101.744 157.967C105.15 155.648 108.54 153.257 111.811 150.757C113.403 149.539 114.947 148.407 116.128 147.607C117.314 146.805 118.039 146.413 118.203 146.594C118.378 146.758 117.968 147.498 116.999 148.595C116.036 149.689 114.605 151.023 113.024 152.299C110.442 154.383 107.805 156.377 105.138 158.323C105 158.426 104.861 158.531 104.723 158.635C103.685 159.41 102.745 160.149 101.803 160.881C101.586 161.05 101.367 161.219 101.146 161.389Z" fill="#951415"/>
</svg>
