<svg width="304" height="229" viewBox="0 0 304 229" fill="none" xmlns="http://www.w3.org/2000/svg">
<path d="M165.572 150.058C166.648 149.735 168.72 149.258 169.801 148.885C169.821 148.879 169.84 148.872 169.86 148.866C170.12 148.779 170.354 148.693 170.634 148.583C170.851 148.496 171.096 148.394 171.378 148.267C171.932 148.014 172.684 147.648 173.767 146.883C174.221 146.531 174.665 146.147 175.092 145.745C179.702 141.283 182.711 135.116 185.641 129.056C185.676 128.979 185.714 128.896 185.751 128.816C185.807 128.692 185.864 128.567 185.92 128.443C186.507 127.202 186.687 125.452 186.743 124.304C186.825 122.711 186.76 121.585 186.717 120.666C186.691 120.351 186.663 120.037 186.631 119.72C186.434 117.456 185.152 115.395 183.392 113.759C181.64 111.93 179.461 111.378 177.364 108.653C177.328 108.561 177.298 108.463 177.278 108.36C176.987 105.982 178.666 104.712 179.464 103.453C179.674 103.155 179.86 102.857 179.972 102.587C179.954 102.619 179.952 102.709 179.962 102.728C179.97 102.751 179.96 102.72 179.921 102.675C179.845 102.581 179.687 102.452 179.512 102.339C179.156 102.108 178.722 101.905 178.282 101.732C178.158 101.683 178.034 101.637 177.909 101.594C177.105 101.335 176.309 101.191 175.565 101.119C174.518 101.019 173.574 101.057 172.797 101.114C170.922 101.241 168.797 101.72 167.262 102.228C167.01 102.31 166.774 102.392 166.557 102.47C165.741 102.791 164.939 103.156 164.163 103.557C163.974 103.653 163.701 103.896 163.485 104.152C163.428 104.201 163.369 104.255 163.308 104.314C162.59 104.997 161.882 106.202 161.021 108.164C160.647 109.016 160.23 110.05 159.777 111.248C159.484 112.026 159.294 112.418 159.139 112.734C159.094 112.826 159.052 112.913 159.011 113.002C158.873 113.305 158.786 113.666 158.695 114.067C158.574 114.595 158.43 115.235 158.116 116.039C157.12 118.609 156.916 119.808 156.749 120.715C156.701 120.98 156.659 121.221 156.604 121.465C156.426 122.256 156.076 123.354 155.79 124.178C155.562 124.834 155.251 126.181 155.045 127.211C154.967 127.601 154.833 128.119 154.677 128.731C154.515 129.365 154.329 130.098 154.157 130.889C153.724 132.887 153.498 133.955 153.316 134.807C153.265 135.048 153.216 135.279 153.168 135.506C153.018 136.221 152.823 137.113 152.628 138.01C152.542 138.41 152.456 138.808 152.374 139.192L152.387 139.127C152.285 139.798 152.19 140.436 152.117 140.968C151.749 142.942 151.379 144.918 151.01 146.892C150.974 147.088 150.937 147.283 150.901 147.477C150.693 148.593 150.397 149.658 150.06 150.422C149.723 151.185 149.389 151.574 149.148 151.521C148.906 151.467 148.775 150.978 148.749 150.165C148.723 149.352 148.796 148.273 148.966 147.15C148.995 146.955 149.025 146.759 149.055 146.562C149.367 144.498 149.682 142.434 150.009 140.371C150.094 139.834 150.18 139.295 150.267 138.758L150.279 138.699C150.767 136.514 151.274 134.327 151.812 132.148C152.279 130.253 152.764 128.362 153.269 126.474C153.321 126.28 153.373 126.086 153.426 125.892C153.785 124.289 154.163 122.694 154.456 121.575C154.699 120.649 154.92 119.997 155.115 119.425C155.248 119.035 155.365 118.696 155.468 118.341C155.523 118.15 155.597 117.889 155.686 117.578C156.05 116.3 156.692 114.131 157.428 112.201C157.757 111.337 158.168 110.355 158.587 109.42C159.185 108.079 159.798 106.876 160.097 106.225C160.61 105.109 161.291 103.869 162.25 102.856C162.567 102.529 162.947 102.206 163.382 101.995C163.993 101.701 164.517 101.467 164.857 101.293C165.486 100.971 166.056 100.766 166.91 100.507C167.505 100.329 168.239 100.123 169.25 99.8961C170.42 99.6376 171.27 99.5572 171.992 99.5137C173.009 99.4618 173.772 99.4641 174.923 99.4855C176.202 99.5112 177.551 99.772 178.549 100.167C178.648 100.205 178.751 100.246 178.856 100.289C179.23 100.442 179.635 100.62 180.052 100.855C180.351 101.028 180.657 101.218 180.965 101.523C181.115 101.678 181.276 101.865 181.395 102.153C181.518 102.43 181.536 102.867 181.391 103.178C181.337 103.301 181.278 103.417 181.217 103.527C180.883 104.105 180.541 104.458 180.255 104.774C180.164 104.872 180.078 104.964 179.997 105.054C179.723 105.415 179.459 105.767 179.233 106.123C179.203 106.185 179.173 106.249 179.143 106.317C178.995 106.654 178.836 107.074 178.794 107.513C178.775 107.712 178.786 107.889 178.822 108.06C178.806 108.045 178.934 108.269 179.118 108.445C179.306 108.636 179.52 108.82 179.763 109.015C180.281 109.432 180.885 109.863 181.579 110.339C182.056 110.665 182.608 111.037 183.144 111.43C183.941 112.009 184.699 112.654 185.169 113.164C185.346 113.355 185.475 113.538 185.601 113.724C185.601 113.725 185.602 113.725 185.602 113.726C185.611 113.739 185.619 113.751 185.628 113.764C186.764 115.006 187.701 116.519 188.159 118.21C188.204 118.353 188.246 118.5 188.284 118.648C188.36 118.942 188.42 119.226 188.468 119.506C188.535 119.881 188.597 120.22 188.652 120.477C188.753 120.944 188.903 122.133 188.958 123.421C188.995 124.264 188.983 125.151 188.932 125.887C188.903 126.317 188.811 126.722 188.695 127.134C188.586 127.52 188.458 127.911 188.324 128.346C188.257 128.565 188.185 128.802 188.095 129.055C188.056 129.164 188.013 129.278 187.966 129.392C187.926 129.492 187.884 129.595 187.839 129.702C187.755 129.901 187.541 130.324 187.266 130.867C187.094 131.208 186.902 131.587 186.698 131.992C186.21 133.079 185.709 134.168 185.185 135.248C185.095 135.486 185.03 135.693 184.991 135.868C184.964 135.993 184.95 136.104 184.936 136.219C184.915 136.377 184.896 136.536 184.837 136.743C184.792 136.905 184.713 137.085 184.638 137.194C184.604 137.244 184.571 137.279 184.541 137.311C184.507 137.347 184.476 137.38 184.451 137.427C184.433 137.461 184.423 137.5 184.41 137.548C184.388 137.626 184.361 137.726 184.287 137.863C184.015 138.369 183.689 138.938 183.358 139.491C182.993 140.105 182.621 140.701 182.329 141.178C182.002 141.713 181.484 142.445 180.936 143.161C180.555 143.661 180.159 144.153 179.818 144.574C179.483 144.988 179.148 145.429 178.808 145.85C178.401 146.355 177.988 146.831 177.589 147.19C177.509 147.263 177.388 147.331 177.233 147.416C177.124 147.476 176.999 147.544 176.861 147.625C176.367 148.09 175.845 148.537 175.297 148.952C175.281 148.971 175.264 148.99 175.247 149.01C175.247 149.01 175.247 149.01 175.247 149.011C174.867 149.444 174.315 150.052 173.274 150.505C173.009 150.618 172.826 150.657 172.663 150.69C172.615 150.699 172.569 150.708 172.522 150.718C172.416 150.74 172.308 150.768 172.176 150.82C171.96 150.907 171.727 151.032 171.461 151.165C171.095 151.35 170.679 151.545 170.232 151.651C170.202 151.658 170.169 151.666 170.136 151.674C169.815 151.749 169.339 151.852 168.854 151.9C167.481 152.258 166.1 152.525 164.718 152.738C162.416 153.09 160.105 153.297 157.797 153.411C156.673 153.466 155.584 153.403 154.791 153.244C153.99 153.086 153.542 152.85 153.547 152.608C153.541 152.365 153.98 152.132 154.752 151.927C155.517 151.722 156.564 151.559 157.656 151.453C159.438 151.281 161.209 151.05 162.962 150.749C163.054 150.73 163.146 150.711 163.237 150.692C163.916 150.553 164.537 150.377 165.15 150.189C165.29 150.146 165.432 150.102 165.572 150.058Z" fill="#951415"/>
<path d="M148.718 103.979C148.162 103.406 147.241 102.211 146.684 101.589C146.679 101.584 146.674 101.579 146.67 101.573C146.666 101.57 146.663 101.566 146.66 101.562C146.579 101.468 146.492 101.387 146.38 101.301C146.098 101.111 145.735 100.801 144.441 100.568C144.06 100.529 143.662 100.516 143.254 100.521C142.478 100.531 141.67 100.609 140.845 100.711C137.718 100.983 136.836 105.266 134.712 109.153C134.671 109.218 134.631 109.279 134.583 109.35C134.342 109.692 134.023 110.105 133.461 110.43C132.455 111.007 131.322 111.278 130.558 111.363C129.217 111.507 128.35 111.425 127.643 111.37C124.872 111.235 122.209 110.597 119.752 110.755C119.334 110.799 119.167 110.895 118.965 111.249C118.773 111.606 118.664 112.157 118.589 112.72C118.57 112.863 118.553 113.009 118.536 113.158C118.423 114.166 118.409 115.183 118.511 116.181C118.619 117.233 118.855 118.266 119.248 119.22C119.497 119.768 119.789 120.25 120.099 120.655C120.354 120.989 120.621 121.27 120.876 121.497C121.076 121.676 121.269 121.843 121.444 121.995C122.473 122.89 123.734 123.872 124.684 124.6C124.841 124.72 124.985 124.83 125.122 124.934C125.906 125.478 126.698 126.021 127.487 126.575C127.533 126.62 127.58 126.667 127.628 126.715C128.213 127.304 129.032 127.9 130.29 128.882C130.834 129.307 131.47 129.816 132.189 130.428C132.654 130.826 132.856 131.067 133.028 131.269C133.076 131.327 133.121 131.381 133.169 131.435C133.331 131.617 133.549 131.762 133.808 131.937C134.131 132.153 134.543 132.436 134.958 132.895C136.303 134.383 137.013 134.931 137.546 135.327C137.703 135.446 137.847 135.556 137.987 135.678C138.426 136.058 138.987 136.701 139.373 137.199C139.69 137.603 140.403 138.3 140.958 138.826C141.15 139.008 141.387 139.269 141.667 139.584L141.687 139.607C141.709 139.634 141.732 139.661 141.754 139.689C142.056 140.054 142.402 140.475 142.792 140.916C143.775 142.028 144.285 142.641 144.692 143.138C144.807 143.279 144.914 143.412 145.021 143.545C145.359 143.966 145.763 144.501 146.159 145.052C146.293 145.238 146.427 145.426 146.557 145.611C146.887 146.08 147.194 146.528 147.45 146.891C148.283 148.258 149.086 149.617 149.913 150.966C150.336 151.658 150.67 152.371 150.834 152.952C150.998 153.532 150.979 153.933 150.774 154.071C150.568 154.207 150.189 154.07 149.718 153.688C149.247 153.305 148.723 152.707 148.264 152.03C147.335 150.666 146.427 149.282 145.524 147.923C145.272 147.545 145.02 147.169 144.765 146.799C143.909 145.545 143.004 144.348 142.055 143.151C141.444 142.378 140.821 141.61 140.193 140.839L140.217 140.867C139.948 140.561 139.683 140.26 139.42 139.965C139.327 139.862 139.23 139.753 139.133 139.646C138.303 138.826 137.467 138.029 136.876 137.454C136.402 136.993 136.063 136.608 135.791 136.301C135.597 136.083 135.422 135.889 135.235 135.712C135.133 135.615 135.001 135.493 134.827 135.333C134.139 134.699 132.949 133.641 131.891 132.654C131.416 132.209 130.879 131.69 130.358 131.201C129.616 130.504 128.89 129.857 128.501 129.585C127.806 129.097 127.042 128.492 126.361 127.964C125.711 127.46 125.136 127.021 124.778 126.815C124.349 126.568 124.022 126.31 123.529 125.915C123.192 125.644 122.77 125.307 122.195 124.855C121.529 124.331 121.085 123.922 120.713 123.562C120.371 123.231 120.09 122.944 119.766 122.633C119.584 122.458 119.397 122.269 119.193 122.048C118.532 121.338 118.032 120.451 117.768 119.72C117.647 119.387 117.514 119.006 117.399 118.604C117.246 118.073 117.125 117.503 117.072 116.98C117.027 116.548 117.041 116.189 117.06 115.873C117.066 115.775 117.073 115.68 117.08 115.589C117.061 115.249 117.053 114.909 117.056 114.57C117.049 114.514 117.041 114.457 117.034 114.397C116.996 114.091 116.958 113.717 116.972 113.252C116.974 113.166 116.979 113.081 116.984 112.997C117.027 112.38 117.112 111.802 117.329 111.161C117.521 110.619 117.864 109.884 118.674 109.47C118.962 109.323 119.284 109.235 119.6 109.196C119.821 109.166 120.051 109.143 120.276 109.126C121.01 109.071 121.715 109.08 122.199 109.129C122.38 109.148 122.534 109.19 122.684 109.232C122.684 109.232 122.685 109.232 122.686 109.232C122.696 109.235 122.706 109.238 122.716 109.241C123.887 109.313 125.034 109.423 126.166 109.486C126.264 109.486 126.363 109.485 126.462 109.485C126.941 109.483 127.404 109.469 127.701 109.426C128.024 109.38 128.832 109.366 129.637 109.252C130.164 109.179 130.687 109.059 131.084 108.915C131.317 108.832 131.543 108.789 131.773 108.73C131.976 108.678 132.182 108.613 132.381 108.498C132.384 108.496 132.388 108.493 132.392 108.491C132.43 108.463 132.477 108.413 132.535 108.335C132.582 108.269 132.64 108.181 132.702 108.081C132.762 107.987 132.92 107.78 133.115 107.439C133.237 107.227 133.367 106.977 133.5 106.697C133.8 105.939 134.081 105.126 134.402 104.307C134.448 104.127 134.478 103.966 134.487 103.831C134.493 103.733 134.49 103.646 134.486 103.556C134.481 103.433 134.477 103.305 134.504 103.141C134.525 103.013 134.577 102.873 134.634 102.789C134.66 102.75 134.687 102.723 134.712 102.699C134.741 102.671 134.766 102.647 134.784 102.61C134.797 102.584 134.802 102.552 134.81 102.513C134.821 102.451 134.836 102.371 134.892 102.264C135.1 101.865 135.368 101.418 135.676 100.989C136.016 100.512 136.406 100.064 136.75 99.7198C137.13 99.3332 137.783 98.8464 138.533 98.5261C139.052 98.2991 139.603 98.1543 140.069 98.0741C140.208 98.0498 140.349 98.0269 140.494 98.0065C140.759 97.9686 141.029 97.9226 141.297 97.881C141.758 97.8088 142.213 97.7508 142.607 97.7621C142.687 97.7643 142.787 97.7974 142.913 97.8403C143.002 97.8708 143.104 97.9062 143.22 97.9397C143.722 97.9333 144.234 97.952 144.757 98.0139C144.776 98.011 144.795 98.008 144.815 98.0051C144.815 98.005 144.816 98.0049 144.816 98.0048C145.254 97.9423 145.915 97.8577 146.764 98.2837C146.977 98.3939 147.095 98.5007 147.199 98.5975C147.3 98.6932 147.389 98.7804 147.535 98.8762C147.702 98.9854 147.913 99.0957 148.136 99.2399C148.324 99.3612 148.52 99.5062 148.696 99.6843C148.787 99.7752 148.874 99.8733 148.95 99.9804C148.962 99.9986 148.976 100.018 148.991 100.039C149.128 100.233 149.328 100.521 149.488 100.84C150.133 101.635 150.734 102.465 151.29 103.321C152.214 104.746 153.025 106.244 153.701 107.801C154.031 108.561 154.229 109.348 154.251 109.964C154.273 110.578 154.117 110.974 153.879 111.016C153.642 111.072 153.354 110.837 153.006 110.398C152.66 109.954 152.278 109.322 151.926 108.639C151.353 107.527 150.698 106.445 149.987 105.412C149.947 105.36 149.907 105.307 149.867 105.254C149.572 104.864 149.258 104.529 148.939 104.203C148.865 104.128 148.792 104.054 148.718 103.979Z" fill="#951415"/>
<path d="M110.36 121.601C109.699 121.785 108.412 121.904 107.714 121.999C107.701 122 107.688 122.002 107.675 122.004C107.509 122.026 107.356 122.051 107.172 122.083C106.748 122.163 106.14 122.249 104.996 122.508C104.67 122.611 104.363 122.721 104.084 122.844C103.704 122.998 103.351 123.265 103.364 123.278C101.806 125.338 102.636 128.455 103.987 131.392C104.024 131.492 104.114 131.651 104.215 131.795C104.239 131.825 104.265 131.858 104.293 131.891C104.813 132.525 105.77 133.274 106.36 133.762C107.108 134.382 107.655 134.798 108.081 135.127C110.703 136.925 113.511 138.524 116.37 140.026C117.257 140.491 118.163 140.95 119.075 141.397C119.905 141.806 120.757 142.213 121.594 142.605C122.097 142.817 122.577 143.011 123.019 143.188C123.645 143.44 124.205 143.662 124.655 143.858C125.754 144.338 126.966 144.938 127.863 145.379C128.01 145.451 128.149 145.519 128.278 145.582C129.021 145.899 129.743 146.203 130.486 146.514C130.531 146.544 130.577 146.576 130.623 146.607C131.186 146.998 131.964 147.34 133.166 147.862C133.694 148.09 134.305 148.355 135.02 148.673C135.481 148.878 135.702 149.029 135.879 149.15C135.932 149.186 135.981 149.22 136.031 149.251C136.204 149.36 136.414 149.413 136.662 149.475C136.984 149.555 137.372 149.652 137.828 149.907C139.278 150.72 140.001 150.889 140.545 151.016C140.705 151.053 140.85 151.087 140.994 151.133C141.463 151.281 142.082 151.586 142.544 151.844C142.706 151.934 142.95 152.038 143.225 152.142L143.209 152.136C143.561 152.26 143.96 152.384 144.301 152.484C144.534 152.551 144.834 152.67 145.19 152.813C145.557 152.961 145.981 153.133 146.443 153.296C147.612 153.709 148.227 153.938 148.725 154.123C148.865 154.175 148.998 154.225 149.129 154.274C149.545 154.429 150.054 154.63 150.572 154.836C151.146 155.065 151.727 155.298 152.19 155.472C152.226 155.486 152.261 155.499 152.295 155.511C153.499 156.075 154.637 156.589 155.855 157.006C156.478 157.224 157.067 157.505 157.477 157.807C157.888 158.11 158.088 158.409 158.026 158.648C157.961 158.886 157.638 159.048 157.122 159.096C156.607 159.144 155.936 159.07 155.263 158.878C153.913 158.502 152.576 157.983 151.319 157.462C151.311 157.459 151.303 157.456 151.295 157.452C149.746 156.815 148.211 156.172 146.677 155.529C145.605 155.079 144.529 154.633 143.453 154.196C143.343 154.152 143.231 154.106 143.12 154.062C142.924 153.998 142.729 153.936 142.535 153.873L142.513 153.864C141.785 153.612 141.099 153.368 140.59 153.172C140.054 152.966 139.683 152.775 139.364 152.611C139.146 152.499 138.952 152.399 138.749 152.316C138.639 152.271 138.489 152.212 138.307 152.14C137.568 151.848 136.311 151.349 135.206 150.81C134.714 150.57 134.149 150.27 133.615 149.985C132.848 149.576 132.132 149.191 131.754 149.047C131.081 148.791 130.343 148.433 129.691 148.115C129.065 147.809 128.524 147.542 128.195 147.44C127.798 147.316 127.483 147.152 127.021 146.911C126.702 146.744 126.308 146.538 125.761 146.277C125.132 145.976 124.703 145.741 124.33 145.536C123.808 145.249 123.433 145.041 122.8 144.808C122.105 144.552 121.399 144.262 120.858 143.981C120.612 143.854 120.331 143.722 120.035 143.582C119.637 143.394 119.224 143.197 118.863 142.995C118.569 142.831 118.325 142.658 118.119 142.509C118.055 142.462 117.993 142.417 117.932 142.375C117.686 142.254 117.444 142.135 117.2 142.015C117.157 142.001 117.111 141.988 117.063 141.974C116.822 141.903 116.527 141.816 116.185 141.673C115.653 141.452 115.185 141.182 114.722 140.91C114.368 140.702 113.966 140.466 113.522 140.24C113.222 140.087 112.856 139.914 112.504 139.746C111.987 139.5 111.462 139.243 111.126 139.034C111 138.956 110.904 138.868 110.811 138.781C110.81 138.78 110.81 138.78 110.81 138.779C110.803 138.774 110.797 138.768 110.79 138.762C109.92 138.297 109.081 137.837 108.231 137.347C108.155 137.309 108.078 137.271 108.002 137.233C107.638 137.051 107.271 136.859 107.022 136.758C106.759 136.653 106.131 136.281 105.488 135.864C105.067 135.59 104.626 135.286 104.278 135.044C104.074 134.903 103.891 134.71 103.731 134.527C103.589 134.363 103.404 134.152 103.217 133.977C103.125 133.892 103.004 133.787 102.883 133.676C102.775 133.577 102.674 133.481 102.561 133.357C102.449 133.225 102.258 132.985 102.025 132.511C101.997 132.451 101.969 132.389 101.943 132.324C101.879 132.158 101.801 131.962 101.722 131.766C101.401 131.115 101.085 130.434 100.815 129.721C100.737 129.58 100.659 129.46 100.582 129.368C100.526 129.302 100.469 129.25 100.41 129.194C100.331 129.119 100.248 129.039 100.167 128.918C100.104 128.824 100.057 128.701 100.049 128.614C100.046 128.574 100.051 128.54 100.055 128.51C100.06 128.476 100.064 128.445 100.056 128.411C100.049 128.386 100.034 128.363 100.016 128.334C99.9863 128.287 99.9482 128.226 99.9254 128.125C99.8403 127.748 99.7729 127.307 99.7377 126.864C99.6971 126.373 99.6993 125.88 99.7157 125.482C99.7311 125.038 99.8472 124.397 100.065 123.782C100.214 123.353 100.411 122.937 100.594 122.598C100.756 122.296 100.923 121.988 101.11 121.694C101.143 121.643 101.178 121.594 101.214 121.546C101.652 120.985 102.083 120.724 102.441 120.556C102.518 120.521 102.614 120.514 102.742 120.504C102.83 120.498 102.94 120.488 103.044 120.481C103.463 120.297 103.862 120.161 104.271 120.04C104.284 120.03 104.297 120.021 104.31 120.011C104.31 120.011 104.31 120.011 104.31 120.011C104.598 119.8 105.028 119.512 105.676 119.469C105.846 119.457 105.95 119.482 106.05 119.503C106.147 119.525 106.234 119.544 106.352 119.529C106.484 119.512 106.633 119.458 106.799 119.401C107.03 119.32 107.287 119.234 107.56 119.231C107.578 119.23 107.598 119.23 107.618 119.23C107.814 119.228 108.107 119.226 108.399 119.269C109.239 119.175 110.076 119.108 110.912 119.058C112.307 118.976 113.695 118.942 115.087 118.941C115.764 118.941 116.417 119.039 116.896 119.215C117.368 119.391 117.643 119.626 117.639 119.868C117.643 120.111 117.372 120.344 116.914 120.533C116.451 120.721 115.821 120.85 115.164 120.902C114.092 120.987 113.021 121.094 111.955 121.22C111.899 121.229 111.844 121.239 111.788 121.248C111.375 121.317 110.996 121.42 110.619 121.527C110.533 121.552 110.446 121.577 110.36 121.601Z" fill="#951415"/>
<path d="M143.092 121.895C143.226 122.025 143.218 122.314 143.216 122.476C143.216 122.479 143.216 122.482 143.216 122.485C143.216 122.525 143.219 122.558 143.223 122.599C143.234 122.697 143.248 122.832 143.218 123.121C143.234 123.204 143.248 123.281 143.261 123.363C143.402 124.237 143.465 125.129 143.524 126.026C143.527 126.037 143.529 126.048 143.532 126.059C143.587 126.277 143.656 126.544 143.65 126.724C143.642 126.951 143.624 127.109 143.608 127.239C143.664 127.952 143.739 128.664 143.872 129.362C143.914 129.581 143.961 129.798 144.015 130.014C144.065 130.212 144.12 130.41 144.178 130.606C144.233 130.714 144.291 130.816 144.345 130.91C144.421 131.043 144.489 131.159 144.528 131.26C144.57 131.367 144.601 131.483 144.625 131.597L144.614 131.563C144.651 131.71 144.676 131.856 144.699 131.979C144.705 132.014 144.711 132.048 144.717 132.079C144.788 132.239 144.861 132.399 144.935 132.559C144.929 132.574 144.924 132.588 144.918 132.603C144.845 132.787 144.908 132.961 145.006 133.239C145.049 133.359 145.098 133.5 145.146 133.67C145.177 133.779 145.147 133.851 145.123 133.909C145.116 133.926 145.109 133.943 145.104 133.958C145.089 134.011 145.136 134.046 145.193 134.088C145.266 134.141 145.354 134.206 145.335 134.336C145.309 134.523 145.328 134.65 145.369 134.742C145.418 134.852 145.498 134.912 145.567 134.963C145.603 134.991 145.637 135.016 145.66 135.045C145.734 135.139 145.735 135.303 145.709 135.434C145.689 135.538 145.785 135.706 145.88 135.828C145.917 135.875 145.936 135.945 145.959 136.028C145.982 136.113 146.009 136.213 146.061 136.312C146.193 136.565 146.259 136.699 146.312 136.807C146.327 136.838 146.341 136.868 146.355 136.896C146.4 136.986 146.447 137.102 146.494 137.217C146.55 137.357 146.606 137.496 146.662 137.602C146.701 137.896 146.734 138.193 146.765 138.488C146.781 138.64 146.707 138.807 146.554 138.953C146.4 139.099 146.182 139.213 145.942 139.27C145.702 139.327 145.456 139.322 145.253 139.262C145.051 139.2 144.91 139.084 144.856 138.943C144.747 138.657 144.638 138.371 144.537 138.085C144.413 137.737 144.3 137.386 144.21 137.033C144.147 136.786 144.088 136.539 144.033 136.292C144.027 136.267 144.021 136.241 144.015 136.216C143.901 136.028 143.79 135.841 143.73 135.705C143.681 135.593 143.686 135.5 143.691 135.419C143.694 135.363 143.697 135.314 143.68 135.27C143.68 135.268 143.679 135.266 143.678 135.264C143.669 135.241 143.656 135.212 143.641 135.177C143.573 135.02 143.455 134.756 143.427 134.485C143.415 134.365 143.42 134.218 143.424 134.077C143.43 133.875 143.434 133.685 143.385 133.607C143.3 133.469 143.269 133.288 143.241 133.126C143.215 132.972 143.192 132.837 143.128 132.777C143.052 132.706 143.046 132.625 143.037 132.504C143.03 132.42 143.022 132.317 142.99 132.184C142.982 132.153 142.976 132.123 142.971 132.094L142.963 132.067C142.948 131.957 142.951 131.868 142.953 131.79C142.958 131.651 142.961 131.547 142.868 131.42C142.764 131.278 142.68 131.121 142.666 130.985C142.659 130.923 142.639 130.856 142.618 130.785C142.591 130.692 142.563 130.594 142.562 130.498C142.561 130.419 142.592 130.346 142.62 130.281C142.628 130.261 142.636 130.241 142.643 130.223C142.628 130.164 142.612 130.105 142.596 130.046C142.587 130.038 142.576 130.03 142.565 130.022C142.509 129.979 142.44 129.927 142.394 129.853C142.321 129.735 142.321 129.617 142.32 129.492C142.32 129.395 142.32 129.294 142.286 129.186C142.263 129.112 142.224 129.032 142.186 128.952C142.129 128.832 142.073 128.714 142.071 128.624C142.07 128.59 142.093 128.556 142.117 128.522C142.117 128.522 142.117 128.521 142.117 128.521C142.119 128.519 142.12 128.517 142.122 128.514C142.052 128.309 141.981 128.105 141.91 127.899C141.898 127.883 141.887 127.866 141.876 127.849C141.82 127.767 141.767 127.688 141.706 127.642C141.639 127.593 141.575 127.443 141.508 127.288C141.465 127.186 141.419 127.079 141.371 126.995C141.343 126.945 141.363 126.889 141.384 126.832C141.404 126.778 141.424 126.722 141.406 126.67C141.397 126.643 141.378 126.616 141.359 126.588C141.341 126.563 141.323 126.536 141.309 126.507C141.297 126.481 141.301 126.415 141.306 126.331C141.309 126.278 141.313 126.218 141.314 126.156C141.264 126.003 141.216 125.849 141.17 125.695C141.137 125.667 141.097 125.645 141.048 125.631C141.013 125.621 140.972 125.614 140.931 125.607C140.874 125.598 140.815 125.588 140.766 125.569C140.728 125.554 140.71 125.53 140.721 125.51C140.726 125.501 140.737 125.493 140.748 125.485C140.759 125.476 140.77 125.469 140.768 125.462C140.767 125.457 140.757 125.453 140.745 125.449C140.725 125.442 140.7 125.433 140.695 125.412C140.678 125.338 140.67 125.251 140.663 125.167C140.654 125.071 140.645 124.978 140.626 124.907C140.604 124.828 140.618 124.706 140.631 124.583C140.641 124.498 140.651 124.414 140.649 124.343C140.647 124.272 140.616 124.203 140.586 124.138C140.55 124.059 140.516 123.985 140.535 123.91C140.539 123.895 140.573 123.872 140.616 123.843C140.646 123.823 140.681 123.799 140.712 123.774C140.698 123.687 140.687 123.605 140.675 123.515C140.67 123.513 140.664 123.511 140.659 123.508C140.659 123.508 140.658 123.508 140.658 123.508C140.529 123.455 140.353 123.384 140.428 123.232C140.447 123.193 140.489 123.164 140.527 123.138C140.564 123.113 140.597 123.09 140.601 123.064C140.605 123.034 140.575 123.004 140.543 122.971C140.498 122.927 140.448 122.872 140.478 122.808C140.48 122.803 140.483 122.799 140.485 122.794C140.506 122.747 140.539 122.679 140.613 122.606C140.608 122.415 140.609 122.228 140.614 122.038C140.621 121.72 140.639 121.402 140.664 121.076C140.676 120.921 140.779 120.752 140.955 120.632C141.132 120.505 141.366 120.443 141.608 120.441C141.851 120.439 142.085 120.484 142.271 120.568C142.458 120.649 142.58 120.771 142.619 120.902C142.681 121.122 142.75 121.349 142.817 121.572C142.824 121.584 142.83 121.595 142.836 121.607C142.881 121.697 142.959 121.767 143.038 121.843C143.056 121.86 143.074 121.877 143.092 121.895Z" fill="#951415"/>
<path d="M172.378 127.051C172.434 127.382 172.262 127.98 172.162 128.299C172.16 128.304 172.158 128.31 172.157 128.316C172.133 128.393 172.114 128.468 172.093 128.552C172.041 128.755 171.972 129.033 171.752 129.588C171.711 129.754 171.667 129.924 171.623 130.088C171.13 131.883 170.437 133.623 169.566 135.29C169.556 135.312 169.547 135.334 169.538 135.356C169.357 135.79 169.11 136.328 168.901 136.634C168.634 137.028 168.43 137.283 168.26 137.486C168.07 137.768 167.873 138.045 167.668 138.314C166.972 139.207 166.285 140.084 165.596 140.973C165.318 141.332 165.043 141.688 164.766 142.049C164.51 142.381 164.257 142.71 164 143.042C163.867 143.249 163.744 143.446 163.628 143.631C163.466 143.889 163.318 144.118 163.181 144.296C162.852 144.724 162.412 145.153 162.08 145.465C162.026 145.516 161.974 145.565 161.927 145.609C161.693 145.883 161.454 146.157 161.212 146.426C161.188 146.437 161.164 146.447 161.139 146.457C160.83 146.585 160.564 146.853 160.132 147.263C159.944 147.441 159.724 147.646 159.454 147.874C159.324 147.984 159.223 148.034 159.139 148.065L159.117 148.083C159.088 148.092 159.062 148.099 159.037 148.106C159.008 148.114 158.98 148.121 158.954 148.131C158.861 148.164 158.811 148.248 158.747 148.351C158.666 148.482 158.567 148.642 158.349 148.74C157.657 149.051 157.477 149.342 157.339 149.567C157.299 149.632 157.262 149.691 157.217 149.743C157.073 149.909 156.8 150.061 156.579 150.153C156.402 150.227 156.14 150.485 155.951 150.703C155.882 150.784 155.766 150.872 155.633 150.972C155.495 151.078 155.335 151.198 155.177 151.349C154.78 151.728 154.57 151.924 154.397 152.085C154.348 152.13 154.303 152.172 154.258 152.214C154.114 152.349 153.932 152.507 153.747 152.668C153.525 152.86 153.299 153.055 153.136 153.213C152.649 153.539 152.157 153.858 151.665 154.178C151.411 154.343 151.115 154.426 150.836 154.407C150.557 154.387 150.317 154.269 150.169 154.071C150.021 153.873 149.976 153.61 150.036 153.336C150.097 153.063 150.26 152.802 150.491 152.605C150.953 152.211 151.415 151.818 151.882 151.431C152.451 150.958 153.025 150.497 153.615 150.055C154.028 149.745 154.442 149.442 154.86 149.14C154.904 149.109 154.947 149.078 154.989 149.047C155.298 148.738 155.607 148.433 155.836 148.234C156.025 148.069 156.189 147.984 156.33 147.911C156.426 147.861 156.513 147.816 156.587 147.755C156.626 147.723 156.68 147.677 156.744 147.621C157.007 147.394 157.45 147.009 157.902 146.721C157.927 146.705 157.952 146.689 157.978 146.674L157.944 146.702C158.122 146.584 158.328 146.46 158.526 146.339C158.848 146.142 159.145 145.951 159.258 145.815C159.455 145.577 159.728 145.35 159.965 145.147C160.193 144.953 160.389 144.78 160.461 144.644C160.547 144.482 160.665 144.385 160.839 144.241C160.96 144.139 161.107 144.016 161.288 143.827C161.497 143.611 161.662 143.473 161.803 143.353C162 143.188 162.149 143.06 162.29 142.803C162.444 142.518 162.624 142.234 162.803 142.042C162.884 141.955 162.969 141.845 163.055 141.733C163.169 141.583 163.289 141.425 163.417 141.296C163.525 141.188 163.636 141.121 163.737 141.059C163.768 141.04 163.798 141.022 163.826 141.003C163.899 140.906 163.969 140.813 164.04 140.716C164.046 140.696 164.051 140.674 164.057 140.652C164.086 140.539 164.119 140.404 164.195 140.257C164.314 140.025 164.468 139.861 164.63 139.686C164.757 139.551 164.889 139.407 165.011 139.224C165.094 139.098 165.178 138.948 165.26 138.798C165.384 138.573 165.501 138.357 165.617 138.224C165.661 138.173 165.716 138.146 165.772 138.118C165.773 138.118 165.773 138.118 165.773 138.118C165.777 138.116 165.781 138.114 165.785 138.112C165.942 137.859 166.095 137.607 166.25 137.349C166.306 137.253 166.365 137.149 166.423 137.043C166.435 137.01 166.448 136.975 166.46 136.942C166.519 136.779 166.574 136.618 166.586 136.498C166.597 136.371 166.718 136.098 166.834 135.81C166.911 135.62 166.987 135.423 167.037 135.255C167.066 135.157 167.136 135.085 167.208 135.01C167.275 134.941 167.343 134.868 167.381 134.77C167.399 134.721 167.411 134.665 167.424 134.605C167.435 134.553 167.446 134.497 167.463 134.44C167.479 134.388 167.544 134.284 167.626 134.151C167.676 134.068 167.733 133.974 167.79 133.873C167.89 133.586 167.987 133.296 168.081 133.007C168.078 132.938 168.065 132.874 168.038 132.817C168.019 132.776 167.992 132.738 167.965 132.698C167.927 132.644 167.888 132.589 167.865 132.524C167.847 132.473 167.851 132.423 167.875 132.398C167.887 132.386 167.903 132.379 167.917 132.374C167.934 132.367 167.949 132.361 167.953 132.348C167.956 132.339 167.951 132.327 167.944 132.311C167.934 132.287 167.921 132.255 167.933 132.219C167.979 132.083 168.041 131.932 168.1 131.784C168.166 131.619 168.23 131.457 168.267 131.323C168.308 131.174 168.41 130.974 168.509 130.773C168.579 130.632 168.648 130.49 168.696 130.365C168.742 130.244 168.763 130.107 168.782 129.975C168.805 129.817 168.825 129.665 168.889 129.548C168.902 129.524 168.947 129.503 169.003 129.476C169.043 129.457 169.088 129.435 169.132 129.408C169.175 129.25 169.22 129.088 169.264 128.929C169.261 128.922 169.257 128.915 169.254 128.908C169.254 128.908 169.253 128.908 169.253 128.908C169.171 128.748 169.06 128.526 169.215 128.299C169.255 128.241 169.309 128.211 169.358 128.184C169.406 128.157 169.449 128.133 169.467 128.088C169.488 128.036 169.479 127.968 169.468 127.894C169.454 127.789 169.437 127.67 169.5 127.571C169.504 127.564 169.508 127.557 169.513 127.549C169.558 127.477 169.623 127.371 169.73 127.271C169.824 126.933 169.918 126.591 170.008 126.25C170.157 125.681 170.298 125.115 170.41 124.545C170.464 124.275 170.596 124.015 170.785 123.829C170.975 123.638 171.208 123.528 171.451 123.528C171.693 123.526 171.929 123.646 172.102 123.881C172.276 124.11 172.367 124.433 172.363 124.741C172.354 125.254 172.326 125.757 172.284 126.258C172.284 126.285 172.285 126.312 172.285 126.338C172.285 126.54 172.322 126.725 172.355 126.918C172.363 126.962 172.37 127.008 172.378 127.051Z" fill="#951415"/>
<path d="M160.431 83.1137C160.701 81.2865 161.463 77.8009 161.866 75.8852C161.873 75.8495 161.881 75.8139 161.888 75.7781C161.983 75.3294 162.069 74.9007 162.17 74.3921C162.408 73.1834 162.733 71.5604 163.433 68.1622C163.613 67.1636 163.789 66.1795 163.966 65.1822C164.215 63.784 164.46 62.3855 164.704 60.9692C166.323 51.6842 167.14 42.2859 167.705 32.8259C167.711 32.6932 167.719 32.5444 167.726 32.4027C167.867 29.6621 168.024 26.2671 168.461 24.033C168.646 23.1193 168.843 22.2799 169.289 21.4519C170.071 20.0688 170.826 19.0901 171.504 18.27C174.563 14.4563 178.512 11.6936 181.627 8.38728C183.153 6.73094 184.8 5.04181 186.845 3.8144C188.687 2.71769 190.788 2.97443 192.523 3.40779C193.411 3.63386 194.262 3.93029 195.089 4.24475C196.92 4.93695 198.59 6.01438 200.012 7.32232C201.946 9.09619 203.437 11.249 204.694 13.4649C205.097 14.1529 205.47 14.8335 205.82 15.4899C206.144 16.1026 206.389 16.7151 206.592 17.3157C207.195 19.1337 207.436 20.7784 207.586 22.1373C207.935 25.408 207.781 29.0894 207.573 31.8009C207.54 32.2442 207.505 32.6627 207.471 33.0491C207.321 35.2035 207.107 37.3504 206.845 39.489C206.817 39.6312 206.788 39.7739 206.758 39.9182C206.688 40.2593 206.617 40.6279 206.547 41.0054C206.262 42.5712 206.07 44.5504 206.115 47.3599C206.144 48.8729 206.246 50.6285 206.494 52.6833C206.657 54.0067 206.726 54.6902 206.78 55.2501C206.796 55.4149 206.812 55.5693 206.832 55.7249C206.898 56.2589 207.042 56.8087 207.224 57.4528C207.462 58.2891 207.761 59.283 208.084 60.6164C209.075 64.5931 210.059 66.3269 210.749 67.549C210.804 67.6452 210.856 67.744 210.904 67.8373C211.125 68.2743 211.281 68.679 211.407 69.0982C211.827 70.4629 211.924 72.4053 211.869 73.8405C211.847 74.5676 211.832 75.7507 211.783 76.9545C211.754 77.7236 211.583 78.4832 211.367 79.1237C211.145 79.7939 210.725 80.6442 210.137 81.5365C209.531 82.463 208.742 83.4586 207.88 84.4712C205.679 87.0073 204.389 88.2093 203.391 89.2164C203.094 89.5092 202.84 89.7587 202.567 90.0258C201.721 90.8529 200.653 91.8679 199.568 92.889C198.274 94.1084 196.963 95.3338 195.971 96.2801C194.083 97.9757 192.191 99.6742 190.311 101.379L190.301 101.388C189.542 102.059 188.789 102.729 188.039 103.403C187.124 104.222 186.228 104.995 185.38 105.646C184.969 105.96 184.576 106.235 184.215 106.467C183.105 107.177 182.394 107.446 182.236 107.258C182.077 107.067 182.492 106.424 183.344 105.454C183.621 105.138 183.935 104.794 184.273 104.427C184.971 103.669 185.81 102.801 186.711 101.957C187.452 101.262 188.195 100.573 188.943 99.8835L188.934 99.8914C190.874 98.0566 192.827 96.2318 194.773 94.4235C198.041 91.3724 201.371 88.3568 204.477 85.2185C206.593 83.0218 208.828 80.6997 209.7 78.1132C209.783 77.8481 209.847 77.5848 209.89 77.3206C209.911 77.1621 209.924 77.0005 209.929 76.8438C210.022 74.4559 209.933 72.1391 209.644 70.592C209.475 69.6537 209.262 68.9418 209.018 68.4156C208.867 68.0959 208.727 67.7838 208.605 67.4987C208.336 66.8736 208.116 66.318 207.886 65.7609C207.762 65.4575 207.597 65.0511 207.407 64.5514C206.615 62.5235 205.541 58.9771 205.033 55.6562C204.798 54.1844 204.615 52.4631 204.525 50.8149C204.388 48.4578 204.459 46.2582 204.478 45.1469C204.495 43.7618 204.621 42.2305 204.847 40.7643C204.935 40.1852 205.022 39.6085 205.101 39.0532C205.363 37.2347 205.549 35.6363 205.593 34.7232C205.644 33.6319 205.742 32.7078 205.856 31.3308C205.933 30.3762 206.02 29.2029 206.052 27.608C206.085 25.7713 206.067 24.4686 206.023 23.3697C205.949 21.8274 205.859 20.6546 205.433 18.9966C205.173 18.0191 204.83 17.0327 204.396 16.2107C203.991 15.4385 203.598 14.7091 203.243 14.0681C202.894 13.4364 202.467 12.734 201.988 12.0299C201.355 11.0974 200.628 10.1698 199.913 9.37453C199.325 8.71882 198.819 8.19623 198.346 7.75727C198.199 7.6209 198.054 7.49196 197.911 7.37148C197.349 6.95174 196.758 6.57432 196.141 6.24685C196.037 6.20036 195.927 6.15314 195.813 6.10597C195.453 5.95738 195.04 5.80485 194.558 5.65098C194.256 5.55417 193.933 5.4508 193.586 5.34354C192.136 4.90069 190.858 4.56295 189.568 4.5982C188.901 4.62185 188.239 4.76318 187.641 5.12049C187.305 5.32171 186.968 5.54733 186.627 5.80186C185.921 6.32621 185.175 7.00907 184.472 7.73744C183.902 8.32611 183.356 8.94052 182.858 9.50253C182.424 9.99103 182.01 10.4124 181.654 10.7516C181.361 11.0318 181.09 11.2493 180.822 11.4609C180.821 11.4618 180.82 11.4627 180.819 11.4636C180.801 11.478 180.782 11.4926 180.764 11.507C178.881 13.3073 176.943 14.9904 175.191 16.8198C175.043 16.982 174.895 17.1465 174.75 17.3106C174.039 18.1111 173.399 18.9209 173.028 19.4775C172.69 19.983 171.873 21.0979 171.182 22.4605C171.094 22.637 171.005 22.8794 170.93 23.1455C170.628 24.2409 170.506 25.5664 170.427 26.635C170.383 27.2626 170.304 27.8544 170.227 28.4767C170.155 29.0463 170.085 29.6468 170.054 30.2959C170.037 30.6342 170.03 30.9714 170.022 31.3549C170.015 31.6976 170.009 32.0364 169.997 32.4084C169.985 32.7597 169.927 33.5139 169.853 34.491C169.807 35.0996 169.755 35.7762 169.701 36.5089C169.613 38.4229 169.513 40.3332 169.39 42.2472C169.388 42.6435 169.397 42.9906 169.421 43.2696C169.438 43.4696 169.464 43.6418 169.49 43.8194C169.525 44.0548 169.562 44.2991 169.579 44.6368C169.592 44.9007 169.579 45.2125 169.547 45.4209C169.532 45.5153 169.513 45.5874 169.496 45.6529C169.476 45.7279 169.458 45.795 169.451 45.8783C169.446 45.9384 169.45 46.0018 169.454 46.0799C169.461 46.2047 169.47 46.3672 169.449 46.6131C169.369 47.5231 169.26 48.5634 169.147 49.5653C169.02 50.7004 168.887 51.7901 168.788 52.6639C168.678 53.6446 168.465 55.0391 168.233 56.4265C168.072 57.3997 167.903 58.3628 167.761 59.2012C167.638 59.9321 167.53 60.6804 167.419 61.4308C167.406 61.521 167.393 61.6109 167.379 61.7003C167.232 62.6987 167.093 63.6235 166.92 64.4348C166.886 64.5967 166.813 64.7922 166.722 65.0362C166.658 65.2091 166.584 65.4077 166.508 65.6341C166.326 66.66 166.142 67.6683 165.951 68.696C165.949 68.733 165.948 68.7712 165.946 68.8094C165.946 68.81 165.946 68.8106 165.946 68.8112C165.91 69.6683 165.857 70.8543 165.458 72.4322C165.355 72.8415 165.26 73.0909 165.175 73.3152C165.092 73.5352 165.017 73.7312 164.953 74.0247C164.881 74.3523 164.825 74.7694 164.767 75.2086C164.685 75.8269 164.593 76.511 164.417 77.194C164.405 77.2402 164.392 77.2899 164.379 77.3415C164.253 77.8277 164.064 78.5568 163.834 79.271C163.372 81.4329 162.895 83.5895 162.401 85.7437C161.581 89.3269 160.716 92.9093 159.82 96.4859C159.388 98.2102 158.876 99.8612 158.412 101.052C157.949 102.22 157.594 102.86 157.371 102.843C157.109 102.824 157.021 102 157.129 100.754C157.24 99.4711 157.531 97.7697 157.909 96.0375C158.534 93.1913 159.138 90.3459 159.725 87.4904C159.752 87.3424 159.78 87.1929 159.808 87.0431C160.02 85.9139 160.175 84.8709 160.325 83.8401C160.36 83.6004 160.395 83.3583 160.431 83.1137Z" fill="#951415"/>
<path d="M209.491 111.331C210.98 110.018 213.97 107.587 215.601 106.227C215.631 106.202 215.661 106.178 215.69 106.153C216.078 105.831 216.444 105.52 216.869 105.159C217.888 104.295 219.253 103.122 222.172 100.724C223.007 100.008 223.846 99.2936 224.688 98.5868C229.264 94.8707 233.627 90.8797 239.481 88.39C245.315 86.2315 251.632 85.6705 257.722 86.3772C257.874 86.3928 258.028 86.4092 258.187 86.4271C261.224 86.7424 264.921 87.6157 267.159 88.4482C269.043 89.1287 270.489 89.8083 271.662 90.455C272.264 90.7885 272.794 91.1129 273.277 91.4282C276.177 93.1946 278.604 95.749 280.966 97.675C285.704 100.952 292.198 100.865 298.229 100.971C298.976 100.984 299.723 100.998 300.493 101.05C300.861 101.076 301.273 101.113 301.679 101.187C301.9 101.229 302.092 101.27 302.351 101.363C302.566 101.454 302.905 101.557 303.194 101.997C303.784 102.962 303.544 104.06 303.245 104.808C302.934 105.588 302.517 106.246 302.094 106.877C301.584 107.631 301.047 108.337 300.548 109.039C299.246 110.857 297.115 111.468 295.278 111.809C293.656 112.117 292.131 112.231 290.732 112.337C288.764 112.477 287.041 112.582 285.632 112.715C285.003 112.772 284.362 112.84 283.721 112.924C280.886 113.286 277.986 114.008 275.805 114.799C275.368 114.956 274.957 115.113 274.58 115.265C272.499 116.146 270.513 117.242 268.689 118.553C268.561 118.632 268.432 118.712 268.303 118.794C267.887 119.058 267.46 119.356 267.013 119.701C265.757 120.669 264.409 122.188 262.846 124.515C261.926 125.877 260.937 127.521 259.754 129.472C258.99 130.73 258.542 131.35 258.173 131.853C258.064 132.001 257.961 132.14 257.859 132.28C257.506 132.764 257.185 133.306 256.777 133.939C256.627 134.171 256.462 134.419 256.282 134.674L256.116 134.829C255.486 135.302 254.714 135.824 253.692 136.3C249.084 138.257 246.939 138.437 245.37 138.903C244.886 139.019 244.495 139.11 244.048 139.196C242.643 139.47 240.62 139.681 239.081 139.775C237.849 139.858 235.463 140.111 233.62 140.29C232.929 140.358 231.986 140.418 230.88 140.477C229.728 140.539 228.378 140.602 226.996 140.681C223.419 140.881 221.509 140.945 219.979 141.003C219.55 141.019 219.145 141.033 218.735 141.047C217.415 141.091 215.868 141.129 214.246 141.161C212.323 141.2 210.383 141.228 208.868 141.258C208.745 141.257 208.622 141.256 208.498 141.255L208.443 141.254C204.685 141.047 200.92 140.708 197.186 140.055C195.208 139.713 193.351 139.205 192.02 138.723C190.688 138.24 189.979 137.829 190.032 137.588C190.089 137.347 190.908 137.294 192.309 137.418C193.71 137.542 195.573 137.823 197.504 138.118C201.147 138.681 204.832 138.942 208.544 139.086L208.498 139.085C208.758 139.083 209.017 139.081 209.275 139.078C214.141 139.034 218.951 138.957 223.811 138.816C227.195 138.716 230.59 138.578 233.942 138.359C234.276 138.337 234.648 138.312 234.991 138.287C237.816 138.018 240.6 137.665 242.564 137.36C244.174 137.112 245.336 136.931 246.338 136.75C247.01 136.628 247.61 136.505 248.218 136.344C248.527 136.261 248.98 136.134 249.484 135.973C250.98 135.506 253.075 134.666 255.055 133.281L254.8 133.522C255.427 132.722 256.03 131.846 256.608 130.977C257.469 129.682 258.442 128.13 259.401 126.646C260.762 124.518 262.161 122.576 262.901 121.608C263.724 120.506 264.737 119.351 265.926 118.385C266.56 117.871 267.211 117.394 267.847 116.963C269.557 115.801 271.163 114.987 272.065 114.503C273.145 113.927 274.113 113.525 275.579 113.027C276.596 112.688 277.858 112.303 279.598 111.903C281.195 111.54 282.442 111.368 283.503 111.252C283.777 111.223 284.039 111.198 284.291 111.176C286.022 111.033 287.32 111.001 289.232 110.851C291.357 110.687 293.553 110.537 295.198 110.238C295.946 110.104 296.785 109.892 297.553 109.528C298.253 109.198 298.871 108.731 299.29 108.145C299.523 107.822 299.756 107.512 299.982 107.215C300.581 106.426 301.078 105.801 301.459 105.228C301.578 105.049 301.685 104.877 301.78 104.707C302.099 104.059 302.284 103.363 302.095 102.899C302.067 102.841 302.033 102.785 301.991 102.729C301.996 102.742 302.002 102.752 302.005 102.758C302.035 102.781 301.648 102.646 301.272 102.625C300.876 102.588 300.405 102.574 299.886 102.564C298.222 102.543 296.711 102.535 295.13 102.473C293.896 102.426 292.607 102.363 291.125 102.257C290.116 102.185 288.963 102.083 287.821 101.916C286.127 101.677 284.454 101.258 283.337 100.815C282.92 100.652 282.569 100.473 282.235 100.287C282.233 100.286 282.232 100.285 282.23 100.284C282.207 100.272 282.184 100.259 282.161 100.246C281.412 99.9047 280.682 99.4983 279.999 99.0136C278.279 97.7213 276.921 96.322 275.354 95.1105C275.165 94.9679 274.973 94.8262 274.78 94.6864C273.844 94.0065 272.896 93.415 272.251 93.0798C271.929 92.9111 271.392 92.6121 270.709 92.2753C269.921 91.8851 268.923 91.4493 267.868 91.0596C266.583 90.582 265.219 90.176 264.093 89.9029C263.435 89.7427 262.815 89.5588 262.177 89.385C261.577 89.222 260.959 89.0673 260.275 88.9564C259.931 88.9006 259.557 88.8533 259.159 88.8089C258.805 88.7694 258.437 88.7329 258.047 88.6942C257.683 88.6583 256.886 88.5489 255.852 88.4586C255.215 88.4027 254.488 88.3547 253.723 88.3313C251.705 88.321 249.684 88.4612 247.697 88.7621C247.286 88.8483 246.931 88.9419 246.657 89.0352C246.46 89.1024 246.294 89.172 246.124 89.2445C245.892 89.3434 245.659 89.4462 245.328 89.5623C245.069 89.6529 244.761 89.7374 244.55 89.7729C244.451 89.7894 244.374 89.7952 244.303 89.8006C244.223 89.8069 244.151 89.8127 244.066 89.8344C244.005 89.8501 243.944 89.8753 243.869 89.9065C243.748 89.9564 243.595 90.0205 243.351 90.0886C242.45 90.3402 241.445 90.6536 240.468 91.0143C240.458 91.0176 240.449 91.021 240.44 91.0243C239.435 91.3975 238.436 91.935 237.667 92.3962C236.797 92.9149 235.548 93.6911 234.319 94.5323C233.472 95.109 232.614 95.7252 231.9 96.2635C231.196 96.7943 230.489 97.3778 229.806 97.9518C228.988 98.6393 228.206 99.3112 227.513 99.8479C227.373 99.956 227.18 100.068 226.937 100.209C226.766 100.309 226.565 100.428 226.348 100.564C225.494 101.281 224.638 102.006 223.785 102.73C223.758 102.76 223.73 102.79 223.703 102.821C223.702 102.821 223.702 102.822 223.702 102.822C223.079 103.511 222.23 104.454 220.822 105.535C220.464 105.81 220.219 105.96 219.998 106.095C219.781 106.228 219.588 106.346 219.333 106.554C219.044 106.791 218.725 107.097 218.378 107.429C217.888 107.897 217.344 108.417 216.738 108.878C216.697 108.909 216.653 108.943 216.606 108.978C216.17 109.311 215.52 109.806 214.846 110.259C212.992 111.776 211.098 113.286 209.157 114.72C208.05 115.537 206.928 116.329 205.771 117.077C203.517 118.532 201.186 119.841 198.718 120.931C196.905 121.733 195.048 122.271 193.631 122.434C192.212 122.608 191.369 122.378 191.383 122.131C191.389 121.892 192.076 121.658 193.311 121.155C194.542 120.663 196.201 119.956 197.903 119.145C200.222 118.045 202.43 116.726 204.568 115.267C204.982 114.984 205.431 114.667 205.84 114.37C205.968 114.272 206.099 114.173 206.23 114.074C207.192 113.34 208.053 112.6 208.902 111.852C209.097 111.68 209.293 111.506 209.491 111.331Z" fill="#951415"/>
<path d="M193.431 152.796C195.405 152.773 199.206 152.941 201.294 152.997C201.332 152.998 201.37 153 201.408 153.001C201.902 153.015 202.382 153.024 202.925 153.032C204.245 153.05 206.006 153.081 209.715 153.122C210.783 153.11 211.879 153.093 212.945 153.074C218.426 153.041 223.865 152.595 229.581 153.35C236.308 154.69 239.177 160.777 241.948 165.417C242.259 165.968 242.569 166.543 242.86 167.106C242.93 167.238 243.002 167.374 243.074 167.511C244.478 170.163 245.895 173.574 246.65 175.755C247.617 178.529 248.166 180.442 248.61 182.012C251.302 190.964 252.988 200.156 255.249 209.094C255.361 209.514 255.49 209.979 255.61 210.39C256.096 212.163 256.347 214.137 255.328 216.048C254.796 216.947 253.863 217.366 253.079 217.571C250.779 218.098 248.679 217.771 246.611 217.639C245.925 217.586 245.257 217.419 244.637 217.175C243.012 216.549 241.769 215.55 240.701 214.614C239.205 213.274 238.045 211.981 237.092 210.906C234.825 208.308 232.399 205.313 230.458 203.216C230.26 203 230.066 202.79 229.879 202.59C229.771 202.474 229.665 202.362 229.562 202.254C227.979 200.646 226.306 199.13 224.546 197.724C224.435 197.621 224.323 197.518 224.209 197.414C222.781 196.123 220.889 194.675 217.67 192.788C216.267 191.973 214.604 191.084 212.59 190.151C211.29 189.553 210.628 189.231 210.087 188.963C209.927 188.885 209.778 188.813 209.625 188.742C209.101 188.5 208.52 188.313 207.833 188.104C206.94 187.833 205.868 187.523 204.478 187.024C200.033 185.46 197.943 185.169 196.398 184.895C195.941 184.819 195.529 184.753 195.107 184.675C193.741 184.421 191.81 183.988 190.348 183.653C189.189 183.383 186.839 183.01 185.048 182.77C184.453 182.689 183.687 182.563 182.781 182.414C182.646 182.391 182.509 182.368 182.37 182.342C181.218 182.132 179.906 181.799 178.535 181.346C175.083 180.163 173.429 179.126 172.089 178.365C171.709 178.14 171.361 177.926 171.014 177.707C169.92 177.017 168.605 176.097 167.327 175.105C165.795 173.921 164.312 172.638 163.202 171.648C162.723 171.197 162.251 170.741 161.783 170.28L161.651 170.127C159.816 167.536 158.019 164.923 156.403 162.132C156.117 161.634 155.847 161.128 155.605 160.625L155.593 160.601C155.038 159.361 154.611 158.197 154.319 157.247C153.912 155.912 153.812 155.108 154.036 155.006C154.261 154.903 154.797 155.514 155.535 156.692C156.061 157.53 156.657 158.611 157.282 159.766L157.272 159.746C157.533 160.198 157.812 160.666 158.096 161.138C159.701 163.789 161.529 166.341 163.387 168.871L163.274 168.741C163.834 169.274 164.399 169.799 164.972 170.316C168.482 173.479 172.256 176.366 176.447 178.357C178.573 179.364 180.806 180.119 183.097 180.503C184.006 180.656 184.908 180.81 185.815 180.968C186.156 181.027 186.495 181.087 186.837 181.148C189.632 181.569 192.418 182.043 194.375 182.436C195.992 182.758 197.158 183.059 198.153 183.325C198.84 183.509 199.442 183.676 200.06 183.832C200.391 183.916 200.842 184.029 201.387 184.172C203.609 184.747 207.371 185.854 210.664 187.265C212.127 187.884 213.792 188.682 215.343 189.518C217.565 190.707 219.535 191.982 220.543 192.607C222.317 193.694 224.237 195.123 225.847 196.481C227.384 197.77 228.655 198.987 229.399 199.649C230.026 200.208 230.539 200.721 231.149 201.376C231.415 201.663 231.69 201.966 231.999 202.313C232.693 203.092 233.534 204.061 234.658 205.379C235.957 206.904 236.831 208.005 237.586 208.934C238.647 210.234 239.443 211.222 240.777 212.513C242.259 213.947 243.93 215.268 245.379 215.788C245.789 215.943 246.247 216.057 246.733 216.095C247.068 216.121 247.41 216.148 247.756 216.174C248.984 216.267 250.262 216.346 251.377 216.292C252.294 216.248 253.017 216.127 253.522 215.881C253.679 215.805 253.814 215.717 253.926 215.618C254.009 215.534 254.08 215.442 254.139 215.342C254.388 214.919 254.532 214.376 254.593 213.825C254.598 213.711 254.6 213.59 254.597 213.464C254.585 212.829 254.478 212.042 254.202 211.101C254.175 211.009 254.148 210.921 254.119 210.831C253.646 209.334 253.33 207.967 253.007 206.536C252.739 205.338 252.478 204.123 252.142 202.71C251.913 201.749 251.642 200.655 251.374 199.585C250.974 197.988 250.57 196.398 250.326 195.303C250.233 194.888 250.176 194.526 250.121 194.171C250.12 194.17 250.12 194.168 250.12 194.167C250.116 194.143 250.112 194.118 250.109 194.094C249.434 191.425 248.723 188.767 247.951 186.132C247.879 185.905 247.805 185.675 247.732 185.448C247.376 184.341 247.016 183.268 246.75 182.58C246.462 181.833 245.832 179.93 245.096 177.956C244.614 176.661 244.089 175.34 243.625 174.274C243.355 173.652 243.137 173.047 242.903 172.427C242.687 171.854 242.453 171.255 242.155 170.637C242.006 170.327 241.831 169.99 241.644 169.639C241.479 169.331 241.302 169.006 241.117 168.663C240.945 168.347 240.591 167.626 240.102 166.728C240.069 166.667 240.035 166.605 240.001 166.543C239.715 166.025 239.398 165.451 239.059 164.861C238.01 163.137 236.913 161.461 235.655 159.97C235.373 159.674 235.114 159.435 234.895 159.264C234.737 159.14 234.594 159.046 234.447 158.952C234.245 158.824 234.038 158.696 233.77 158.509C233.561 158.363 233.33 158.182 233.186 158.046C233.12 157.983 233.073 157.929 233.03 157.88C232.982 157.825 232.937 157.775 232.874 157.728C232.828 157.693 232.775 157.665 232.709 157.631C232.606 157.577 232.469 157.507 232.281 157.383C231.578 156.917 230.74 156.498 229.881 156.272C229.645 156.21 229.41 156.16 229.174 156.124C228.351 155.998 227.552 155.924 226.874 155.884C225.868 155.822 224.408 155.744 222.933 155.708C221.905 155.682 220.855 155.671 219.971 155.675C219.096 155.679 218.184 155.716 217.298 155.754C216.224 155.798 215.218 155.842 214.338 155.828C214.155 155.825 213.946 155.792 213.67 155.75C213.475 155.72 213.249 155.686 212.989 155.656C211.893 155.675 210.762 155.689 209.664 155.696C209.625 155.702 209.584 155.707 209.544 155.713C209.543 155.713 209.542 155.713 209.542 155.713C208.625 155.84 207.384 156.013 205.625 155.911C205.181 155.885 204.894 155.837 204.64 155.794C204.396 155.753 204.176 155.715 203.851 155.704C203.481 155.692 203.038 155.713 202.569 155.733C201.901 155.763 201.155 155.793 200.407 155.738C200.356 155.734 200.301 155.73 200.243 155.726C199.69 155.686 198.91 155.627 198.1 155.52C195.733 155.431 193.364 155.309 191.005 155.158C190.917 155.152 190.828 155.146 190.739 155.14C186.894 154.891 183.055 154.612 179.215 154.322C177.305 154.179 175.481 153.951 174.145 153.696C172.81 153.438 172.065 153.194 172.066 152.954C172.059 152.709 172.853 152.486 174.216 152.38C175.582 152.272 177.423 152.273 179.335 152.363C182.453 152.512 185.572 152.655 188.683 152.786C188.848 152.79 189.014 152.794 189.175 152.798C189.753 152.813 190.308 152.819 190.862 152.82C191.474 152.822 192.066 152.815 192.649 152.807C192.902 152.803 193.171 152.8 193.431 152.796Z" fill="#951415"/>
<path d="M144.683 177.53C144.364 179.243 143.36 182.45 142.695 184.193C142.683 184.225 142.671 184.257 142.659 184.289C142.507 184.697 142.358 185.098 142.182 185.552C141.722 186.64 141.28 188.141 139.449 191.073C139.071 191.678 138.623 192.316 138.111 192.887C137.926 193.094 137.738 193.295 137.544 193.494C132.036 198.887 125.138 201.083 119.253 204.84C116.802 206.277 114.872 208.306 113.339 210.768C113.277 210.871 113.213 210.977 113.149 211.086C111.902 213.173 110.672 216.02 109.909 217.803C108.936 220.075 108.319 221.666 107.813 222.956C107.643 223.42 107.481 223.868 107.312 224.341C107.079 224.989 106.845 225.637 106.591 226.291C106.463 226.619 106.331 226.947 106.172 227.291C106.09 227.466 106.01 227.636 105.879 227.85C105.808 227.958 105.75 228.068 105.555 228.254C105.448 228.337 105.311 228.507 104.872 228.558C104.654 228.577 104.411 228.505 104.259 228.41C104.105 228.315 104.023 228.223 103.958 228.142C99.9989 222.818 99.401 216.306 96.9988 210.879C96.6386 210.103 96.2216 209.356 95.7173 208.741C94.7531 207.57 93.5579 206.555 92.2858 205.638C90.4532 204.322 88.4575 203.2 86.4226 202.139C85.2267 201.541 84.0703 200.998 82.9957 200.494C81.4822 199.784 80.1339 199.149 79.0249 198.563C78.6125 198.345 78.1828 198.11 77.7635 197.866C75.2045 196.426 73.9835 193.577 73.2699 191.651C73.2451 191.585 73.221 191.52 73.1974 191.454C73.0516 191.049 72.9297 190.662 72.8277 190.302C72.2219 188.31 71.9571 186.249 71.8978 184.208C71.9047 184.071 71.913 183.933 71.9224 183.793C72.0503 182.056 72.134 179.924 72.7448 176.65C73.0162 175.227 73.3972 173.587 73.9858 171.705C74.3688 170.491 74.6439 169.893 74.8644 169.406C74.9295 169.264 74.9917 169.13 75.0533 168.993C75.2636 168.527 75.429 168.015 75.6396 167.413C75.9134 166.636 76.2596 165.697 76.9259 164.554C77.0322 164.372 77.1355 164.199 77.2358 164.033C79.5728 160.736 81.3239 160.117 82.3557 159.265C82.695 159.033 83.0219 158.822 83.3432 158.633C84.4225 157.995 86.0257 157.305 87.2713 156.862C88.2636 156.498 90.1861 155.725 91.668 155.171C92.231 154.958 92.9901 154.71 93.9036 154.427C94.8373 154.138 95.9278 153.816 97.0919 153.463C100.028 152.58 101.603 152.17 102.867 151.831C103.227 151.735 103.563 151.647 103.899 151.559C104.96 151.281 106.274 150.955 107.616 150.63C109.219 150.241 110.83 149.861 112.071 149.555C114.445 149.05 116.853 148.549 119.189 148.012L119.178 148.015C120.01 147.813 120.845 147.622 121.681 147.44C122.358 147.294 123.028 147.17 123.665 147.073C124.595 146.93 125.446 146.84 126.155 146.795C127.348 146.72 128.049 146.786 128.11 147.026C128.169 147.265 127.575 147.664 126.441 148.1C125.769 148.359 124.941 148.614 124.045 148.859C123.431 149.028 122.781 149.194 122.12 149.354C121.302 149.551 120.488 149.758 119.675 149.974C117.195 150.604 114.689 151.179 112.209 151.757C108.176 152.692 104.155 153.629 100.172 154.673C97.3872 155.403 94.619 156.191 91.9079 157.101C91.6317 157.194 91.3508 157.29 91.0715 157.387C88.8221 158.239 86.6543 159.211 85.1859 159.973C83.9599 160.605 83.1214 161.067 82.3927 161.512C81.9157 161.803 81.477 162.101 81.0958 162.41C80.878 162.587 80.6048 162.819 80.29 163.125C79.8185 163.585 79.2711 164.199 78.8666 164.938C78.0664 166.393 77.2559 168.199 76.5756 169.941C76.0945 171.165 75.577 172.612 75.1568 174.017C74.5486 176.023 74.1546 177.946 74.0418 178.925C73.8327 180.643 73.6629 182.617 73.6875 184.357C73.7016 186.016 73.8953 187.455 74.0992 188.245C74.335 189.154 74.5155 189.934 74.8996 191.018C74.9146 191.059 74.9298 191.101 74.9452 191.143C75.2519 191.958 75.6115 192.972 76.3545 194.135C77.1147 195.301 77.8863 195.96 78.6103 196.417C78.7205 196.486 78.83 196.553 78.939 196.619C80.1639 197.358 81.1265 197.878 82.6073 198.558C84.2554 199.31 85.9812 200.119 87.3036 200.841C87.906 201.168 88.5994 201.539 89.3139 201.94C90.2604 202.471 91.2453 203.061 92.109 203.66C92.8216 204.155 93.3744 204.614 93.8536 205.037C94.0008 205.167 94.1454 205.297 94.2811 205.422C94.8212 205.858 95.3417 206.317 95.8401 206.813C95.9248 206.887 96.0154 206.967 96.1085 207.052C96.3401 207.262 96.5961 207.507 96.8627 207.795C97.1402 208.094 97.4227 208.458 97.6873 208.869C98.5194 210.182 98.962 211.431 99.3955 212.724C99.7281 213.734 100.036 214.79 100.413 215.979C100.671 216.791 100.973 217.709 101.285 218.609C101.746 219.948 102.242 221.241 102.588 222.132C102.717 222.466 102.81 222.762 102.905 223.051C102.906 223.052 102.906 223.054 102.907 223.055C102.913 223.075 102.92 223.094 102.926 223.114C103.579 224.538 104.344 225.9 105.3 227.081C105.27 227.045 105.22 226.983 105.1 226.92C104.98 226.852 104.773 226.83 104.652 226.863C104.403 226.935 104.4 226.997 104.379 227.005C104.361 227.026 104.403 226.969 104.433 226.912C104.502 226.788 104.574 226.627 104.643 226.462C104.782 226.13 104.914 225.771 105.041 225.415C105.104 225.222 105.167 225.025 105.229 224.831C105.346 224.459 105.46 224.088 105.565 223.738C105.736 223.172 105.878 222.69 105.982 222.302C106.163 221.626 106.723 219.958 107.363 218.223C107.784 217.079 108.243 215.904 108.63 214.946C108.853 214.392 109.119 213.88 109.403 213.354C109.664 212.873 109.939 212.379 110.223 211.816C110.36 211.543 110.512 211.23 110.671 210.913C110.816 210.627 110.969 210.332 111.144 210.02C111.306 209.733 111.694 209.113 112.253 208.346C112.597 207.874 113.011 207.344 113.472 206.813C114.649 205.37 116.082 204.098 117.638 203.085C117.766 202.988 117.888 202.897 118.002 202.81C118.157 202.691 118.293 202.581 118.407 202.481C118.547 202.357 118.657 202.245 118.777 202.127C118.938 201.967 119.104 201.802 119.348 201.606C119.543 201.451 119.784 201.293 119.957 201.209C120.037 201.17 120.104 201.146 120.164 201.125C120.234 201.1 120.295 201.078 120.363 201.038C120.412 201.01 120.458 200.972 120.515 200.927C120.607 200.853 120.721 200.761 120.922 200.645C121.655 200.224 122.505 199.761 123.333 199.318C124.255 198.824 125.155 198.35 125.862 197.961C126.655 197.525 127.799 196.949 128.92 196.351C129.702 195.934 130.471 195.504 131.109 195.111C131.734 194.726 132.353 194.286 132.928 193.84C133.619 193.304 134.243 192.759 134.779 192.307C134.888 192.216 135.042 192.124 135.233 192.003C135.369 191.918 135.524 191.818 135.693 191.694C135.863 191.52 136.027 191.344 136.19 191.163C136.579 190.732 136.968 190.187 137.302 189.653C137.315 189.623 137.327 189.593 137.34 189.562C137.34 189.561 137.34 189.561 137.341 189.56C137.62 188.876 137.966 187.915 138.646 186.631C138.817 186.308 138.951 186.108 139.073 185.926C139.19 185.75 139.293 185.597 139.402 185.346C139.527 185.06 139.638 184.711 139.753 184.329C139.918 183.783 140.087 183.189 140.331 182.599C140.347 182.56 140.365 182.517 140.383 182.473C140.557 182.051 140.81 181.416 141.091 180.795C141.712 178.88 142.268 176.941 142.775 174.984C143.618 171.724 144.336 168.416 144.885 165.1C145.15 163.494 145.441 161.938 145.705 160.805C145.972 159.671 146.194 159.023 146.438 159.031C146.679 159.018 146.926 159.696 147.019 160.901C147.116 162.102 147.044 163.737 146.826 165.387C146.467 168.098 145.999 170.773 145.441 173.444C145.414 173.585 145.388 173.725 145.36 173.865C145.157 174.908 144.99 175.883 144.81 176.858C144.769 177.082 144.727 177.305 144.683 177.53Z" fill="#951415"/>
<path d="M88.1547 145.611C86.1279 145.907 82.2087 146.293 80.0453 146.54C80.0057 146.544 79.9661 146.549 79.9264 146.553C79.4149 146.611 78.9302 146.67 78.3618 146.741C77.0079 146.91 75.1823 147.144 71.3467 147.591C70.2382 147.743 69.1158 147.896 68.0054 148.042C62.0863 148.78 56.1082 149.621 49.924 149.074C43.6986 148.429 37.2944 147.113 31.7944 143.619C31.6603 143.535 31.5175 143.444 31.3798 143.355C28.6535 141.669 25.9268 138.707 24.4972 136.819C24.0158 136.207 23.5854 135.655 23.182 135.169C21.941 133.672 21.0791 132.468 20.3627 131.419C15.5138 124.194 11.52 116.76 6.44784 109.864C5.81039 108.972 5.19408 108.072 4.60113 107.153C2.95875 104.581 1.41566 101.891 0.508788 98.8557C0.138677 97.5664 -0.107156 96.1868 0.0457739 94.7645C0.125716 94.1617 0.527021 93.8992 0.750966 93.7556C0.996846 93.6083 1.22772 93.525 1.4299 93.459C1.86009 93.3234 2.23737 93.2514 2.6452 93.1832C3.42798 93.0571 4.18304 92.9879 4.94073 92.9293C6.59755 92.7855 8.11657 92.7085 9.55455 92.6386C11.5738 92.5439 13.3545 92.4789 14.8324 92.44C18.3899 92.35 22.3964 92.316 25.3984 92.2616C25.8805 92.2534 26.3416 92.2448 26.7721 92.236C29.1448 92.148 31.5153 92.0434 33.8833 91.9193C33.9981 91.921 34.1139 91.9229 34.2311 91.9249C34.2767 91.9256 34.3224 91.9264 34.3683 91.9272C36.387 91.9587 38.879 91.8243 42.7669 91.4695C44.466 91.3126 46.4282 91.1103 48.7367 90.8406C50.224 90.6659 50.9909 90.6142 51.6232 90.5724C51.808 90.5601 51.9805 90.5484 52.1541 90.5342C52.7614 90.4837 53.3748 90.3639 54.1189 90.2163C55.0699 90.0268 56.2228 89.7932 57.7501 89.6144C62.6474 89.0302 64.761 88.5462 66.3819 88.2086C66.848 88.1098 67.2915 88.0187 67.7263 87.9421C69.162 87.6886 71.245 87.4606 72.846 87.4354C73.2393 87.4281 73.7532 87.4116 74.3267 87.4143C75.6327 87.4146 77.2664 87.5289 78.5933 87.704C79.3155 87.796 80.288 87.977 81.4106 88.2497C82.5739 88.5314 83.9034 88.9135 85.3073 89.3696C88.8475 90.5451 90.6314 91.4224 92.0713 92.0936C92.48 92.2894 92.8592 92.4764 93.2356 92.6661C94.4264 93.2652 95.8783 94.0607 97.3115 94.9297C99.0277 95.9654 100.715 97.1115 101.973 98.0257C102.071 98.1009 102.169 98.1761 102.266 98.2515L102.376 98.3461C105.102 101.067 107.751 103.866 110.226 106.855C110.883 107.654 111.497 108.47 112.017 109.266C112.517 110.025 112.976 110.797 113.278 111.48C113.883 112.858 113.979 113.698 113.766 113.805C113.537 113.916 113 113.27 112.134 112.171C111.702 111.625 111.183 111.02 110.593 110.317C110.018 109.627 109.377 108.88 108.723 108.117C106.259 105.255 103.589 102.537 100.857 99.8962L100.95 99.9768C100.748 99.8256 100.544 99.6747 100.338 99.524C96.3827 96.652 92.0877 94.2236 87.5876 92.3447C84.4387 91.0401 81.1714 90.0129 77.8432 89.5166C77.5028 89.4662 77.1562 89.4211 76.816 89.3832C75.9704 89.3102 75.1275 89.2773 74.3144 89.2886C72.4459 89.3249 70.6264 89.5958 69.2203 89.7911C67.5589 90.0312 66.3345 90.1937 65.291 90.3289C64.5738 90.4228 63.9296 90.5092 63.2892 90.615C62.9354 90.6734 62.4771 90.7512 61.8998 90.8488C59.5795 91.2417 55.613 91.9079 51.9668 92.3332C50.3491 92.524 48.4581 92.7063 46.6625 92.8538C44.0825 93.0687 41.6805 93.2089 40.4744 93.3233C38.5362 93.5099 36.3297 93.6273 34.3122 93.6944C34.1162 93.701 33.9226 93.7074 33.7319 93.7135C31.6836 93.7794 29.8662 93.8228 28.8583 93.8984C27.6274 93.9895 26.5891 94.0021 25.0409 94.015C23.9604 94.0239 22.6559 94.0319 20.8542 94.0603C18.7859 94.0925 17.3138 94.0838 16.0786 94.0771C14.3309 94.0678 13.0154 94.0584 11.054 94.16C8.86849 94.2746 6.6231 94.3823 4.84964 94.5002C4.04672 94.5569 3.13376 94.637 2.26394 94.835C2.04622 94.8866 1.82837 94.9502 1.66349 95.0243C1.58875 95.0569 1.52129 95.0998 1.5121 95.1094C1.4935 95.1266 1.5713 95.0638 1.58575 94.9289C1.50761 95.6282 1.55021 96.3442 1.65228 97.0315C1.79424 97.9713 1.99239 98.7582 2.19236 99.4508C2.25797 99.6736 2.31856 99.8697 2.38777 100.076C2.67803 100.811 3.00814 101.531 3.36715 102.243C3.4309 102.353 3.49982 102.47 3.57368 102.593C3.93864 103.202 4.40697 103.942 4.99064 104.855C5.92264 106.309 6.74014 107.56 7.65403 108.882C7.67124 108.907 7.68851 108.932 7.70585 108.957C8.42035 109.984 9.13127 111.022 9.98151 112.234C10.5741 113.078 11.2438 114.024 11.9058 114.98C12.8862 116.393 13.8311 117.803 14.4489 118.808C14.6765 119.179 14.8596 119.525 15.0319 119.855C15.0326 119.857 15.0333 119.858 15.034 119.86C15.0458 119.882 15.0576 119.905 15.0693 119.927C16.6181 122.341 18.1099 124.792 19.6636 127.171C19.8023 127.373 19.9451 127.58 20.0851 127.781C20.771 128.769 21.462 129.706 21.9455 130.29C22.4246 130.872 23.5089 132.294 24.818 133.754C24.9412 133.892 25.0649 134.034 25.189 134.177C26.1522 135.3 27.0767 136.433 27.8928 137.29C28.3648 137.789 28.7938 138.283 29.2495 138.769C29.6736 139.22 30.1331 139.675 30.6747 140.108C30.9522 140.33 31.2487 140.545 31.5867 140.777C31.8717 140.972 32.1964 141.185 32.5199 141.39C32.8298 141.587 33.4969 142.041 34.4099 142.556C34.9649 142.869 35.6216 143.21 36.3278 143.532C38.2082 144.335 40.186 144.943 42.1994 145.411C42.6316 145.487 43.0009 145.533 43.2979 145.551C43.5118 145.563 43.6982 145.563 43.8909 145.561C44.1601 145.56 44.4108 145.553 44.7743 145.575C45.0552 145.592 45.3941 145.637 45.6099 145.688C45.709 145.711 45.7845 145.736 45.8532 145.759C45.9319 145.786 46.0025 145.809 46.0914 145.823C46.1556 145.833 46.224 145.834 46.3084 145.836C46.4433 145.838 46.6188 145.842 46.8852 145.88C47.8472 146.017 48.956 146.158 50.0618 146.271C50.1029 146.275 50.144 146.279 50.1851 146.283C51.3242 146.398 52.4502 146.439 53.3596 146.436C54.4133 146.435 55.9248 146.427 57.4503 146.36C58.5186 146.315 59.5803 146.248 60.5023 146.168C61.3982 146.092 62.3389 145.971 63.2392 145.849C64.3305 145.701 65.3684 145.55 66.2683 145.465C66.4526 145.448 66.6759 145.457 66.9635 145.467C67.1667 145.474 67.4014 145.482 67.6692 145.482C68.7993 145.334 69.9458 145.181 71.0791 145.03C71.1185 145.02 71.1592 145.009 71.2 144.998C71.2006 144.998 71.2013 144.998 71.2019 144.998C72.1232 144.753 73.3778 144.416 75.1931 144.273C75.6543 144.236 75.9525 144.243 76.215 144.25C76.4745 144.257 76.707 144.263 77.0432 144.227C77.4282 144.185 77.8659 144.104 78.3535 144.015C79.0397 143.889 79.7961 143.752 80.5732 143.698C80.6259 143.694 80.6827 143.69 80.7418 143.686C81.3028 143.647 82.1355 143.59 82.9689 143.58C85.4179 143.325 87.8668 143.107 90.3236 142.938C90.6475 142.915 90.9725 142.893 91.2986 142.873C95.0716 142.632 98.8093 142.428 102.588 142.275C104.577 142.194 106.493 142.224 107.904 142.36C109.322 142.495 110.122 142.723 110.114 142.966C110.124 143.208 109.342 143.448 107.948 143.677C106.559 143.905 104.669 144.102 102.693 144.235C99.4709 144.451 96.2489 144.707 93.026 144.983C92.8572 145 92.6804 145.018 92.5172 145.035C92.1674 145.07 91.8192 145.109 91.4711 145.15C90.6032 145.252 89.7805 145.369 88.9501 145.492C88.6848 145.531 88.4225 145.571 88.1547 145.611Z" fill="#951415"/>
<path d="M105.367 95.3117C103.914 93.9421 101.339 91.0603 99.9576 89.4613C99.9319 89.4318 99.9061 89.4023 99.8804 89.3728C99.547 88.9889 99.24 88.64 98.8709 88.2186C97.9928 87.2109 96.811 85.8715 94.4513 82.9535C93.7456 82.1173 93.0504 81.2818 92.3584 80.4375C90.4856 78.1525 88.6543 75.8321 86.8703 73.4747C81.4492 66.336 77.5236 58.1229 75.1285 49.5487C75.0856 49.4041 75.0427 49.2579 75 49.1111C74.1539 46.2539 73.3541 42.642 72.9419 40.3911C72.925 40.301 72.9085 40.2132 72.8925 40.1276C72.3723 37.3164 72.2959 35.3525 72.2735 33.7398C71.9373 24.1008 75.6611 15.1129 77.6648 6.22776C77.8561 5.26488 78.0077 4.30281 78.0864 3.34498C78.1481 2.24513 78.6818 0.872604 79.9196 0.340496C81.1058 -0.170898 82.2236 -0.00490651 83.2228 0.186511C86.0612 0.840145 88.44 2.13229 90.8305 3.44485C92.2446 4.21576 93.5261 4.96747 94.7077 5.68411C96.3851 6.70361 97.8352 7.63893 99.0301 8.44423C101.899 10.3762 105.028 12.7115 107.336 14.4693C107.714 14.7571 108.07 15.0289 108.398 15.2796C110.257 16.6508 112.085 18.0183 113.934 19.408C114.05 19.5082 114.165 19.6091 114.282 19.7115C115.77 21.0066 117.695 22.4934 120.696 24.7486C121.991 25.7106 123.486 26.8456 125.212 27.987C125.271 28.026 125.331 28.0654 125.391 28.1054C126.645 28.9538 127.188 29.5141 127.637 29.9579C127.767 30.0887 127.887 30.2133 128.009 30.3396C128.428 30.772 128.897 31.1891 129.435 31.7132C130.127 32.3904 130.931 33.2419 131.78 34.5075C134.415 38.5778 135.358 40.4617 136.205 41.8284C136.445 42.2384 136.655 42.6024 136.861 42.989C137.528 44.2351 138.336 46.079 138.892 47.489C139.338 48.606 140.327 50.7952 141.07 52.4581C141.355 53.0918 141.704 53.9489 142.11 54.9672C142.416 55.733 142.75 56.5775 143.118 57.4947L143.171 57.703C143.223 58.0715 143.275 58.4478 143.328 58.8301C143.807 62.3645 143.949 64.257 144.072 65.777C144.105 66.2109 144.133 66.6134 144.16 67.0182C144.245 68.2937 144.317 69.8799 144.351 71.4866C144.393 73.4098 144.377 75.3633 144.345 76.8528C144.153 80.7075 143.765 84.5586 142.956 88.3749C142.956 88.3785 142.955 88.3821 142.954 88.3857C142.533 90.3001 142.143 92.0278 141.867 93.378C141.578 94.725 141.309 95.4896 141.06 95.4794C140.816 95.461 140.607 94.6805 140.535 93.2691C140.446 91.8655 140.649 89.9035 141.031 87.9944C141.032 87.9883 141.033 87.9848 141.034 87.9813C141.761 84.1801 142.067 80.271 142.183 76.372C142.315 71.6135 142.131 66.8462 141.692 62.1049C141.564 60.7187 141.411 59.3347 141.234 57.954L141.298 58.204C140.591 56.3822 139.874 54.5678 139.137 52.7643C139.009 52.4525 138.874 52.1222 138.743 51.8064C137.609 49.2408 136.417 46.7106 135.545 44.9434C134.829 43.4864 134.323 42.4322 133.871 41.5226C133.562 40.9027 133.283 40.3616 132.97 39.8192C132.806 39.5337 132.572 39.1377 132.288 38.6752C131.13 36.7743 129.001 33.6253 126.523 31.3638C125.848 30.7381 125.07 30.0942 124.225 29.5152C123.702 29.1559 123.107 28.7212 122.581 28.3251C120.547 26.7866 118.783 25.3486 117.826 24.6514C116.151 23.4243 114.317 21.9798 112.675 20.6932C111.101 19.46 109.738 18.3993 108.929 17.8412C107.954 17.1678 107.169 16.5533 105.983 15.6354C105.166 15.0036 104.156 14.2256 102.764 13.2051C101.155 12.026 100.024 11.1875 99.0556 10.4784C97.6969 9.48612 96.6638 8.74408 95.0517 7.75908C93.2468 6.65735 91.3997 5.57271 89.8887 4.70428C89.2434 4.33137 88.4098 3.88382 87.6055 3.48822C86.4849 2.93684 85.3531 2.43884 84.2484 2.04878C83.3945 1.74732 82.6455 1.52795 81.9839 1.43756C81.7859 1.41059 81.6163 1.39435 81.4183 1.39327C80.7473 1.42504 80.1759 1.65766 79.8689 2.13183C79.8255 2.20974 79.7845 2.29823 79.747 2.40033C79.635 2.71458 79.5928 2.98371 79.5742 3.46282C79.562 3.87282 79.5299 4.33804 79.4743 4.82668C79.272 6.5555 78.9017 8.00989 78.4871 9.52886C78.1618 10.7104 77.7984 11.9271 77.4125 13.3242C77.1483 14.281 76.8623 15.3593 76.5865 16.4385C76.1766 18.0352 75.8051 19.6145 75.5345 20.7067C75.4327 21.1151 75.3245 21.4605 75.2189 21.8062C75.2183 21.8077 75.2178 21.8092 75.2173 21.8107C75.2102 21.8341 75.203 21.8577 75.1959 21.8812C74.6408 24.5592 74.2459 27.2718 74.1169 29.9817C74.1111 30.2167 74.1068 30.4578 74.1048 30.6911C74.0928 31.8404 74.1398 32.9607 74.217 33.6789C74.2959 34.4643 74.4352 36.4347 74.8244 38.4689C74.8993 38.8681 74.9826 39.2728 75.0732 39.6749C75.2865 40.6258 75.4952 41.5504 75.6903 42.3482C75.8503 43.0025 75.9652 43.6554 76.0842 44.3026C76.1989 44.9216 76.3187 45.5426 76.4989 46.2151C76.5916 46.5612 76.6956 46.9071 76.8159 47.2998C76.9192 47.6356 77.0312 47.9924 77.1466 48.369C77.2519 48.7117 77.4592 49.4968 77.7506 50.4942C77.9303 51.1096 78.1426 51.8066 78.3812 52.5344C79.0587 54.4356 79.8158 56.3178 80.646 58.1528C80.8404 58.5253 81.0266 58.8497 81.1866 59.0887C81.3024 59.2623 81.4121 59.4056 81.5252 59.553C81.6797 59.7541 81.8395 59.9603 82.0314 60.2539C82.1818 60.4841 82.3376 60.7683 82.4226 60.9703C82.4617 61.0636 82.4846 61.1374 82.5059 61.2051C82.5302 61.2826 82.5522 61.3518 82.5922 61.4297C82.6211 61.4859 82.6593 61.5403 82.7063 61.6073C82.7815 61.7143 82.8792 61.8535 82.9995 62.0817C83.4411 62.9203 83.9573 63.8756 84.4855 64.796C85.0715 65.8196 85.6775 66.8073 86.1805 67.5686C86.7488 68.4321 87.5391 69.6588 88.386 70.8655C88.607 71.181 88.8324 71.497 89.0579 71.8064C89.4338 72.3219 89.7996 72.8163 90.1353 73.2596C90.6626 73.956 91.245 74.6684 91.8059 75.3461C92.4853 76.1676 93.137 76.9439 93.6626 77.64C93.7687 77.7805 93.8773 77.9737 94.0136 78.2152C94.1103 78.3864 94.2218 78.583 94.3551 78.801C95.0567 79.657 95.7582 80.5045 96.4704 81.3567C96.4995 81.3834 96.5293 81.4108 96.5593 81.4383C96.5598 81.4387 96.5603 81.4391 96.5608 81.4395C97.236 82.0565 98.1647 82.9022 99.2283 84.2817C99.5015 84.6355 99.6502 84.8762 99.7842 85.0929C99.9157 85.3055 100.033 85.4952 100.239 85.7416C100.474 86.0236 100.783 86.3373 101.115 86.6729C101.58 87.1421 102.107 87.6716 102.574 88.2518C102.606 88.2913 102.64 88.3339 102.676 88.378C103.009 88.7922 103.522 89.4227 103.992 90.063C105.563 91.8237 107.152 93.5678 108.759 95.2947C111.434 98.167 114.163 101.002 116.964 103.763C118.34 105.118 119.57 106.416 120.481 107.466C121.354 108.491 121.822 109.137 121.672 109.314C121.558 109.545 120.733 109.216 119.606 108.452C118.435 107.657 117.032 106.51 115.606 105.18C113.312 103.04 111.052 100.841 108.835 98.6117C108.719 98.4983 108.601 98.3837 108.483 98.2686C107.597 97.4006 106.767 96.6287 105.942 95.8541C105.751 95.6753 105.56 95.4947 105.367 95.3117Z" fill="#951415"/>
</svg>
