<svg width="884" height="724" viewBox="0 0 884 724" fill="none" xmlns="http://www.w3.org/2000/svg">
<path d="M258.603 315.597C258.849 318.48 259.073 324.016 259.218 327.073C259.221 327.13 259.224 327.186 259.226 327.243C259.26 327.967 259.296 328.645 259.341 329.455C259.448 331.363 259.585 333.951 259.879 339.344C259.989 340.909 260.103 342.474 260.222 344.047C260.97 353.974 261.889 363.896 263.11 373.772C263.969 380.718 264.987 387.647 266.162 394.549C266.2 394.76 266.239 394.974 266.278 395.191C267.033 399.377 268.062 404.549 268.7 407.801C269.507 411.936 270.089 414.739 270.571 417.04C272.776 426.953 275.317 436.798 278.222 446.531C279.171 449.712 280.16 452.88 281.187 456.036C282.494 460.05 283.864 464.048 285.293 468.028C286.607 471.686 287.972 475.335 289.381 478.962C290.221 481.066 291.039 483.058 291.81 484.904C292.89 487.494 293.874 489.79 294.68 491.692C296.384 495.714 298.3 500.202 299.895 503.828C300.118 504.337 300.333 504.825 300.538 505.291C300.811 505.909 301.077 506.512 301.319 507.057C302.706 510.087 304.101 513.098 305.514 516.126C305.599 516.333 305.684 516.541 305.77 516.752C306.84 519.386 308.315 522.556 310.622 527.553C311.627 529.734 312.79 532.26 314.118 535.255C314.972 537.183 315.36 538.207 315.671 539.03C315.764 539.277 315.851 539.507 315.94 539.737C316.243 540.525 316.624 541.336 317.068 542.302C317.641 543.551 318.323 545.055 319.035 547.116C319.661 548.934 320.162 550.483 320.573 551.819L320.578 551.836C321.572 555.351 321.956 557.419 322.277 559.068C322.403 559.738 322.509 560.344 322.603 560.974C322.906 562.99 323.159 565.889 323.308 568.072C323.392 569.291 323.599 571.358 323.814 573.399C323.904 574.241 323.997 575.101 324.084 575.881C324.194 576.865 324.313 578.213 324.45 579.79C324.593 581.429 324.756 583.323 324.953 585.341C325.452 590.448 325.709 593.167 325.917 595.353C325.976 595.969 326.03 596.549 326.086 597.133C326.259 598.957 326.465 601.234 326.673 603.537C326.921 606.289 327.172 609.08 327.375 611.204C327.796 616.721 328.208 622.24 328.618 627.754C328.829 630.587 328.94 633.316 328.92 635.331C328.901 637.348 328.754 638.492 328.508 638.512C328.262 638.532 327.933 637.426 327.588 635.439C327.244 633.453 326.912 630.742 326.662 627.913C326.159 622.211 325.655 616.512 325.156 610.807C324.549 603.863 323.95 596.916 323.366 589.968C322.956 585.107 322.549 580.252 322.128 575.39C322.086 574.903 322.041 574.382 321.998 573.891C321.986 573.782 321.975 573.673 321.964 573.565C321.547 569.587 321.123 565.687 320.785 562.918C320.5 560.582 320.289 558.873 320.061 557.445C319.902 556.456 319.735 555.594 319.521 554.727C319.405 554.261 319.238 553.628 319.017 552.86C318.967 552.687 318.917 552.514 318.863 552.328L318.871 552.356C317.881 549.21 315.96 544.323 314.087 539.879C313.213 537.785 312.191 535.369 311.194 533.051C309.773 529.75 308.415 526.663 307.687 525.135C306.405 522.448 304.997 519.337 303.757 516.577C302.573 513.945 301.552 511.655 300.918 510.359C300.167 508.826 299.577 507.475 298.717 505.491C298.588 505.191 298.451 504.875 298.306 504.54C297.789 503.345 297.168 501.906 296.386 500.097C295.236 497.434 294.464 495.53 293.811 493.908C292.896 491.629 292.216 489.908 291.127 487.378C289.918 484.57 288.706 481.604 287.819 479.246C287.415 478.174 286.944 476.948 286.46 475.67C285.821 473.982 285.155 472.194 284.584 470.558C284.11 469.202 283.758 468.077 283.447 467.076C283.35 466.765 283.258 466.466 283.167 466.175C282.786 465.099 282.409 464.024 282.037 462.949C281.97 462.778 281.899 462.597 281.824 462.408C281.451 461.458 280.997 460.296 280.481 458.838C279.664 456.528 279.025 454.477 278.367 452.309C277.864 450.653 277.353 448.938 276.752 446.976C276.739 446.933 276.725 446.891 276.712 446.848C276.292 445.477 275.807 443.916 275.336 442.365C274.635 440.062 273.967 437.785 273.546 436.186C273.389 435.588 273.278 435.068 273.169 434.552C273.169 434.55 273.169 434.547 273.168 434.545C273.161 434.51 273.153 434.475 273.146 434.44C272.073 430.565 271.05 426.678 270.077 422.776C269.988 422.44 269.898 422.099 269.809 421.762C269.375 420.112 268.965 418.506 268.674 417.465C268.358 416.336 267.675 413.473 266.997 410.445C266.551 408.461 266.106 406.409 265.74 404.732C265.527 403.753 265.374 402.813 265.219 401.846C265.076 400.944 264.93 400.017 264.735 399.011C264.637 398.508 264.524 397.965 264.404 397.385C264.298 396.875 264.187 396.336 264.078 395.769C263.976 395.243 263.783 394.066 263.545 392.554C263.398 391.621 263.234 390.558 263.064 389.444C262.561 386.507 262.087 383.564 261.645 380.617C261.529 380.005 261.419 379.476 261.314 379.059C261.239 378.76 261.165 378.507 261.089 378.247C260.985 377.893 260.878 377.526 260.764 377.017C260.675 376.618 260.597 376.144 260.569 375.823C260.556 375.674 260.554 375.558 260.551 375.453C260.549 375.332 260.546 375.225 260.529 375.095C260.516 375.002 260.495 374.906 260.468 374.788C260.431 374.626 260.385 374.422 260.341 374.128C260.334 374.08 260.327 374.03 260.32 373.976C260.136 372.571 259.945 370.97 259.767 369.405C259.568 367.66 259.384 365.955 259.23 364.6C259.056 363.077 258.863 360.91 258.684 358.731C258.56 357.215 258.441 355.697 258.332 354.389C258.226 353.114 258.091 351.782 257.963 350.498C257.81 348.953 257.669 347.465 257.6 346.202C257.586 345.945 257.599 345.624 257.615 345.222C257.627 344.937 257.64 344.61 257.647 344.24C257.526 342.625 257.412 341.018 257.304 339.41C257.295 339.353 257.286 339.295 257.277 339.236C257.276 339.235 257.276 339.235 257.276 339.234C257.067 337.922 256.782 336.119 256.722 333.575C256.707 332.921 256.728 332.512 256.747 332.145C256.766 331.784 256.783 331.462 256.763 330.987C256.74 330.447 256.679 329.83 256.613 329.135C256.52 328.168 256.418 327.089 256.399 326.007C256.398 325.934 256.397 325.855 256.395 325.772C256.381 324.976 256.362 323.822 256.387 322.655C256.235 319.228 256.103 315.788 255.979 312.355C255.94 311.278 255.901 310.191 255.863 309.13C255.695 304.47 255.528 299.847 255.34 295.201C255.228 292.426 255.198 289.75 255.266 287.777C255.335 285.804 255.502 284.684 255.745 284.67C255.986 284.656 256.287 285.747 256.582 287.702C256.877 289.657 257.135 292.327 257.3 295.103C257.57 299.638 257.821 304.176 258.063 308.71C258.07 308.816 258.077 308.923 258.084 309.031C258.092 309.161 258.101 309.292 258.109 309.423C258.222 311.192 258.363 312.833 258.505 314.465C258.538 314.845 258.571 315.223 258.603 315.597Z" fill="#951415"/>
<path d="M388.107 313.973C388.246 316.701 388.217 321.984 388.189 324.879C388.189 324.933 388.189 324.988 388.188 325.039C388.182 325.716 388.18 326.363 388.177 327.131C388.172 328.612 388.165 330.477 388.107 333.881C388.093 334.686 388.07 335.578 388.03 336.564C387.993 338.069 387.929 339.573 387.841 341.075C386.864 357.236 383.317 372.992 379.675 388.585C379.658 388.657 379.641 388.73 379.624 388.802C379.579 389.001 379.534 389.203 379.487 389.407C378.598 393.355 377.413 398.23 376.588 401.27C375.541 405.138 374.783 407.75 374.155 409.895C371.336 419.92 368.282 429.882 364.967 439.746C364.202 442.017 363.423 444.272 362.628 446.517C361.289 450.304 359.894 454.06 358.516 457.819C357.248 461.278 356.015 464.743 354.888 468.24C354.783 468.578 354.68 468.911 354.577 469.248C354.066 470.923 353.602 472.536 353.184 474.054C352.483 476.605 351.911 478.893 351.441 480.788C350.307 485.34 349.129 490.54 348.318 494.418C348.182 495.063 348.062 495.641 347.947 496.205C347.354 499.298 346.8 502.388 346.269 505.501C346.222 505.711 346.177 505.912 346.129 506.121C345.566 508.637 345.036 511.708 344.278 516.49C344.244 516.704 344.21 516.922 344.175 517.145C343.82 519.4 343.425 521.975 342.959 525.038C342.657 527.025 342.462 528.008 342.298 528.842C342.25 529.084 342.206 529.308 342.164 529.538C342.018 530.32 341.929 531.175 341.829 532.16C341.697 533.447 341.541 534.99 341.199 537.019C340.116 543.461 339.86 546.337 339.661 548.509C339.603 549.145 339.551 549.723 339.486 550.312C339.276 552.225 338.875 554.935 338.548 556.98C338.288 558.602 337.914 561.867 337.66 564.344C337.563 565.283 337.404 566.544 337.217 568.035C337.023 569.576 336.8 571.36 336.589 573.268C336.056 578.099 335.778 580.665 335.555 582.722C335.492 583.308 335.431 583.866 335.373 584.41C335.188 586.131 334.949 588.291 334.713 590.455C334.43 593.05 334.148 595.685 333.948 597.704C333.927 597.882 333.906 598.059 333.885 598.234C333.289 603.255 332.697 608.28 332.202 613.282C331.941 615.94 331.633 618.502 331.402 620.355C331.17 622.213 331.035 623.28 330.779 623.296C330.542 623.308 330.198 622.26 330.067 620.319C329.934 618.397 330.024 615.782 330.247 613.104C330.672 608.064 331.192 603.025 331.729 597.99C331.767 597.637 331.806 597.279 331.845 596.916C332.558 590.327 333.31 583.793 334.113 577.231C334.674 572.654 335.255 568.058 335.849 563.485C335.91 563.014 335.972 562.542 336.034 562.069C336.466 558.212 336.914 554.366 337.253 551.657C337.532 549.421 337.783 547.799 337.999 546.407C338.147 545.45 338.279 544.604 338.393 543.744C338.455 543.281 338.537 542.653 338.637 541.892C339.043 538.791 339.747 533.507 340.505 528.724C340.844 526.583 341.258 524.141 341.669 521.772C342.02 519.745 342.367 517.784 342.635 516.229C342.817 515.175 342.96 514.32 343.055 513.684C343.47 510.894 344.039 507.701 344.564 504.886C345.064 502.198 345.521 499.874 345.738 498.516C345.994 496.913 346.277 495.559 346.716 493.546C347.022 492.151 347.399 490.45 347.923 488.119C348.531 485.429 349.016 483.55 349.44 481.949C350.038 479.708 350.51 478.007 351.156 475.48C351.746 473.176 352.427 470.792 353.074 468.768C353.218 468.319 353.355 467.9 353.492 467.489C353.838 466.458 354.231 465.277 354.65 464.052C355.204 462.432 355.806 460.733 356.387 459.196C356.866 457.93 357.297 456.897 357.677 455.983C357.796 455.699 357.911 455.423 358.019 455.159C358.39 454.147 358.76 453.137 359.127 452.127C359.18 451.96 359.235 451.783 359.292 451.603C359.579 450.682 359.929 449.56 360.394 448.176C361.128 445.99 361.821 444.083 362.536 442.07C362.857 441.165 363.178 440.253 363.515 439.263C363.759 438.545 364.013 437.781 364.273 436.975C364.687 435.69 365.142 434.213 365.586 432.749C366.245 430.577 366.88 428.429 367.353 426.942C367.529 426.389 367.704 425.918 367.877 425.448C367.878 425.446 367.879 425.444 367.88 425.442C367.892 425.41 367.903 425.379 367.915 425.347C368.991 421.712 370.032 418.062 371.037 414.403C371.119 414.083 371.201 413.764 371.282 413.445C371.682 411.884 372.062 410.371 372.281 409.373C372.519 408.295 373.214 405.607 373.917 402.768C374.378 400.91 374.843 398.983 375.203 397.409C375.414 396.488 375.658 395.625 375.907 394.737C376.139 393.908 376.376 393.056 376.591 392.115C376.699 391.644 376.806 391.133 376.92 390.587C377.02 390.106 377.124 389.598 377.238 389.067C377.285 388.848 377.364 388.511 377.467 388.082C377.595 387.542 377.761 386.858 377.95 386.077C378.16 385.21 378.396 384.225 378.64 383.19C379.232 380.443 379.812 377.693 380.37 374.941C380.463 374.362 380.531 373.858 380.568 373.454C380.594 373.165 380.605 372.917 380.616 372.662C380.632 372.315 380.648 371.955 380.701 371.467C380.742 371.085 380.816 370.641 380.889 370.346C380.923 370.209 380.957 370.105 380.987 370.011C381.022 369.903 381.053 369.807 381.076 369.686C381.093 369.599 381.101 369.507 381.112 369.394C381.129 369.213 381.151 368.979 381.218 368.627C381.468 367.318 381.754 365.835 382.023 364.377C382.322 362.758 382.6 361.172 382.798 359.906C383.022 358.489 383.37 356.472 383.684 354.449C383.904 353.039 384.108 351.621 384.261 350.405C384.411 349.212 384.526 347.966 384.624 346.76C384.742 345.31 384.834 343.919 384.949 342.736C384.972 342.497 385.03 342.203 385.101 341.832C385.152 341.57 385.209 341.267 385.264 340.923C385.353 339.413 385.419 337.903 385.46 336.393C385.456 336.34 385.453 336.285 385.449 336.23C385.448 336.229 385.448 336.228 385.448 336.227C385.401 335.576 385.341 334.798 385.303 333.866C385.268 332.996 385.26 332.004 385.31 330.878C385.337 330.261 385.384 329.871 385.426 329.524C385.468 329.183 385.504 328.879 385.513 328.438C385.523 327.944 385.499 327.332 385.472 326.679C385.435 325.761 385.393 324.755 385.432 323.717C385.434 323.647 385.437 323.571 385.44 323.493C385.468 322.758 385.507 321.651 385.588 320.556C385.601 317.307 385.607 314.059 385.604 310.812C385.597 305.392 385.566 300.001 385.481 294.573C385.441 291.967 385.473 289.403 385.584 287.552C385.697 285.692 385.877 284.634 386.119 284.625C386.361 284.609 386.649 285.65 386.901 287.503C387.154 289.346 387.35 291.911 387.443 294.523C387.597 298.825 387.716 303.126 387.81 307.434C387.818 307.667 387.826 307.889 387.833 308.111C387.887 309.781 387.971 311.347 388.052 312.896C388.07 313.251 388.089 313.61 388.107 313.973Z" fill="#951415"/>
<path d="M231.021 247.04C229.932 244.3 228.315 239.83 226.929 235.785C226.21 233.69 225.542 231.701 225.027 230.158C224.999 230.075 224.971 229.992 224.943 229.908C224.586 228.838 224.243 227.819 223.847 226.637C222.899 223.806 221.617 219.98 219.067 211.96C218.302 209.634 217.542 207.305 216.786 204.977C213.104 193.647 209.516 182.267 205.868 170.952C201.72 158.615 196.721 145.498 185.828 138.235C185.006 137.667 183.947 137.263 182.851 136.939C182.549 136.852 182.232 136.769 181.915 136.691C177.35 135.616 171.657 135.126 166.963 134.66C165.232 134.497 163.657 134.374 162.275 134.28C155.785 133.847 151.348 133.922 147.738 134.105C141.518 134.635 133.896 135.088 129.986 138.941C122.471 150.93 120.39 164.995 117.24 178.816C117.159 179.146 117.055 179.479 116.91 179.811C116.588 180.618 115.796 181.497 114.819 181.731C113.868 181.982 113.032 181.853 112.273 181.757C107.265 181.059 102.223 180.616 97.1915 180.703C94.6843 180.745 92.1818 180.919 89.6977 181.239C86.4311 181.6 83.8874 184.161 82.2904 187.122C80.6708 190.126 79.7871 193.333 79.0075 196.322C78.8095 197.083 78.6221 197.827 78.4142 198.568C78.3103 198.935 78.2051 199.295 78.0645 199.69C77.8942 200.08 77.8871 200.416 77.2938 201.018C74.9471 203.123 71.7178 202.557 69.8011 201.875C68.558 201.478 67.1337 200.808 66.3575 200.812C65.8672 200.804 65.1931 201.441 64.7849 202.252C62.5275 206.91 64.1007 212.827 65.2934 217.021C65.5943 218.023 65.9105 218.974 66.2128 219.835C67.9567 224.652 70.1608 229.314 72.5332 233.892C72.6835 234.205 72.8318 234.513 72.9864 234.831C73.5457 235.982 74.1593 237.187 74.8646 238.513C76.556 241.692 79.137 245.353 83.3056 249.694C85.8613 252.36 89.0153 255.271 92.8846 258.541C95.3804 260.646 96.6607 261.734 97.701 262.632C98.0074 262.895 98.2955 263.142 98.5885 263.39C99.4607 264.126 100.408 264.856 101.497 265.684C101.663 265.81 101.831 265.937 102.002 266.065C103.69 267.32 105.757 268.786 108.54 270.618C117.528 276.346 122.235 277.491 125.562 278.673C126.033 278.825 126.483 278.968 126.921 279.106C127.387 279.252 127.859 279.381 128.345 279.5C131.299 280.254 135.747 280.668 139.115 280.826C141.786 280.983 147.168 280.891 151.24 280.664C152.783 280.584 154.869 280.492 157.324 280.362C159.862 280.228 162.81 280.051 165.954 279.824C167.126 279.739 168.214 279.659 169.24 279.583C175.149 279.146 178.663 278.948 181.573 278.811C182.55 278.765 183.451 278.728 184.363 278.695C187.231 278.592 190.797 278.52 194.421 278.635C197.743 278.738 201.112 279.02 204.005 279.52L204.154 279.556C205.014 279.824 205.803 280.074 206.553 280.316C214.622 283.146 223.302 286.04 229.476 292.696C229.606 292.833 229.734 292.971 229.861 293.11L229.901 293.156C232.596 296.481 234.822 299.849 236.394 302.411C238.026 305.091 238.791 306.689 238.588 306.826C238.38 306.963 237.219 305.63 235.296 303.172C233.448 300.825 231.053 297.602 228.393 294.402L228.427 294.44C228.304 294.31 228.18 294.18 228.056 294.05C222.087 287.699 213.331 284.91 205.015 282.104C204.514 281.942 204.014 281.782 203.496 281.619L203.627 281.651C193.635 280.045 183.268 280.798 173.026 281.345C171.803 281.419 170.598 281.496 169.372 281.577C163.016 281.993 156.665 282.393 150.283 282.604C149.503 282.629 148.712 282.651 147.935 282.669C141.541 282.894 135.105 282.811 130.547 282.045C128.946 281.781 127.533 281.44 126.274 281.004C124.655 280.443 123.274 279.924 122.025 279.427C120.532 278.834 119.221 278.275 117.901 277.696C117.193 277.385 116.225 276.952 115.076 276.397C111.274 274.593 105.522 271.292 100.367 267.098C99.1562 266.123 97.9435 265.143 96.758 264.172C94.0195 261.929 90.8651 259.271 87.9572 256.603C83.7772 252.812 80.2187 248.887 78.5248 246.817C76.6855 244.621 74.8517 242.062 73.3718 239.331C72.4407 237.616 71.5434 235.902 70.7149 234.26C68.6808 230.243 67.0948 226.646 66.1973 224.578C65.1336 222.116 64.3118 219.969 63.3722 216.674C62.7699 214.39 61.9582 211.536 61.9279 207.478C61.9436 205.138 62.3999 203.084 63.2672 201.46C63.8672 200.346 64.8211 199.216 66.2738 199.132C66.9089 199.119 67.3721 199.274 67.8092 199.407C71.0024 200.567 73.7183 201.932 76.276 199.805C76.2518 199.838 76.3761 199.657 76.4366 199.502C76.5134 199.325 76.5771 199.146 76.6492 198.925C77.8621 194.48 79.0393 189.428 81.1626 185.95C82.1005 184.368 83.3987 182.59 85.3021 181.296C86.5235 180.461 87.9973 179.888 89.5003 179.704C90.9637 179.518 92.4195 179.387 93.8098 179.31C96.0516 179.187 97.907 179.217 99.5431 179.281C100.054 179.301 100.543 179.325 101.017 179.351C102.797 179.407 104.575 179.519 106.347 179.674C106.635 179.692 106.936 179.711 107.252 179.733C108.679 179.831 110.403 179.977 112.483 180.234C112.7 180.261 112.918 180.285 113.132 180.302C114.716 180.475 115.376 179.84 115.71 178.442C116.184 176.506 116.618 174.621 117.043 172.672C117.627 170.007 118.186 167.214 118.864 164.009C119.327 161.824 119.885 159.333 120.552 156.888C121.529 153.25 122.8 149.739 123.837 147.37C124.224 146.477 124.59 145.735 124.967 144.996C124.969 144.993 124.97 144.99 124.972 144.987C124.997 144.938 125.023 144.888 125.048 144.838C126.11 142.547 127.284 140.301 128.541 138.106C131.416 134.588 135.456 134.214 139.082 133.339C139.632 133.228 140.157 133.13 140.71 133.035C143.34 132.58 145.947 132.323 147.626 132.164C149.448 131.978 154.059 131.755 158.908 131.906C161.753 131.983 164.677 132.164 167.173 132.369C167.47 132.394 167.756 132.417 168.033 132.44C169.585 132.569 171.054 132.747 172.57 132.946C173.983 133.133 175.428 133.336 177.02 133.553C177.818 133.663 178.679 133.781 179.601 133.93C180.413 134.061 181.272 134.215 182.171 134.42C182.988 134.653 184.847 134.92 187.1 136.377C187.132 136.4 187.165 136.423 187.198 136.446C188.422 137.302 189.792 138.345 191.126 139.553C194.707 142.711 197.536 146.588 199.883 150.662C200.386 151.487 200.824 152.227 201.177 152.802C201.437 153.228 201.648 153.556 201.876 153.921C202.189 154.424 202.491 154.911 202.889 155.646C203.194 156.209 203.518 156.886 203.716 157.363C203.804 157.577 203.865 157.746 203.921 157.901C203.984 158.078 204.041 158.236 204.124 158.426C204.183 158.563 204.254 158.702 204.34 158.875C204.474 159.143 204.646 159.488 204.878 160.044C205.733 162.097 206.623 164.46 207.432 166.793C207.822 167.919 208.182 168.997 208.534 170.083C208.981 171.463 209.419 172.815 209.789 173.944C210.527 176.199 211.532 179.436 212.533 182.663C213.231 184.917 213.936 187.19 214.544 189.115C215.142 191.007 215.796 192.979 216.427 194.877C217.186 197.161 217.918 199.358 218.494 201.237C218.611 201.616 218.728 202.101 218.874 202.703C218.978 203.13 219.097 203.622 219.242 204.181C220.014 206.561 220.789 208.943 221.565 211.322C221.597 211.404 221.63 211.489 221.664 211.574C221.664 211.575 221.665 211.577 221.666 211.578C222.419 213.494 223.452 216.117 224.604 219.895C224.898 220.857 225.055 221.472 225.196 222.023C225.334 222.566 225.46 223.055 225.685 223.75C225.939 224.535 226.278 225.467 226.644 226.466C227.161 227.882 227.74 229.456 228.247 231.058C228.281 231.168 228.319 231.287 228.358 231.41C228.647 232.322 229.049 233.587 229.453 234.911C229.565 235.278 229.677 235.65 229.787 236.019C231.52 241.057 233.315 246.077 235.16 251.076C238.218 259.426 241.516 267.663 244.535 276.08C244.965 277.298 245.369 278.512 245.726 279.7C246.568 282.506 247.27 285.11 247.739 287.223C248.418 290.218 248.516 292.012 248.24 292.021C248.032 292.065 247.494 290.458 246.472 287.584C245.762 285.562 244.886 283.031 243.945 280.27C243.554 279.125 243.127 277.942 242.688 276.743C240.248 270.157 237.564 263.625 235.014 257.026C234.878 256.686 234.742 256.341 234.605 255.995C233.591 253.428 232.629 251.06 231.677 248.683C231.46 248.143 231.239 247.59 231.021 247.04Z" fill="#951415"/>
<path d="M202.002 208.071C196.216 202.345 185.237 190.306 182.306 181.235C182.23 181.043 182.158 180.853 182.09 180.665C182.03 180.501 181.972 180.336 181.916 180.172C181.199 178.041 180.771 175.964 180.521 173.533C180.133 168.465 179.93 161.556 184.178 149.74C184.864 147.991 185.859 146.445 186.943 144.851C189.605 140.983 192.514 137.438 195.367 133.841C197.57 131.081 199.767 128.322 201.924 125.54C209.746 115.624 214.454 103.75 217.003 91.2778C217.609 88.7052 218.659 86.1084 220.505 83.9849C229.894 77.458 239.861 80.4079 249.245 80.2245C250.97 80.2846 252.745 80.2291 254.161 79.7528C258.878 78.0889 260.652 72.1108 264.182 67.3882C266.917 64.4513 270.226 65.0724 272.914 64.8923C276.477 64.8571 278.826 67.5168 280.571 69.5781C286.047 76.2669 288.771 84.4009 291.541 92.143C291.753 92.7318 291.969 93.3303 292.187 93.9296C293.201 96.6907 294.289 99.6128 295.704 102.335C300.588 110.663 311.46 114.618 317.914 117.721C320.301 118.833 322.522 119.692 324.65 121.156C331.79 127.253 332.237 134.537 333.521 139.679C333.656 140.37 333.783 141.055 333.905 141.748C336.845 153.404 331.444 165.062 326.313 174.963C323.29 180.952 318.833 185.779 314.717 190.777C303.684 203.685 292.485 216.49 279.35 227.478C276.303 229.827 273.086 231.971 269.538 233.585C265.296 235.554 260.424 236.489 255.735 235.863C255.397 235.815 255.102 235.77 254.709 235.534C254.302 235.32 253.981 234.666 254.032 234.24C254.106 233.395 254.448 232.968 254.722 232.515C255.313 231.635 255.969 230.902 256.64 230.163C257.959 228.728 259.365 227.339 260.729 225.979C263.48 223.249 266.222 220.526 268.859 217.712C272.473 213.859 275.914 209.846 278.981 205.571C282.473 200.684 285.666 195.544 288.757 190.359C292.11 184.674 295.159 179.181 297.941 174.064C300.123 170.049 302.14 166.259 303.984 162.77C305.444 160.009 306.772 157.432 307.967 155.065C312.658 145.819 317.341 135.472 320.913 126.037C322.346 122.284 323.629 118.705 324.742 115.427C325.384 113.538 325.969 111.749 326.493 110.096C329.136 101.643 331.354 93.0842 333.007 84.396C333.181 83.4936 333.471 82.6347 333.83 81.8149C334.116 81.187 334.451 80.5726 334.811 79.9854C339.38 73.0303 347.263 66.7829 360.472 59.6333C361.058 59.3244 361.673 59.0502 362.313 58.8159C363.992 58.2088 365.829 57.836 367.807 57.9382C369.103 58.0814 369.619 59.0242 370.034 59.6915C370.44 60.4124 370.72 61.1334 370.983 61.8758C371.497 63.3524 371.901 64.8859 372.294 66.4467C373.079 69.5993 373.805 72.9058 374.633 76.4249C375.275 79.16 375.792 81.2974 376.219 83.033C376.716 85.0311 377.243 86.4786 377.742 87.7526C378.017 88.4469 378.294 89.0923 378.588 89.7372C379.602 91.9526 380.892 94.1908 382.555 96.7498C384.7 100.08 387.559 103.889 391.127 109.135C393.806 113.123 396.016 116.739 397.303 120.251C400.77 131.64 400.197 138.191 400.685 143.275C400.787 145.246 400.861 147.032 400.921 148.86C401.01 151.601 401.073 154.878 401.16 158.233C401.297 162.292 400.264 166.4 398.959 169.629C397.192 174.522 391.783 183.187 387.448 189.52C387.382 189.618 387.314 189.719 387.245 189.821C385.636 192.204 383.383 195.288 380.669 198.799C377.737 202.594 374.258 206.911 370.472 211.474C367.22 215.391 364.43 218.642 362.007 221.412C357.259 226.821 353.733 230.266 350.604 233.147C349.25 234.388 347.961 235.518 346.654 236.618C342.534 240.107 337.1 244.088 331.275 247.569C328.795 249.062 326.253 250.482 323.762 251.813C319.29 254.203 315.033 256.439 311.487 258.3C301.715 263.384 291.781 268.253 282.321 273.727C278 276.276 273.96 279.306 270.326 282.762C265.273 287.539 261.227 292.97 258.444 297.611L258.5 297.492C258.156 298.344 257.857 299.19 257.58 299.997C257.072 301.486 256.653 302.819 256.274 303.957C255.325 307.079 254.133 308.547 254.012 308.455C253.829 308.351 254.658 306.817 255.296 303.682C255.564 302.517 255.881 301.149 256.303 299.604C256.533 298.765 256.79 297.884 257.107 296.969L257.151 296.875C259.753 291.993 263.786 286.29 268.97 281.343C272.697 277.765 276.846 274.622 281.283 271.978C291.344 266.104 301.73 260.982 311.975 255.59C315.577 253.71 319.167 251.823 322.753 249.912C337.148 242.505 349.863 232.288 360.477 220.08C360.48 220.077 360.483 220.074 360.486 220.07C369.314 209.982 378.003 199.67 385.67 188.74C386.106 188.107 386.528 187.49 386.958 186.858C387.779 185.65 388.588 184.447 389.391 183.226C394.823 174.971 399.616 165.95 399.124 158.292C399.074 156.749 399.035 155.287 399 153.918C398.834 146.982 398.731 141.948 398.472 137.658C398.295 134.707 398.063 132.101 397.682 129.504C397.473 128.109 397.163 126.208 396.588 123.982C396.332 122.995 396.02 121.948 395.621 120.871C392.371 111.944 381.695 101.423 376.263 88.8535C375.558 87.1838 374.92 85.3886 374.444 83.4865C373.166 78.4228 372.006 72.9441 370.789 67.7256C370.393 66.0644 369.983 64.4059 369.489 62.8715C369.241 62.1064 368.965 61.3547 368.635 60.7155C368.329 60.0752 367.828 59.5883 367.703 59.639C365.363 59.5074 363.06 60.1618 361.248 61.1057C358.343 62.6189 355.959 64.021 354.282 65.0681C347.166 69.6494 338.412 75.5734 335.14 83.3494C334.972 83.8144 334.841 84.2778 334.751 84.7351C333.265 92.3522 331.53 98.8576 330.512 102.639C329.199 107.484 327.942 111.543 325.862 117.548C324.954 120.153 323.885 123.113 322.532 126.651C321.731 128.745 320.827 131.041 319.786 133.567C316.545 141.396 313.931 146.791 311.674 151.352C309.476 155.765 307.583 159.378 305.384 163.518C304.387 165.393 303.333 167.378 302.157 169.589C297.976 177.459 293.449 185.612 289.654 191.899C287.925 194.767 285.924 198.031 283.734 201.367C282.616 203.068 281.449 204.789 280.24 206.474C278.302 209.175 276.22 211.752 274.169 214.105C271.413 217.263 268.987 219.728 266.827 221.879C266.147 222.555 265.495 223.195 264.867 223.81C262.522 226.174 260.127 228.465 257.878 230.868C257.536 231.249 257.163 231.674 256.794 232.126C256.05 233.022 254.848 234.749 255.909 234.394C257.824 234.597 259.975 234.624 262.325 234.223C268.631 233.085 273.638 229.835 278.396 226.247C278.762 225.966 279.144 225.662 279.523 225.353C283.444 222.118 287.286 218.416 291.567 214.06C294.482 211.084 297.727 207.617 300.88 204.126C305.56 198.953 310.055 193.693 313.147 190.04C313.244 189.926 313.34 189.813 313.435 189.701C314.483 188.467 315.405 187.406 316.32 186.34C316.324 186.335 316.329 186.329 316.333 186.324C316.401 186.245 316.469 186.166 316.536 186.088C319.603 182.307 322.711 178.52 324.813 174.223C327.748 168.096 331.087 162.076 332.375 155.55C332.556 154.581 332.689 153.59 332.769 152.608C333.093 148.774 332.577 144.981 332.024 142.083C331.881 141.334 331.742 140.651 331.608 140.03C330.75 137.079 329.845 128.061 323.355 122.903C323.194 122.784 322.966 122.637 322.768 122.519C317.77 119.858 311.87 117.676 307.447 115.256C304.833 113.871 302.421 112.377 300.116 110.564C297.982 108.862 295.87 106.895 294.201 104.175C294.041 103.911 293.887 103.64 293.74 103.36C293.142 102.228 292.572 101.005 292.018 99.7075C291.414 98.2938 290.826 96.7869 290.239 95.2065C289.68 93.7387 288.578 90.4425 287.028 86.3079C286.061 83.7586 284.898 80.8925 283.419 78.0341C282.109 75.5418 280.607 73.1608 278.827 71.0284C277.142 69.0093 275.19 67.1061 272.944 67.196C270.304 67.2452 267.226 67.2869 266.037 68.8116C265.866 69.0355 265.698 69.2682 265.534 69.5051C264.578 70.9387 263.861 72.3243 263.274 73.4228C262.855 74.214 262.5 74.9005 262.11 75.6038C261.572 76.5582 261.007 77.5625 259.969 78.8483C259.164 79.8562 257.959 80.9221 257.006 81.4637C256.568 81.7217 256.21 81.8866 255.882 82.0228C255.603 82.1379 255.347 82.2306 255.058 82.3274C254.952 82.3629 254.842 82.3978 254.727 82.4328C254.417 82.5269 254.098 82.6172 253.709 82.7052C253.09 82.8436 252.289 82.9809 251.105 83.0245C250.457 83.0476 249.803 83.0435 249.145 83.02C245.502 82.8892 241.544 82.706 237.685 82.7193C232.695 82.7443 227.659 83.0655 224.486 84.5324C223.791 84.8587 223.105 85.2909 222.633 85.8335C221.326 87.3141 220.309 89.4613 219.731 91.9162C219.232 94.0162 218.716 96.2535 218.118 98.4688C216.964 102.803 215.467 107.074 213.913 110.622C212.403 114.101 210.578 117.619 208.556 120.871C207.145 123.146 205.639 125.301 204.131 127.25C203.07 128.621 202.046 129.92 201.081 131.12C200.612 131.704 200.006 132.408 199.246 133.287C198.705 133.914 198.088 134.626 197.385 135.451C194.473 139.123 191.484 142.76 188.894 146.559C188.81 146.695 188.722 146.835 188.634 146.979C188.633 146.981 188.632 146.984 188.63 146.986C187.976 148.068 187.228 149.34 186.74 150.707C185.706 153.682 184.615 157.413 183.798 162.11C183.491 163.922 183.338 165.068 183.213 166.102C183.095 167.118 183.007 168.03 182.99 169.365C182.974 170.881 183.072 172.668 183.373 174.575C183.661 176.404 184.141 178.346 184.885 180.212C185.241 181.107 185.618 181.998 186.015 182.884C186.101 183.075 186.195 183.281 186.295 183.494C187.224 185.52 188.824 188.418 190.695 191.158C196.468 199.142 203.654 206.185 210.629 213.326C210.926 213.626 211.226 213.93 211.53 214.236C222.668 226.447 231.085 240.517 238.793 254.884C239.071 255.412 239.348 255.943 239.624 256.477C243.122 263.211 245.044 270.175 245.909 275.463C246.835 281.181 246.671 284.454 246.456 284.455C246.188 284.483 245.881 281.262 244.616 275.719C243.438 270.587 241.353 263.875 237.898 257.379C237.619 256.852 237.339 256.327 237.059 255.805C230.818 244.196 223.846 232.94 215.756 222.58C215.33 222.044 214.903 221.515 214.458 220.973C212.964 219.158 211.436 217.401 209.885 215.874C208.008 214.033 206.174 212.233 204.349 210.42C203.565 209.64 202.792 208.867 202.002 208.071Z" fill="#951415"/>
<path d="M329.128 242.311C328.234 240.152 327.137 237.284 326.096 234.13C323.868 227.8 323.627 219.91 324.363 215.046C324.379 214.916 324.397 214.773 324.414 214.641C324.501 213.963 324.599 213.287 324.676 212.658C324.818 211.527 325.061 210.456 325.342 209.299C326.472 204.785 328.3 198.899 332.471 186.731C333.664 183.18 334.87 179.639 336.077 176.107C336.843 173.867 337.611 171.627 338.38 169.386C344.469 153.362 339.871 137.739 344.89 118.881C362.773 120.826 377.407 129.857 393 136.555C393.856 136.949 394.705 137.366 395.529 137.768C396.32 138.18 397.275 138.505 397.176 138.384C398.996 137.651 400.297 135.86 401.148 133.825C401.33 133.389 401.499 132.93 401.654 132.457C403.051 128.276 403.159 123.309 404.044 118.213C404.239 117.331 404.638 116.314 405.544 115.593C406.451 114.863 407.617 114.729 408.517 114.832C413.292 115.443 416.703 118.167 419.237 120.192C426.977 126.945 430.934 132.58 434.489 136.909C436.252 139.118 437.987 141.341 439.723 143.563C449.872 158.276 450.794 176.38 451.24 193.352C451.233 193.514 451.254 193.59 451.182 193.904C451.166 193.961 451.145 194.027 451.1 194.114C451.073 194.163 451.062 194.189 450.991 194.277C450.907 194.38 450.75 194.514 450.528 194.569C450.318 194.632 450.044 194.565 449.974 194.528C449.88 194.489 449.812 194.443 449.76 194.402C449.657 194.321 449.601 194.246 449.567 194.2C449.478 194.076 449.43 193.965 449.404 193.908C449.281 193.621 449.223 193.42 449.152 193.188C449.021 192.745 448.912 192.315 448.808 191.889C448.599 191.027 448.412 190.166 448.235 189.312C447.881 187.607 447.558 185.889 447.251 184.171C446.64 180.747 446.088 177.295 445.577 173.854C444.792 168.839 442.926 163.956 441.004 159.145C438.268 152.419 435.222 145.785 432.286 139.096C431.165 136.548 430.108 134 429.158 131.39C427.609 126.917 425.896 122.126 426.641 117.13C427.772 111.833 432.583 109.668 436.396 107.441C441.217 104.887 446.014 102.995 450.432 101.233C451.815 100.686 453.165 100.158 454.474 99.6446C459.257 97.722 464.306 97.9242 468.035 99.562C468.284 99.6697 468.527 99.7833 468.768 99.9056C477.929 105.732 479.076 117.554 480.922 125.944C481.277 127.948 481.515 129.874 481.648 131.709C481.768 133.36 481.803 134.928 481.772 136.378C481.709 140.236 481.166 144.116 480.01 147.827C478.75 151.835 477.046 155.648 475.208 159.374C474.965 159.841 474.709 160.324 474.454 160.798C471.526 166.228 467.825 172.678 461.781 182.004C461.161 182.96 460.513 183.927 459.819 184.928C456.546 189.628 452.425 194.876 446.849 200.369C444.521 202.648 442.811 204.099 441.456 205.193C441.373 205.257 441.278 205.34 441.059 205.391C440.992 205.412 440.695 205.432 440.487 205.29C440.278 205.165 440.181 204.943 440.164 204.891C440.078 204.638 440.11 204.485 440.11 204.421C440.126 204.242 440.154 204.116 440.181 203.992C440.213 203.849 440.237 203.76 440.269 203.644C440.301 203.529 440.333 203.42 440.363 203.324C440.426 203.119 440.492 202.918 440.554 202.734C440.621 202.537 440.683 202.36 440.747 202.184C440.963 201.582 441.164 201.058 441.386 200.487C442.115 198.617 442.884 196.616 443.816 194.294C445.033 191.271 446.542 187.668 448.77 183.019C450.828 178.73 452.603 175.17 454.134 172.132C457.961 164.663 460.815 160.749 463.124 157.595C464.101 156.29 465.002 155.156 465.982 154.001C469.105 150.26 474.175 145.447 478.506 142.438C479.788 141.54 481.553 140.301 483.738 139.184C485.206 138.455 486.858 138.648 488.279 138.981C491.722 139.811 493.237 143.22 494.143 145.66C494.981 147.961 495.682 151.138 496.244 154.89C496.83 158.773 497.291 163.276 497.728 168.087C497.869 169.639 497.993 171.083 498.108 172.474C498.155 182.394 495.357 187.428 494.264 191.824C493.901 192.986 493.557 194.081 493.217 195.164C493.14 195.41 493.046 195.682 492.956 195.921C491.269 200.216 488.187 204.721 485.046 209.249C481.254 214.641 477.206 219.938 474.12 223.966C471.548 227.262 468.972 230.511 466.361 233.78L466.315 233.833C460.287 240.49 454.197 247.087 447.915 253.524C443.678 257.822 439.556 261.905 435.746 264.688L435.728 264.702C435.263 265.006 434.806 265.295 434.364 265.565C430.213 268.062 427.631 268.918 427.534 268.724C427.408 268.479 429.778 267.188 433.625 264.451C434.036 264.155 434.461 263.842 434.896 263.515L434.881 263.526C438.302 260.672 442.331 256.446 446.507 252.156C452.722 245.713 458.763 239.095 464.744 232.419L464.706 232.465C467.579 228.829 470.421 225.204 473.237 221.548C479.724 212.827 487.119 204.185 491.214 194.525C492.88 189.202 494.713 183.92 495.71 178.564C496.063 176.572 496.268 174.57 496.119 172.628C495.245 163.245 494.993 153.439 491.803 144.905C491.358 143.887 490.806 142.91 490.122 142.164C489.471 141.462 488.71 140.987 487.843 140.788C486.611 140.492 485.391 140.425 484.572 140.856C478.577 144.11 473.674 148.775 470.23 152.359C466.405 156.404 463.938 159.654 461.93 162.487C460.554 164.447 459.411 166.234 458.332 168.09C457.755 169.084 456.981 170.465 456.121 172.149C455.993 172.402 455.861 172.662 455.728 172.93C452.22 180.027 446.605 191.557 442.559 202.42C442.403 202.863 442.261 203.283 442.13 203.717C442.068 203.922 442.005 204.147 441.963 204.332C441.941 204.429 441.926 204.518 441.923 204.543C441.914 204.543 441.955 204.565 441.877 204.282C441.868 204.259 441.79 203.997 441.523 203.798C441.272 203.577 440.78 203.572 440.71 203.605C440.415 203.669 440.34 203.762 440.293 203.792C443.859 200.869 447.524 197.291 450.788 193.624C454.732 189.21 458.081 184.647 460.393 181.103C461.402 179.563 462.25 178.236 462.893 177.207C466.632 171.224 470.788 164.282 473.947 157.894C475.876 154.008 477.42 150.327 478.359 147.309C478.889 145.615 479.21 144.111 479.408 142.927C480.028 139.003 480.241 135.58 479.793 130.524C479.668 129.22 479.485 127.808 479.213 126.251C478.747 123.617 478.165 120.57 477.199 116.995C475.403 110.445 473.302 105.976 470.509 103.199C469.732 102.435 468.903 101.82 468.025 101.365C464.35 99.575 460.265 99.2475 455.503 100.952C455.352 101.008 455.199 101.066 455.046 101.127C448.444 103.733 441.573 106.402 436.512 109.149C434.185 110.434 431.463 112.03 429.54 114.37C428.836 115.252 428.3 116.264 428.179 117.313C427.694 120.309 428.299 123.298 429.048 126.098C429.936 129.325 430.901 131.944 431.775 134.244C432.052 134.967 432.327 135.663 432.591 136.315C432.907 137.063 433.219 137.783 433.552 138.538C434.317 140.272 435.086 142.002 435.856 143.733C436.038 144.125 436.236 144.549 436.438 144.982C437.453 147.16 438.714 149.851 440.195 153.211C442.522 158.538 444.479 163.274 445.973 168.507C446.432 170.15 446.832 171.842 447.095 173.627C447.476 176.236 447.897 178.942 448.41 181.88C449.009 185.216 449.681 189.067 450.671 192.674C450.731 192.873 450.803 193.094 450.864 193.236C450.876 193.265 450.898 193.301 450.879 193.271C450.864 193.272 450.886 193.183 450.571 193.034C450.479 192.992 450.24 192.958 450.063 193.031C449.882 193.095 449.77 193.222 449.729 193.28C449.669 193.362 449.651 193.415 449.639 193.449C449.608 193.558 449.627 193.499 449.625 193.473C449.627 193.445 449.628 193.403 449.628 193.349C449.602 188.175 449.24 183.126 448.917 179.571C448.785 178.118 448.677 176.873 448.555 175.631C448.554 175.626 448.554 175.62 448.553 175.615C448.545 175.531 448.537 175.448 448.528 175.364C447.279 166.007 445.346 156.519 440.775 148.331C440.367 147.63 439.934 146.943 439.478 146.279C439.104 145.735 438.698 145.187 438.296 144.685C436.239 142.114 434.319 139.734 432.958 138.107C431.168 136.005 426.851 130.511 421.689 125.407C418.32 122.093 414.437 118.965 410.858 117.741C409.99 117.44 409.13 117.23 408.276 117.134C407.234 117.039 406.731 117.323 406.363 118.325C406.321 118.445 406.286 118.568 406.255 118.7C405.852 120.512 405.668 122.613 405.395 124.849C405.25 126.068 405.086 127.389 404.845 128.803C404.63 130.048 404.358 131.365 403.946 132.734C403.486 133.912 402.882 137.141 399.454 139.696C399.025 139.988 398.555 140.247 398.044 140.457C397.338 140.782 396.463 140.607 395.994 140.424C395.482 140.237 395.062 140.028 394.634 139.822C393.787 139.407 392.947 138.99 392.069 138.584C391.917 138.513 391.764 138.442 391.61 138.37C385.187 135.446 378.763 132.518 372.292 129.753C370.926 129.195 369.739 128.733 368.797 128.389C368.109 128.138 367.536 127.944 366.932 127.74C366.113 127.464 365.266 127.182 364.118 126.778C363.209 126.457 362.159 126.07 361.454 125.79C361.129 125.661 360.884 125.556 360.654 125.459C360.392 125.349 360.161 125.252 359.875 125.149C359.67 125.075 359.453 125.006 359.179 124.921C358.743 124.785 358.198 124.616 357.346 124.329C354.219 123.289 350.598 122.162 347.111 121.77C346.405 121.695 345.66 121.657 345.001 121.682C345.223 121.681 345.494 121.554 345.597 121.46C345.705 121.37 345.74 121.304 345.745 121.296C345.755 121.271 345.701 121.393 345.673 121.504C345.599 121.779 345.548 122.12 345.509 122.478C345.431 123.22 345.403 123.962 345.385 124.711C345.353 126.211 345.371 127.641 345.387 128.961C345.437 132.576 345.508 137.764 345.306 142.978C345.172 146.607 344.899 150.264 344.543 153.376C344.197 156.431 343.73 159.609 343.091 162.661C342.527 165.363 341.824 167.966 341.021 170.291C340.74 171.107 340.471 171.878 340.207 172.625C340.002 173.204 339.727 173.892 339.373 174.781C339.123 175.407 338.839 176.118 338.52 176.943C337.285 180.556 336.051 184.171 334.826 187.8C334.788 187.928 334.749 188.061 334.71 188.194C334.71 188.196 334.709 188.198 334.709 188.2C333.825 191.217 332.6 195.335 330.698 201.043C330.218 202.491 329.892 203.404 329.605 204.215C329.321 205.024 329.074 205.728 328.761 206.803C328.41 208.018 328.044 209.434 327.721 211.01C327.59 211.662 327.468 212.333 327.399 212.982C327.201 214.718 326.971 216.43 326.837 218.181C326.823 218.356 326.809 218.532 326.796 218.725C326.667 220.534 326.638 223.213 326.904 225.877C327.218 228.398 327.781 230.897 328.566 233.322C330.262 238.542 332.266 243.678 334.526 248.691C338.374 256.85 342.496 265.551 349.318 271.089C352.782 273.625 356.735 275.432 360.811 276.926C366.975 279.168 373.073 280.792 377.571 282.053C382.088 283.302 384.589 284.046 384.558 284.293C384.487 284.52 381.89 284.235 377.268 283.336C372.663 282.422 366.466 281.013 360.143 278.771C355.975 277.283 351.786 275.414 348.12 272.774C342.668 268.606 339.413 262.847 336.257 257.245C335.982 256.745 335.708 256.238 335.442 255.735C333.457 251.979 331.766 248.424 330.191 244.813C329.83 243.985 329.475 243.148 329.128 242.311Z" fill="#951415"/>
<path d="M475.537 318.19C473.339 314.779 470.35 310.289 468.303 304.64C464.467 292.671 468.823 279.128 471.291 270.97C471.364 270.742 471.438 270.514 471.512 270.288C472.474 267.356 473.452 264.61 474.669 261.424C476.389 256.923 478.613 251.538 482.136 243.617C482.462 242.893 482.81 242.148 483.376 241.347C483.665 240.955 483.998 240.527 484.596 240.132C485.156 239.721 486.268 239.522 487.015 239.838C489.617 241.226 489.951 242.964 490.94 244.689C492.608 248.174 493.994 252.068 495.506 256.476C495.513 256.495 495.519 256.513 495.526 256.532C497.681 262.81 499.723 269.123 501.762 275.434C507.63 293.625 513.353 311.864 519.588 329.884C525.606 347.711 533.211 364.92 538.563 383.165C542.538 397.159 544.298 411.69 544.679 426.152C544.939 442.906 545.026 459.827 540.057 476.304C539.153 478.806 537.667 481.051 536.184 483.111C535.649 483.855 535.094 484.596 534.518 485.347C530.877 490.064 526.733 494.885 522.519 499.737C513.952 509.559 505.109 519.276 498.757 526.185C486.703 539.272 478.397 548.046 471.526 555.214C469.183 557.669 466.83 560.116 464.467 562.544C448.893 578.989 430.27 592.82 409.601 602.11C394.432 609.363 379.133 616.315 362.904 621.227C362.525 621.317 362.142 621.399 361.724 621.45C361.289 621.475 360.911 621.61 360.15 621.283C359.959 621.185 359.723 620.987 359.599 620.715C359.471 620.447 359.468 620.18 359.49 619.997C359.543 619.614 359.665 619.391 359.775 619.18C360.002 618.773 360.256 618.455 360.512 618.149C369.483 609.289 378.736 601.222 387.769 592.678C387.922 592.535 388.076 592.392 388.231 592.247C401.254 580.066 414.223 567.875 427.328 555.784C439.385 544.655 451.529 533.604 463.816 522.72C468.045 518.957 472.168 515.323 476.155 511.846C478.907 509.445 481.581 507.131 484.193 504.886C493.173 497.166 501.252 490.389 507.947 484.825C524.081 471.413 542.582 456.461 556.029 445.027C558.227 443.16 560.296 441.387 562.197 439.739C563.514 438.592 564.835 437.433 566.132 436.284C575.316 428.147 584.231 419.723 592.714 410.886C593.371 410.218 594.025 409.547 594.693 408.857C600.379 402.97 606.767 395.949 614.605 386.092C618.204 381.56 622.078 376.421 626.185 370.435C631.881 362.133 637.991 352.193 644.164 339.916C645.237 337.79 646.151 335.94 646.96 334.305C649.173 329.837 650.644 327.027 651.904 324.61C652.411 323.639 652.888 322.728 653.37 321.806C655.018 318.646 656.71 315.29 658.675 311.314C660.1 308.414 661.698 305.176 663.391 301.413C663.494 301.183 663.6 300.971 663.709 300.775C663.82 300.58 663.924 300.406 664.108 300.166C664.402 299.802 664.939 299.202 665.846 299.295C666.689 299.44 667.054 299.945 667.377 300.338C667.56 300.582 667.659 300.741 667.789 300.96C667.911 301.166 668.045 301.422 668.136 301.607C668.955 303.312 669.504 305.154 670.043 307.103C674.288 324.042 675.35 336.002 678.709 343.426C679.983 345.297 681.927 346.483 683.649 347.446C685.24 348.367 686.68 348.338 687.856 347.432C688.371 347.063 688.859 346.693 689.332 346.315C691.504 344.574 693.291 342.769 694.995 340.813C697.258 338.223 699.618 334.935 701.864 331.347C702.988 329.564 704.088 327.706 705.232 325.862C705.806 324.943 706.384 324.029 707.047 323.137C707.37 322.708 707.738 322.247 708.162 321.841C708.611 321.449 709.136 320.902 710.162 320.941C712.129 321.122 713.948 321.732 715.532 322.477C721.65 324.798 728.934 334.383 736.891 339.572C738.514 340.366 740.247 340.844 741.927 341.098C745.907 341.743 751.542 341.235 757.908 339.494C764.505 337.718 771.921 334.776 779.64 331.194C781.69 330.243 783.587 329.331 785.436 328.422C801.009 320.577 807.671 312.623 812.766 306.35C814.365 304.299 815.764 302.318 817.092 300.293C821.323 293.905 825.605 285.356 829.426 276.452C829.94 275.264 830.448 274.074 830.954 272.879C833.991 263.517 834.091 252.922 834.737 245.067C835.37 235.414 835.788 225.784 836.167 216.089C836.672 202.55 836.079 188.947 833.497 175.696C832.434 170.509 831.172 165.074 829.141 161.029C826.02 156.452 819.837 155.846 815.497 154.724C814.305 154.448 813.179 154.169 812.143 153.855L812.054 153.824C810.135 153.024 808.536 151.218 808.744 149.502C808.922 147.743 809.767 146.802 810.197 146.145C810.671 145.503 810.954 145.207 811.014 145.244C811.077 145.284 810.911 145.662 810.562 146.366C810.249 147.064 809.581 148.125 809.574 149.518C809.543 150.83 810.734 152.077 812.52 152.749L812.453 152.725C813.465 152.974 814.577 153.193 815.77 153.416C820.095 154.416 826.56 154.521 830.647 160.043C833.132 164.77 834.279 169.964 835.422 175.312C838.088 188.767 838.725 202.499 838.258 216.167C837.878 226.676 837.456 237.15 836.748 247.641C835.998 256.338 835.861 265.049 832.927 273.717C825.099 292.644 814.855 312.114 797.169 323.9C793.718 326.275 790.075 328.374 786.309 330.211C771.556 336.789 756.079 345.852 738.785 342.331C737.853 342.046 736.937 341.688 736.061 341.254C734.879 340.665 733.865 339.915 732.903 339.142C725.152 332.611 718.591 323.845 709.991 322.901C710.119 322.892 709.941 322.907 709.731 323.092C709.519 323.265 709.278 323.525 709.067 323.782C708.623 324.321 708.186 324.964 707.789 325.575C706.968 326.845 706.217 328.121 705.462 329.373C703.961 331.879 702.501 334.228 701.041 336.335C697.125 342.022 693.069 346.175 688.966 349.018C688.072 349.657 686.861 350.117 685.684 350.038C684.509 349.97 683.552 349.528 682.742 349.08C682.422 348.9 682.105 348.714 681.796 348.524C680.03 347.421 678.376 346.198 677.195 344.398C675.974 342.222 675.581 340.239 675.014 338.203C674.488 336.169 673.861 333.403 673.158 330.054C672.272 325.862 671.288 320.78 670.061 315.176C669.44 312.373 668.777 309.469 667.901 306.502C667.121 304.004 665.537 299.066 665.132 302.199C661.66 309.792 657.573 317.425 653.787 324.858C652.125 328.101 650.372 331.549 648.609 335.113C645.752 340.912 642.64 346.952 639.361 352.672C631.829 365.937 623.409 377.385 619.051 383.08C618.04 384.408 616.994 385.757 615.91 387.127C608.939 395.979 600.77 405.205 593.055 413.103C584.574 421.82 576.754 429 572.307 433.087C570.602 434.653 568.977 436.117 567.299 437.605C563.766 440.735 560.102 443.886 555.343 447.897C550.501 451.977 544.504 456.954 536.345 463.67C526.919 471.425 520.226 476.868 514.545 481.522C506.56 488.065 500.559 492.999 491.75 500.512C486.883 504.666 481.925 508.938 477.201 513.053C472.434 517.204 467.902 521.195 463.916 524.715C460.301 527.905 456.189 531.58 451.928 535.423C446.28 540.515 440.38 545.892 434.984 550.813C430.541 554.865 426.858 558.204 423.602 561.162C422.588 562.084 421.616 562.968 420.671 563.831C417.161 567.091 413.657 570.358 410.158 573.629C409.593 574.168 409.017 574.718 408.395 575.312C405.31 578.256 401.497 581.904 396.789 586.357C394.047 588.949 391.418 591.422 388.845 593.829C384.39 597.994 380.133 601.929 375.675 606.023C371.255 610.156 366.383 614.275 361.682 619.135C361.467 619.391 361.259 619.664 361.125 619.904C361.057 620.023 361.013 620.147 361.012 620.173C361.009 620.185 361.02 620.151 360.991 620.077C360.964 620.002 360.891 619.938 360.872 619.931C360.824 619.933 361.222 619.979 361.523 619.929C361.848 619.89 362.193 619.818 362.542 619.734C362.619 619.715 362.703 619.694 362.792 619.671C368.51 618.053 374.947 615.544 381.229 613.002C390.577 609.194 399.623 605.018 405.881 602.04C406.947 601.534 407.912 601.076 408.876 600.619C410.044 600.065 411.148 599.543 412.241 599.02C412.25 599.016 412.259 599.012 412.267 599.008C412.403 598.943 412.539 598.878 412.675 598.813C427.877 591.517 441.878 581.942 454.048 570.307C455.114 569.298 456.16 568.29 457.218 567.252C459.276 565.233 461.272 563.205 463.139 561.257C465.86 558.418 468.303 555.824 470.145 553.844C473.502 550.244 481.952 541.235 490.757 531.626C496.524 525.34 502.452 518.802 507.25 513.434C510.056 510.295 512.733 507.353 515.492 504.291C517.239 502.352 519.007 500.379 520.847 498.28C521.721 497.282 522.59 496.283 523.471 495.257C524.866 493.63 526.371 491.847 527.951 489.932C529.336 488.25 530.791 486.457 532.254 484.566C533.333 483.025 536.165 480.027 537.946 475.508C538.231 474.761 538.487 473.959 538.728 473.117C539.79 469.364 540.558 464.973 541.149 460.293C542.486 449.023 542.681 437.615 542.348 426.22C542.315 425.137 542.274 424.053 542.227 422.97C542.089 420.375 541.912 418.128 541.735 416.353C541.608 415.08 541.478 413.998 541.337 412.889C541.142 411.38 540.93 409.82 540.626 407.675C540.389 405.999 540.101 404.025 539.913 402.698C539.826 402.081 539.764 401.605 539.706 401.174C539.64 400.681 539.578 400.239 539.487 399.705C539.421 399.319 539.342 398.918 539.242 398.428C539.083 397.644 538.873 396.624 538.56 395.074C537.847 391.55 536.95 387.759 535.866 383.93C535.176 381.489 534.411 379.023 533.61 376.593C531.311 369.645 528.746 362.943 526.719 357.575C524.44 351.566 521.229 342.991 518.202 334.317C517.789 333.135 517.388 331.977 516.98 330.792C515.313 325.943 513.724 321.167 512.333 316.957C510.643 311.84 508.883 306.51 507.193 301.348C505.165 295.153 503.229 289.18 501.632 284.106C501.305 283.069 500.936 281.796 500.465 280.177C500.136 279.045 499.75 277.723 499.305 276.226C497.262 269.902 495.217 263.57 493.073 257.313C493.029 257.184 492.984 257.055 492.94 256.927C492.856 256.701 492.771 256.47 492.686 256.243C492.685 256.239 492.683 256.235 492.682 256.232C491.794 253.874 490.738 251.056 489.345 247.906C488.65 246.375 487.841 244.594 486.81 243.237C486.555 242.907 486.258 242.625 486.108 242.55C486.033 242.509 486.047 242.533 486.11 242.53C486.174 242.528 486.193 242.5 486.122 242.548C485.771 242.776 485.175 243.788 484.748 244.769C484.412 245.518 484.05 246.325 483.696 247.113C482.583 249.592 481.866 251.149 481.228 252.545C480.597 253.928 480.043 255.153 479.289 256.98C478.434 259.053 477.479 261.525 476.5 264.237C475.126 268.045 473.708 272.328 472.464 276.671C472.379 276.967 472.29 277.282 472.197 277.618C471.323 280.77 470.173 285.476 469.642 290.228C469.206 294.826 469.307 299.533 470.759 303.791C474.058 312.625 480.127 320.486 485.55 328.511C490.877 336.533 497.032 344.335 499.416 354.221C501.673 368.59 501.306 383.481 508.237 396.051C509.58 398.444 511.185 400.648 513.031 402.539C518.997 408.577 525.997 412.66 530.786 416.884C533.313 419.099 535.285 421.465 535.432 423.791C535.678 426.869 535.28 428.689 535.22 428.456C534.995 428.619 535.102 426.891 534.606 423.882C534.345 422.003 532.492 419.931 529.937 417.892C525.123 413.993 517.989 410.086 511.682 403.87C509.684 401.871 507.956 399.535 506.528 397.017C499.211 383.847 499.58 368.532 497.301 354.633C496.408 350.323 494.183 346.171 491.854 342.209C491.342 341.353 490.82 340.51 490.29 339.672C486.316 333.432 482.181 327.894 478.233 322.174C477.324 320.859 476.423 319.534 475.537 318.19Z" fill="#951415"/>
<path d="M766.899 124.884C761.042 124.092 749.648 122.893 743.408 122.758C743.291 122.754 743.175 122.75 743.06 122.747C741.577 122.699 740.161 122.676 738.53 122.677C734.649 122.783 729.231 122.463 718.441 124.473C715.321 125.136 712.255 126.009 709.33 127.179C706.832 128.175 704.419 129.411 702.212 130.895C696.361 134.686 693.204 141.148 690.059 147.739C689.381 149.015 689.029 149.879 687.963 151.244C687.868 151.352 687.769 151.454 687.651 151.556C687.591 151.607 687.527 151.657 687.453 151.707C687.415 151.733 687.376 151.758 687.333 151.782C687.25 151.83 687.146 151.881 687.026 151.922C686.789 152.005 686.432 152.051 686.076 151.939C685.9 151.885 685.736 151.796 685.605 151.695C685.49 151.605 685.425 151.536 685.357 151.455C685.101 151.137 685.038 150.881 684.986 150.665C684.918 150.325 684.92 150.184 684.913 149.942C684.912 149.686 684.919 149.557 684.929 149.381C684.98 148.625 685.064 148.058 685.166 147.389C685.564 144.894 686.091 142.441 686.603 140.001C687.644 135.103 688.708 130.265 689.678 125.403C691.485 115.726 693.716 105.719 692.747 96.2658C691.962 91.1767 690.865 86.1665 689.238 81.3146C689.096 80.8991 688.948 80.4754 688.798 80.0621C687.151 74.8485 683.478 69.7146 682.255 63.6022C682.153 62.9742 682.041 62.3633 681.893 61.8402C681.82 61.5821 681.731 61.3408 681.652 61.1974C681.616 61.1273 681.579 61.0863 681.596 61.1043C681.606 61.1179 681.728 61.2104 681.886 61.2238C680.724 61.0512 679.464 62.2336 678.561 63.3297C673.692 70.1341 670.937 75.7413 667.827 79.5533C666.097 81.8305 664.203 84.002 662.104 85.9807C650.289 98.5798 633.152 105.658 621.725 117.213C620.692 118.832 618.883 120.286 616.871 120.604C610.387 121.516 604.438 119.646 598.398 119.09C594.945 118.705 591.469 118.521 588.076 118.947C583.537 119.574 579.706 122.843 576.031 125.888C575.802 126.077 575.527 126.362 575.32 126.609C570.948 132.908 569.152 141.155 566.84 148.756C565.584 153.276 564.448 157.579 563.372 161.574C561.865 167.187 560.478 172.178 559.237 176.281C558.167 179.822 556.977 183.52 555.665 187.146C553.316 193.69 550.193 199.844 547.33 204.654C546.607 205.875 545.9 207.023 545.234 208.08C541.602 213.97 537.446 219.511 534.16 225.444C533.935 225.833 533.709 226.233 533.488 226.638C531.887 229.613 530.262 233.177 529.747 237.978C529.381 241.331 529.681 245.25 531.478 249.455C533.34 253.908 536.599 258.639 540.72 263.938C543.398 267.358 544.796 269.089 545.929 270.525C546.269 270.952 546.57 271.329 546.894 271.73C547.981 273.075 549.151 274.405 550.577 276.014C550.604 276.045 550.631 276.075 550.658 276.106C552.509 278.173 554.928 280.497 558.376 283.273C569.632 291.868 575.793 293.911 580.029 295.924C581.306 296.477 582.47 296.962 583.654 297.454C587.511 299.073 593.057 301.237 597.312 302.712C599.073 303.33 601.796 304.21 604.727 305.021C606.727 305.534 608.89 306.843 609.898 308.844C610.332 309.652 610.622 310.512 610.785 311.346C611.263 313.578 610.799 316.598 609.673 319.738C608.538 323.012 606.768 326.543 605.342 330.413C605.057 331.196 604.803 331.953 604.588 332.683C603.64 336.347 603.827 339.704 604.287 342.192C604.913 345.139 607.041 346.611 608.905 347.615C609.982 348.179 611.061 348.601 612.169 348.992C612.478 349.101 612.8 349.211 613.127 349.32C614.542 349.808 616.169 349.824 617.784 349.198C619.653 348.493 621.496 347.274 623.197 345.846C627.41 342.277 630.854 337.606 633.345 334.038C638.76 326.419 643.178 318.14 648.378 310.164L648.602 309.922C650.215 308.645 651.907 307.463 653.682 306.409C657.349 304.22 661.321 302.73 664.9 302.216L664.933 302.211C666.377 302.054 667.734 301.987 668.953 301.966C673.143 301.92 675.468 302.196 675.475 302.43C675.479 302.69 673.138 302.893 669.035 303.3C667.843 303.426 666.537 303.583 665.151 303.814L665.177 303.81C661.867 304.478 658.172 305.983 654.69 308.093C653.005 309.109 651.391 310.251 649.85 311.488L650.038 311.284C644.807 319.432 640.197 328.232 634.431 336.271C630.164 342.021 625.7 348.162 618.526 351.191C616.644 351.927 614.382 352.008 612.447 351.317C608.485 350.016 603.266 347.784 602.28 342.591C602.054 341.446 601.954 340.314 601.916 339.185C601.859 336.825 602.004 334.482 602.687 332.11C604.829 324.548 610.516 317.444 608.601 310.551C608.497 310.263 608.376 309.988 608.233 309.715C607.967 309.203 607.624 308.747 607.209 308.355C606.414 307.615 605.359 307.121 604.222 306.811C597.334 304.911 590.859 302.584 586.157 300.701C581.556 298.855 578.301 297.312 575.53 295.928C573.628 294.975 571.961 294.092 570.285 293.181C569.385 292.692 568.16 292.014 566.703 291.157C562.063 288.401 554.852 283.817 549.189 277.2C547.682 275.427 546.195 273.659 544.755 271.913C541.751 268.262 538.339 264.014 535.343 259.667C530.95 253.57 528.273 246.715 528.087 243.035C527.897 241.349 527.903 239.584 528.08 237.812C528.532 232.854 530.614 227.999 532.925 223.992C535.948 218.782 539.021 214.576 540.589 212.076C542.493 209.105 544.152 206.616 546.411 202.765C547.953 200.105 549.806 196.767 551.851 192.062C552.724 190.045 553.429 188.246 554.047 186.562C555.093 183.7 555.895 181.317 556.603 179.159C558.167 174.35 559.259 170.701 560.741 165.218C562.381 159.127 564.055 152.746 565.507 147.741C566.168 145.461 566.924 142.858 567.773 140.157C568.904 136.587 570.156 132.856 571.757 129.551C572.694 127.666 573.685 125.951 575.095 124.772C575.63 124.34 576.144 123.928 576.644 123.535C577.177 123.116 577.695 122.719 578.202 122.341C580.08 120.892 582.07 119.516 584.318 118.562C584.679 118.402 585.065 118.245 585.477 118.1C586.195 117.847 586.997 117.625 587.892 117.495C589.507 117.258 591.37 117.133 593.483 117.175C598.619 117.293 603.017 118.155 607.615 118.804C610.47 119.177 613.496 119.648 616.574 119.103C617.312 118.959 618.008 118.697 618.633 118.265C619.313 117.799 619.916 117.132 620.437 116.347C621.679 114.462 623.361 112.725 625.214 111.291C629.262 108.226 633.581 105.915 636.415 104.071C637.481 103.403 638.41 102.835 639.337 102.253C639.341 102.251 639.345 102.248 639.349 102.246C639.41 102.208 639.471 102.169 639.532 102.131C646.369 97.5425 652.762 92.2698 658.809 86.6409C659.318 86.1599 659.839 85.6628 660.363 85.1589C660.53 84.9983 660.697 84.8367 660.864 84.6745C663.176 82.4415 665.094 80.0312 666.286 78.3665C667.74 76.4675 670.898 71.4243 674.153 65.8516C675.045 64.3995 675.966 62.925 677.121 61.564C678.239 60.262 679.914 58.7229 682.125 58.9455C682.693 59 683.113 59.3451 683.331 59.6013C683.561 59.8712 683.684 60.1088 683.791 60.3325C683.995 60.7757 684.107 61.1669 684.206 61.5427C684.357 62.1301 684.455 62.6855 684.543 63.2301C684.758 64.5808 685.166 65.8889 685.688 67.2218C686.352 68.9176 687.186 70.6574 688.085 72.5896C688.535 73.5542 689.019 74.6006 689.51 75.7345C689.941 76.731 690.381 77.8079 690.8 78.9299C691.191 79.9762 692.014 82.3461 692.818 85.4333C693.317 87.3421 693.812 89.5279 694.247 91.8328C694.515 93.1864 694.754 94.5314 694.976 95.9153C695.676 100.894 695.151 105.696 694.601 110.48C694.463 111.786 694.344 112.868 694.256 113.769C694.195 114.402 694.152 114.937 694.104 115.495C694.039 116.254 693.969 117.035 693.831 118.105C693.724 118.943 693.565 119.925 693.432 120.578C693.37 120.882 693.315 121.115 693.264 121.326C693.207 121.568 693.155 121.783 693.106 122.049C693.07 122.241 693.042 122.442 693.007 122.689C692.951 123.084 692.878 123.598 692.73 124.369C692.178 127.25 691.5 130.511 690.82 133.695C690.064 137.236 689.31 140.684 688.767 143.413C688.464 144.964 688.074 146.812 687.813 148.736C687.798 148.854 687.786 148.948 687.773 149.073C687.758 149.207 687.746 149.331 687.738 149.443C687.729 149.556 687.723 149.658 687.719 149.745C687.715 149.853 687.716 149.969 687.72 150.023C687.713 150.059 687.766 150.166 687.669 149.914C687.639 149.851 687.593 149.764 687.506 149.661C687.463 149.61 687.409 149.555 687.344 149.501C687.258 149.43 687.142 149.356 687.016 149.305C686.464 149.076 685.993 149.315 685.924 149.364C685.792 149.449 685.814 149.457 685.865 149.396C685.925 149.328 685.957 149.286 686.02 149.2C686.313 148.789 686.511 148.456 686.818 147.915C687.057 147.49 687.3 147.037 687.584 146.486C687.606 146.443 687.628 146.401 687.649 146.358C689.04 143.614 690.398 140.696 691.838 138.315C693.23 135.974 694.929 133.622 696.931 131.645C698.103 130.481 699.368 129.448 700.659 128.578C701.958 127.7 703.277 126.938 704.509 126.322C705.011 126.071 705.621 125.81 706.419 125.498C706.975 125.283 707.628 125.041 708.371 124.782C711.538 123.516 714.815 122.597 718.138 121.907C718.255 121.878 718.381 121.847 718.499 121.817C718.501 121.817 718.502 121.816 718.504 121.816C721.192 121.153 724.941 120.368 730.261 120.099C731.596 120.034 732.483 120.038 733.227 120.047C733.966 120.056 734.685 120.067 735.639 120.052C736.734 120.034 738.087 119.993 739.499 119.973C741.545 119.943 743.791 119.957 746.017 120.098C746.171 120.108 746.337 120.119 746.511 120.13C748.154 120.236 750.586 120.427 752.94 120.708C760.097 121.326 767.086 122.296 774.126 123.514C774.516 123.582 774.907 123.651 775.301 123.72C786.555 125.883 797.873 126.985 809.082 130.502C810.242 130.995 811.483 131.428 812.45 132.745C814.428 137.539 813.645 141.564 813.601 144.828C813.324 148.919 812.825 151.177 812.591 151.15C812.344 151.127 812.373 148.844 812.283 144.8C812.127 141.744 812.318 137.065 810.864 133.804C810.501 133.272 809.411 132.721 808.376 132.334C799.733 129.587 790.191 128.601 780.997 126.967C780.509 126.89 780.031 126.813 779.541 126.735C777.952 126.48 776.429 126.24 774.905 126.002C772.927 125.692 771.136 125.438 769.208 125.181C768.431 125.078 767.662 124.979 766.899 124.884Z" fill="#951415"/>
<path d="M722.573 299.361C723.572 297.335 725.872 293.658 727.204 291.672C727.229 291.635 727.254 291.597 727.278 291.56C727.587 291.096 727.873 290.661 728.221 290.137C729.077 288.86 730.158 287.223 732.671 283.82C733.363 282.846 734.082 281.852 734.819 280.851C740.684 272.891 746.916 265.387 753.471 257.966C755.719 255.423 758.203 253.117 760.808 250.983C760.938 250.874 761.069 250.765 761.201 250.655C763.76 248.515 767.114 246.098 769.287 244.699C772.05 242.912 773.972 241.793 775.56 240.875C784.571 235.531 793.905 230.849 803.195 226.116C805.735 224.826 808.277 223.535 810.816 222.235C811.196 222.041 811.573 221.851 811.949 221.665C814.656 220.325 817.468 219.102 820.319 218.08C821.984 217.459 823.589 216.93 825.092 216.495C827.207 215.88 829.125 215.45 830.722 215.168C834.573 214.464 839.017 214.27 842.29 214.357C842.826 214.368 843.331 214.384 843.797 214.402C846.396 214.462 848.984 214.637 851.559 214.86C851.73 214.886 851.902 214.912 852.076 214.939C853.03 215.087 854.073 215.224 855.304 215.371C857.034 215.558 859.12 216.352 860.976 218.112C862.421 219.452 863.712 221.292 865.014 223.476C865.375 224.077 865.647 224.556 865.868 224.951C866.179 225.505 866.37 225.922 866.531 226.294C866.614 226.484 866.689 226.666 866.764 226.847C867.021 227.472 867.326 228.114 867.638 228.897C868.039 229.911 868.459 231.171 868.668 232.884C868.851 234.41 868.897 235.698 868.916 236.794C868.91 239.749 868.217 241.341 867.741 242.59C867.53 243.095 867.315 243.544 867.068 243.99C866.284 245.439 864.788 247.235 863.552 248.431C862.582 249.409 860.632 251.292 859.076 252.645C858.497 253.157 857.678 253.82 856.704 254.577C855.697 255.36 854.518 256.246 853.262 257.196C852.551 257.734 851.91 258.212 851.328 258.644L851.352 258.626C849.43 260.154 848.263 261.17 847.282 262.025C846.923 262.34 846.588 262.637 846.257 262.933C845.208 263.872 843.916 265.052 842.632 266.27C841.668 267.182 840.71 268.111 839.843 268.97C839.325 269.484 838.841 269.97 838.409 270.41C835.356 273.37 832.355 276.398 829.365 279.439C827.83 281.002 826.293 282.443 825.088 283.436C823.884 284.428 823.109 284.892 822.93 284.721C822.752 284.55 823.183 283.756 824.124 282.511C825.066 281.265 826.443 279.669 827.953 278.076C830.996 274.869 834.056 271.67 837.201 268.542C837.579 268.167 837.962 267.789 838.342 267.416C841.827 264.01 845.432 260.706 849.291 257.679C849.568 257.462 849.85 257.244 850.129 257.03L850.156 257.01C852.925 255.022 855.659 253.019 858.245 250.857C858.537 250.612 858.829 250.364 859.116 250.114C861.428 248.034 863.485 245.749 864.643 243.999C865.609 242.565 866.158 241.452 866.529 240.476C866.781 239.804 866.947 239.189 867.039 238.56C867.088 238.222 867.137 237.756 867.139 237.196C867.139 237.081 867.137 236.962 867.133 236.839C867.079 234.336 866.562 230.386 864.982 227.2C864.779 226.775 864.552 226.338 864.299 225.899C863.62 224.72 862.936 223.476 862.206 222.343C860.785 220.042 858.973 218.391 857.897 217.893C857.068 217.462 856.124 217.156 855.127 217.049C853.776 216.901 852.415 216.746 851.147 216.615C848.944 216.385 847.019 216.235 845.921 216.22C844.61 216.202 843.497 216.137 841.84 216.096C840.69 216.07 839.28 216.054 837.367 216.156C835.161 216.279 833.603 216.44 832.286 216.601C830.43 216.837 829.036 217.067 827.008 217.612C824.752 218.221 822.445 218.989 820.632 219.624C819.809 219.91 818.878 220.267 817.906 220.666C816.641 221.185 815.302 221.78 814.1 222.323C813.095 222.776 812.28 223.129 811.536 223.461C811.511 223.472 811.486 223.483 811.461 223.494C811.257 223.586 811.059 223.675 810.869 223.761C810.083 224.164 809.312 224.559 808.524 224.964C808.4 225.036 808.271 225.112 808.136 225.191C807.459 225.586 806.628 226.072 805.577 226.64C803.921 227.535 802.434 228.267 800.867 229.041C799.65 229.642 798.388 230.266 796.946 231.024C795.974 231.536 794.857 232.14 793.77 232.732C792.137 233.622 790.54 234.504 789.415 235.088C788.991 235.308 788.616 235.476 788.247 235.642C788.245 235.643 788.243 235.643 788.242 235.644C788.217 235.655 788.192 235.666 788.167 235.678C785.458 237.17 782.768 238.693 780.112 240.265C779.888 240.404 779.653 240.55 779.426 240.692C778.316 241.383 777.239 242.071 776.563 242.541C775.819 243.057 773.918 244.258 771.95 245.587C770.664 246.454 769.344 247.38 768.3 248.155C767.68 248.614 767.08 249.008 766.459 249.426C765.876 249.819 765.297 250.215 764.677 250.703C764.369 250.946 764.048 251.214 763.704 251.505C763.399 251.763 763.081 252.036 762.749 252.319C762.444 252.578 761.725 253.148 760.841 253.894C760.29 254.359 759.679 254.889 759.046 255.468C757.704 256.752 756.423 258.09 755.223 259.491C754.952 259.807 754.682 260.122 754.415 260.435C754.119 260.818 753.875 261.156 753.695 261.434C753.566 261.634 753.465 261.81 753.362 261.991C753.222 262.238 753.078 262.492 752.856 262.82C752.681 263.078 752.464 263.353 752.287 263.539C752.206 263.624 752.138 263.684 752.076 263.739C752.005 263.802 751.942 263.858 751.877 263.935C751.83 263.991 751.787 264.056 751.735 264.134C751.652 264.26 751.545 264.423 751.355 264.648C750.646 265.491 749.875 266.398 749.085 267.336C748.204 268.383 747.368 269.387 746.726 270.185C745.979 271.113 744.894 272.4 743.844 273.666C743.082 274.586 742.342 275.49 741.729 276.261C741.13 277.015 740.492 277.874 739.915 278.661C739.23 279.596 738.537 280.553 737.936 281.31C737.814 281.463 737.639 281.636 737.422 281.851C737.267 282.003 737.091 282.178 736.898 282.381C736.15 283.397 735.424 284.396 734.715 285.385C734.693 285.424 734.671 285.465 734.649 285.505C734.648 285.506 734.648 285.507 734.648 285.507C734.13 286.44 733.512 287.595 732.298 289.197C731.997 289.593 731.786 289.823 731.597 290.029C731.409 290.235 731.254 290.4 731.038 290.71C730.797 291.054 730.546 291.477 730.279 291.931C729.907 292.566 729.496 293.275 729.007 293.966C728.974 294.012 728.939 294.062 728.902 294.114C728.551 294.612 728.059 295.312 727.507 296.047C726.117 298.253 724.754 300.533 723.483 302.83C721.37 306.655 719.448 310.581 717.994 314.695C717.286 316.693 716.678 318.607 716.225 320.045C715.773 321.459 715.467 322.312 715.224 322.267C714.985 322.261 714.826 321.344 714.93 319.799C715.037 318.234 715.451 316.157 716.134 314.066C717.24 310.67 718.655 307.4 720.228 304.208C720.305 304.044 720.384 303.878 720.464 303.713C721.074 302.453 721.611 301.315 722.184 300.148C722.311 299.889 722.44 299.626 722.573 299.361Z" fill="#951415"/>
<path d="M802.903 569.099C803.019 569.112 802.971 569.112 802.945 569.112C802.944 569.112 802.944 569.112 802.943 569.112C802.937 569.112 802.936 569.113 802.934 569.113C802.93 569.114 802.924 569.116 802.85 569.113C802.852 569.115 802.854 569.116 802.853 569.118C802.852 569.131 802.755 569.136 802.638 569.139C802.639 569.139 802.639 569.139 802.64 569.139C802.651 569.144 802.666 569.15 802.623 569.148C802.569 569.147 802.519 569.144 802.476 569.142C802.383 569.144 802.299 569.147 802.263 569.155C802.252 569.157 802.246 569.16 802.246 569.163C802.246 569.167 802.249 569.17 802.256 569.174C802.281 569.178 802.31 569.183 802.338 569.187C802.376 569.193 802.411 569.199 802.422 569.202C802.449 569.208 802.405 569.209 802.373 569.209C802.368 569.209 802.363 569.209 802.359 569.209C802.374 569.213 802.391 569.218 802.408 569.222C802.398 569.221 802.388 569.221 802.378 569.22C802.249 569.21 802.251 569.213 802.253 569.218C802.254 569.22 802.255 569.222 802.245 569.224C802.239 569.225 802.188 569.221 802.146 569.218C802.134 569.217 802.123 569.216 802.114 569.215C802.082 569.213 802.116 569.217 802.156 569.221C802.208 569.228 802.271 569.235 802.214 569.231C802.033 569.219 802.155 569.234 802.248 569.245C802.275 569.248 802.299 569.251 802.313 569.253C802.357 569.259 802.313 569.257 802.253 569.253C802.205 569.249 802.252 569.257 802.312 569.265C802.335 569.268 802.335 569.269 802.335 569.27C802.336 569.272 802.336 569.273 802.362 569.277C802.426 569.288 802.457 569.293 802.482 569.297C802.489 569.299 802.495 569.3 802.502 569.301C802.523 569.304 802.541 569.308 802.558 569.312C802.579 569.316 802.601 569.32 802.629 569.325C802.598 569.326 802.56 569.327 802.522 569.328C802.502 569.328 802.392 569.32 802.21 569.304C802.028 569.288 801.79 569.266 801.545 569.242C801.299 569.218 801.062 569.194 800.88 569.175C800.698 569.156 800.588 569.143 800.569 569.139C800.53 569.13 800.491 569.122 800.461 569.114C800.423 569.105 800.398 569.096 800.398 569.091C800.399 569.087 800.405 569.083 800.416 569.08C800.417 569.08 800.418 569.08 800.42 569.08C800.359 569.07 800.305 569.062 800.285 569.057C800.269 569.054 800.302 569.056 800.329 569.057C800.348 569.058 800.365 569.059 800.363 569.058C800.361 569.057 800.358 569.057 800.353 569.055C800.335 569.051 800.305 569.043 800.364 569.045C800.39 569.046 800.442 569.048 800.492 569.051C800.563 569.055 800.629 569.059 800.609 569.055C800.573 569.049 800.604 569.05 800.63 569.05C800.656 569.05 800.678 569.05 800.638 569.045C800.589 569.039 800.609 569.039 800.639 569.04C800.659 569.041 800.684 569.042 800.695 569.041C800.706 569.04 800.741 569.041 800.77 569.043C800.811 569.045 800.842 569.046 800.786 569.039C800.723 569.03 800.683 569.023 800.703 569.023C800.712 569.023 800.71 569.022 800.708 569.021C800.705 569.019 800.702 569.017 800.725 569.018C800.744 569.018 800.792 569.022 800.834 569.025C800.847 569.026 800.86 569.027 800.871 569.028C800.87 569.027 800.869 569.026 800.868 569.025C800.86 569.024 800.852 569.023 800.843 569.022C800.799 569.017 800.745 569.011 800.719 569.007C800.676 569.001 800.703 569.002 800.731 569.003C800.754 569.003 800.777 569.004 800.769 569.002C800.763 569 800.744 568.997 800.725 568.993C800.696 568.989 800.668 568.984 800.686 568.984C800.693 568.984 800.723 568.987 800.753 568.989C800.753 568.989 800.753 568.989 800.753 568.989C800.755 568.99 800.757 568.99 800.759 568.99C800.737 568.984 800.712 568.979 800.686 568.973C800.678 568.972 800.671 568.971 800.663 568.97C800.627 568.965 800.591 568.96 800.541 568.954C800.486 568.948 800.455 568.943 800.422 568.937C800.4 568.933 800.377 568.929 800.347 568.925C800.33 568.922 800.36 568.925 800.392 568.927C800.422 568.929 800.453 568.931 800.445 568.93C800.442 568.929 800.429 568.927 800.415 568.925C800.403 568.924 800.39 568.922 800.383 568.921C800.375 568.92 800.392 568.92 800.414 568.921C800.427 568.922 800.442 568.922 800.455 568.922C800.436 568.918 800.417 568.914 800.4 568.91C800.373 568.907 800.338 568.903 800.293 568.898C800.261 568.895 800.222 568.891 800.183 568.887C800.129 568.881 800.073 568.876 800.029 568.871C799.994 568.867 799.981 568.865 799.995 568.867C800.002 568.867 800.014 568.868 800.026 568.869C800.039 568.87 800.051 568.871 800.05 568.871C800.05 568.871 800.041 568.87 800.029 568.869C800.012 568.867 799.988 568.865 799.988 568.864C799.985 568.863 799.992 568.862 800 568.862C800.008 568.861 800.016 568.86 800.009 568.859C800.002 568.857 800.036 568.858 800.071 568.86C800.095 568.861 800.119 568.862 800.129 568.862C800.138 568.862 800.119 568.859 800.101 568.856C800.079 568.852 800.057 568.849 800.088 568.851C800.094 568.851 800.131 568.855 800.178 568.859C800.211 568.862 800.249 568.865 800.284 568.868C800.284 568.867 800.286 568.866 800.289 568.865C800.283 568.864 800.278 568.864 800.273 568.863C800.273 568.863 800.273 568.863 800.273 568.863C800.154 568.851 799.992 568.833 800.089 568.841C800.113 568.843 800.159 568.847 800.2 568.85C800.24 568.854 800.276 568.857 800.284 568.858C800.293 568.858 800.268 568.855 800.241 568.852C800.203 568.847 800.161 568.842 800.201 568.845C800.203 568.846 800.206 568.846 800.209 568.846C800.237 568.848 800.279 568.851 800.362 568.858C800.384 568.858 800.411 568.857 800.439 568.857C800.487 568.857 800.541 568.858 800.596 568.858C800.622 568.859 800.736 568.867 800.917 568.883C801.099 568.899 801.332 568.921 801.573 568.944C801.815 568.968 802.048 568.991 802.229 569.01C802.41 569.03 802.523 569.043 802.549 569.048C802.592 569.056 802.634 569.063 802.673 569.071C802.678 569.072 802.683 569.072 802.688 569.073C802.721 569.078 802.789 569.086 802.857 569.093C802.872 569.095 802.888 569.097 802.903 569.099Z" fill="#951415"/>
</svg>
