<svg width="677" height="544" viewBox="0 0 677 544" fill="none" xmlns="http://www.w3.org/2000/svg">
<rect x="0.5" y="0.5" width="676" height="542.818" fill="#FAF4DE" stroke="#951415"/>
<path d="M88.2295 512.701C88.2295 514.303 87.904 515.514 87.2529 516.334C86.6149 517.154 85.6774 517.564 84.4404 517.564C83.8415 517.564 83.3467 517.447 82.9561 517.213C82.5524 516.992 82.3506 516.699 82.3506 516.334C82.3506 516.087 82.4417 515.878 82.624 515.709C82.8063 515.553 83.0277 515.475 83.2881 515.475C83.4704 515.475 83.6462 515.527 83.8154 515.631C83.9717 515.735 84.1475 515.917 84.3428 516.178C84.5251 516.412 84.6813 516.575 84.8115 516.666C84.9548 516.757 85.111 516.803 85.2803 516.803C85.6318 516.803 85.8857 516.673 86.042 516.412C86.1071 516.308 86.1592 516.184 86.1982 516.041C86.2373 515.911 86.2633 515.742 86.2764 515.533C86.3024 515.338 86.3154 515.09 86.3154 514.791C86.3285 514.505 86.335 514.146 86.335 513.717V505.26C86.335 504.778 86.2829 504.433 86.1787 504.225C86.0745 504.016 85.8988 503.912 85.6514 503.912C85.5342 503.912 85.3975 503.919 85.2412 503.932C85.098 503.945 84.9352 503.964 84.7529 503.99L84.6553 504.01V503.678C84.9808 503.574 85.2803 503.476 85.5537 503.385C85.8271 503.281 86.1006 503.183 86.374 503.092C86.6475 503.001 86.9209 502.903 87.1943 502.799C87.4808 502.695 87.7868 502.577 88.1123 502.447L88.2295 502.506V512.701ZM87.1162 497.467C87.4287 497.467 87.6891 497.584 87.8975 497.818C88.1188 498.04 88.2295 498.307 88.2295 498.619C88.2295 498.945 88.1253 499.218 87.917 499.439C87.7217 499.648 87.4548 499.752 87.1162 499.752C86.7907 499.752 86.5173 499.648 86.2959 499.439C86.0876 499.218 85.9834 498.945 85.9834 498.619C85.9834 498.307 86.0941 498.04 86.3154 497.818C86.5368 497.584 86.8037 497.467 87.1162 497.467ZM99.5967 509.205C99.1279 510.429 98.4899 511.354 97.6826 511.979C96.8883 512.604 95.9508 512.916 94.8701 512.916C94.2321 512.916 93.6527 512.799 93.1318 512.564C92.624 512.33 92.1878 511.998 91.8232 511.568C91.4587 511.139 91.1787 510.618 90.9834 510.006C90.7881 509.394 90.6904 508.704 90.6904 507.936C90.6904 507.115 90.8011 506.367 91.0225 505.689C91.2568 505.012 91.5758 504.433 91.9795 503.951C92.3962 503.456 92.891 503.072 93.4639 502.799C94.0368 502.525 94.6683 502.389 95.3584 502.389C95.9443 502.389 96.4782 502.499 96.96 502.721C97.4548 502.942 97.8714 503.255 98.21 503.658C98.3532 503.84 98.4704 504.023 98.5615 504.205C98.6657 504.387 98.7503 504.589 98.8154 504.811C98.8936 505.032 98.9587 505.279 99.0107 505.553C99.0628 505.826 99.1149 506.139 99.167 506.49H92.3115C92.3376 507.206 92.3962 507.799 92.4873 508.268C92.5915 508.723 92.7542 509.166 92.9756 509.596C93.6136 510.794 94.5511 511.393 95.7881 511.393C96.5042 511.393 97.1227 511.217 97.6436 510.865C98.1774 510.514 98.7113 509.915 99.2451 509.068L99.5967 509.205ZM96.9014 505.748C96.7581 504.785 96.5238 504.12 96.1982 503.756C95.8857 503.378 95.391 503.189 94.7139 503.189C94.0238 503.189 93.4834 503.391 93.0928 503.795C92.7152 504.199 92.4678 504.85 92.3506 505.748H96.9014ZM108.679 504.029C108.822 504.407 108.92 504.739 108.972 505.025C109.037 505.299 109.069 505.605 109.069 505.943C109.069 506.412 108.978 506.855 108.796 507.271C108.614 507.688 108.366 508.059 108.054 508.385C107.741 508.697 107.377 508.951 106.96 509.146C106.543 509.329 106.094 509.42 105.612 509.42C105.547 509.42 105.437 509.413 105.28 509.4C105.137 509.387 104.968 509.368 104.772 509.342L104.343 509.283C104.187 509.322 104.03 509.4 103.874 509.518C103.718 509.622 103.575 509.745 103.444 509.889C103.314 510.019 103.203 510.156 103.112 510.299C103.034 510.442 102.995 510.572 102.995 510.689C102.995 510.859 103.132 510.995 103.405 511.1C103.692 511.191 104.141 511.249 104.753 511.275L107.624 511.412C108.444 511.451 109.095 511.686 109.577 512.115C110.059 512.532 110.3 513.085 110.3 513.775C110.3 514.426 110.104 514.986 109.714 515.455C109.323 515.937 108.835 516.334 108.249 516.646C107.663 516.959 107.032 517.187 106.354 517.33C105.69 517.486 105.078 517.564 104.519 517.564C103.985 517.564 103.483 517.506 103.015 517.389C102.546 517.285 102.136 517.135 101.784 516.939C101.433 516.744 101.153 516.516 100.944 516.256C100.749 515.995 100.651 515.715 100.651 515.416C100.651 514.999 100.814 514.583 101.14 514.166C101.478 513.749 102.051 513.255 102.858 512.682C102.39 512.46 102.071 512.271 101.901 512.115C101.745 511.946 101.667 511.738 101.667 511.49C101.667 511.269 101.745 511.048 101.901 510.826C102.071 510.592 102.338 510.305 102.702 509.967L103.659 509.068C102.904 508.704 102.364 508.294 102.038 507.838C101.726 507.369 101.569 506.783 101.569 506.08C101.569 505.572 101.667 505.097 101.862 504.654C102.058 504.199 102.318 503.808 102.644 503.482C102.982 503.144 103.379 502.877 103.835 502.682C104.291 502.486 104.772 502.389 105.28 502.389C105.879 502.389 106.478 502.499 107.077 502.721L107.585 502.916C107.806 502.994 108.008 503.066 108.19 503.131C108.386 503.183 108.594 503.209 108.815 503.209H110.534V504.029H108.679ZM103.327 512.76C103.106 513.02 102.924 513.242 102.78 513.424C102.637 513.606 102.526 513.769 102.448 513.912C102.37 514.055 102.312 514.186 102.272 514.303C102.246 514.42 102.233 514.544 102.233 514.674C102.233 515.169 102.52 515.559 103.093 515.846C103.679 516.145 104.466 516.295 105.456 516.295C106.094 516.295 106.674 516.243 107.194 516.139C107.715 516.035 108.158 515.885 108.522 515.689C108.9 515.507 109.187 515.279 109.382 515.006C109.59 514.745 109.694 514.452 109.694 514.127C109.694 513.723 109.486 513.443 109.069 513.287C108.653 513.131 107.943 513.053 106.94 513.053C106.667 513.053 106.354 513.04 106.003 513.014C105.664 513.001 105.326 512.981 104.987 512.955C104.662 512.929 104.349 512.896 104.05 512.857C103.763 512.831 103.522 512.799 103.327 512.76ZM103.425 505.24C103.425 505.774 103.477 506.269 103.581 506.725C103.698 507.167 103.854 507.551 104.05 507.877C104.258 508.189 104.499 508.437 104.772 508.619C105.059 508.788 105.378 508.873 105.729 508.873C106.224 508.873 106.621 508.691 106.921 508.326C107.22 507.949 107.37 507.447 107.37 506.822C107.37 506.367 107.312 505.904 107.194 505.436C107.09 504.967 106.934 504.537 106.726 504.146C106.543 503.795 106.309 503.521 106.022 503.326C105.736 503.118 105.424 503.014 105.085 503.014C104.564 503.014 104.154 503.209 103.854 503.6C103.568 503.99 103.425 504.511 103.425 505.162V505.24ZM125.69 504.029C125.834 504.407 125.931 504.739 125.983 505.025C126.049 505.299 126.081 505.605 126.081 505.943C126.081 506.412 125.99 506.855 125.808 507.271C125.625 507.688 125.378 508.059 125.065 508.385C124.753 508.697 124.388 508.951 123.972 509.146C123.555 509.329 123.106 509.42 122.624 509.42C122.559 509.42 122.448 509.413 122.292 509.4C122.149 509.387 121.979 509.368 121.784 509.342L121.354 509.283C121.198 509.322 121.042 509.4 120.886 509.518C120.729 509.622 120.586 509.745 120.456 509.889C120.326 510.019 120.215 510.156 120.124 510.299C120.046 510.442 120.007 510.572 120.007 510.689C120.007 510.859 120.144 510.995 120.417 511.1C120.703 511.191 121.153 511.249 121.765 511.275L124.636 511.412C125.456 511.451 126.107 511.686 126.589 512.115C127.071 512.532 127.312 513.085 127.312 513.775C127.312 514.426 127.116 514.986 126.726 515.455C126.335 515.937 125.847 516.334 125.261 516.646C124.675 516.959 124.043 517.187 123.366 517.33C122.702 517.486 122.09 517.564 121.53 517.564C120.996 517.564 120.495 517.506 120.026 517.389C119.558 517.285 119.147 517.135 118.796 516.939C118.444 516.744 118.164 516.516 117.956 516.256C117.761 515.995 117.663 515.715 117.663 515.416C117.663 514.999 117.826 514.583 118.151 514.166C118.49 513.749 119.063 513.255 119.87 512.682C119.401 512.46 119.082 512.271 118.913 512.115C118.757 511.946 118.679 511.738 118.679 511.49C118.679 511.269 118.757 511.048 118.913 510.826C119.082 510.592 119.349 510.305 119.714 509.967L120.671 509.068C119.916 508.704 119.375 508.294 119.05 507.838C118.737 507.369 118.581 506.783 118.581 506.08C118.581 505.572 118.679 505.097 118.874 504.654C119.069 504.199 119.33 503.808 119.655 503.482C119.994 503.144 120.391 502.877 120.847 502.682C121.302 502.486 121.784 502.389 122.292 502.389C122.891 502.389 123.49 502.499 124.089 502.721L124.597 502.916C124.818 502.994 125.02 503.066 125.202 503.131C125.397 503.183 125.606 503.209 125.827 503.209H127.546V504.029H125.69ZM120.339 512.76C120.118 513.02 119.935 513.242 119.792 513.424C119.649 513.606 119.538 513.769 119.46 513.912C119.382 514.055 119.323 514.186 119.284 514.303C119.258 514.42 119.245 514.544 119.245 514.674C119.245 515.169 119.532 515.559 120.104 515.846C120.69 516.145 121.478 516.295 122.468 516.295C123.106 516.295 123.685 516.243 124.206 516.139C124.727 516.035 125.17 515.885 125.534 515.689C125.912 515.507 126.198 515.279 126.394 515.006C126.602 514.745 126.706 514.452 126.706 514.127C126.706 513.723 126.498 513.443 126.081 513.287C125.664 513.131 124.955 513.053 123.952 513.053C123.679 513.053 123.366 513.04 123.015 513.014C122.676 513.001 122.338 512.981 121.999 512.955C121.674 512.929 121.361 512.896 121.062 512.857C120.775 512.831 120.534 512.799 120.339 512.76ZM120.437 505.24C120.437 505.774 120.489 506.269 120.593 506.725C120.71 507.167 120.866 507.551 121.062 507.877C121.27 508.189 121.511 508.437 121.784 508.619C122.071 508.788 122.39 508.873 122.741 508.873C123.236 508.873 123.633 508.691 123.933 508.326C124.232 507.949 124.382 507.447 124.382 506.822C124.382 506.367 124.323 505.904 124.206 505.436C124.102 504.967 123.946 504.537 123.737 504.146C123.555 503.795 123.321 503.521 123.034 503.326C122.748 503.118 122.435 503.014 122.097 503.014C121.576 503.014 121.166 503.209 120.866 503.6C120.58 503.99 120.437 504.511 120.437 505.162V505.24ZM132.194 502.506V510.436C132.194 510.839 132.207 511.165 132.233 511.412C132.272 511.646 132.351 511.835 132.468 511.979C132.585 512.109 132.748 512.2 132.956 512.252C133.177 512.304 133.477 512.35 133.854 512.389V512.701H128.562V512.389C128.952 512.363 129.258 512.324 129.479 512.271C129.714 512.206 129.89 512.109 130.007 511.979C130.137 511.835 130.222 511.646 130.261 511.412C130.3 511.165 130.319 510.839 130.319 510.436V505.26C130.319 504.765 130.261 504.42 130.144 504.225C130.039 504.016 129.857 503.912 129.597 503.912C129.493 503.912 129.369 503.919 129.226 503.932C129.095 503.945 128.959 503.964 128.815 503.99L128.659 504.01V503.678L132.097 502.447L132.194 502.506ZM131.081 497.467C131.394 497.467 131.66 497.584 131.882 497.818C132.103 498.04 132.214 498.307 132.214 498.619C132.214 498.945 132.103 499.218 131.882 499.439C131.674 499.648 131.4 499.752 131.062 499.752C130.736 499.752 130.469 499.648 130.261 499.439C130.052 499.218 129.948 498.945 129.948 498.619C129.948 498.307 130.059 498.04 130.28 497.818C130.502 497.584 130.769 497.467 131.081 497.467ZM145.046 503.014C144.877 503.027 144.733 503.053 144.616 503.092C144.512 503.131 144.408 503.209 144.304 503.326C144.213 503.443 144.108 503.619 143.991 503.854C143.887 504.075 143.757 504.374 143.601 504.752L140.749 511.92C140.58 512.324 140.45 512.604 140.358 512.76C140.267 512.929 140.189 513.014 140.124 513.014C140.059 513.014 139.987 512.968 139.909 512.877C139.844 512.799 139.779 512.649 139.714 512.428C139.688 512.376 139.662 512.317 139.636 512.252C139.61 512.174 139.577 512.076 139.538 511.959L136.862 505.572C136.602 504.999 136.394 504.544 136.237 504.205C136.081 503.867 135.931 503.613 135.788 503.443C135.658 503.274 135.521 503.163 135.378 503.111C135.235 503.059 135.052 503.027 134.831 503.014V502.662H139.187V503.014C138.822 503.04 138.562 503.098 138.405 503.189C138.262 503.281 138.19 503.417 138.19 503.6C138.19 503.717 138.203 503.854 138.229 504.01C138.269 504.153 138.321 504.303 138.386 504.459L140.651 510.162L142.858 504.381C142.91 504.277 142.943 504.166 142.956 504.049C142.969 503.932 142.976 503.821 142.976 503.717C142.976 503.3 142.637 503.066 141.96 503.014V502.662H145.046V503.014ZM155.026 509.205C154.558 510.429 153.92 511.354 153.112 511.979C152.318 512.604 151.381 512.916 150.3 512.916C149.662 512.916 149.082 512.799 148.562 512.564C148.054 512.33 147.618 511.998 147.253 511.568C146.888 511.139 146.608 510.618 146.413 510.006C146.218 509.394 146.12 508.704 146.12 507.936C146.12 507.115 146.231 506.367 146.452 505.689C146.687 505.012 147.006 504.433 147.409 503.951C147.826 503.456 148.321 503.072 148.894 502.799C149.466 502.525 150.098 502.389 150.788 502.389C151.374 502.389 151.908 502.499 152.39 502.721C152.884 502.942 153.301 503.255 153.64 503.658C153.783 503.84 153.9 504.023 153.991 504.205C154.095 504.387 154.18 504.589 154.245 504.811C154.323 505.032 154.388 505.279 154.44 505.553C154.493 505.826 154.545 506.139 154.597 506.49H147.741C147.767 507.206 147.826 507.799 147.917 508.268C148.021 508.723 148.184 509.166 148.405 509.596C149.043 510.794 149.981 511.393 151.218 511.393C151.934 511.393 152.552 511.217 153.073 510.865C153.607 510.514 154.141 509.915 154.675 509.068L155.026 509.205ZM152.331 505.748C152.188 504.785 151.953 504.12 151.628 503.756C151.315 503.378 150.821 503.189 150.144 503.189C149.453 503.189 148.913 503.391 148.522 503.795C148.145 504.199 147.897 504.85 147.78 505.748H152.331ZM155.632 503.678C155.957 503.561 156.257 503.456 156.53 503.365C156.804 503.261 157.064 503.163 157.312 503.072C157.572 502.968 157.826 502.87 158.073 502.779C158.334 502.675 158.614 502.564 158.913 502.447L159.05 502.486V504.537C159.323 504.133 159.571 503.801 159.792 503.541C160.013 503.268 160.228 503.053 160.437 502.896C160.645 502.727 160.847 502.61 161.042 502.545C161.25 502.48 161.472 502.447 161.706 502.447C162.084 502.447 162.383 502.558 162.604 502.779C162.826 502.988 162.937 503.268 162.937 503.619C162.937 503.945 162.858 504.199 162.702 504.381C162.546 504.55 162.338 504.635 162.077 504.635C161.934 504.635 161.791 504.609 161.647 504.557C161.517 504.492 161.361 504.368 161.179 504.186C161.062 504.081 160.951 504.003 160.847 503.951C160.743 503.899 160.658 503.873 160.593 503.873C160.437 503.873 160.267 503.938 160.085 504.068C159.916 504.186 159.753 504.335 159.597 504.518C159.44 504.7 159.31 504.895 159.206 505.104C159.102 505.312 159.05 505.507 159.05 505.689V510.709C159.05 511.021 159.076 511.282 159.128 511.49C159.18 511.699 159.278 511.868 159.421 511.998C159.564 512.115 159.759 512.206 160.007 512.271C160.254 512.337 160.567 512.376 160.944 512.389V512.701H155.573V512.389C155.925 512.324 156.205 512.258 156.413 512.193C156.634 512.115 156.797 512.024 156.901 511.92C157.019 511.816 157.09 511.679 157.116 511.51C157.155 511.327 157.175 511.1 157.175 510.826V505.26C157.175 504.765 157.116 504.42 156.999 504.225C156.882 504.016 156.687 503.912 156.413 503.912C156.27 503.912 156.14 503.919 156.022 503.932C155.918 503.945 155.788 503.971 155.632 504.01V503.678ZM175.437 505.709C175.189 504.706 174.883 503.997 174.519 503.58C174.154 503.163 173.653 502.955 173.015 502.955C172.494 502.955 172.077 503.098 171.765 503.385C171.452 503.658 171.296 504.023 171.296 504.479C171.296 505.117 171.615 505.624 172.253 506.002L174.655 507.428C175.332 507.831 175.814 508.235 176.101 508.639C176.387 509.029 176.53 509.505 176.53 510.064C176.53 510.455 176.446 510.826 176.276 511.178C176.107 511.529 175.879 511.835 175.593 512.096C175.319 512.343 174.994 512.545 174.616 512.701C174.239 512.844 173.835 512.916 173.405 512.916C173.171 512.916 172.917 512.896 172.644 512.857C172.37 512.831 172.071 512.779 171.745 512.701C171.485 512.636 171.283 512.59 171.14 512.564C170.996 512.538 170.86 512.525 170.729 512.525C170.599 512.525 170.502 512.545 170.437 512.584C170.371 512.623 170.3 512.695 170.222 512.799H169.929V509.322H170.28C170.41 509.895 170.56 510.377 170.729 510.768C170.899 511.158 171.094 511.477 171.315 511.725C171.537 511.972 171.797 512.154 172.097 512.271C172.396 512.376 172.735 512.428 173.112 512.428C173.698 512.428 174.154 512.285 174.479 511.998C174.818 511.712 174.987 511.321 174.987 510.826C174.987 510.162 174.597 509.609 173.815 509.166L172.526 508.424C172.045 508.15 171.634 507.89 171.296 507.643C170.97 507.395 170.703 507.148 170.495 506.9C170.287 506.64 170.137 506.373 170.046 506.1C169.955 505.826 169.909 505.533 169.909 505.221C169.909 504.817 169.981 504.446 170.124 504.107C170.28 503.769 170.489 503.476 170.749 503.229C171.022 502.981 171.348 502.792 171.726 502.662C172.103 502.532 172.52 502.467 172.976 502.467C173.496 502.467 173.998 502.558 174.479 502.74C174.753 502.857 174.961 502.916 175.104 502.916C175.157 502.916 175.196 502.903 175.222 502.877C175.248 502.851 175.313 502.792 175.417 502.701L175.437 502.662H175.71L175.788 505.709H175.437ZM185.651 510.357C185.651 510.852 185.697 511.197 185.788 511.393C185.879 511.575 186.055 511.666 186.315 511.666C186.615 511.666 186.94 511.529 187.292 511.256V511.822C186.914 512.239 186.582 512.525 186.296 512.682C186.009 512.838 185.677 512.916 185.3 512.916C184.844 512.916 184.506 512.792 184.284 512.545C184.076 512.285 183.946 511.855 183.894 511.256C183.216 511.842 182.624 512.265 182.116 512.525C181.608 512.786 181.114 512.916 180.632 512.916C179.929 512.916 179.356 512.695 178.913 512.252C178.483 511.809 178.269 511.236 178.269 510.533C178.269 510.182 178.334 509.83 178.464 509.479C178.607 509.114 178.809 508.821 179.069 508.6C179.304 508.391 179.519 508.215 179.714 508.072C179.922 507.916 180.189 507.76 180.515 507.604C180.84 507.434 181.263 507.245 181.784 507.037C182.305 506.829 182.995 506.549 183.854 506.197V504.771C183.854 504.16 183.705 503.697 183.405 503.385C183.119 503.072 182.702 502.916 182.155 502.916C181.7 502.916 181.315 503.027 181.003 503.248C180.703 503.456 180.554 503.71 180.554 504.01C180.554 504.127 180.567 504.277 180.593 504.459C180.632 504.641 180.651 504.791 180.651 504.908C180.651 505.169 180.547 505.39 180.339 505.572C180.144 505.755 179.916 505.846 179.655 505.846C179.395 505.846 179.167 505.755 178.972 505.572C178.789 505.377 178.698 505.149 178.698 504.889C178.698 504.602 178.776 504.309 178.933 504.01C179.102 503.71 179.33 503.443 179.616 503.209C179.916 502.949 180.313 502.747 180.808 502.604C181.315 502.46 181.862 502.389 182.448 502.389C183.125 502.389 183.692 502.506 184.147 502.74C184.616 502.962 184.974 503.274 185.222 503.678C185.378 503.938 185.489 504.244 185.554 504.596C185.619 504.934 185.651 505.396 185.651 505.982V510.357ZM183.854 506.744C183.177 506.992 182.598 507.232 182.116 507.467C181.647 507.688 181.263 507.923 180.964 508.17C180.677 508.404 180.469 508.658 180.339 508.932C180.209 509.205 180.144 509.505 180.144 509.83V509.928C180.144 510.162 180.183 510.39 180.261 510.611C180.339 510.82 180.443 511.002 180.573 511.158C180.716 511.314 180.879 511.438 181.062 511.529C181.244 511.62 181.433 511.666 181.628 511.666C181.862 511.666 182.123 511.62 182.409 511.529C182.709 511.425 182.989 511.301 183.249 511.158C183.509 511.015 183.672 510.865 183.737 510.709C183.815 510.553 183.854 510.305 183.854 509.967V506.744ZM187.761 503.443C188.073 503.365 188.353 503.287 188.601 503.209C188.861 503.131 189.115 503.053 189.362 502.975C189.61 502.896 189.851 502.818 190.085 502.74C190.332 502.649 190.599 502.551 190.886 502.447L191.042 502.486V504.166C191.511 503.814 191.908 503.528 192.233 503.307C192.559 503.072 192.845 502.896 193.093 502.779C193.353 502.649 193.588 502.564 193.796 502.525C194.004 502.473 194.232 502.447 194.479 502.447C195.69 502.447 196.478 503.079 196.843 504.342C197.468 503.678 198.067 503.196 198.64 502.896C199.226 502.597 199.844 502.447 200.495 502.447C202.227 502.447 203.093 503.762 203.093 506.393V511.002C203.093 511.848 203.418 512.291 204.069 512.33L204.636 512.389V512.701H199.753V512.389C200.078 512.35 200.332 512.304 200.515 512.252C200.71 512.187 200.853 512.102 200.944 511.998C201.049 511.881 201.114 511.725 201.14 511.529C201.179 511.334 201.198 511.074 201.198 510.748V506.061C201.198 505.592 201.172 505.201 201.12 504.889C201.068 504.576 200.977 504.329 200.847 504.146C200.716 503.951 200.541 503.814 200.319 503.736C200.111 503.645 199.851 503.6 199.538 503.6C199.017 503.6 198.568 503.71 198.19 503.932C197.813 504.14 197.455 504.485 197.116 504.967V510.592C197.116 510.93 197.136 511.217 197.175 511.451C197.227 511.673 197.312 511.855 197.429 511.998C197.559 512.128 197.728 512.226 197.937 512.291C198.145 512.343 198.405 512.376 198.718 512.389V512.701H193.718V512.389C194.03 512.363 194.284 512.324 194.479 512.271C194.688 512.219 194.844 512.135 194.948 512.018C195.065 511.9 195.144 511.744 195.183 511.549C195.222 511.354 195.241 511.1 195.241 510.787V505.943C195.241 504.381 194.759 503.6 193.796 503.6C193.379 503.6 192.943 503.691 192.487 503.873C192.045 504.055 191.693 504.277 191.433 504.537C191.237 504.758 191.14 504.889 191.14 504.928V511.217C191.14 511.66 191.237 511.959 191.433 512.115C191.641 512.271 192.045 512.363 192.644 512.389V512.701H187.702V512.389C188.015 512.376 188.269 512.343 188.464 512.291C188.672 512.239 188.835 512.154 188.952 512.037C189.069 511.92 189.147 511.764 189.187 511.568C189.239 511.36 189.265 511.106 189.265 510.807V505.162C189.265 504.615 189.206 504.244 189.089 504.049C188.985 503.84 188.783 503.736 188.483 503.736C188.353 503.736 188.236 503.749 188.132 503.775C188.041 503.788 187.917 503.808 187.761 503.834V503.443ZM210.378 503.365H208.112V509.771C208.112 510.488 208.203 511.002 208.386 511.314C208.568 511.614 208.861 511.764 209.265 511.764C209.525 511.764 209.753 511.712 209.948 511.607C210.144 511.49 210.371 511.282 210.632 510.982L210.905 511.256C210.202 512.363 209.304 512.916 208.21 512.916C206.895 512.916 206.237 511.972 206.237 510.084V503.365H205.065C205.013 503.352 204.987 503.307 204.987 503.229C204.987 503.098 205.111 502.955 205.358 502.799C205.944 502.46 206.667 501.666 207.526 500.416C207.591 500.312 207.663 500.214 207.741 500.123C207.832 500.019 207.91 499.908 207.976 499.791C208.028 499.791 208.06 499.811 208.073 499.85C208.099 499.889 208.112 499.967 208.112 500.084V502.662H210.378V503.365ZM221.491 503.014C221.231 503.04 221.016 503.124 220.847 503.268C220.69 503.411 220.541 503.658 220.397 504.01L216.979 513.111C216.667 513.919 216.368 514.602 216.081 515.162C215.795 515.735 215.502 516.197 215.202 516.549C214.916 516.9 214.61 517.154 214.284 517.311C213.959 517.48 213.601 517.564 213.21 517.564C212.728 517.564 212.331 517.441 212.019 517.193C211.719 516.959 211.569 516.653 211.569 516.275C211.569 515.989 211.66 515.755 211.843 515.572C212.025 515.403 212.253 515.318 212.526 515.318C212.709 515.318 212.897 515.331 213.093 515.357C213.288 515.396 213.483 515.455 213.679 515.533C213.809 515.598 213.92 515.637 214.011 515.65C214.102 515.663 214.18 515.67 214.245 515.67C214.414 515.67 214.603 515.579 214.812 515.396C215.02 515.227 215.209 514.999 215.378 514.713C215.469 514.544 215.567 514.335 215.671 514.088C215.775 513.854 215.873 513.619 215.964 513.385C216.055 513.15 216.127 512.929 216.179 512.721C216.244 512.525 216.276 512.389 216.276 512.311C216.276 512.128 216.185 511.842 216.003 511.451C215.834 511.048 215.593 510.572 215.28 510.025C215.215 509.934 215.157 509.837 215.104 509.732C215.052 509.628 215.007 509.505 214.968 509.361L214.89 509.186L212.351 503.697C212.194 503.32 211.817 503.079 211.218 502.975V502.662H215.808V503.014C215.326 503.04 214.987 503.098 214.792 503.189C214.61 503.268 214.519 503.404 214.519 503.6C214.519 503.743 214.532 503.886 214.558 504.029C214.597 504.16 214.662 504.303 214.753 504.459L217.312 510.084L219.46 503.932C219.538 503.801 219.577 503.684 219.577 503.58C219.577 503.398 219.479 503.261 219.284 503.17C219.089 503.066 218.822 503.014 218.483 503.014V502.662H221.491V503.014ZM222.214 498.443L222.878 498.287C223.216 498.196 223.509 498.118 223.757 498.053C224.004 497.975 224.232 497.903 224.44 497.838C224.662 497.773 224.864 497.714 225.046 497.662C225.241 497.597 225.45 497.532 225.671 497.467L225.749 497.525V506.9L228.815 504.166C229.154 503.854 229.323 503.587 229.323 503.365C229.323 503.235 229.245 503.144 229.089 503.092C228.933 503.04 228.64 503.001 228.21 502.975V502.662H232.761V503.014C232.409 503.001 232.09 503.027 231.804 503.092C231.517 503.144 231.205 503.268 230.866 503.463C230.528 503.658 230.131 503.945 229.675 504.322C229.219 504.687 228.64 505.182 227.937 505.807L227.292 506.393L230.729 510.748C231.185 511.321 231.602 511.731 231.979 511.979C232.37 512.213 232.813 512.35 233.308 512.389V512.701H228.464V512.389H228.874C229.017 512.389 229.128 512.356 229.206 512.291C229.297 512.226 229.343 512.141 229.343 512.037C229.343 511.972 229.323 511.907 229.284 511.842C229.258 511.764 229.193 511.673 229.089 511.568C229.011 511.464 228.965 511.399 228.952 511.373L228.874 511.275L225.749 507.115V511.217C225.749 511.594 225.84 511.874 226.022 512.057C226.218 512.226 226.537 512.324 226.979 512.35L227.429 512.389V512.701H222.214V512.389C222.604 512.324 222.91 512.265 223.132 512.213C223.366 512.148 223.535 512.07 223.64 511.979C223.744 511.874 223.809 511.738 223.835 511.568C223.861 511.399 223.874 511.171 223.874 510.885V500.123C223.874 499.589 223.809 499.231 223.679 499.049C223.549 498.867 223.295 498.775 222.917 498.775C222.813 498.775 222.702 498.782 222.585 498.795C222.481 498.795 222.357 498.801 222.214 498.814V498.443ZM233.366 498.443L234.03 498.287C234.369 498.196 234.662 498.118 234.909 498.053C235.157 497.975 235.384 497.903 235.593 497.838C235.814 497.773 236.016 497.714 236.198 497.662C236.394 497.597 236.602 497.532 236.823 497.467L236.901 497.525V506.9L239.968 504.166C240.306 503.854 240.476 503.587 240.476 503.365C240.476 503.235 240.397 503.144 240.241 503.092C240.085 503.04 239.792 503.001 239.362 502.975V502.662H243.913V503.014C243.562 503.001 243.243 503.027 242.956 503.092C242.67 503.144 242.357 503.268 242.019 503.463C241.68 503.658 241.283 503.945 240.827 504.322C240.371 504.687 239.792 505.182 239.089 505.807L238.444 506.393L241.882 510.748C242.338 511.321 242.754 511.731 243.132 511.979C243.522 512.213 243.965 512.35 244.46 512.389V512.701H239.616V512.389H240.026C240.17 512.389 240.28 512.356 240.358 512.291C240.45 512.226 240.495 512.141 240.495 512.037C240.495 511.972 240.476 511.907 240.437 511.842C240.41 511.764 240.345 511.673 240.241 511.568C240.163 511.464 240.118 511.399 240.104 511.373L240.026 511.275L236.901 507.115V511.217C236.901 511.594 236.993 511.874 237.175 512.057C237.37 512.226 237.689 512.324 238.132 512.35L238.581 512.389V512.701H233.366V512.389C233.757 512.324 234.063 512.265 234.284 512.213C234.519 512.148 234.688 512.07 234.792 511.979C234.896 511.874 234.961 511.738 234.987 511.568C235.013 511.399 235.026 511.171 235.026 510.885V500.123C235.026 499.589 234.961 499.231 234.831 499.049C234.701 498.867 234.447 498.775 234.069 498.775C233.965 498.775 233.854 498.782 233.737 498.795C233.633 498.795 233.509 498.801 233.366 498.814V498.443ZM253.815 509.205C253.347 510.429 252.709 511.354 251.901 511.979C251.107 512.604 250.17 512.916 249.089 512.916C248.451 512.916 247.871 512.799 247.351 512.564C246.843 512.33 246.407 511.998 246.042 511.568C245.677 511.139 245.397 510.618 245.202 510.006C245.007 509.394 244.909 508.704 244.909 507.936C244.909 507.115 245.02 506.367 245.241 505.689C245.476 505.012 245.795 504.433 246.198 503.951C246.615 503.456 247.11 503.072 247.683 502.799C248.256 502.525 248.887 502.389 249.577 502.389C250.163 502.389 250.697 502.499 251.179 502.721C251.674 502.942 252.09 503.255 252.429 503.658C252.572 503.84 252.689 504.023 252.78 504.205C252.884 504.387 252.969 504.589 253.034 504.811C253.112 505.032 253.177 505.279 253.229 505.553C253.282 505.826 253.334 506.139 253.386 506.49H246.53C246.556 507.206 246.615 507.799 246.706 508.268C246.81 508.723 246.973 509.166 247.194 509.596C247.832 510.794 248.77 511.393 250.007 511.393C250.723 511.393 251.341 511.217 251.862 510.865C252.396 510.514 252.93 509.915 253.464 509.068L253.815 509.205ZM251.12 505.748C250.977 504.785 250.743 504.12 250.417 503.756C250.104 503.378 249.61 503.189 248.933 503.189C248.243 503.189 247.702 503.391 247.312 503.795C246.934 504.199 246.687 504.85 246.569 505.748H251.12Z" fill="#0F0F0F"/>
<path d="M36.3799 260.556C36.3799 260.139 36.3604 259.807 36.3213 259.56C36.2822 259.312 36.1911 259.123 36.0479 258.993C35.9176 258.85 35.7223 258.752 35.4619 258.7C35.2145 258.648 34.8695 258.603 34.4268 258.563V258.114H40.4424C41.8356 258.114 43.0856 258.284 44.1924 258.622C45.2992 258.948 46.2301 259.423 46.9854 260.048C47.7536 260.673 48.3395 261.441 48.7432 262.353C49.1468 263.264 49.3486 264.293 49.3486 265.438C49.3486 266.571 49.1338 267.626 48.7041 268.603C48.2744 269.579 47.6689 270.399 46.8877 271.063C46.1976 271.636 45.3057 272.086 44.2119 272.411C43.1312 272.724 41.9723 272.88 40.7354 272.88H34.4268V272.47C34.8564 272.444 35.195 272.405 35.4424 272.353C35.7028 272.287 35.8981 272.183 36.0283 272.04C36.1715 271.884 36.2627 271.682 36.3018 271.435C36.3538 271.187 36.3799 270.868 36.3799 270.478V260.556ZM38.6455 271.142C38.6455 271.506 38.7236 271.754 38.8799 271.884C39.0492 272.001 39.3486 272.06 39.7783 272.06C40.7809 272.06 41.6208 271.994 42.2979 271.864C42.988 271.721 43.6195 271.48 44.1924 271.142C46.0153 270.1 46.9268 268.251 46.9268 265.595C46.9268 264.371 46.6924 263.284 46.2236 262.333C45.7679 261.382 45.0908 260.608 44.1924 260.009C43.6455 259.644 43.014 259.377 42.2979 259.208C41.5947 259.039 40.7549 258.954 39.7783 258.954C39.3356 258.954 39.0361 259.013 38.8799 259.13C38.7236 259.247 38.6455 259.475 38.6455 259.813V271.142ZM54.1533 262.685V270.614C54.1533 271.018 54.1663 271.343 54.1924 271.591C54.2314 271.825 54.3096 272.014 54.4268 272.157C54.5439 272.287 54.7067 272.379 54.915 272.431C55.1364 272.483 55.4359 272.528 55.8135 272.567V272.88H50.5205V272.567C50.9111 272.541 51.2171 272.502 51.4385 272.45C51.6729 272.385 51.8486 272.287 51.9658 272.157C52.096 272.014 52.1807 271.825 52.2197 271.591C52.2588 271.343 52.2783 271.018 52.2783 270.614V265.438C52.2783 264.944 52.2197 264.599 52.1025 264.403C51.9984 264.195 51.8161 264.091 51.5557 264.091C51.4515 264.091 51.3278 264.097 51.1846 264.11C51.0544 264.123 50.9176 264.143 50.7744 264.169L50.6182 264.188V263.856L54.0557 262.626L54.1533 262.685ZM53.04 257.646C53.3525 257.646 53.6195 257.763 53.8408 257.997C54.0622 258.218 54.1729 258.485 54.1729 258.798C54.1729 259.123 54.0622 259.397 53.8408 259.618C53.6325 259.826 53.359 259.931 53.0205 259.931C52.695 259.931 52.4281 259.826 52.2197 259.618C52.0114 259.397 51.9072 259.123 51.9072 258.798C51.9072 258.485 52.0179 258.218 52.2393 257.997C52.4606 257.763 52.7275 257.646 53.04 257.646ZM62.0635 263.544H59.7979V269.95C59.7979 270.666 59.889 271.181 60.0713 271.493C60.2536 271.793 60.5465 271.942 60.9502 271.942C61.2106 271.942 61.4385 271.89 61.6338 271.786C61.8291 271.669 62.057 271.461 62.3174 271.161L62.5908 271.435C61.8877 272.541 60.9893 273.095 59.8955 273.095C58.5804 273.095 57.9229 272.151 57.9229 270.263V263.544H56.751C56.6989 263.531 56.6729 263.485 56.6729 263.407C56.6729 263.277 56.7965 263.134 57.0439 262.978C57.6299 262.639 58.3525 261.845 59.2119 260.595C59.277 260.491 59.3486 260.393 59.4268 260.302C59.5179 260.198 59.596 260.087 59.6611 259.97C59.7132 259.97 59.7458 259.989 59.7588 260.028C59.7848 260.067 59.7979 260.146 59.7979 260.263V262.841H62.0635V263.544ZM75.3447 263.544H72.6104V270.575C72.6104 270.992 72.6299 271.33 72.6689 271.591C72.721 271.838 72.8187 272.034 72.9619 272.177C73.1051 272.307 73.3135 272.405 73.5869 272.47C73.8604 272.522 74.2249 272.554 74.6807 272.567V272.88H68.8994V272.567C69.3031 272.541 69.6221 272.502 69.8564 272.45C70.1038 272.385 70.2926 272.281 70.4229 272.138C70.5531 271.994 70.6377 271.799 70.6768 271.552C70.7158 271.304 70.7354 270.979 70.7354 270.575V263.544H68.9189V262.802H70.7354C70.7354 262.359 70.7484 261.975 70.7744 261.649C70.8135 261.311 70.859 261.011 70.9111 260.751C70.9762 260.478 71.0544 260.224 71.1455 259.989C71.2497 259.755 71.3734 259.514 71.5166 259.267C71.8031 258.772 72.2197 258.381 72.7666 258.095C73.3265 257.795 73.958 257.646 74.6611 257.646C75.3382 257.646 75.8916 257.776 76.3213 258.036C76.764 258.297 76.9854 258.629 76.9854 259.032C76.9854 259.293 76.8942 259.514 76.7119 259.696C76.5426 259.879 76.3213 259.97 76.0479 259.97C75.8656 259.97 75.6963 259.911 75.54 259.794C75.3838 259.664 75.221 259.449 75.0518 259.149C74.8564 258.824 74.6676 258.603 74.4854 258.485C74.3161 258.355 74.1077 258.29 73.8604 258.29C73.014 258.29 72.5908 258.948 72.5908 260.263V262.802H75.3447V263.544ZM81.458 262.626C82.1742 262.626 82.8317 262.75 83.4307 262.997C84.0296 263.244 84.5439 263.596 84.9736 264.052C85.4163 264.494 85.7614 265.022 86.0088 265.634C86.2562 266.246 86.3799 266.923 86.3799 267.665C86.3799 268.446 86.2497 269.169 85.9893 269.833C85.7419 270.484 85.3968 271.057 84.9541 271.552C84.5114 272.034 83.984 272.411 83.3721 272.685C82.7731 272.958 82.1221 273.095 81.4189 273.095C80.7158 273.095 80.0648 272.965 79.4658 272.704C78.8669 272.444 78.3525 272.079 77.9229 271.61C77.4932 271.142 77.1546 270.588 76.9072 269.95C76.6598 269.312 76.5361 268.616 76.5361 267.86C76.5361 267.092 76.6533 266.389 76.8877 265.751C77.1351 265.1 77.4736 264.547 77.9033 264.091C78.333 263.622 78.8473 263.264 79.4463 263.017C80.0583 262.756 80.7288 262.626 81.458 262.626ZM81.126 263.251C80.3447 263.251 79.7197 263.57 79.251 264.208C78.7822 264.846 78.5479 265.692 78.5479 266.747C78.5479 267.541 78.6325 268.316 78.8018 269.071C78.971 269.813 79.2119 270.478 79.5244 271.063C79.7588 271.519 80.0713 271.871 80.4619 272.118C80.8525 272.366 81.2757 272.489 81.7314 272.489C82.5518 272.489 83.1898 272.131 83.6455 271.415C84.1143 270.686 84.3486 269.69 84.3486 268.427C84.3486 267.476 84.2119 266.591 83.9385 265.771C83.665 264.95 83.2939 264.332 82.8252 263.915C82.5778 263.681 82.3174 263.511 82.0439 263.407C81.7705 263.303 81.4645 263.251 81.126 263.251ZM87.2002 263.856C87.5257 263.739 87.8252 263.635 88.0986 263.544C88.3721 263.44 88.6325 263.342 88.8799 263.251C89.1403 263.147 89.3942 263.049 89.6416 262.958C89.902 262.854 90.182 262.743 90.4814 262.626L90.6182 262.665V264.716C90.8916 264.312 91.139 263.98 91.3604 263.72C91.5817 263.446 91.7965 263.231 92.0049 263.075C92.2132 262.906 92.415 262.789 92.6104 262.724C92.8187 262.659 93.04 262.626 93.2744 262.626C93.652 262.626 93.9515 262.737 94.1729 262.958C94.3942 263.166 94.5049 263.446 94.5049 263.798C94.5049 264.123 94.4268 264.377 94.2705 264.56C94.1143 264.729 93.9059 264.813 93.6455 264.813C93.5023 264.813 93.359 264.787 93.2158 264.735C93.0856 264.67 92.9294 264.547 92.7471 264.364C92.6299 264.26 92.5192 264.182 92.415 264.13C92.3109 264.078 92.2262 264.052 92.1611 264.052C92.0049 264.052 91.8356 264.117 91.6533 264.247C91.484 264.364 91.3213 264.514 91.165 264.696C91.0088 264.879 90.8786 265.074 90.7744 265.282C90.6702 265.491 90.6182 265.686 90.6182 265.868V270.888C90.6182 271.2 90.6442 271.461 90.6963 271.669C90.7484 271.877 90.846 272.047 90.9893 272.177C91.1325 272.294 91.3278 272.385 91.5752 272.45C91.8226 272.515 92.1351 272.554 92.5127 272.567V272.88H87.1416V272.567C87.4932 272.502 87.7731 272.437 87.9814 272.372C88.2028 272.294 88.3656 272.203 88.4697 272.099C88.5869 271.994 88.6585 271.858 88.6846 271.688C88.7236 271.506 88.7432 271.278 88.7432 271.005V265.438C88.7432 264.944 88.6846 264.599 88.5674 264.403C88.4502 264.195 88.2549 264.091 87.9814 264.091C87.8382 264.091 87.708 264.097 87.5908 264.11C87.4867 264.123 87.3564 264.149 87.2002 264.188V263.856ZM101.146 265.888C100.898 264.885 100.592 264.175 100.228 263.759C99.863 263.342 99.3617 263.134 98.7236 263.134C98.2028 263.134 97.7861 263.277 97.4736 263.563C97.1611 263.837 97.0049 264.201 97.0049 264.657C97.0049 265.295 97.3239 265.803 97.9619 266.181L100.364 267.606C101.041 268.01 101.523 268.414 101.81 268.817C102.096 269.208 102.239 269.683 102.239 270.243C102.239 270.634 102.155 271.005 101.985 271.356C101.816 271.708 101.588 272.014 101.302 272.274C101.028 272.522 100.703 272.724 100.325 272.88C99.9476 273.023 99.5439 273.095 99.1143 273.095C98.8799 273.095 98.626 273.075 98.3525 273.036C98.0791 273.01 97.7796 272.958 97.4541 272.88C97.1937 272.815 96.9919 272.769 96.8486 272.743C96.7054 272.717 96.5687 272.704 96.4385 272.704C96.3083 272.704 96.2106 272.724 96.1455 272.763C96.0804 272.802 96.0088 272.873 95.9307 272.978H95.6377V269.501H95.9893C96.1195 270.074 96.2692 270.556 96.4385 270.946C96.6077 271.337 96.8031 271.656 97.0244 271.903C97.2458 272.151 97.5062 272.333 97.8057 272.45C98.1051 272.554 98.4437 272.606 98.8213 272.606C99.4072 272.606 99.863 272.463 100.188 272.177C100.527 271.89 100.696 271.5 100.696 271.005C100.696 270.341 100.306 269.787 99.5244 269.345L98.2354 268.603C97.7536 268.329 97.3434 268.069 97.0049 267.821C96.6794 267.574 96.4124 267.326 96.2041 267.079C95.9958 266.819 95.846 266.552 95.7549 266.278C95.6637 266.005 95.6182 265.712 95.6182 265.399C95.6182 264.996 95.6898 264.625 95.833 264.286C95.9893 263.948 96.1976 263.655 96.458 263.407C96.7314 263.16 97.057 262.971 97.4346 262.841C97.8122 262.711 98.2288 262.646 98.6846 262.646C99.2054 262.646 99.7067 262.737 100.188 262.919C100.462 263.036 100.67 263.095 100.813 263.095C100.866 263.095 100.905 263.082 100.931 263.056C100.957 263.03 101.022 262.971 101.126 262.88L101.146 262.841H101.419L101.497 265.888H101.146ZM103.567 258.622C103.958 258.531 104.303 258.453 104.603 258.388C104.915 258.31 105.208 258.231 105.481 258.153C105.768 258.075 106.041 257.997 106.302 257.919C106.562 257.841 106.836 257.75 107.122 257.646L107.22 257.704V271.005C107.22 271.317 107.239 271.571 107.278 271.767C107.317 271.949 107.396 272.099 107.513 272.216C107.63 272.32 107.793 272.398 108.001 272.45C108.222 272.502 108.509 272.541 108.86 272.567V272.88H103.626V272.567C103.978 272.528 104.264 272.483 104.485 272.431C104.707 272.366 104.882 272.274 105.013 272.157C105.143 272.027 105.228 271.864 105.267 271.669C105.319 271.474 105.345 271.226 105.345 270.927V260.302C105.345 259.781 105.273 259.429 105.13 259.247C105 259.052 104.759 258.954 104.407 258.954C104.303 258.954 104.186 258.961 104.056 258.974C103.938 258.974 103.821 258.98 103.704 258.993H103.567V258.622ZM117.571 270.536C117.571 271.031 117.617 271.376 117.708 271.571C117.799 271.754 117.975 271.845 118.235 271.845C118.535 271.845 118.86 271.708 119.212 271.435V272.001C118.834 272.418 118.502 272.704 118.216 272.86C117.929 273.017 117.597 273.095 117.22 273.095C116.764 273.095 116.425 272.971 116.204 272.724C115.996 272.463 115.866 272.034 115.813 271.435C115.136 272.021 114.544 272.444 114.036 272.704C113.528 272.965 113.034 273.095 112.552 273.095C111.849 273.095 111.276 272.873 110.833 272.431C110.403 271.988 110.188 271.415 110.188 270.712C110.188 270.36 110.254 270.009 110.384 269.657C110.527 269.293 110.729 269 110.989 268.778C111.224 268.57 111.438 268.394 111.634 268.251C111.842 268.095 112.109 267.938 112.435 267.782C112.76 267.613 113.183 267.424 113.704 267.216C114.225 267.007 114.915 266.728 115.774 266.376V264.95C115.774 264.338 115.625 263.876 115.325 263.563C115.039 263.251 114.622 263.095 114.075 263.095C113.619 263.095 113.235 263.205 112.923 263.427C112.623 263.635 112.474 263.889 112.474 264.188C112.474 264.306 112.487 264.455 112.513 264.638C112.552 264.82 112.571 264.97 112.571 265.087C112.571 265.347 112.467 265.569 112.259 265.751C112.063 265.933 111.836 266.024 111.575 266.024C111.315 266.024 111.087 265.933 110.892 265.751C110.709 265.556 110.618 265.328 110.618 265.067C110.618 264.781 110.696 264.488 110.853 264.188C111.022 263.889 111.25 263.622 111.536 263.388C111.836 263.127 112.233 262.925 112.728 262.782C113.235 262.639 113.782 262.567 114.368 262.567C115.045 262.567 115.612 262.685 116.067 262.919C116.536 263.14 116.894 263.453 117.142 263.856C117.298 264.117 117.409 264.423 117.474 264.774C117.539 265.113 117.571 265.575 117.571 266.161V270.536ZM115.774 266.923C115.097 267.17 114.518 267.411 114.036 267.646C113.567 267.867 113.183 268.101 112.884 268.349C112.597 268.583 112.389 268.837 112.259 269.11C112.129 269.384 112.063 269.683 112.063 270.009V270.106C112.063 270.341 112.103 270.569 112.181 270.79C112.259 270.998 112.363 271.181 112.493 271.337C112.636 271.493 112.799 271.617 112.981 271.708C113.164 271.799 113.353 271.845 113.548 271.845C113.782 271.845 114.043 271.799 114.329 271.708C114.629 271.604 114.909 271.48 115.169 271.337C115.429 271.194 115.592 271.044 115.657 270.888C115.735 270.731 115.774 270.484 115.774 270.146V266.923ZM127.903 264.208C128.047 264.586 128.144 264.918 128.196 265.204C128.261 265.478 128.294 265.784 128.294 266.122C128.294 266.591 128.203 267.034 128.021 267.45C127.838 267.867 127.591 268.238 127.278 268.563C126.966 268.876 126.601 269.13 126.185 269.325C125.768 269.507 125.319 269.599 124.837 269.599C124.772 269.599 124.661 269.592 124.505 269.579C124.362 269.566 124.192 269.547 123.997 269.521L123.567 269.462C123.411 269.501 123.255 269.579 123.099 269.696C122.942 269.8 122.799 269.924 122.669 270.067C122.539 270.198 122.428 270.334 122.337 270.478C122.259 270.621 122.22 270.751 122.22 270.868C122.22 271.037 122.356 271.174 122.63 271.278C122.916 271.369 123.366 271.428 123.978 271.454L126.849 271.591C127.669 271.63 128.32 271.864 128.802 272.294C129.284 272.711 129.524 273.264 129.524 273.954C129.524 274.605 129.329 275.165 128.938 275.634C128.548 276.116 128.06 276.513 127.474 276.825C126.888 277.138 126.256 277.366 125.579 277.509C124.915 277.665 124.303 277.743 123.743 277.743C123.209 277.743 122.708 277.685 122.239 277.567C121.771 277.463 121.36 277.313 121.009 277.118C120.657 276.923 120.377 276.695 120.169 276.435C119.974 276.174 119.876 275.894 119.876 275.595C119.876 275.178 120.039 274.761 120.364 274.345C120.703 273.928 121.276 273.433 122.083 272.86C121.614 272.639 121.295 272.45 121.126 272.294C120.97 272.125 120.892 271.916 120.892 271.669C120.892 271.448 120.97 271.226 121.126 271.005C121.295 270.771 121.562 270.484 121.927 270.146L122.884 269.247C122.129 268.882 121.588 268.472 121.263 268.017C120.95 267.548 120.794 266.962 120.794 266.259C120.794 265.751 120.892 265.276 121.087 264.833C121.282 264.377 121.543 263.987 121.868 263.661C122.207 263.323 122.604 263.056 123.06 262.86C123.515 262.665 123.997 262.567 124.505 262.567C125.104 262.567 125.703 262.678 126.302 262.899L126.81 263.095C127.031 263.173 127.233 263.244 127.415 263.31C127.61 263.362 127.819 263.388 128.04 263.388H129.759V264.208H127.903ZM122.552 272.938C122.33 273.199 122.148 273.42 122.005 273.603C121.862 273.785 121.751 273.948 121.673 274.091C121.595 274.234 121.536 274.364 121.497 274.481C121.471 274.599 121.458 274.722 121.458 274.853C121.458 275.347 121.744 275.738 122.317 276.024C122.903 276.324 123.691 276.474 124.681 276.474C125.319 276.474 125.898 276.422 126.419 276.317C126.94 276.213 127.382 276.063 127.747 275.868C128.125 275.686 128.411 275.458 128.606 275.185C128.815 274.924 128.919 274.631 128.919 274.306C128.919 273.902 128.711 273.622 128.294 273.466C127.877 273.31 127.168 273.231 126.165 273.231C125.892 273.231 125.579 273.218 125.228 273.192C124.889 273.179 124.55 273.16 124.212 273.134C123.886 273.108 123.574 273.075 123.274 273.036C122.988 273.01 122.747 272.978 122.552 272.938ZM122.649 265.419C122.649 265.953 122.701 266.448 122.806 266.903C122.923 267.346 123.079 267.73 123.274 268.056C123.483 268.368 123.724 268.616 123.997 268.798C124.284 268.967 124.603 269.052 124.954 269.052C125.449 269.052 125.846 268.869 126.146 268.505C126.445 268.127 126.595 267.626 126.595 267.001C126.595 266.545 126.536 266.083 126.419 265.614C126.315 265.146 126.159 264.716 125.95 264.325C125.768 263.974 125.534 263.7 125.247 263.505C124.961 263.297 124.648 263.192 124.31 263.192C123.789 263.192 123.379 263.388 123.079 263.778C122.793 264.169 122.649 264.69 122.649 265.341V265.419Z" fill="#0F0E0E"/>
<path d="M44.1562 48.0044C44.0911 47.5617 44.0065 47.2036 43.9023 46.9302C43.8112 46.6437 43.6745 46.4224 43.4922 46.2661C43.3229 46.1099 43.0885 46.0057 42.7891 45.9536C42.5026 45.8885 42.138 45.856 41.6953 45.856H38.4727V50.7388C38.4727 51.1294 38.4922 51.4484 38.5312 51.6958C38.5833 51.9432 38.681 52.145 38.8242 52.3013C38.9805 52.4445 39.1888 52.5487 39.4492 52.6138C39.7227 52.6659 40.0742 52.7049 40.5039 52.731V53.1411H34.2734V52.731C34.6901 52.7049 35.0221 52.6593 35.2695 52.5942C35.5299 52.5291 35.7253 52.4185 35.8555 52.2622C35.9987 52.0929 36.0898 51.8716 36.1289 51.5981C36.181 51.3117 36.207 50.9341 36.207 50.4653V40.8169C36.207 40.4263 36.181 40.1073 36.1289 39.8599C36.0898 39.6125 35.9987 39.4172 35.8555 39.2739C35.7122 39.1307 35.5104 39.0265 35.25 38.9614C35.0026 38.8963 34.6771 38.8507 34.2734 38.8247V38.3755H46.1094L46.1484 41.5786H45.6211C45.5169 41.0708 45.3997 40.6672 45.2695 40.3677C45.1393 40.0552 44.9505 39.8143 44.7031 39.645C44.4688 39.4757 44.1497 39.3651 43.7461 39.313C43.3555 39.2609 42.8477 39.2349 42.2227 39.2349H39.1953C38.8828 39.2349 38.681 39.2804 38.5898 39.3716C38.5117 39.4627 38.4727 39.6711 38.4727 39.9966V44.938H41.6953C42.138 44.938 42.5026 44.9119 42.7891 44.8599C43.0885 44.8078 43.3229 44.7036 43.4922 44.5474C43.6745 44.3911 43.8112 44.1763 43.9023 43.9028C44.0065 43.6294 44.0911 43.2713 44.1562 42.8286H44.6836V48.0044H44.1562ZM50.3867 42.9458V50.8755C50.3867 51.2791 50.3997 51.6047 50.4258 51.8521C50.4648 52.0864 50.543 52.2752 50.6602 52.4185C50.7773 52.5487 50.9401 52.6398 51.1484 52.6919C51.3698 52.744 51.6693 52.7896 52.0469 52.8286V53.1411H46.7539V52.8286C47.1445 52.8026 47.4505 52.7635 47.6719 52.7114C47.9062 52.6463 48.082 52.5487 48.1992 52.4185C48.3294 52.2752 48.4141 52.0864 48.4531 51.8521C48.4922 51.6047 48.5117 51.2791 48.5117 50.8755V45.6997C48.5117 45.2049 48.4531 44.8599 48.3359 44.6646C48.2318 44.4562 48.0495 44.3521 47.7891 44.3521C47.6849 44.3521 47.5612 44.3586 47.418 44.3716C47.2878 44.3846 47.151 44.4041 47.0078 44.4302L46.8516 44.4497V44.1177L50.2891 42.8872L50.3867 42.9458ZM49.2734 37.9067C49.5859 37.9067 49.8529 38.0239 50.0742 38.2583C50.2956 38.4797 50.4062 38.7466 50.4062 39.0591C50.4062 39.3846 50.2956 39.658 50.0742 39.8794C49.8659 40.0877 49.5924 40.1919 49.2539 40.1919C48.9284 40.1919 48.6615 40.0877 48.4531 39.8794C48.2448 39.658 48.1406 39.3846 48.1406 39.0591C48.1406 38.7466 48.2513 38.4797 48.4727 38.2583C48.694 38.0239 48.9609 37.9067 49.2734 37.9067ZM52.7695 44.1177C53.0951 44.0005 53.3945 43.8963 53.668 43.8052C53.9414 43.701 54.2018 43.6034 54.4492 43.5122C54.7096 43.408 54.9635 43.3104 55.2109 43.2192C55.4714 43.1151 55.7513 43.0044 56.0508 42.8872L56.1875 42.9263V44.9771C56.4609 44.5734 56.7083 44.2414 56.9297 43.981C57.151 43.7075 57.3659 43.4927 57.5742 43.3364C57.7826 43.1672 57.9844 43.05 58.1797 42.9849C58.388 42.9198 58.6094 42.8872 58.8438 42.8872C59.2214 42.8872 59.5208 42.9979 59.7422 43.2192C59.9635 43.4276 60.0742 43.7075 60.0742 44.0591C60.0742 44.3846 59.9961 44.6385 59.8398 44.8208C59.6836 44.9901 59.4753 45.0747 59.2148 45.0747C59.0716 45.0747 58.9284 45.0487 58.7852 44.9966C58.6549 44.9315 58.4987 44.8078 58.3164 44.6255C58.1992 44.5213 58.0885 44.4432 57.9844 44.3911C57.8802 44.339 57.7956 44.313 57.7305 44.313C57.5742 44.313 57.4049 44.3781 57.2227 44.5083C57.0534 44.6255 56.8906 44.7752 56.7344 44.9575C56.5781 45.1398 56.4479 45.3351 56.3438 45.5435C56.2396 45.7518 56.1875 45.9471 56.1875 46.1294V51.1489C56.1875 51.4614 56.2135 51.7218 56.2656 51.9302C56.3177 52.1385 56.4154 52.3078 56.5586 52.438C56.7018 52.5552 56.8971 52.6463 57.1445 52.7114C57.3919 52.7765 57.7044 52.8156 58.082 52.8286V53.1411H52.7109V52.8286C53.0625 52.7635 53.3424 52.6984 53.5508 52.6333C53.7721 52.5552 53.9349 52.464 54.0391 52.3599C54.1562 52.2557 54.2279 52.119 54.2539 51.9497C54.293 51.7674 54.3125 51.5396 54.3125 51.2661V45.6997C54.3125 45.2049 54.2539 44.8599 54.1367 44.6646C54.0195 44.4562 53.8242 44.3521 53.5508 44.3521C53.4076 44.3521 53.2773 44.3586 53.1602 44.3716C53.056 44.3846 52.9258 44.4106 52.7695 44.4497V44.1177ZM66.7148 46.1489C66.4674 45.1463 66.1615 44.4367 65.7969 44.02C65.4323 43.6034 64.931 43.395 64.293 43.395C63.7721 43.395 63.3555 43.5382 63.043 43.8247C62.7305 44.0981 62.5742 44.4627 62.5742 44.9185C62.5742 45.5565 62.8932 46.0643 63.5312 46.4419L65.9336 47.8677C66.6107 48.2713 67.0924 48.675 67.3789 49.0786C67.6654 49.4692 67.8086 49.9445 67.8086 50.5044C67.8086 50.895 67.724 51.2661 67.5547 51.6177C67.3854 51.9692 67.1576 52.2752 66.8711 52.5356C66.5977 52.783 66.2721 52.9849 65.8945 53.1411C65.5169 53.2843 65.1133 53.356 64.6836 53.356C64.4492 53.356 64.1953 53.3364 63.9219 53.2974C63.6484 53.2713 63.349 53.2192 63.0234 53.1411C62.763 53.076 62.5612 53.0304 62.418 53.0044C62.2747 52.9784 62.138 52.9653 62.0078 52.9653C61.8776 52.9653 61.7799 52.9849 61.7148 53.0239C61.6497 53.063 61.5781 53.1346 61.5 53.2388H61.207V49.7622H61.5586C61.6888 50.3351 61.8385 50.8169 62.0078 51.2075C62.1771 51.5981 62.3724 51.9172 62.5938 52.1646C62.8151 52.4119 63.0755 52.5942 63.375 52.7114C63.6745 52.8156 64.013 52.8677 64.3906 52.8677C64.9766 52.8677 65.4323 52.7244 65.7578 52.438C66.0964 52.1515 66.2656 51.7609 66.2656 51.2661C66.2656 50.6021 65.875 50.0487 65.0938 49.606L63.8047 48.8638C63.3229 48.5903 62.9128 48.3299 62.5742 48.0825C62.2487 47.8351 61.9818 47.5877 61.7734 47.3403C61.5651 47.0799 61.4154 46.813 61.3242 46.5396C61.2331 46.2661 61.1875 45.9731 61.1875 45.6606C61.1875 45.257 61.2591 44.8859 61.4023 44.5474C61.5586 44.2088 61.7669 43.9159 62.0273 43.6685C62.3008 43.4211 62.6263 43.2323 63.0039 43.1021C63.3815 42.9718 63.7982 42.9067 64.2539 42.9067C64.7747 42.9067 65.276 42.9979 65.7578 43.1802C66.0312 43.2974 66.2396 43.356 66.3828 43.356C66.4349 43.356 66.474 43.3429 66.5 43.3169C66.526 43.2909 66.5911 43.2323 66.6953 43.1411L66.7148 43.1021H66.9883L67.0664 46.1489H66.7148ZM74.4102 43.8052H72.1445V50.2114C72.1445 50.9276 72.2357 51.4419 72.418 51.7544C72.6003 52.0539 72.8932 52.2036 73.2969 52.2036C73.5573 52.2036 73.7852 52.1515 73.9805 52.0474C74.1758 51.9302 74.4036 51.7218 74.6641 51.4224L74.9375 51.6958C74.2344 52.8026 73.3359 53.356 72.2422 53.356C70.9271 53.356 70.2695 52.4119 70.2695 50.5239V43.8052H69.0977C69.0456 43.7922 69.0195 43.7466 69.0195 43.6685C69.0195 43.5382 69.1432 43.395 69.3906 43.2388C69.9766 42.9002 70.6992 42.106 71.5586 40.856C71.6237 40.7518 71.6953 40.6541 71.7734 40.563C71.8646 40.4588 71.9427 40.3481 72.0078 40.231C72.0599 40.231 72.0924 40.2505 72.1055 40.2896C72.1315 40.3286 72.1445 40.4067 72.1445 40.5239V43.1021H74.4102V43.8052ZM81.1484 43.8833C81.7604 43.714 82.2878 43.5578 82.7305 43.4146C83.1862 43.2713 83.681 43.0955 84.2148 42.8872L84.3906 42.9263V44.7036C84.7682 44.3521 85.1003 44.0591 85.3867 43.8247C85.6732 43.5903 85.9336 43.408 86.168 43.2778C86.4154 43.1346 86.6497 43.0369 86.8711 42.9849C87.1055 42.9198 87.3529 42.8872 87.6133 42.8872C88.4336 42.8872 89.0781 43.1802 89.5469 43.7661C90.0156 44.3521 90.25 45.1724 90.25 46.2271V51.3442C90.25 51.8781 90.3411 52.2427 90.5234 52.438C90.7057 52.6333 91.0638 52.7635 91.5977 52.8286V53.1411H86.9688V52.8286C87.2422 52.8026 87.4701 52.757 87.6523 52.6919C87.8346 52.6268 87.9779 52.5226 88.082 52.3794C88.1992 52.2362 88.2773 52.0474 88.3164 51.813C88.3555 51.5786 88.375 51.2856 88.375 50.9341V46.2661C88.375 44.8338 87.8346 44.1177 86.7539 44.1177C86.5716 44.1177 86.3958 44.1372 86.2266 44.1763C86.0573 44.2153 85.8815 44.2804 85.6992 44.3716C85.5299 44.4627 85.3411 44.5929 85.1328 44.7622C84.9375 44.9315 84.7031 45.1398 84.4297 45.3872V51.6567C84.4297 52.0604 84.5339 52.3468 84.7422 52.5161C84.9505 52.6724 85.3411 52.7765 85.9141 52.8286V53.1411H81.1875V52.8286C81.474 52.8026 81.7018 52.7635 81.8711 52.7114C82.0534 52.6463 82.1966 52.5487 82.3008 52.4185C82.4049 52.2882 82.4766 52.1255 82.5156 51.9302C82.5547 51.7218 82.5742 51.4614 82.5742 51.1489V45.6021C82.5742 45.0552 82.5156 44.6841 82.3984 44.4888C82.2812 44.2804 82.0664 44.1763 81.7539 44.1763C81.5195 44.1763 81.3177 44.2088 81.1484 44.2739V43.8833ZM100.152 50.7974C100.152 51.2922 100.198 51.6372 100.289 51.8325C100.38 52.0148 100.556 52.106 100.816 52.106C101.116 52.106 101.441 51.9692 101.793 51.6958V52.2622C101.415 52.6789 101.083 52.9653 100.797 53.1216C100.51 53.2778 100.178 53.356 99.8008 53.356C99.3451 53.356 99.0065 53.2323 98.7852 52.9849C98.5768 52.7244 98.4466 52.2948 98.3945 51.6958C97.7174 52.2817 97.125 52.7049 96.6172 52.9653C96.1094 53.2257 95.6146 53.356 95.1328 53.356C94.4297 53.356 93.8568 53.1346 93.4141 52.6919C92.9844 52.2492 92.7695 51.6763 92.7695 50.9731C92.7695 50.6216 92.8346 50.27 92.9648 49.9185C93.1081 49.5539 93.3099 49.2609 93.5703 49.0396C93.8047 48.8312 94.0195 48.6554 94.2148 48.5122C94.4232 48.356 94.6901 48.1997 95.0156 48.0435C95.3411 47.8742 95.7643 47.6854 96.2852 47.4771C96.806 47.2687 97.4961 46.9888 98.3555 46.6372V45.2114C98.3555 44.5994 98.2057 44.1372 97.9062 43.8247C97.6198 43.5122 97.2031 43.356 96.6562 43.356C96.2005 43.356 95.8164 43.4666 95.5039 43.688C95.2044 43.8963 95.0547 44.1502 95.0547 44.4497C95.0547 44.5669 95.0677 44.7166 95.0938 44.8989C95.1328 45.0812 95.1523 45.231 95.1523 45.3481C95.1523 45.6086 95.0482 45.8299 94.8398 46.0122C94.6445 46.1945 94.4167 46.2856 94.1562 46.2856C93.8958 46.2856 93.668 46.1945 93.4727 46.0122C93.2904 45.8169 93.1992 45.589 93.1992 45.3286C93.1992 45.0422 93.2773 44.7492 93.4336 44.4497C93.6029 44.1502 93.8307 43.8833 94.1172 43.6489C94.4167 43.3885 94.8138 43.1867 95.3086 43.0435C95.8164 42.9002 96.3633 42.8286 96.9492 42.8286C97.6263 42.8286 98.1927 42.9458 98.6484 43.1802C99.1172 43.4015 99.4753 43.714 99.7227 44.1177C99.8789 44.3781 99.9896 44.6841 100.055 45.0356C100.12 45.3742 100.152 45.8364 100.152 46.4224V50.7974ZM98.3555 47.1841C97.6784 47.4315 97.099 47.6724 96.6172 47.9067C96.1484 48.1281 95.7643 48.3625 95.4648 48.6099C95.1784 48.8442 94.9701 49.0981 94.8398 49.3716C94.7096 49.645 94.6445 49.9445 94.6445 50.27V50.3677C94.6445 50.6021 94.6836 50.8299 94.7617 51.0513C94.8398 51.2596 94.944 51.4419 95.0742 51.5981C95.2174 51.7544 95.3802 51.8781 95.5625 51.9692C95.7448 52.0604 95.9336 52.106 96.1289 52.106C96.3633 52.106 96.6237 52.0604 96.9102 51.9692C97.2096 51.8651 97.4896 51.7414 97.75 51.5981C98.0104 51.4549 98.1732 51.3052 98.2383 51.1489C98.3164 50.9927 98.3555 50.7453 98.3555 50.4067V47.1841ZM102.262 43.8833C102.574 43.8052 102.854 43.7271 103.102 43.6489C103.362 43.5708 103.616 43.4927 103.863 43.4146C104.111 43.3364 104.352 43.2583 104.586 43.1802C104.833 43.089 105.1 42.9914 105.387 42.8872L105.543 42.9263V44.606C106.012 44.2544 106.409 43.9679 106.734 43.7466C107.06 43.5122 107.346 43.3364 107.594 43.2192C107.854 43.089 108.089 43.0044 108.297 42.9653C108.505 42.9132 108.733 42.8872 108.98 42.8872C110.191 42.8872 110.979 43.5187 111.344 44.7817C111.969 44.1177 112.568 43.6359 113.141 43.3364C113.727 43.0369 114.345 42.8872 114.996 42.8872C116.728 42.8872 117.594 44.2023 117.594 46.8325V51.4419C117.594 52.2882 117.919 52.731 118.57 52.77L119.137 52.8286V53.1411H114.254V52.8286C114.579 52.7896 114.833 52.744 115.016 52.6919C115.211 52.6268 115.354 52.5422 115.445 52.438C115.549 52.3208 115.615 52.1646 115.641 51.9692C115.68 51.7739 115.699 51.5135 115.699 51.188V46.5005C115.699 46.0317 115.673 45.6411 115.621 45.3286C115.569 45.0161 115.478 44.7687 115.348 44.5864C115.217 44.3911 115.042 44.2544 114.82 44.1763C114.612 44.0851 114.352 44.0396 114.039 44.0396C113.518 44.0396 113.069 44.1502 112.691 44.3716C112.314 44.5799 111.956 44.925 111.617 45.4067V51.0317C111.617 51.3703 111.637 51.6567 111.676 51.8911C111.728 52.1125 111.812 52.2948 111.93 52.438C112.06 52.5682 112.229 52.6659 112.438 52.731C112.646 52.783 112.906 52.8156 113.219 52.8286V53.1411H108.219V52.8286C108.531 52.8026 108.785 52.7635 108.98 52.7114C109.189 52.6593 109.345 52.5747 109.449 52.4575C109.566 52.3403 109.645 52.1841 109.684 51.9888C109.723 51.7935 109.742 51.5396 109.742 51.2271V46.3833C109.742 44.8208 109.26 44.0396 108.297 44.0396C107.88 44.0396 107.444 44.1307 106.988 44.313C106.546 44.4953 106.194 44.7166 105.934 44.9771C105.738 45.1984 105.641 45.3286 105.641 45.3677V51.6567C105.641 52.0994 105.738 52.3989 105.934 52.5552C106.142 52.7114 106.546 52.8026 107.145 52.8286V53.1411H102.203V52.8286C102.516 52.8156 102.77 52.783 102.965 52.731C103.173 52.6789 103.336 52.5942 103.453 52.4771C103.57 52.3599 103.648 52.2036 103.688 52.0083C103.74 51.8 103.766 51.5461 103.766 51.2466V45.6021C103.766 45.0552 103.707 44.6841 103.59 44.4888C103.486 44.2804 103.284 44.1763 102.984 44.1763C102.854 44.1763 102.737 44.1893 102.633 44.2153C102.542 44.2284 102.418 44.2479 102.262 44.2739V43.8833ZM128.648 49.645C128.18 50.869 127.542 51.7935 126.734 52.4185C125.94 53.0435 125.003 53.356 123.922 53.356C123.284 53.356 122.704 53.2388 122.184 53.0044C121.676 52.77 121.24 52.438 120.875 52.0083C120.51 51.5786 120.23 51.0578 120.035 50.4458C119.84 49.8338 119.742 49.1437 119.742 48.3755C119.742 47.5552 119.853 46.8065 120.074 46.1294C120.309 45.4523 120.628 44.8729 121.031 44.3911C121.448 43.8963 121.943 43.5122 122.516 43.2388C123.089 42.9653 123.72 42.8286 124.41 42.8286C124.996 42.8286 125.53 42.9393 126.012 43.1606C126.507 43.382 126.923 43.6945 127.262 44.0981C127.405 44.2804 127.522 44.4627 127.613 44.645C127.717 44.8273 127.802 45.0291 127.867 45.2505C127.945 45.4718 128.01 45.7192 128.062 45.9927C128.115 46.2661 128.167 46.5786 128.219 46.9302H121.363C121.389 47.6463 121.448 48.2388 121.539 48.7075C121.643 49.1632 121.806 49.606 122.027 50.0356C122.665 51.2336 123.603 51.8325 124.84 51.8325C125.556 51.8325 126.174 51.6567 126.695 51.3052C127.229 50.9536 127.763 50.3547 128.297 49.5083L128.648 49.645ZM125.953 46.188C125.81 45.2244 125.576 44.5604 125.25 44.1958C124.938 43.8182 124.443 43.6294 123.766 43.6294C123.076 43.6294 122.535 43.8312 122.145 44.2349C121.767 44.6385 121.52 45.2896 121.402 46.188H125.953Z" fill="#0E0E0E"/>
<path d="M47.3398 120.274L46.2461 124.141H34.2734V123.731C34.6771 123.705 35.0026 123.659 35.25 123.594C35.5104 123.529 35.7057 123.425 35.8359 123.282C35.9792 123.139 36.0768 122.943 36.1289 122.696C36.181 122.448 36.207 122.129 36.207 121.739V111.817C36.207 111.426 36.181 111.107 36.1289 110.86C36.0898 110.612 35.9987 110.417 35.8555 110.274C35.7122 110.131 35.5104 110.027 35.25 109.961C35.0026 109.896 34.6771 109.851 34.2734 109.825V109.375H40.543V109.825C40.1003 109.851 39.7422 109.896 39.4688 109.961C39.1953 110.014 38.987 110.118 38.8438 110.274C38.7005 110.417 38.6029 110.612 38.5508 110.86C38.4987 111.107 38.4727 111.426 38.4727 111.817V122.364C38.4727 122.559 38.4922 122.722 38.5312 122.852C38.5833 122.969 38.681 123.06 38.8242 123.125C38.9674 123.191 39.1628 123.236 39.4102 123.262C39.6576 123.275 39.9896 123.282 40.4062 123.282H41.8906C42.8411 123.282 43.6289 123.171 44.2539 122.95C44.8919 122.728 45.4128 122.39 45.8164 121.934C45.9727 121.752 46.1224 121.524 46.2656 121.25C46.4219 120.977 46.5911 120.652 46.7734 120.274H47.3398ZM55.8164 121.797C55.8164 122.292 55.862 122.637 55.9531 122.833C56.0443 123.015 56.2201 123.106 56.4805 123.106C56.7799 123.106 57.1055 122.969 57.457 122.696V123.262C57.0794 123.679 56.7474 123.965 56.4609 124.122C56.1745 124.278 55.8424 124.356 55.4648 124.356C55.0091 124.356 54.6706 124.232 54.4492 123.985C54.2409 123.724 54.1107 123.295 54.0586 122.696C53.3815 123.282 52.7891 123.705 52.2812 123.965C51.7734 124.226 51.2786 124.356 50.7969 124.356C50.0938 124.356 49.5208 124.135 49.0781 123.692C48.6484 123.249 48.4336 122.676 48.4336 121.973C48.4336 121.622 48.4987 121.27 48.6289 120.918C48.7721 120.554 48.974 120.261 49.2344 120.04C49.4688 119.831 49.6836 119.655 49.8789 119.512C50.0872 119.356 50.3542 119.2 50.6797 119.043C51.0052 118.874 51.4284 118.685 51.9492 118.477C52.4701 118.269 53.1602 117.989 54.0195 117.637V116.211C54.0195 115.599 53.8698 115.137 53.5703 114.825C53.2839 114.512 52.8672 114.356 52.3203 114.356C51.8646 114.356 51.4805 114.467 51.168 114.688C50.8685 114.896 50.7188 115.15 50.7188 115.45C50.7188 115.567 50.7318 115.717 50.7578 115.899C50.7969 116.081 50.8164 116.231 50.8164 116.348C50.8164 116.609 50.7122 116.83 50.5039 117.012C50.3086 117.194 50.0807 117.286 49.8203 117.286C49.5599 117.286 49.332 117.194 49.1367 117.012C48.9544 116.817 48.8633 116.589 48.8633 116.329C48.8633 116.042 48.9414 115.749 49.0977 115.45C49.2669 115.15 49.4948 114.883 49.7812 114.649C50.0807 114.389 50.4779 114.187 50.9727 114.043C51.4805 113.9 52.0273 113.829 52.6133 113.829C53.2904 113.829 53.8568 113.946 54.3125 114.18C54.7812 114.402 55.1393 114.714 55.3867 115.118C55.543 115.378 55.6536 115.684 55.7188 116.036C55.7839 116.374 55.8164 116.836 55.8164 117.422V121.797ZM54.0195 118.184C53.3424 118.431 52.763 118.672 52.2812 118.907C51.8125 119.128 51.4284 119.362 51.1289 119.61C50.8424 119.844 50.6341 120.098 50.5039 120.372C50.3737 120.645 50.3086 120.944 50.3086 121.27V121.368C50.3086 121.602 50.3477 121.83 50.4258 122.051C50.5039 122.26 50.6081 122.442 50.7383 122.598C50.8815 122.754 51.0443 122.878 51.2266 122.969C51.4089 123.06 51.5977 123.106 51.793 123.106C52.0273 123.106 52.2878 123.06 52.5742 122.969C52.8737 122.865 53.1536 122.741 53.4141 122.598C53.6745 122.455 53.8372 122.305 53.9023 122.149C53.9805 121.993 54.0195 121.745 54.0195 121.407V118.184ZM64.1758 117.149C63.9284 116.146 63.6224 115.437 63.2578 115.02C62.8932 114.603 62.3919 114.395 61.7539 114.395C61.2331 114.395 60.8164 114.538 60.5039 114.825C60.1914 115.098 60.0352 115.463 60.0352 115.918C60.0352 116.556 60.3542 117.064 60.9922 117.442L63.3945 118.868C64.0716 119.271 64.5534 119.675 64.8398 120.079C65.1263 120.469 65.2695 120.944 65.2695 121.504C65.2695 121.895 65.1849 122.266 65.0156 122.618C64.8464 122.969 64.6185 123.275 64.332 123.536C64.0586 123.783 63.7331 123.985 63.3555 124.141C62.9779 124.284 62.5742 124.356 62.1445 124.356C61.9102 124.356 61.6562 124.336 61.3828 124.297C61.1094 124.271 60.8099 124.219 60.4844 124.141C60.224 124.076 60.0221 124.03 59.8789 124.004C59.7357 123.978 59.599 123.965 59.4688 123.965C59.3385 123.965 59.2409 123.985 59.1758 124.024C59.1107 124.063 59.0391 124.135 58.9609 124.239H58.668V120.762H59.0195C59.1497 121.335 59.2995 121.817 59.4688 122.208C59.638 122.598 59.8333 122.917 60.0547 123.165C60.276 123.412 60.5365 123.594 60.8359 123.711C61.1354 123.816 61.474 123.868 61.8516 123.868C62.4375 123.868 62.8932 123.724 63.2188 123.438C63.5573 123.152 63.7266 122.761 63.7266 122.266C63.7266 121.602 63.3359 121.049 62.5547 120.606L61.2656 119.864C60.7839 119.59 60.3737 119.33 60.0352 119.083C59.7096 118.835 59.4427 118.588 59.2344 118.34C59.026 118.08 58.8763 117.813 58.7852 117.54C58.694 117.266 58.6484 116.973 58.6484 116.661C58.6484 116.257 58.7201 115.886 58.8633 115.547C59.0195 115.209 59.2279 114.916 59.4883 114.668C59.7617 114.421 60.0872 114.232 60.4648 114.102C60.8424 113.972 61.2591 113.907 61.7148 113.907C62.2357 113.907 62.737 113.998 63.2188 114.18C63.4922 114.297 63.7005 114.356 63.8438 114.356C63.8958 114.356 63.9349 114.343 63.9609 114.317C63.987 114.291 64.0521 114.232 64.1562 114.141L64.1758 114.102H64.4492L64.5273 117.149H64.1758ZM71.8711 114.805H69.6055V121.211C69.6055 121.928 69.6966 122.442 69.8789 122.754C70.0612 123.054 70.3542 123.204 70.7578 123.204C71.0182 123.204 71.2461 123.152 71.4414 123.047C71.6367 122.93 71.8646 122.722 72.125 122.422L72.3984 122.696C71.6953 123.803 70.7969 124.356 69.7031 124.356C68.388 124.356 67.7305 123.412 67.7305 121.524V114.805H66.5586C66.5065 114.792 66.4805 114.747 66.4805 114.668C66.4805 114.538 66.6042 114.395 66.8516 114.239C67.4375 113.9 68.1602 113.106 69.0195 111.856C69.0846 111.752 69.1562 111.654 69.2344 111.563C69.3255 111.459 69.4036 111.348 69.4688 111.231C69.5208 111.231 69.5534 111.25 69.5664 111.29C69.5924 111.329 69.6055 111.407 69.6055 111.524V114.102H71.8711V114.805ZM78.6094 114.883C79.2214 114.714 79.7487 114.558 80.1914 114.415C80.6471 114.271 81.1419 114.096 81.6758 113.887L81.8516 113.926V115.704C82.2292 115.352 82.5612 115.059 82.8477 114.825C83.1341 114.59 83.3945 114.408 83.6289 114.278C83.8763 114.135 84.1107 114.037 84.332 113.985C84.5664 113.92 84.8138 113.887 85.0742 113.887C85.8945 113.887 86.5391 114.18 87.0078 114.766C87.4766 115.352 87.7109 116.172 87.7109 117.227V122.344C87.7109 122.878 87.8021 123.243 87.9844 123.438C88.1667 123.633 88.5247 123.764 89.0586 123.829V124.141H84.4297V123.829C84.7031 123.803 84.931 123.757 85.1133 123.692C85.2956 123.627 85.4388 123.523 85.543 123.379C85.6602 123.236 85.7383 123.047 85.7773 122.813C85.8164 122.579 85.8359 122.286 85.8359 121.934V117.266C85.8359 115.834 85.2956 115.118 84.2148 115.118C84.0326 115.118 83.8568 115.137 83.6875 115.176C83.5182 115.215 83.3424 115.28 83.1602 115.372C82.9909 115.463 82.8021 115.593 82.5938 115.762C82.3984 115.931 82.1641 116.14 81.8906 116.387V122.657C81.8906 123.06 81.9948 123.347 82.2031 123.516C82.4115 123.672 82.8021 123.777 83.375 123.829V124.141H78.6484V123.829C78.9349 123.803 79.1628 123.764 79.332 123.711C79.5143 123.646 79.6576 123.549 79.7617 123.418C79.8659 123.288 79.9375 123.125 79.9766 122.93C80.0156 122.722 80.0352 122.461 80.0352 122.149V116.602C80.0352 116.055 79.9766 115.684 79.8594 115.489C79.7422 115.28 79.5273 115.176 79.2148 115.176C78.9805 115.176 78.7786 115.209 78.6094 115.274V114.883ZM97.6133 121.797C97.6133 122.292 97.6589 122.637 97.75 122.833C97.8411 123.015 98.0169 123.106 98.2773 123.106C98.5768 123.106 98.9023 122.969 99.2539 122.696V123.262C98.8763 123.679 98.5443 123.965 98.2578 124.122C97.9714 124.278 97.6393 124.356 97.2617 124.356C96.806 124.356 96.4674 124.232 96.2461 123.985C96.0378 123.724 95.9076 123.295 95.8555 122.696C95.1784 123.282 94.5859 123.705 94.0781 123.965C93.5703 124.226 93.0755 124.356 92.5938 124.356C91.8906 124.356 91.3177 124.135 90.875 123.692C90.4453 123.249 90.2305 122.676 90.2305 121.973C90.2305 121.622 90.2956 121.27 90.4258 120.918C90.569 120.554 90.7708 120.261 91.0312 120.04C91.2656 119.831 91.4805 119.655 91.6758 119.512C91.8841 119.356 92.151 119.2 92.4766 119.043C92.8021 118.874 93.2253 118.685 93.7461 118.477C94.2669 118.269 94.957 117.989 95.8164 117.637V116.211C95.8164 115.599 95.6667 115.137 95.3672 114.825C95.0807 114.512 94.6641 114.356 94.1172 114.356C93.6615 114.356 93.2773 114.467 92.9648 114.688C92.6654 114.896 92.5156 115.15 92.5156 115.45C92.5156 115.567 92.5286 115.717 92.5547 115.899C92.5938 116.081 92.6133 116.231 92.6133 116.348C92.6133 116.609 92.5091 116.83 92.3008 117.012C92.1055 117.194 91.8776 117.286 91.6172 117.286C91.3568 117.286 91.1289 117.194 90.9336 117.012C90.7513 116.817 90.6602 116.589 90.6602 116.329C90.6602 116.042 90.7383 115.749 90.8945 115.45C91.0638 115.15 91.2917 114.883 91.5781 114.649C91.8776 114.389 92.2747 114.187 92.7695 114.043C93.2773 113.9 93.8242 113.829 94.4102 113.829C95.0872 113.829 95.6536 113.946 96.1094 114.18C96.5781 114.402 96.9362 114.714 97.1836 115.118C97.3398 115.378 97.4505 115.684 97.5156 116.036C97.5807 116.374 97.6133 116.836 97.6133 117.422V121.797ZM95.8164 118.184C95.1393 118.431 94.5599 118.672 94.0781 118.907C93.6094 119.128 93.2253 119.362 92.9258 119.61C92.6393 119.844 92.431 120.098 92.3008 120.372C92.1706 120.645 92.1055 120.944 92.1055 121.27V121.368C92.1055 121.602 92.1445 121.83 92.2227 122.051C92.3008 122.26 92.4049 122.442 92.5352 122.598C92.6784 122.754 92.8411 122.878 93.0234 122.969C93.2057 123.06 93.3945 123.106 93.5898 123.106C93.8242 123.106 94.0846 123.06 94.3711 122.969C94.6706 122.865 94.9505 122.741 95.2109 122.598C95.4714 122.455 95.6341 122.305 95.6992 122.149C95.7773 121.993 95.8164 121.745 95.8164 121.407V118.184ZM99.7227 114.883C100.035 114.805 100.315 114.727 100.562 114.649C100.823 114.571 101.077 114.493 101.324 114.415C101.572 114.336 101.812 114.258 102.047 114.18C102.294 114.089 102.561 113.991 102.848 113.887L103.004 113.926V115.606C103.473 115.254 103.87 114.968 104.195 114.747C104.521 114.512 104.807 114.336 105.055 114.219C105.315 114.089 105.549 114.004 105.758 113.965C105.966 113.913 106.194 113.887 106.441 113.887C107.652 113.887 108.44 114.519 108.805 115.782C109.43 115.118 110.029 114.636 110.602 114.336C111.188 114.037 111.806 113.887 112.457 113.887C114.189 113.887 115.055 115.202 115.055 117.833V122.442C115.055 123.288 115.38 123.731 116.031 123.77L116.598 123.829V124.141H111.715V123.829C112.04 123.79 112.294 123.744 112.477 123.692C112.672 123.627 112.815 123.542 112.906 123.438C113.01 123.321 113.076 123.165 113.102 122.969C113.141 122.774 113.16 122.514 113.16 122.188V117.5C113.16 117.032 113.134 116.641 113.082 116.329C113.03 116.016 112.939 115.769 112.809 115.586C112.678 115.391 112.503 115.254 112.281 115.176C112.073 115.085 111.812 115.04 111.5 115.04C110.979 115.04 110.53 115.15 110.152 115.372C109.775 115.58 109.417 115.925 109.078 116.407V122.032C109.078 122.37 109.098 122.657 109.137 122.891C109.189 123.112 109.273 123.295 109.391 123.438C109.521 123.568 109.69 123.666 109.898 123.731C110.107 123.783 110.367 123.816 110.68 123.829V124.141H105.68V123.829C105.992 123.803 106.246 123.764 106.441 123.711C106.65 123.659 106.806 123.575 106.91 123.458C107.027 123.34 107.105 123.184 107.145 122.989C107.184 122.793 107.203 122.54 107.203 122.227V117.383C107.203 115.821 106.721 115.04 105.758 115.04C105.341 115.04 104.905 115.131 104.449 115.313C104.007 115.495 103.655 115.717 103.395 115.977C103.199 116.198 103.102 116.329 103.102 116.368V122.657C103.102 123.099 103.199 123.399 103.395 123.555C103.603 123.711 104.007 123.803 104.605 123.829V124.141H99.6641V123.829C99.9766 123.816 100.23 123.783 100.426 123.731C100.634 123.679 100.797 123.594 100.914 123.477C101.031 123.36 101.109 123.204 101.148 123.008C101.201 122.8 101.227 122.546 101.227 122.247V116.602C101.227 116.055 101.168 115.684 101.051 115.489C100.947 115.28 100.745 115.176 100.445 115.176C100.315 115.176 100.198 115.189 100.094 115.215C100.003 115.228 99.8789 115.248 99.7227 115.274V114.883ZM126.109 120.645C125.641 121.869 125.003 122.793 124.195 123.418C123.401 124.043 122.464 124.356 121.383 124.356C120.745 124.356 120.165 124.239 119.645 124.004C119.137 123.77 118.701 123.438 118.336 123.008C117.971 122.579 117.691 122.058 117.496 121.446C117.301 120.834 117.203 120.144 117.203 119.375C117.203 118.555 117.314 117.806 117.535 117.129C117.77 116.452 118.089 115.873 118.492 115.391C118.909 114.896 119.404 114.512 119.977 114.239C120.549 113.965 121.181 113.829 121.871 113.829C122.457 113.829 122.991 113.939 123.473 114.161C123.967 114.382 124.384 114.694 124.723 115.098C124.866 115.28 124.983 115.463 125.074 115.645C125.178 115.827 125.263 116.029 125.328 116.25C125.406 116.472 125.471 116.719 125.523 116.993C125.576 117.266 125.628 117.579 125.68 117.93H118.824C118.85 118.646 118.909 119.239 119 119.708C119.104 120.163 119.267 120.606 119.488 121.036C120.126 122.234 121.064 122.833 122.301 122.833C123.017 122.833 123.635 122.657 124.156 122.305C124.69 121.954 125.224 121.355 125.758 120.508L126.109 120.645ZM123.414 117.188C123.271 116.224 123.036 115.56 122.711 115.196C122.398 114.818 121.904 114.629 121.227 114.629C120.536 114.629 119.996 114.831 119.605 115.235C119.228 115.639 118.98 116.29 118.863 117.188H123.414Z" fill="black"/>
<path d="M46.3047 198.141H34.2734V197.731C34.6771 197.705 35.0026 197.659 35.25 197.594C35.5104 197.529 35.7057 197.425 35.8359 197.282C35.9792 197.139 36.0768 196.943 36.1289 196.696C36.181 196.448 36.207 196.129 36.207 195.739V185.817C36.207 185.426 36.181 185.107 36.1289 184.86C36.0898 184.612 35.9987 184.417 35.8555 184.274C35.7122 184.131 35.5104 184.027 35.25 183.961C35.0026 183.896 34.6771 183.851 34.2734 183.825V183.375H46.1094L46.1484 186.579H45.6211C45.5169 186.071 45.3997 185.667 45.2695 185.368C45.1393 185.055 44.9505 184.814 44.7031 184.645C44.4688 184.476 44.1497 184.365 43.7461 184.313C43.3555 184.261 42.8477 184.235 42.2227 184.235H39.2148C38.9154 184.235 38.7135 184.28 38.6094 184.372C38.5182 184.463 38.4727 184.671 38.4727 184.997V189.938H41.8906C42.3464 189.938 42.7174 189.912 43.0039 189.86C43.2904 189.808 43.5182 189.71 43.6875 189.567C43.8698 189.411 44.0065 189.196 44.0977 188.922C44.1888 188.649 44.2734 188.284 44.3516 187.829H44.8789V193.004H44.3516C44.2734 192.536 44.1888 192.165 44.0977 191.891C44.0065 191.605 43.8763 191.39 43.707 191.247C43.5378 191.09 43.3099 190.986 43.0234 190.934C42.737 190.882 42.3594 190.856 41.8906 190.856H38.4727V196.364C38.4727 196.585 38.4857 196.748 38.5117 196.852C38.5378 196.956 38.5833 197.034 38.6484 197.086C38.7526 197.152 39 197.21 39.3906 197.262C39.7943 197.301 40.2695 197.321 40.8164 197.321H41.4414C42.2357 197.321 42.8997 197.282 43.4336 197.204C43.9805 197.125 44.4427 196.976 44.8203 196.754C45.2109 196.533 45.5495 196.234 45.8359 195.856C46.1224 195.478 46.4023 194.984 46.6758 194.372H47.3203L46.3047 198.141ZM53.9609 192.438V193.844H48.4727V192.438H53.9609ZM55.4648 188.883C55.7773 188.805 56.0573 188.727 56.3047 188.649C56.5651 188.571 56.819 188.493 57.0664 188.415C57.3138 188.336 57.5547 188.258 57.7891 188.18C58.0365 188.089 58.3034 187.991 58.5898 187.887L58.7461 187.926V189.606C59.2148 189.254 59.612 188.968 59.9375 188.747C60.263 188.512 60.5495 188.336 60.7969 188.219C61.0573 188.089 61.2917 188.004 61.5 187.965C61.7083 187.913 61.9362 187.887 62.1836 187.887C63.3945 187.887 64.1823 188.519 64.5469 189.782C65.1719 189.118 65.7708 188.636 66.3438 188.336C66.9297 188.037 67.5482 187.887 68.1992 187.887C69.931 187.887 70.7969 189.202 70.7969 191.833V196.442C70.7969 197.288 71.1224 197.731 71.7734 197.77L72.3398 197.829V198.141H67.457V197.829C67.7826 197.79 68.0365 197.744 68.2188 197.692C68.4141 197.627 68.5573 197.542 68.6484 197.438C68.7526 197.321 68.8177 197.165 68.8438 196.969C68.8828 196.774 68.9023 196.514 68.9023 196.188V191.5C68.9023 191.032 68.8763 190.641 68.8242 190.329C68.7721 190.016 68.681 189.769 68.5508 189.586C68.4206 189.391 68.2448 189.254 68.0234 189.176C67.8151 189.085 67.5547 189.04 67.2422 189.04C66.7214 189.04 66.2721 189.15 65.8945 189.372C65.5169 189.58 65.1589 189.925 64.8203 190.407V196.032C64.8203 196.37 64.8398 196.657 64.8789 196.891C64.931 197.112 65.0156 197.295 65.1328 197.438C65.263 197.568 65.4323 197.666 65.6406 197.731C65.849 197.783 66.1094 197.816 66.4219 197.829V198.141H61.4219V197.829C61.7344 197.803 61.9883 197.764 62.1836 197.711C62.3919 197.659 62.5482 197.575 62.6523 197.458C62.7695 197.34 62.8477 197.184 62.8867 196.989C62.9258 196.793 62.9453 196.54 62.9453 196.227V191.383C62.9453 189.821 62.4635 189.04 61.5 189.04C61.0833 189.04 60.6471 189.131 60.1914 189.313C59.7487 189.495 59.3971 189.717 59.1367 189.977C58.9414 190.198 58.8438 190.329 58.8438 190.368V196.657C58.8438 197.099 58.9414 197.399 59.1367 197.555C59.3451 197.711 59.7487 197.803 60.3477 197.829V198.141H55.4062V197.829C55.7188 197.816 55.9727 197.783 56.168 197.731C56.3763 197.679 56.5391 197.594 56.6562 197.477C56.7734 197.36 56.8516 197.204 56.8906 197.008C56.9427 196.8 56.9688 196.546 56.9688 196.247V190.602C56.9688 190.055 56.9102 189.684 56.793 189.489C56.6888 189.28 56.487 189.176 56.1875 189.176C56.0573 189.176 55.9401 189.189 55.8359 189.215C55.7448 189.228 55.6211 189.248 55.4648 189.274V188.883ZM80.6016 195.797C80.6016 196.292 80.6471 196.637 80.7383 196.833C80.8294 197.015 81.0052 197.106 81.2656 197.106C81.5651 197.106 81.8906 196.969 82.2422 196.696V197.262C81.8646 197.679 81.5326 197.965 81.2461 198.122C80.9596 198.278 80.6276 198.356 80.25 198.356C79.7943 198.356 79.4557 198.232 79.2344 197.985C79.026 197.724 78.8958 197.295 78.8438 196.696C78.1667 197.282 77.5742 197.705 77.0664 197.965C76.5586 198.226 76.0638 198.356 75.582 198.356C74.8789 198.356 74.306 198.135 73.8633 197.692C73.4336 197.249 73.2188 196.676 73.2188 195.973C73.2188 195.622 73.2839 195.27 73.4141 194.918C73.5573 194.554 73.7591 194.261 74.0195 194.04C74.2539 193.831 74.4688 193.655 74.6641 193.512C74.8724 193.356 75.1393 193.2 75.4648 193.043C75.7904 192.874 76.2135 192.685 76.7344 192.477C77.2552 192.269 77.9453 191.989 78.8047 191.637V190.211C78.8047 189.599 78.6549 189.137 78.3555 188.825C78.069 188.512 77.6523 188.356 77.1055 188.356C76.6497 188.356 76.2656 188.467 75.9531 188.688C75.6536 188.896 75.5039 189.15 75.5039 189.45C75.5039 189.567 75.5169 189.717 75.543 189.899C75.582 190.081 75.6016 190.231 75.6016 190.348C75.6016 190.609 75.4974 190.83 75.2891 191.012C75.0938 191.194 74.8659 191.286 74.6055 191.286C74.3451 191.286 74.1172 191.194 73.9219 191.012C73.7396 190.817 73.6484 190.589 73.6484 190.329C73.6484 190.042 73.7266 189.749 73.8828 189.45C74.0521 189.15 74.2799 188.883 74.5664 188.649C74.8659 188.389 75.263 188.187 75.7578 188.043C76.2656 187.9 76.8125 187.829 77.3984 187.829C78.0755 187.829 78.6419 187.946 79.0977 188.18C79.5664 188.402 79.9245 188.714 80.1719 189.118C80.3281 189.378 80.4388 189.684 80.5039 190.036C80.569 190.374 80.6016 190.836 80.6016 191.422V195.797ZM78.8047 192.184C78.1276 192.431 77.5482 192.672 77.0664 192.907C76.5977 193.128 76.2135 193.362 75.9141 193.61C75.6276 193.844 75.4193 194.098 75.2891 194.372C75.1589 194.645 75.0938 194.944 75.0938 195.27V195.368C75.0938 195.602 75.1328 195.83 75.2109 196.051C75.2891 196.26 75.3932 196.442 75.5234 196.598C75.6667 196.754 75.8294 196.878 76.0117 196.969C76.194 197.06 76.3828 197.106 76.5781 197.106C76.8125 197.106 77.0729 197.06 77.3594 196.969C77.6589 196.865 77.9388 196.741 78.1992 196.598C78.4596 196.455 78.6224 196.305 78.6875 196.149C78.7656 195.993 78.8047 195.745 78.8047 195.407V192.184ZM86.2852 187.946V195.875C86.2852 196.279 86.2982 196.605 86.3242 196.852C86.3633 197.086 86.4414 197.275 86.5586 197.418C86.6758 197.549 86.8385 197.64 87.0469 197.692C87.2682 197.744 87.5677 197.79 87.9453 197.829V198.141H82.6523V197.829C83.043 197.803 83.349 197.764 83.5703 197.711C83.8047 197.646 83.9805 197.549 84.0977 197.418C84.2279 197.275 84.3125 197.086 84.3516 196.852C84.3906 196.605 84.4102 196.279 84.4102 195.875V190.7C84.4102 190.205 84.3516 189.86 84.2344 189.665C84.1302 189.456 83.9479 189.352 83.6875 189.352C83.5833 189.352 83.4596 189.359 83.3164 189.372C83.1862 189.385 83.0495 189.404 82.9062 189.43L82.75 189.45V189.118L86.1875 187.887L86.2852 187.946ZM85.1719 182.907C85.4844 182.907 85.7513 183.024 85.9727 183.258C86.194 183.48 86.3047 183.747 86.3047 184.059C86.3047 184.385 86.194 184.658 85.9727 184.879C85.7643 185.088 85.4909 185.192 85.1523 185.192C84.8268 185.192 84.5599 185.088 84.3516 184.879C84.1432 184.658 84.0391 184.385 84.0391 184.059C84.0391 183.747 84.1497 183.48 84.3711 183.258C84.5924 183.024 84.8594 182.907 85.1719 182.907ZM88.9219 183.883C89.3125 183.792 89.6576 183.714 89.957 183.649C90.2695 183.571 90.5625 183.493 90.8359 183.415C91.1224 183.336 91.3958 183.258 91.6562 183.18C91.9167 183.102 92.1901 183.011 92.4766 182.907L92.5742 182.965V196.266C92.5742 196.579 92.5938 196.833 92.6328 197.028C92.6719 197.21 92.75 197.36 92.8672 197.477C92.9844 197.581 93.1471 197.659 93.3555 197.711C93.5768 197.764 93.8633 197.803 94.2148 197.829V198.141H88.9805V197.829C89.332 197.79 89.6185 197.744 89.8398 197.692C90.0612 197.627 90.237 197.536 90.3672 197.418C90.4974 197.288 90.582 197.125 90.6211 196.93C90.6732 196.735 90.6992 196.487 90.6992 196.188V185.563C90.6992 185.042 90.6276 184.691 90.4844 184.508C90.3542 184.313 90.1133 184.215 89.7617 184.215C89.6576 184.215 89.5404 184.222 89.4102 184.235C89.293 184.235 89.1758 184.241 89.0586 184.254H88.9219V183.883Z" fill="black"/>
<g filter="url(#filter0_d_145_4715)">
<rect x="34.0752" y="493.719" width="26.004" height="20.2013" fill="#FAF4DE"/>
<rect x="34.5752" y="494.219" width="25.004" height="19.2013" stroke="black"/>
</g>
<rect x="34.5752" y="205.745" width="222.275" height="22.4335" fill="#FAF4DE" stroke="black"/>
<rect x="34.5752" y="450.584" width="616.819" height="13.5449" rx="6.77246" fill="#FAF4DE" stroke="black"/>
<g filter="url(#filter1_d_145_4715)">
<rect x="34.0752" y="62.2197" width="223.275" height="23.4335" fill="#FAF4DE"/>
<rect x="34.5752" y="62.7197" width="222.275" height="22.4335" stroke="black"/>
</g>
<rect x="34.5752" y="133.021" width="222.275" height="22.4335" fill="#FAF4DE" stroke="black"/>
<rect x="34.5752" y="286.55" width="616.819" height="92.7339" fill="#FAF4DE" stroke="black"/>
<path d="M49.8564 428.025H44.1729V427.615C44.3682 427.615 44.5309 427.615 44.6611 427.615C44.7913 427.602 44.8955 427.589 44.9736 427.576C45.0648 427.55 45.1429 427.531 45.208 427.518C45.2731 427.492 45.3382 427.459 45.4033 427.42C45.5075 427.355 45.5856 427.277 45.6377 427.186C45.7028 427.081 45.7354 426.977 45.7354 426.873C45.7354 426.508 45.5921 426.001 45.3057 425.35L44.3682 423.221H38.5479L37.5127 425.818C37.4606 425.962 37.415 426.111 37.376 426.268C37.3499 426.411 37.3369 426.554 37.3369 426.697C37.3369 426.997 37.4541 427.225 37.6885 427.381C37.9229 427.537 38.3135 427.615 38.8604 427.615V428.025H34.4268V427.615C34.7002 427.602 34.9346 427.557 35.1299 427.479C35.3252 427.4 35.5205 427.238 35.7158 426.99C35.9111 426.73 36.1195 426.365 36.3408 425.896C36.5752 425.415 36.8682 424.764 37.2197 423.943L41.8486 413.006H42.2783L47.8447 425.662C48.027 426.079 48.1833 426.411 48.3135 426.658C48.4567 426.906 48.5999 427.101 48.7432 427.244C48.8864 427.374 49.0426 427.465 49.2119 427.518C49.3942 427.57 49.609 427.602 49.8564 427.615V428.025ZM44.0752 422.322L41.4971 416.17L38.9189 422.322H44.0752ZM58.6455 419.354C58.7887 419.731 58.8864 420.063 58.9385 420.35C59.0036 420.623 59.0361 420.929 59.0361 421.268C59.0361 421.736 58.945 422.179 58.7627 422.596C58.5804 423.012 58.333 423.383 58.0205 423.709C57.708 424.021 57.3434 424.275 56.9268 424.471C56.5101 424.653 56.0609 424.744 55.5791 424.744C55.514 424.744 55.4033 424.738 55.2471 424.725C55.1038 424.712 54.9346 424.692 54.7393 424.666L54.3096 424.607C54.1533 424.646 53.9971 424.725 53.8408 424.842C53.6846 424.946 53.5413 425.07 53.4111 425.213C53.2809 425.343 53.1702 425.48 53.0791 425.623C53.001 425.766 52.9619 425.896 52.9619 426.014C52.9619 426.183 53.0986 426.32 53.3721 426.424C53.6585 426.515 54.1077 426.574 54.7197 426.6L57.5908 426.736C58.4111 426.775 59.0622 427.01 59.5439 427.439C60.0257 427.856 60.2666 428.41 60.2666 429.1C60.2666 429.751 60.0713 430.311 59.6807 430.779C59.29 431.261 58.8018 431.658 58.2158 431.971C57.6299 432.283 56.9984 432.511 56.3213 432.654C55.6572 432.811 55.0452 432.889 54.4854 432.889C53.9515 432.889 53.4502 432.83 52.9814 432.713C52.5127 432.609 52.1025 432.459 51.751 432.264C51.3994 432.068 51.1195 431.84 50.9111 431.58C50.7158 431.32 50.6182 431.04 50.6182 430.74C50.6182 430.324 50.7809 429.907 51.1064 429.49C51.445 429.074 52.0179 428.579 52.8252 428.006C52.3564 427.785 52.0374 427.596 51.8682 427.439C51.7119 427.27 51.6338 427.062 51.6338 426.814C51.6338 426.593 51.7119 426.372 51.8682 426.15C52.0374 425.916 52.3044 425.63 52.6689 425.291L53.626 424.393C52.8708 424.028 52.3304 423.618 52.0049 423.162C51.6924 422.693 51.5361 422.107 51.5361 421.404C51.5361 420.896 51.6338 420.421 51.8291 419.979C52.0244 419.523 52.2848 419.132 52.6104 418.807C52.9489 418.468 53.346 418.201 53.8018 418.006C54.2575 417.811 54.7393 417.713 55.2471 417.713C55.846 417.713 56.445 417.824 57.0439 418.045L57.5518 418.24C57.7731 418.318 57.9749 418.39 58.1572 418.455C58.3525 418.507 58.5609 418.533 58.7822 418.533H60.501V419.354H58.6455ZM53.2939 428.084C53.0726 428.344 52.8903 428.566 52.7471 428.748C52.6038 428.93 52.4932 429.093 52.415 429.236C52.3369 429.38 52.2783 429.51 52.2393 429.627C52.2132 429.744 52.2002 429.868 52.2002 429.998C52.2002 430.493 52.4867 430.883 53.0596 431.17C53.6455 431.469 54.4333 431.619 55.4229 431.619C56.0609 431.619 56.6403 431.567 57.1611 431.463C57.682 431.359 58.1247 431.209 58.4893 431.014C58.8669 430.831 59.1533 430.604 59.3486 430.33C59.557 430.07 59.6611 429.777 59.6611 429.451C59.6611 429.048 59.4528 428.768 59.0361 428.611C58.6195 428.455 57.9098 428.377 56.9072 428.377C56.6338 428.377 56.3213 428.364 55.9697 428.338C55.6312 428.325 55.2926 428.305 54.9541 428.279C54.6286 428.253 54.3161 428.221 54.0166 428.182C53.7301 428.156 53.4893 428.123 53.2939 428.084ZM53.3916 420.564C53.3916 421.098 53.4437 421.593 53.5479 422.049C53.665 422.492 53.8213 422.876 54.0166 423.201C54.2249 423.514 54.4658 423.761 54.7393 423.943C55.0257 424.113 55.3447 424.197 55.6963 424.197C56.1911 424.197 56.5882 424.015 56.8877 423.65C57.1872 423.273 57.3369 422.771 57.3369 422.146C57.3369 421.691 57.2783 421.229 57.1611 420.76C57.057 420.291 56.9007 419.861 56.6924 419.471C56.5101 419.119 56.2757 418.846 55.9893 418.65C55.7028 418.442 55.3903 418.338 55.0518 418.338C54.5309 418.338 54.1208 418.533 53.8213 418.924C53.5348 419.314 53.3916 419.835 53.3916 420.486V420.564ZM70.6182 424.529C70.1494 425.753 69.5114 426.678 68.7041 427.303C67.9098 427.928 66.9723 428.24 65.8916 428.24C65.2536 428.24 64.6742 428.123 64.1533 427.889C63.6455 427.654 63.2093 427.322 62.8447 426.893C62.4801 426.463 62.2002 425.942 62.0049 425.33C61.8096 424.718 61.7119 424.028 61.7119 423.26C61.7119 422.439 61.8226 421.691 62.0439 421.014C62.2783 420.337 62.5973 419.757 63.001 419.275C63.4176 418.781 63.9124 418.396 64.4854 418.123C65.0583 417.85 65.6898 417.713 66.3799 417.713C66.9658 417.713 67.4997 417.824 67.9814 418.045C68.4762 418.266 68.8929 418.579 69.2314 418.982C69.3747 419.165 69.4919 419.347 69.583 419.529C69.6872 419.712 69.7718 419.913 69.8369 420.135C69.915 420.356 69.9801 420.604 70.0322 420.877C70.0843 421.15 70.1364 421.463 70.1885 421.814H63.333C63.359 422.531 63.4176 423.123 63.5088 423.592C63.613 424.048 63.7757 424.49 63.9971 424.92C64.6351 426.118 65.5726 426.717 66.8096 426.717C67.5257 426.717 68.1442 426.541 68.665 426.189C69.1989 425.838 69.7327 425.239 70.2666 424.393L70.6182 424.529ZM67.9229 421.072C67.7796 420.109 67.5452 419.445 67.2197 419.08C66.9072 418.702 66.4124 418.514 65.7354 418.514C65.0452 418.514 64.5049 418.715 64.1143 419.119C63.7367 419.523 63.4893 420.174 63.3721 421.072H67.9229Z" fill="#111010"/>
<ellipse cx="313.393" cy="457.357" rx="19.2788" ry="17.7771" fill="#BAD1FA"/>
<defs>
<filter id="filter0_d_145_4715" x="30.0752" y="493.719" width="34.0039" height="28.2012" filterUnits="userSpaceOnUse" color-interpolation-filters="sRGB">
<feFlood flood-opacity="0" result="BackgroundImageFix"/>
<feColorMatrix in="SourceAlpha" type="matrix" values="0 0 0 0 0 0 0 0 0 0 0 0 0 0 0 0 0 0 127 0" result="hardAlpha"/>
<feOffset dy="4"/>
<feGaussianBlur stdDeviation="2"/>
<feComposite in2="hardAlpha" operator="out"/>
<feColorMatrix type="matrix" values="0 0 0 0 0 0 0 0 0 0 0 0 0 0 0 0 0 0 0.25 0"/>
<feBlend mode="normal" in2="BackgroundImageFix" result="effect1_dropShadow_145_4715"/>
<feBlend mode="normal" in="SourceGraphic" in2="effect1_dropShadow_145_4715" result="shape"/>
</filter>
<filter id="filter1_d_145_4715" x="30.0752" y="62.2197" width="231.275" height="31.4336" filterUnits="userSpaceOnUse" color-interpolation-filters="sRGB">
<feFlood flood-opacity="0" result="BackgroundImageFix"/>
<feColorMatrix in="SourceAlpha" type="matrix" values="0 0 0 0 0 0 0 0 0 0 0 0 0 0 0 0 0 0 127 0" result="hardAlpha"/>
<feOffset dy="4"/>
<feGaussianBlur stdDeviation="2"/>
<feComposite in2="hardAlpha" operator="out"/>
<feColorMatrix type="matrix" values="0 0 0 0 0 0 0 0 0 0 0 0 0 0 0 0 0 0 0.25 0"/>
<feBlend mode="normal" in2="BackgroundImageFix" result="effect1_dropShadow_145_4715"/>
<feBlend mode="normal" in="SourceGraphic" in2="effect1_dropShadow_145_4715" result="shape"/>
</filter>
</defs>
</svg>
